<svg width="535" height="535" viewBox="0 0 535 535" fill="none" xmlns="http://www.w3.org/2000/svg">
<path d="M375.171 302.409C360.469 347.802 317.865 380.632 267.587 380.673L226.434 457.837L267.587 535C386.437 534.959 487.149 457.405 521.954 350.147L435.872 365.436L375.161 302.409H375.171Z" fill="#E2725B"/>
<path d="M200.918 175.984C219.602 162.372 242.606 154.327 267.494 154.327C292.381 154.327 315.293 162.331 333.956 175.902L412.62 137.66L424.678 51.0616C380.551 18.9616 326.24 0 267.494 0C208.748 0 154.364 18.9822 110.217 51.1233L188.86 89.3553L200.918 175.974V175.984Z" fill="#EFEDE4"/>
<path d="M424.679 51.062L412.621 137.66L333.957 175.902C362.26 196.479 380.666 229.834 380.666 267.5C380.666 279.682 378.732 291.411 375.172 302.409L435.883 365.436L521.965 350.147C530.412 324.118 535 296.349 535 267.5C535 178.515 491.532 99.6853 424.689 51.062H424.679Z" fill="#84E6B2"/>
<path d="M159.869 302.563C156.279 291.524 154.324 279.744 154.324 267.5C154.324 229.886 172.678 196.561 200.92 175.984L188.862 89.3659L110.218 51.134C43.4268 99.7676 0 178.557 0 267.5C0 296.38 4.58857 324.169 13.0558 350.23L73.7052 287.264L159.859 302.574L159.869 302.563Z" fill="#435861"/>
<path d="M267.586 380.673C267.586 380.673 267.524 380.673 267.493 380.673C217.225 380.673 174.631 347.904 159.868 302.563L73.7138 287.254L13.0645 350.219C47.9108 457.466 148.643 534.99 267.504 534.99C267.535 534.99 267.565 534.99 267.596 534.99L226.443 457.826L267.596 380.663L267.586 380.673Z" fill="#BBC0B6"/>
<path d="M259.814 82.8604H261.096C261.117 83.3239 261.213 83.6885 261.385 83.9541C261.708 84.4645 262.236 84.7197 262.971 84.7197C263.57 84.7197 264.067 84.5505 264.463 84.2119C264.838 83.8942 265.025 83.4619 265.025 82.915C265.025 82.4463 264.872 82.0739 264.564 81.7979C264.283 81.5426 263.718 81.2718 262.869 80.9854C262.088 80.7197 261.557 80.5036 261.275 80.3369C260.343 79.7848 259.877 78.9671 259.877 77.8838C259.877 76.9359 260.205 76.1755 260.861 75.6025C261.429 75.1077 262.161 74.8604 263.057 74.8604C264.291 74.8604 265.197 75.3239 265.775 76.251C266.062 76.7145 266.213 77.2666 266.229 77.9072H264.885C264.869 77.4281 264.783 77.0635 264.627 76.8135C264.481 76.5791 264.268 76.3942 263.986 76.2588C263.705 76.1234 263.393 76.0557 263.049 76.0557C262.486 76.0557 262.041 76.2301 261.713 76.5791C261.395 76.9072 261.236 77.3109 261.236 77.79C261.236 78.3317 261.439 78.7458 261.846 79.0322C262.117 79.2249 262.689 79.4749 263.564 79.7822C264.314 80.0426 264.851 80.2848 265.174 80.5088C265.986 81.0661 266.393 81.8421 266.393 82.8369C266.393 83.3317 266.286 83.7979 266.072 84.2354C265.859 84.6676 265.559 85.0218 265.174 85.2979C264.611 85.7093 263.898 85.915 263.033 85.915C261.684 85.915 260.734 85.4333 260.182 84.4697C259.937 84.0479 259.814 83.5843 259.814 83.0791C259.814 83.0322 259.814 82.9593 259.814 82.8604ZM273.26 83.9697L274.01 84.8057C273.645 85.1442 273.299 85.389 272.971 85.54C272.455 85.7744 271.9 85.8916 271.307 85.8916C270.244 85.8916 269.367 85.5218 268.674 84.7822C268.012 84.0843 267.682 83.1729 267.682 82.0479C267.682 81.4124 267.799 80.8239 268.033 80.2822C268.273 79.7406 268.606 79.2979 269.033 78.9541C269.684 78.4281 270.46 78.165 271.361 78.165C272.398 78.165 273.296 78.5348 274.057 79.2744L273.26 80.0557C272.708 79.54 272.083 79.2822 271.385 79.2822C270.614 79.2822 269.994 79.5687 269.525 80.1416C269.13 80.626 268.932 81.2458 268.932 82.001C268.932 82.9281 269.205 83.6442 269.752 84.1494C270.205 84.5661 270.747 84.7744 271.377 84.7744C272.075 84.7744 272.702 84.5062 273.26 83.9697ZM276.807 78.3447V85.7197H275.588V78.3447H276.807ZM276.221 75.4854C276.445 75.4854 276.632 75.5713 276.783 75.7432C276.919 75.8942 276.986 76.0687 276.986 76.2666C276.986 76.501 276.898 76.6989 276.721 76.8604C276.58 76.9854 276.408 77.0479 276.205 77.0479C275.965 77.0479 275.773 76.9645 275.627 76.7979C275.492 76.6468 275.424 76.4671 275.424 76.2588C275.424 76.0296 275.512 75.8343 275.689 75.6729C275.825 75.5479 276.002 75.4854 276.221 75.4854ZM286.104 82.4229H279.955C280.018 82.9697 280.179 83.4229 280.439 83.7822C280.934 84.4489 281.596 84.7822 282.424 84.7822C282.965 84.7822 283.481 84.6051 283.971 84.251C284.247 84.0531 284.468 83.8057 284.635 83.5088L285.705 83.9072C285.476 84.376 285.161 84.7666 284.76 85.0791C284.062 85.626 283.283 85.8994 282.424 85.8994C281.231 85.8994 280.27 85.4697 279.541 84.6104C278.958 83.9281 278.666 83.0765 278.666 82.0557C278.666 80.9098 279.018 79.9749 279.721 79.251C280.419 78.5322 281.307 78.1729 282.385 78.1729C283.645 78.1729 284.635 78.6468 285.354 79.5947C285.869 80.277 286.127 81.0557 286.127 81.9307C286.127 82.04 286.119 82.2041 286.104 82.4229ZM284.83 81.5322C284.783 81.0166 284.64 80.5947 284.4 80.2666C284.176 79.9541 283.885 79.7093 283.525 79.5322C283.166 79.3499 282.783 79.2588 282.377 79.2588C281.971 79.2588 281.593 79.3499 281.244 79.5322C280.895 79.7145 280.614 79.9671 280.4 80.29C280.202 80.5921 280.062 81.0062 279.979 81.5322H284.83ZM287.9 78.3447H289.119V79.3838C289.395 79.014 289.669 78.7406 289.939 78.5635C290.346 78.3031 290.801 78.1729 291.307 78.1729C291.999 78.1729 292.567 78.3786 293.01 78.79C293.296 79.0557 293.479 79.3708 293.557 79.7354C293.614 80.0114 293.643 80.3499 293.643 80.751V85.7197H292.416V81.0166C292.416 80.4124 292.327 79.9906 292.15 79.751C291.911 79.4229 291.528 79.2588 291.002 79.2588C290.45 79.2588 289.981 79.4671 289.596 79.8838C289.278 80.2275 289.119 80.6729 289.119 81.2197V85.7197H287.9V78.3447ZM297.338 79.415V84.2119C297.338 84.3838 297.372 84.4984 297.439 84.5557C297.507 84.6234 297.656 84.6572 297.885 84.6572H298.447V85.7197H297.322C296.89 85.7145 296.583 85.6234 296.4 85.4463C296.213 85.2744 296.117 84.9801 296.111 84.5635V79.415H295.088V78.3369H296.111V76.0244H297.338V78.3369H298.447V79.415H297.338ZM301.416 78.3447V85.7197H300.197V78.3447H301.416ZM300.83 75.4854C301.054 75.4854 301.242 75.5713 301.393 75.7432C301.528 75.8942 301.596 76.0687 301.596 76.2666C301.596 76.501 301.507 76.6989 301.33 76.8604C301.189 76.9854 301.018 77.0479 300.814 77.0479C300.575 77.0479 300.382 76.9645 300.236 76.7979C300.101 76.6468 300.033 76.4671 300.033 76.2588C300.033 76.0296 300.122 75.8343 300.299 75.6729C300.434 75.5479 300.611 75.4854 300.83 75.4854ZM308.486 80.3525H307.275C307.275 80.0973 307.236 79.9046 307.158 79.7744C306.919 79.3682 306.489 79.165 305.869 79.165C305.447 79.165 305.117 79.264 304.877 79.4619C304.648 79.6494 304.533 79.8942 304.533 80.1963C304.533 80.6077 304.731 80.915 305.127 81.1182C305.299 81.2015 305.65 81.3161 306.182 81.4619C307.062 81.7015 307.663 81.9827 307.986 82.3057C308.377 82.6963 308.572 83.1781 308.572 83.751C308.572 84.4541 308.278 85.014 307.689 85.4307C307.257 85.738 306.679 85.8916 305.955 85.8916C304.856 85.8916 304.072 85.5531 303.604 84.876C303.38 84.5479 303.244 84.1312 303.197 83.626H304.4C304.432 83.9541 304.531 84.2145 304.697 84.4072C304.989 84.7354 305.408 84.8994 305.955 84.8994C306.372 84.8994 306.7 84.8031 306.939 84.6104C307.2 84.3968 307.33 84.1338 307.33 83.8213C307.33 83.488 307.179 83.2093 306.877 82.9854C306.684 82.8447 306.275 82.6911 305.65 82.5244C304.869 82.3213 304.296 82.0557 303.932 81.7275C303.525 81.3525 303.322 80.8786 303.322 80.3057C303.322 79.5869 303.619 79.027 304.213 78.626C304.666 78.3239 305.234 78.1729 305.916 78.1729C306.869 78.1729 307.577 78.4645 308.041 79.0479C308.312 79.3916 308.46 79.8265 308.486 80.3525ZM311.744 79.415V84.2119C311.744 84.3838 311.778 84.4984 311.846 84.5557C311.913 84.6234 312.062 84.6572 312.291 84.6572H312.854V85.7197H311.729C311.296 85.7145 310.989 85.6234 310.807 85.4463C310.619 85.2744 310.523 84.9801 310.518 84.5635V79.415H309.494V78.3369H310.518V76.0244H311.744V78.3369H312.854V79.415H311.744ZM319.221 80.3525H318.01C318.01 80.0973 317.971 79.9046 317.893 79.7744C317.653 79.3682 317.223 79.165 316.604 79.165C316.182 79.165 315.851 79.264 315.611 79.4619C315.382 79.6494 315.268 79.8942 315.268 80.1963C315.268 80.6077 315.465 80.915 315.861 81.1182C316.033 81.2015 316.385 81.3161 316.916 81.4619C317.796 81.7015 318.398 81.9827 318.721 82.3057C319.111 82.6963 319.307 83.1781 319.307 83.751C319.307 84.4541 319.012 85.014 318.424 85.4307C317.992 85.738 317.413 85.8916 316.689 85.8916C315.59 85.8916 314.807 85.5531 314.338 84.876C314.114 84.5479 313.979 84.1312 313.932 83.626H315.135C315.166 83.9541 315.265 84.2145 315.432 84.4072C315.723 84.7354 316.143 84.8994 316.689 84.8994C317.106 84.8994 317.434 84.8031 317.674 84.6104C317.934 84.3968 318.064 84.1338 318.064 83.8213C318.064 83.488 317.913 83.2093 317.611 82.9854C317.419 82.8447 317.01 82.6911 316.385 82.5244C315.604 82.3213 315.031 82.0557 314.666 81.7275C314.26 81.3525 314.057 80.8786 314.057 80.3057C314.057 79.5869 314.354 79.027 314.947 78.626C315.4 78.3239 315.968 78.1729 316.65 78.1729C317.604 78.1729 318.312 78.4645 318.775 79.0479C319.046 79.3916 319.195 79.8265 319.221 80.3525Z" fill="black"/>
<path d="M414.025 224.586V228.148H418.236V229.297H414.025V232.953H418.236V234.101H412.682V223.437H418.236V224.586H414.025ZM425.26 232.351L426.01 233.187C425.645 233.526 425.299 233.771 424.971 233.922C424.455 234.156 423.9 234.273 423.307 234.273C422.244 234.273 421.367 233.903 420.674 233.164C420.012 232.466 419.682 231.554 419.682 230.429C419.682 229.794 419.799 229.205 420.033 228.664C420.273 228.122 420.606 227.679 421.033 227.336C421.684 226.81 422.46 226.547 423.361 226.547C424.398 226.547 425.296 226.916 426.057 227.656L425.26 228.437C424.708 227.922 424.083 227.664 423.385 227.664C422.614 227.664 421.994 227.95 421.525 228.523C421.13 229.008 420.932 229.627 420.932 230.383C420.932 231.31 421.205 232.026 421.752 232.531C422.205 232.948 422.747 233.156 423.377 233.156C424.075 233.156 424.702 232.888 425.26 232.351ZM430.799 226.554C431.95 226.554 432.895 226.989 433.635 227.859C434.213 228.541 434.502 229.38 434.502 230.375C434.502 231.552 434.104 232.515 433.307 233.265C432.593 233.937 431.731 234.273 430.721 234.273C430.143 234.273 429.596 234.156 429.08 233.922C428.57 233.682 428.143 233.351 427.799 232.929C427.262 232.273 426.994 231.419 426.994 230.367C426.994 229.164 427.377 228.216 428.143 227.523C428.856 226.877 429.742 226.554 430.799 226.554ZM430.697 227.672C429.942 227.672 429.325 227.958 428.846 228.531C428.439 229.005 428.236 229.646 428.236 230.453C428.236 231.276 428.473 231.932 428.947 232.422C429.432 232.911 430.033 233.156 430.752 233.156C431.58 233.156 432.231 232.844 432.705 232.219C433.075 231.734 433.26 231.114 433.26 230.359C433.26 229.521 433.012 228.859 432.518 228.375C432.038 227.906 431.432 227.672 430.697 227.672ZM440.971 228.734H439.76C439.76 228.479 439.721 228.286 439.643 228.156C439.403 227.75 438.973 227.547 438.354 227.547C437.932 227.547 437.601 227.646 437.361 227.844C437.132 228.031 437.018 228.276 437.018 228.578C437.018 228.989 437.215 229.297 437.611 229.5C437.783 229.583 438.135 229.698 438.666 229.844C439.546 230.083 440.148 230.364 440.471 230.687C440.861 231.078 441.057 231.56 441.057 232.133C441.057 232.836 440.762 233.396 440.174 233.812C439.742 234.12 439.163 234.273 438.439 234.273C437.34 234.273 436.557 233.935 436.088 233.258C435.864 232.929 435.729 232.513 435.682 232.008H436.885C436.916 232.336 437.015 232.596 437.182 232.789C437.473 233.117 437.893 233.281 438.439 233.281C438.856 233.281 439.184 233.185 439.424 232.992C439.684 232.778 439.814 232.515 439.814 232.203C439.814 231.87 439.663 231.591 439.361 231.367C439.169 231.226 438.76 231.073 438.135 230.906C437.354 230.703 436.781 230.437 436.416 230.109C436.01 229.734 435.807 229.26 435.807 228.687C435.807 227.969 436.104 227.409 436.697 227.008C437.15 226.705 437.718 226.554 438.4 226.554C439.354 226.554 440.062 226.846 440.525 227.429C440.796 227.773 440.945 228.208 440.971 228.734ZM445.088 232.195L447.291 226.726H448.619L444.213 237.664H442.893L444.432 233.867L441.807 226.726H443.104L445.088 232.195ZM454.518 228.734H453.307C453.307 228.479 453.268 228.286 453.189 228.156C452.95 227.75 452.52 227.547 451.9 227.547C451.479 227.547 451.148 227.646 450.908 227.844C450.679 228.031 450.564 228.276 450.564 228.578C450.564 228.989 450.762 229.297 451.158 229.5C451.33 229.583 451.682 229.698 452.213 229.844C453.093 230.083 453.695 230.364 454.018 230.687C454.408 231.078 454.604 231.56 454.604 232.133C454.604 232.836 454.309 233.396 453.721 233.812C453.288 234.12 452.71 234.273 451.986 234.273C450.887 234.273 450.104 233.935 449.635 233.258C449.411 232.929 449.275 232.513 449.229 232.008H450.432C450.463 232.336 450.562 232.596 450.729 232.789C451.02 233.117 451.439 233.281 451.986 233.281C452.403 233.281 452.731 233.185 452.971 232.992C453.231 232.778 453.361 232.515 453.361 232.203C453.361 231.87 453.21 231.591 452.908 231.367C452.715 231.226 452.307 231.073 451.682 230.906C450.9 230.703 450.327 230.437 449.963 230.109C449.557 229.734 449.354 229.26 449.354 228.687C449.354 227.969 449.65 227.409 450.244 227.008C450.697 226.705 451.265 226.554 451.947 226.554C452.9 226.554 453.609 226.846 454.072 227.429C454.343 227.773 454.492 228.208 454.518 228.734ZM457.775 227.797V232.594C457.775 232.765 457.809 232.88 457.877 232.937C457.945 233.005 458.093 233.039 458.322 233.039H458.885V234.101H457.76C457.327 234.096 457.02 234.005 456.838 233.828C456.65 233.656 456.554 233.362 456.549 232.945V227.797H455.525V226.719H456.549V224.406H457.775V226.719H458.885V227.797H457.775ZM467.322 230.804H461.174C461.236 231.351 461.398 231.804 461.658 232.164C462.153 232.83 462.814 233.164 463.643 233.164C464.184 233.164 464.7 232.987 465.189 232.633C465.465 232.435 465.687 232.187 465.854 231.89L466.924 232.289C466.695 232.758 466.38 233.148 465.979 233.461C465.281 234.008 464.502 234.281 463.643 234.281C462.45 234.281 461.489 233.851 460.76 232.992C460.176 232.31 459.885 231.458 459.885 230.437C459.885 229.291 460.236 228.357 460.939 227.633C461.637 226.914 462.525 226.554 463.604 226.554C464.864 226.554 465.854 227.028 466.572 227.976C467.088 228.659 467.346 229.437 467.346 230.312C467.346 230.422 467.338 230.586 467.322 230.804ZM466.049 229.914C466.002 229.398 465.859 228.976 465.619 228.648C465.395 228.336 465.104 228.091 464.744 227.914C464.385 227.732 464.002 227.64 463.596 227.64C463.189 227.64 462.812 227.732 462.463 227.914C462.114 228.096 461.833 228.349 461.619 228.672C461.421 228.974 461.281 229.388 461.197 229.914H466.049ZM469.127 226.726H470.346V227.75C470.59 227.38 470.846 227.107 471.111 226.929C471.497 226.674 471.937 226.547 472.432 226.547C472.963 226.547 473.416 226.687 473.791 226.969C474.046 227.161 474.255 227.469 474.416 227.89C474.666 227.458 474.945 227.146 475.252 226.953C475.669 226.687 476.169 226.554 476.752 226.554C477.601 226.554 478.226 226.812 478.627 227.328C478.846 227.614 478.976 227.927 479.018 228.265C479.054 228.557 479.072 228.929 479.072 229.383V234.101H477.846V229.672C477.846 229.156 477.827 228.82 477.791 228.664C477.64 227.982 477.158 227.64 476.346 227.64C475.783 227.64 475.356 227.844 475.064 228.25C474.825 228.588 474.705 229.062 474.705 229.672V234.101H473.479V229.687C473.479 229.041 473.4 228.567 473.244 228.265C473.02 227.844 472.622 227.633 472.049 227.633C471.518 227.633 471.093 227.825 470.775 228.211C470.489 228.565 470.346 229.057 470.346 229.687V234.101H469.127V226.726ZM414.15 250.023V254.101H412.807V243.437H415.658C416.924 243.437 417.88 243.708 418.525 244.25C419.218 244.828 419.564 245.653 419.564 246.726C419.564 247.284 419.45 247.799 419.221 248.273C418.997 248.742 418.682 249.12 418.275 249.406C417.692 249.817 416.869 250.023 415.807 250.023H414.15ZM414.15 248.875H415.541C416.077 248.875 416.523 248.812 416.877 248.687C417.299 248.541 417.632 248.281 417.877 247.906C418.101 247.567 418.213 247.177 418.213 246.734C418.213 246.088 417.986 245.57 417.533 245.179C417.075 244.789 416.354 244.594 415.369 244.594H414.15V248.875ZM421.197 246.726H422.424V247.969C422.617 247.515 422.84 247.19 423.096 246.992C423.486 246.695 423.95 246.547 424.486 246.547C424.549 246.547 424.645 246.549 424.775 246.554V247.781C424.635 247.771 424.518 247.765 424.424 247.765C423.757 247.765 423.231 248.047 422.846 248.609C422.658 248.89 422.538 249.182 422.486 249.484C422.445 249.729 422.424 250.018 422.424 250.351V254.101H421.197V246.726ZM429.205 246.554C430.356 246.554 431.301 246.989 432.041 247.859C432.619 248.541 432.908 249.38 432.908 250.375C432.908 251.552 432.51 252.515 431.713 253.265C430.999 253.937 430.137 254.273 429.127 254.273C428.549 254.273 428.002 254.156 427.486 253.922C426.976 253.682 426.549 253.351 426.205 252.929C425.669 252.273 425.4 251.419 425.4 250.367C425.4 249.164 425.783 248.216 426.549 247.523C427.262 246.877 428.148 246.554 429.205 246.554ZM429.104 247.672C428.348 247.672 427.731 247.958 427.252 248.531C426.846 249.005 426.643 249.646 426.643 250.453C426.643 251.276 426.88 251.932 427.354 252.422C427.838 252.911 428.439 253.156 429.158 253.156C429.986 253.156 430.637 252.844 431.111 252.219C431.481 251.734 431.666 251.114 431.666 250.359C431.666 249.521 431.419 248.859 430.924 248.375C430.445 247.906 429.838 247.672 429.104 247.672ZM436.111 247.804V254.101H434.885V247.804H433.877V246.726H434.885V245.734C434.885 245.026 435.046 244.482 435.369 244.101C435.749 243.648 436.257 243.422 436.893 243.422C436.992 243.422 437.114 243.427 437.26 243.437V244.523C436.885 244.57 436.624 244.643 436.479 244.742C436.234 244.909 436.109 245.239 436.104 245.734V246.726H437.26V247.804H436.111ZM445.572 250.804H439.424C439.486 251.351 439.648 251.804 439.908 252.164C440.403 252.83 441.064 253.164 441.893 253.164C442.434 253.164 442.95 252.987 443.439 252.633C443.715 252.435 443.937 252.187 444.104 251.89L445.174 252.289C444.945 252.758 444.63 253.148 444.229 253.461C443.531 254.008 442.752 254.281 441.893 254.281C440.7 254.281 439.739 253.851 439.01 252.992C438.426 252.31 438.135 251.458 438.135 250.437C438.135 249.291 438.486 248.357 439.189 247.633C439.887 246.914 440.775 246.554 441.854 246.554C443.114 246.554 444.104 247.028 444.822 247.976C445.338 248.659 445.596 249.437 445.596 250.312C445.596 250.422 445.588 250.586 445.572 250.804ZM444.299 249.914C444.252 249.398 444.109 248.976 443.869 248.648C443.645 248.336 443.354 248.091 442.994 247.914C442.635 247.732 442.252 247.64 441.846 247.64C441.439 247.64 441.062 247.732 440.713 247.914C440.364 248.096 440.083 248.349 439.869 248.672C439.671 248.974 439.531 249.388 439.447 249.914H444.299ZM451.986 248.734H450.775C450.775 248.479 450.736 248.286 450.658 248.156C450.419 247.75 449.989 247.547 449.369 247.547C448.947 247.547 448.617 247.646 448.377 247.844C448.148 248.031 448.033 248.276 448.033 248.578C448.033 248.989 448.231 249.297 448.627 249.5C448.799 249.583 449.15 249.698 449.682 249.844C450.562 250.083 451.163 250.364 451.486 250.687C451.877 251.078 452.072 251.56 452.072 252.133C452.072 252.836 451.778 253.396 451.189 253.812C450.757 254.12 450.179 254.273 449.455 254.273C448.356 254.273 447.572 253.935 447.104 253.258C446.88 252.929 446.744 252.513 446.697 252.008H447.9C447.932 252.336 448.031 252.596 448.197 252.789C448.489 253.117 448.908 253.281 449.455 253.281C449.872 253.281 450.2 253.185 450.439 252.992C450.7 252.778 450.83 252.515 450.83 252.203C450.83 251.87 450.679 251.591 450.377 251.367C450.184 251.226 449.775 251.073 449.15 250.906C448.369 250.703 447.796 250.437 447.432 250.109C447.025 249.734 446.822 249.26 446.822 248.687C446.822 247.969 447.119 247.409 447.713 247.008C448.166 246.705 448.734 246.554 449.416 246.554C450.369 246.554 451.077 246.846 451.541 247.429C451.812 247.773 451.96 248.208 451.986 248.734ZM458.564 248.734H457.354C457.354 248.479 457.314 248.286 457.236 248.156C456.997 247.75 456.567 247.547 455.947 247.547C455.525 247.547 455.195 247.646 454.955 247.844C454.726 248.031 454.611 248.276 454.611 248.578C454.611 248.989 454.809 249.297 455.205 249.5C455.377 249.583 455.729 249.698 456.26 249.844C457.14 250.083 457.742 250.364 458.064 250.687C458.455 251.078 458.65 251.56 458.65 252.133C458.65 252.836 458.356 253.396 457.768 253.812C457.335 254.12 456.757 254.273 456.033 254.273C454.934 254.273 454.15 253.935 453.682 253.258C453.458 252.929 453.322 252.513 453.275 252.008H454.479C454.51 252.336 454.609 252.596 454.775 252.789C455.067 253.117 455.486 253.281 456.033 253.281C456.45 253.281 456.778 253.185 457.018 252.992C457.278 252.778 457.408 252.515 457.408 252.203C457.408 251.87 457.257 251.591 456.955 251.367C456.762 251.226 456.354 251.073 455.729 250.906C454.947 250.703 454.374 250.437 454.01 250.109C453.604 249.734 453.4 249.26 453.4 248.687C453.4 247.969 453.697 247.409 454.291 247.008C454.744 246.705 455.312 246.554 455.994 246.554C456.947 246.554 457.656 246.846 458.119 247.429C458.39 247.773 458.538 248.208 458.564 248.734ZM461.744 246.726V254.101H460.525V246.726H461.744ZM461.158 243.867C461.382 243.867 461.57 243.953 461.721 244.125C461.856 244.276 461.924 244.45 461.924 244.648C461.924 244.883 461.835 245.08 461.658 245.242C461.518 245.367 461.346 245.429 461.143 245.429C460.903 245.429 460.71 245.346 460.564 245.179C460.429 245.028 460.361 244.849 460.361 244.64C460.361 244.411 460.45 244.216 460.627 244.054C460.762 243.929 460.939 243.867 461.158 243.867ZM467.408 246.554C468.559 246.554 469.505 246.989 470.244 247.859C470.822 248.541 471.111 249.38 471.111 250.375C471.111 251.552 470.713 252.515 469.916 253.265C469.202 253.937 468.34 254.273 467.33 254.273C466.752 254.273 466.205 254.156 465.689 253.922C465.179 253.682 464.752 253.351 464.408 252.929C463.872 252.273 463.604 251.419 463.604 250.367C463.604 249.164 463.986 248.216 464.752 247.523C465.465 246.877 466.351 246.554 467.408 246.554ZM467.307 247.672C466.551 247.672 465.934 247.958 465.455 248.531C465.049 249.005 464.846 249.646 464.846 250.453C464.846 251.276 465.083 251.932 465.557 252.422C466.041 252.911 466.643 253.156 467.361 253.156C468.189 253.156 468.84 252.844 469.314 252.219C469.684 251.734 469.869 251.114 469.869 250.359C469.869 249.521 469.622 248.859 469.127 248.375C468.648 247.906 468.041 247.672 467.307 247.672ZM472.963 246.726H474.182V247.765C474.458 247.396 474.731 247.122 475.002 246.945C475.408 246.685 475.864 246.554 476.369 246.554C477.062 246.554 477.63 246.76 478.072 247.172C478.359 247.437 478.541 247.752 478.619 248.117C478.676 248.393 478.705 248.732 478.705 249.133V254.101H477.479V249.398C477.479 248.794 477.39 248.372 477.213 248.133C476.973 247.804 476.59 247.64 476.064 247.64C475.512 247.64 475.044 247.849 474.658 248.265C474.34 248.609 474.182 249.054 474.182 249.601V254.101H472.963V246.726ZM486.658 247.945V246.726H487.885V254.101H486.658V252.687C485.95 253.745 485.054 254.273 483.971 254.273C482.934 254.273 482.077 253.888 481.4 253.117C480.801 252.429 480.502 251.539 480.502 250.445C480.502 249.83 480.606 249.263 480.814 248.742C481.023 248.216 481.317 247.781 481.697 247.437C482.354 246.849 483.124 246.554 484.01 246.554C484.645 246.554 485.221 246.716 485.736 247.039C486.049 247.237 486.356 247.539 486.658 247.945ZM484.127 247.64C483.393 247.64 482.814 247.932 482.393 248.515C481.992 249.067 481.791 249.716 481.791 250.461C481.791 251.33 482.054 252.026 482.58 252.547C483.023 252.989 483.549 253.211 484.158 253.211C484.924 253.211 485.554 252.89 486.049 252.25C486.471 251.708 486.682 251.047 486.682 250.265C486.682 249.51 486.458 248.893 486.01 248.414C485.531 247.898 484.903 247.64 484.127 247.64ZM491.564 254.101H490.338V243.437H491.564V254.101ZM498.627 248.734H497.416C497.416 248.479 497.377 248.286 497.299 248.156C497.059 247.75 496.63 247.547 496.01 247.547C495.588 247.547 495.257 247.646 495.018 247.844C494.788 248.031 494.674 248.276 494.674 248.578C494.674 248.989 494.872 249.297 495.268 249.5C495.439 249.583 495.791 249.698 496.322 249.844C497.202 250.083 497.804 250.364 498.127 250.687C498.518 251.078 498.713 251.56 498.713 252.133C498.713 252.836 498.419 253.396 497.83 253.812C497.398 254.12 496.82 254.273 496.096 254.273C494.997 254.273 494.213 253.935 493.744 253.258C493.52 252.929 493.385 252.513 493.338 252.008H494.541C494.572 252.336 494.671 252.596 494.838 252.789C495.13 253.117 495.549 253.281 496.096 253.281C496.512 253.281 496.84 253.185 497.08 252.992C497.34 252.778 497.471 252.515 497.471 252.203C497.471 251.87 497.32 251.591 497.018 251.367C496.825 251.226 496.416 251.073 495.791 250.906C495.01 250.703 494.437 250.437 494.072 250.109C493.666 249.734 493.463 249.26 493.463 248.687C493.463 247.969 493.76 247.409 494.354 247.008C494.807 246.705 495.374 246.554 496.057 246.554C497.01 246.554 497.718 246.846 498.182 247.429C498.452 247.773 498.601 248.208 498.627 248.734Z" fill="black"/>
<path d="M114.762 393.607V397.685H113.418V387.021H116.27C117.535 387.021 118.491 387.292 119.137 387.833C119.829 388.411 120.176 389.237 120.176 390.31C120.176 390.867 120.061 391.383 119.832 391.857C119.608 392.325 119.293 392.703 118.887 392.99C118.303 393.401 117.48 393.607 116.418 393.607H114.762ZM114.762 392.458H116.152C116.689 392.458 117.134 392.396 117.488 392.271C117.91 392.125 118.243 391.865 118.488 391.49C118.712 391.151 118.824 390.76 118.824 390.318C118.824 389.672 118.598 389.154 118.145 388.763C117.686 388.372 116.965 388.177 115.98 388.177H114.762V392.458ZM124.785 390.138C125.936 390.138 126.882 390.573 127.621 391.443C128.199 392.125 128.488 392.963 128.488 393.958C128.488 395.135 128.09 396.099 127.293 396.849C126.579 397.521 125.717 397.857 124.707 397.857C124.129 397.857 123.582 397.74 123.066 397.505C122.556 397.266 122.129 396.935 121.785 396.513C121.249 395.857 120.98 395.003 120.98 393.95C120.98 392.747 121.363 391.799 122.129 391.107C122.842 390.461 123.728 390.138 124.785 390.138ZM124.684 391.255C123.928 391.255 123.311 391.542 122.832 392.115C122.426 392.588 122.223 393.229 122.223 394.036C122.223 394.859 122.46 395.516 122.934 396.005C123.418 396.495 124.02 396.74 124.738 396.74C125.566 396.74 126.217 396.427 126.691 395.802C127.061 395.318 127.246 394.698 127.246 393.943C127.246 393.104 126.999 392.443 126.504 391.958C126.025 391.49 125.418 391.255 124.684 391.255ZM131.566 397.685H130.34V387.021H131.566V397.685ZM135.23 390.31V397.685H134.012V390.31H135.23ZM134.645 387.45C134.868 387.45 135.056 387.536 135.207 387.708C135.342 387.859 135.41 388.034 135.41 388.232C135.41 388.466 135.322 388.664 135.145 388.825C135.004 388.95 134.832 389.013 134.629 389.013C134.389 389.013 134.197 388.93 134.051 388.763C133.915 388.612 133.848 388.432 133.848 388.224C133.848 387.995 133.936 387.799 134.113 387.638C134.249 387.513 134.426 387.45 134.645 387.45ZM142.668 395.935L143.418 396.771C143.053 397.109 142.707 397.354 142.379 397.505C141.863 397.74 141.309 397.857 140.715 397.857C139.652 397.857 138.775 397.487 138.082 396.747C137.421 396.049 137.09 395.138 137.09 394.013C137.09 393.378 137.207 392.789 137.441 392.247C137.681 391.706 138.014 391.263 138.441 390.919C139.092 390.393 139.868 390.13 140.77 390.13C141.806 390.13 142.704 390.5 143.465 391.24L142.668 392.021C142.116 391.505 141.491 391.247 140.793 391.247C140.022 391.247 139.402 391.534 138.934 392.107C138.538 392.591 138.34 393.211 138.34 393.966C138.34 394.893 138.613 395.609 139.16 396.115C139.613 396.531 140.155 396.74 140.785 396.74C141.483 396.74 142.111 396.471 142.668 395.935ZM147.152 395.779L149.355 390.31H150.684L146.277 401.247H144.957L146.496 397.45L143.871 390.31H145.168L147.152 395.779ZM114.762 409.872V417.685H113.418V407.021H114.746L118.707 415.021L122.699 407.021H124.012V417.685H122.668V409.872L118.707 417.794L114.762 409.872ZM132.113 411.529V410.31H133.34V417.685H132.113V416.271C131.405 417.328 130.509 417.857 129.426 417.857C128.389 417.857 127.533 417.471 126.855 416.7C126.257 416.013 125.957 415.122 125.957 414.029C125.957 413.414 126.061 412.846 126.27 412.325C126.478 411.799 126.772 411.365 127.152 411.021C127.809 410.432 128.579 410.138 129.465 410.138C130.1 410.138 130.676 410.299 131.191 410.622C131.504 410.82 131.811 411.122 132.113 411.529ZM129.582 411.224C128.848 411.224 128.27 411.516 127.848 412.099C127.447 412.651 127.246 413.299 127.246 414.044C127.246 414.914 127.509 415.609 128.035 416.13C128.478 416.573 129.004 416.794 129.613 416.794C130.379 416.794 131.009 416.474 131.504 415.833C131.926 415.292 132.137 414.63 132.137 413.849C132.137 413.094 131.913 412.476 131.465 411.997C130.986 411.482 130.358 411.224 129.582 411.224ZM137.02 414.396V417.685H135.793V407.021H137.02V413.536L139.965 410.31H141.496L138.215 413.919L141.488 417.685H139.957L137.02 414.396ZM149.324 414.388H143.176C143.238 414.935 143.4 415.388 143.66 415.747C144.155 416.414 144.816 416.747 145.645 416.747C146.186 416.747 146.702 416.57 147.191 416.216C147.467 416.018 147.689 415.771 147.855 415.474L148.926 415.872C148.697 416.341 148.382 416.732 147.98 417.044C147.283 417.591 146.504 417.865 145.645 417.865C144.452 417.865 143.491 417.435 142.762 416.575C142.178 415.893 141.887 415.042 141.887 414.021C141.887 412.875 142.238 411.94 142.941 411.216C143.639 410.497 144.527 410.138 145.605 410.138C146.866 410.138 147.855 410.612 148.574 411.56C149.09 412.242 149.348 413.021 149.348 413.896C149.348 414.005 149.34 414.169 149.324 414.388ZM148.051 413.497C148.004 412.982 147.861 412.56 147.621 412.232C147.397 411.919 147.105 411.674 146.746 411.497C146.387 411.315 146.004 411.224 145.598 411.224C145.191 411.224 144.814 411.315 144.465 411.497C144.116 411.68 143.835 411.932 143.621 412.255C143.423 412.557 143.283 412.971 143.199 413.497H148.051ZM151.121 410.31H152.348V411.552C152.54 411.099 152.764 410.773 153.02 410.575C153.41 410.279 153.874 410.13 154.41 410.13C154.473 410.13 154.569 410.133 154.699 410.138V411.365C154.559 411.354 154.441 411.349 154.348 411.349C153.681 411.349 153.155 411.63 152.77 412.193C152.582 412.474 152.462 412.766 152.41 413.068C152.368 413.312 152.348 413.601 152.348 413.935V417.685H151.121V410.31ZM160.879 412.318H159.668C159.668 412.062 159.629 411.87 159.551 411.74C159.311 411.333 158.882 411.13 158.262 411.13C157.84 411.13 157.509 411.229 157.27 411.427C157.04 411.615 156.926 411.859 156.926 412.161C156.926 412.573 157.124 412.88 157.52 413.083C157.691 413.167 158.043 413.281 158.574 413.427C159.454 413.667 160.056 413.948 160.379 414.271C160.77 414.661 160.965 415.143 160.965 415.716C160.965 416.419 160.671 416.979 160.082 417.396C159.65 417.703 159.072 417.857 158.348 417.857C157.249 417.857 156.465 417.518 155.996 416.841C155.772 416.513 155.637 416.096 155.59 415.591H156.793C156.824 415.919 156.923 416.18 157.09 416.372C157.382 416.7 157.801 416.865 158.348 416.865C158.764 416.865 159.092 416.768 159.332 416.575C159.592 416.362 159.723 416.099 159.723 415.786C159.723 415.453 159.572 415.174 159.27 414.95C159.077 414.81 158.668 414.656 158.043 414.49C157.262 414.286 156.689 414.021 156.324 413.693C155.918 413.318 155.715 412.844 155.715 412.271C155.715 411.552 156.012 410.992 156.605 410.591C157.059 410.289 157.626 410.138 158.309 410.138C159.262 410.138 159.97 410.43 160.434 411.013C160.704 411.357 160.853 411.792 160.879 412.318Z" fill="black"/>
<path d="M70.7402 178.944H75.8262C75.8314 179.158 75.834 179.34 75.834 179.491C75.834 180.517 75.6569 181.377 75.3027 182.069C74.8548 182.944 74.2298 183.637 73.4277 184.147C72.6361 184.658 71.735 184.913 70.7246 184.913C69.9538 184.913 69.2272 184.762 68.5449 184.46C67.8626 184.158 67.2767 183.728 66.7871 183.171C65.9017 182.166 65.459 180.913 65.459 179.413C65.459 178.658 65.584 177.939 65.834 177.257C66.084 176.569 66.4408 175.973 66.9043 175.468C67.8783 174.395 69.1543 173.858 70.7324 173.858C71.7324 173.858 72.6543 174.129 73.498 174.671C73.9564 174.962 74.3678 175.337 74.7324 175.796L73.7246 176.608C73.3757 176.212 73.0788 175.929 72.834 175.757C72.2142 175.314 71.5137 175.093 70.7324 175.093C70.1074 175.093 69.5189 175.241 68.9668 175.538C68.4147 175.83 67.959 176.238 67.5996 176.765C67.0892 177.52 66.834 178.395 66.834 179.39C66.834 180.025 66.9434 180.624 67.1621 181.186C67.3861 181.744 67.6986 182.218 68.0996 182.608C68.8444 183.327 69.7116 183.686 70.7012 183.686C71.5553 183.686 72.3444 183.405 73.0684 182.843C73.7142 182.343 74.1335 181.684 74.3262 180.866C74.373 180.684 74.4121 180.426 74.4434 180.093H70.7402V178.944ZM84.5449 181.421H78.3965C78.459 181.968 78.6204 182.421 78.8809 182.78C79.3757 183.447 80.0371 183.78 80.8652 183.78C81.4069 183.78 81.9225 183.603 82.4121 183.249C82.6882 183.051 82.9095 182.804 83.0762 182.507L84.1465 182.905C83.9173 183.374 83.6022 183.765 83.2012 184.077C82.5033 184.624 81.7246 184.897 80.8652 184.897C79.6725 184.897 78.7116 184.468 77.9824 183.608C77.3991 182.926 77.1074 182.074 77.1074 181.054C77.1074 179.908 77.459 178.973 78.1621 178.249C78.86 177.53 79.748 177.171 80.8262 177.171C82.0866 177.171 83.0762 177.645 83.7949 178.593C84.3105 179.275 84.5684 180.054 84.5684 180.929C84.5684 181.038 84.5605 181.202 84.5449 181.421ZM83.2715 180.53C83.2246 180.015 83.0814 179.593 82.8418 179.265C82.6178 178.952 82.3262 178.707 81.9668 178.53C81.6074 178.348 81.2246 178.257 80.8184 178.257C80.4121 178.257 80.0345 178.348 79.6855 178.53C79.3366 178.712 79.0553 178.965 78.8418 179.288C78.6439 179.59 78.5033 180.004 78.4199 180.53H83.2715ZM86.3418 177.343H87.5605V178.382C87.8366 178.012 88.11 177.738 88.3809 177.561C88.7871 177.301 89.2428 177.171 89.748 177.171C90.4408 177.171 91.0085 177.377 91.4512 177.788C91.7376 178.054 91.9199 178.369 91.998 178.733C92.0553 179.009 92.084 179.348 92.084 179.749V184.718H90.8574V180.015C90.8574 179.41 90.7689 178.988 90.5918 178.749C90.3522 178.421 89.9694 178.257 89.4434 178.257C88.8913 178.257 88.4225 178.465 88.0371 178.882C87.7194 179.225 87.5605 179.671 87.5605 180.218V184.718H86.3418V177.343ZM101.326 181.421H95.1777C95.2402 181.968 95.4017 182.421 95.6621 182.78C96.1569 183.447 96.8184 183.78 97.6465 183.78C98.1882 183.78 98.7038 183.603 99.1934 183.249C99.4694 183.051 99.6908 182.804 99.8574 182.507L100.928 182.905C100.699 183.374 100.383 183.765 99.9824 184.077C99.2845 184.624 98.5059 184.897 97.6465 184.897C96.4538 184.897 95.4928 184.468 94.7637 183.608C94.1803 182.926 93.8887 182.074 93.8887 181.054C93.8887 179.908 94.2402 178.973 94.9434 178.249C95.6413 177.53 96.5293 177.171 97.6074 177.171C98.8678 177.171 99.8574 177.645 100.576 178.593C101.092 179.275 101.35 180.054 101.35 180.929C101.35 181.038 101.342 181.202 101.326 181.421ZM100.053 180.53C100.006 180.015 99.8626 179.593 99.623 179.265C99.3991 178.952 99.1074 178.707 98.748 178.53C98.3887 178.348 98.0059 178.257 97.5996 178.257C97.1934 178.257 96.8158 178.348 96.4668 178.53C96.1178 178.712 95.8366 178.965 95.623 179.288C95.4251 179.59 95.2845 180.004 95.2012 180.53H100.053ZM103.123 177.343H104.35V178.585C104.542 178.132 104.766 177.806 105.021 177.608C105.412 177.311 105.876 177.163 106.412 177.163C106.475 177.163 106.571 177.166 106.701 177.171V178.397C106.561 178.387 106.443 178.382 106.35 178.382C105.683 178.382 105.157 178.663 104.771 179.225C104.584 179.507 104.464 179.798 104.412 180.1C104.37 180.345 104.35 180.634 104.35 180.968V184.718H103.123V177.343ZM113.506 178.561V177.343H114.732V184.718H113.506V183.304C112.798 184.361 111.902 184.89 110.818 184.89C109.782 184.89 108.925 184.504 108.248 183.733C107.649 183.046 107.35 182.155 107.35 181.061C107.35 180.447 107.454 179.879 107.662 179.358C107.87 178.832 108.165 178.397 108.545 178.054C109.201 177.465 109.972 177.171 110.857 177.171C111.493 177.171 112.068 177.332 112.584 177.655C112.896 177.853 113.204 178.155 113.506 178.561ZM110.975 178.257C110.24 178.257 109.662 178.548 109.24 179.132C108.839 179.684 108.639 180.332 108.639 181.077C108.639 181.947 108.902 182.642 109.428 183.163C109.87 183.606 110.396 183.827 111.006 183.827C111.771 183.827 112.402 183.507 112.896 182.866C113.318 182.324 113.529 181.663 113.529 180.882C113.529 180.127 113.305 179.509 112.857 179.03C112.378 178.515 111.751 178.257 110.975 178.257ZM118.412 184.718H117.186V174.054H118.412V184.718ZM67.4355 200.64V204.718H66.0918V194.054H68.9434C70.209 194.054 71.1647 194.324 71.8105 194.866C72.5033 195.444 72.8496 196.27 72.8496 197.343C72.8496 197.9 72.735 198.416 72.5059 198.89C72.2819 199.358 71.9668 199.736 71.5605 200.022C70.9772 200.434 70.1543 200.64 69.0918 200.64H67.4355ZM67.4355 199.491H68.8262C69.3626 199.491 69.8079 199.429 70.1621 199.304C70.584 199.158 70.9173 198.897 71.1621 198.522C71.3861 198.184 71.498 197.793 71.498 197.35C71.498 196.705 71.2715 196.186 70.8184 195.796C70.36 195.405 69.6387 195.21 68.6543 195.21H67.4355V199.491ZM78.7871 197.343H80.0137V202.069C80.0137 202.757 79.9043 203.278 79.6855 203.632C79.4408 204.028 79.084 204.34 78.6152 204.569C78.1673 204.783 77.6803 204.89 77.1543 204.89C76.2793 204.89 75.5684 204.629 75.0215 204.108C74.5267 203.634 74.2793 202.955 74.2793 202.069V197.343H75.498V202.022C75.498 202.548 75.6491 202.975 75.9512 203.304C76.2585 203.637 76.6595 203.804 77.1543 203.804C77.7012 203.804 78.1335 203.616 78.4512 203.241C78.6751 202.986 78.7871 202.595 78.7871 202.069V197.343ZM83.4746 203.452V204.718H82.248V194.054H83.4746V198.608C83.7975 198.166 84.1387 197.835 84.498 197.616C84.9772 197.319 85.5007 197.171 86.0684 197.171C87.2194 197.171 88.123 197.603 88.7793 198.468C89.3105 199.166 89.5762 200.03 89.5762 201.061C89.5762 202.265 89.2194 203.22 88.5059 203.929C87.8548 204.569 87.0605 204.89 86.123 204.89C85.4928 204.89 84.9199 204.725 84.4043 204.397C84.0918 204.194 83.7819 203.879 83.4746 203.452ZM85.8652 198.257C85.1517 198.257 84.5527 198.548 84.0684 199.132C83.6621 199.627 83.459 200.278 83.459 201.085C83.459 201.923 83.6934 202.598 84.1621 203.108C84.5996 203.593 85.1725 203.835 85.8809 203.835C86.6673 203.835 87.2793 203.546 87.7168 202.968C88.097 202.462 88.2871 201.827 88.2871 201.061C88.2871 200.291 88.0684 199.627 87.6309 199.069C87.2038 198.528 86.6152 198.257 85.8652 198.257ZM92.6465 204.718H91.4199V194.054H92.6465V204.718ZM96.3105 197.343V204.718H95.0918V197.343H96.3105ZM95.7246 194.483C95.9486 194.483 96.1361 194.569 96.2871 194.741C96.4225 194.892 96.4902 195.067 96.4902 195.265C96.4902 195.499 96.4017 195.697 96.2246 195.858C96.084 195.983 95.9121 196.046 95.709 196.046C95.4694 196.046 95.2767 195.962 95.1309 195.796C94.9954 195.645 94.9277 195.465 94.9277 195.257C94.9277 195.028 95.0163 194.832 95.1934 194.671C95.3288 194.546 95.5059 194.483 95.7246 194.483ZM103.748 202.968L104.498 203.804C104.133 204.142 103.787 204.387 103.459 204.538C102.943 204.772 102.389 204.89 101.795 204.89C100.732 204.89 99.8548 204.52 99.1621 203.78C98.5007 203.082 98.1699 202.171 98.1699 201.046C98.1699 200.41 98.2871 199.822 98.5215 199.28C98.7611 198.738 99.0944 198.296 99.5215 197.952C100.173 197.426 100.949 197.163 101.85 197.163C102.886 197.163 103.785 197.533 104.545 198.272L103.748 199.054C103.196 198.538 102.571 198.28 101.873 198.28C101.102 198.28 100.482 198.567 100.014 199.14C99.6178 199.624 99.4199 200.244 99.4199 200.999C99.4199 201.926 99.6934 202.642 100.24 203.147C100.693 203.564 101.235 203.772 101.865 203.772C102.563 203.772 103.191 203.504 103.748 202.968Z" fill="white"/>
<path d="M338.018 427.145V437.809H336.674V427.145H338.018ZM340.58 430.434H341.799V431.473C342.075 431.103 342.348 430.83 342.619 430.653C343.025 430.392 343.481 430.262 343.986 430.262C344.679 430.262 345.247 430.468 345.689 430.879C345.976 431.145 346.158 431.46 346.236 431.825C346.294 432.101 346.322 432.439 346.322 432.84V437.809H345.096V433.106C345.096 432.502 345.007 432.08 344.83 431.84C344.59 431.512 344.208 431.348 343.682 431.348C343.13 431.348 342.661 431.556 342.275 431.973C341.958 432.317 341.799 432.762 341.799 433.309V437.809H340.58V430.434ZM354.236 431.551V427.145H355.463V437.809H354.236V436.543C353.929 436.965 353.622 437.278 353.314 437.481C352.804 437.814 352.234 437.981 351.604 437.981C350.562 437.981 349.71 437.609 349.049 436.864C348.434 436.171 348.127 435.27 348.127 434.161C348.127 433.577 348.223 433.03 348.416 432.52C348.609 432.004 348.882 431.575 349.236 431.231C349.893 430.58 350.679 430.254 351.596 430.254C352.111 430.254 352.606 430.366 353.08 430.59C353.481 430.773 353.867 431.093 354.236 431.551ZM351.791 431.34C351.005 431.34 350.385 431.676 349.932 432.348C349.588 432.864 349.416 433.473 349.416 434.176C349.416 435.03 349.661 435.715 350.15 436.231C350.583 436.689 351.127 436.918 351.783 436.918C352.507 436.918 353.104 436.648 353.572 436.106C354.02 435.596 354.244 434.908 354.244 434.043C354.244 433.247 354.012 432.593 353.549 432.083C353.101 431.588 352.515 431.34 351.791 431.34ZM362.213 430.434H363.439V435.161C363.439 435.848 363.33 436.369 363.111 436.723C362.867 437.119 362.51 437.431 362.041 437.661C361.593 437.874 361.106 437.981 360.58 437.981C359.705 437.981 358.994 437.721 358.447 437.2C357.952 436.726 357.705 436.046 357.705 435.161V430.434H358.924V435.114C358.924 435.64 359.075 436.067 359.377 436.395C359.684 436.728 360.085 436.895 360.58 436.895C361.127 436.895 361.559 436.708 361.877 436.333C362.101 436.077 362.213 435.687 362.213 435.161V430.434ZM370.291 432.442H369.08C369.08 432.187 369.041 431.994 368.963 431.864C368.723 431.458 368.294 431.254 367.674 431.254C367.252 431.254 366.921 431.353 366.682 431.551C366.452 431.739 366.338 431.984 366.338 432.286C366.338 432.697 366.536 433.004 366.932 433.208C367.104 433.291 367.455 433.405 367.986 433.551C368.867 433.791 369.468 434.072 369.791 434.395C370.182 434.786 370.377 435.267 370.377 435.84C370.377 436.543 370.083 437.103 369.494 437.52C369.062 437.827 368.484 437.981 367.76 437.981C366.661 437.981 365.877 437.642 365.408 436.965C365.184 436.637 365.049 436.221 365.002 435.715H366.205C366.236 436.043 366.335 436.304 366.502 436.497C366.794 436.825 367.213 436.989 367.76 436.989C368.176 436.989 368.505 436.892 368.744 436.7C369.005 436.486 369.135 436.223 369.135 435.911C369.135 435.577 368.984 435.299 368.682 435.075C368.489 434.934 368.08 434.78 367.455 434.614C366.674 434.411 366.101 434.145 365.736 433.817C365.33 433.442 365.127 432.968 365.127 432.395C365.127 431.676 365.424 431.116 366.018 430.715C366.471 430.413 367.038 430.262 367.721 430.262C368.674 430.262 369.382 430.554 369.846 431.137C370.117 431.481 370.265 431.916 370.291 432.442ZM373.549 431.504V436.301C373.549 436.473 373.583 436.588 373.65 436.645C373.718 436.713 373.867 436.747 374.096 436.747H374.658V437.809H373.533C373.101 437.804 372.794 437.713 372.611 437.536C372.424 437.364 372.327 437.069 372.322 436.653V431.504H371.299V430.426H372.322V428.114H373.549V430.426H374.658V431.504H373.549ZM376.408 430.434H377.635V431.676C377.827 431.223 378.051 430.898 378.307 430.7C378.697 430.403 379.161 430.254 379.697 430.254C379.76 430.254 379.856 430.257 379.986 430.262V431.489C379.846 431.478 379.729 431.473 379.635 431.473C378.968 431.473 378.442 431.754 378.057 432.317C377.869 432.598 377.749 432.89 377.697 433.192C377.656 433.437 377.635 433.726 377.635 434.059V437.809H376.408V430.434ZM384.049 435.903L386.252 430.434H387.58L383.174 441.372H381.854L383.393 437.575L380.768 430.434H382.064L384.049 435.903Z" fill="white"/>
</svg>
