<svg width="220" height="220" viewBox="0 0 220 220" fill="none" xmlns="http://www.w3.org/2000/svg">
<circle cx="110" cy="110" r="110" fill="#B13320"/>
<g clip-path="url(#clip0_1255_23)">
<path d="M103.207 144.824C111.642 132.67 115.239 118.673 118.693 105.122C118.693 105.086 118.711 105.069 118.729 105.033C118.8 104.711 118.872 104.442 118.926 104.245C118.998 103.977 119.232 103.78 119.52 103.78C119.718 103.78 119.988 103.78 120.275 103.78C120.275 103.78 120.293 103.78 120.311 103.78C120.311 103.78 120.455 103.78 120.617 103.78C121.642 103.78 122.991 103.744 124.214 103.708C150.058 102.384 167 83.2127 167 70.3785C167 60.1218 157.396 54 148.116 54C130.527 54 116.373 71.005 109.826 87.9741C109.808 88.0994 109.754 88.2426 109.682 88.4037C109.017 90.0863 108.585 91.5183 108.369 92.2701C108.279 92.5923 107.956 92.7713 107.632 92.6997C107.416 92.646 107.146 92.5923 106.858 92.5207H106.822L106.715 92.5028C93.0459 89.5314 84.557 83.0158 84.557 75.4978C84.557 75.0503 84.6109 74.6207 84.6649 74.1732C84.7009 73.9584 84.7189 73.7436 84.7728 73.5467C84.7728 73.4572 84.8268 73.3677 84.8447 73.2782C85.9059 68.9823 89.7906 65.6887 92.0747 63.8808C92.3445 63.6839 92.5963 63.487 92.8841 63.2901C95.42 61.5538 98.7292 60.8915 98.909 59.6027C99.1069 58.2065 96.1573 55.9332 90.1324 58.1528C84.575 60.1934 79.0176 65.7603 77.8486 73.2961C77.8486 73.3856 77.8306 73.4572 77.8126 73.5467C77.7586 73.9405 77.7047 74.3164 77.6687 74.7102C77.6327 75.2114 77.5968 75.7305 77.5968 76.2317C77.5968 80.7604 79.2334 85.1817 82.3448 89.0123C86.8411 94.5255 94.5207 98.8394 104.556 101.471C104.88 101.56 105.096 101.9 104.988 102.222L104.305 104.621C102.632 110.474 98.5314 124.884 92.8661 135.176C92.8301 135.266 92.8121 135.355 92.7582 135.445C91.9488 136.948 90.6179 138.971 90.0244 139.866C89.8446 140.135 89.5029 140.206 89.2331 140.063C88.4597 139.651 86.8591 138.792 85.2045 138.004C81.5535 136.34 77.1651 134.854 72.3451 134.854C60.4211 134.854 53.9824 143.231 53.9824 151.125C53.9824 152.593 54.1982 154.025 54.6299 155.403C56.6442 161.74 63.0469 165.839 70.9603 165.839C75.6544 165.839 82.8664 164.389 91.2115 157.766C91.2834 157.712 91.3733 157.641 91.4453 157.587C91.5891 157.462 91.751 157.336 91.8949 157.211C92.7222 156.513 93.3517 155.922 93.6934 155.582C93.9092 155.367 94.215 155.35 94.4667 155.529C95.0063 155.904 96.0494 156.638 97.3983 157.462C99.1429 158.464 100.833 159.395 102.488 160.218C102.542 160.236 102.578 160.272 102.632 160.29C102.722 160.326 102.758 160.362 102.848 160.397C108.801 163.351 114.124 165.123 118.944 165.749C119.43 165.821 119.934 165.893 120.527 165.928C120.617 165.928 120.689 165.928 120.779 165.928C121.3 165.964 121.858 165.982 122.451 166C122.559 166 122.667 166 122.775 166H123.207C139.915 166 140.742 153.935 139.034 152.647C137.199 151.25 132.901 156.638 125.653 157.336C125.149 157.372 124.646 157.408 124.16 157.408C117.434 157.408 111.732 153.989 105.492 149.693C103.891 148.619 102.74 147.796 102.146 147.348C101.877 147.151 101.823 146.775 102.02 146.507C102.308 146.113 102.74 145.505 103.207 144.824ZM122.038 93.4873C122.11 93.2367 122.2 92.9324 122.29 92.6102C122.29 92.5565 122.29 92.5028 122.29 92.4491C126.408 77.8248 138.656 62.1624 150.31 62.1624C154.86 62.1624 157.918 64.8653 157.918 68.8749C157.918 73.3498 153.907 79.5611 147.72 84.6984C144.051 87.7414 136.893 92.6102 127.559 93.8453C127.487 93.8453 127.415 93.8811 127.307 93.8811C125.491 94.0959 123.674 94.2033 122.631 94.257C122.2 94.2749 121.894 93.8811 122.002 93.4873H122.038ZM82.2189 148.351C80.4924 150.033 74.899 155.027 69.0899 155.869C69.0539 155.869 68.9999 155.869 68.964 155.887C68.4784 155.958 67.9928 155.994 67.4892 155.994C67.4892 155.994 67.4712 155.994 67.4532 155.994C63.5325 155.994 60.7808 153.685 60.7808 150.355C60.7808 147.402 63.5325 143.231 69.6294 143.231C69.6294 143.231 69.6474 143.231 69.6654 143.231C69.6654 143.231 69.7013 143.231 69.7373 143.231C70.2589 143.231 70.7984 143.285 71.338 143.339C71.4999 143.357 71.6617 143.374 71.8416 143.41C72.2372 143.464 72.6329 143.553 73.0286 143.643C76.9673 144.502 80.6542 146.525 82.111 147.402C82.4527 147.617 82.5067 148.082 82.2189 148.351Z" fill="white"/>
</g>
<defs>
<clipPath id="clip0_1255_23">
<rect width="113" height="112" fill="white" transform="translate(54 54)"/>
</clipPath>
</defs>
</svg>
