<svg width="124" height="117" viewBox="0 0 124 117" fill="none" xmlns="http://www.w3.org/2000/svg">
<path d="M14.4009 0.000366211H0.648071V117H14.4009V0.000366211Z" fill="#C24930"/>
<path d="M35.0419 41.2963H21.289V116.999H35.0419V41.2963Z" fill="#C24930"/>
<path d="M35.0419 0.000366211H21.289V34.4075H35.0419V0.000366211Z" fill="#C24930"/>
<path d="M103.352 61.938H89.5993V116.999H103.352V61.938Z" fill="#C24930"/>
<path d="M103.352 0.000366211H89.5993V55.0618H103.352V0.000366211Z" fill="#C24930"/>
<path d="M123.995 0.000366211H110.242V34.4075H123.995V0.000366211Z" fill="#C24930"/>
<path d="M123.995 82.5798H110.242V116.987H123.995V82.5798Z" fill="#C24930"/>
<path d="M123.995 41.2963H110.242V75.7034H123.995V41.2963Z" fill="#C24930"/>
<path d="M41.9448 61.9508V75.7036H83.2411V61.9508H41.9448Z" fill="#C24930"/>
<path d="M41.9448 41.309V55.0618H83.2411V41.309H41.9448Z" fill="#C24930"/>
</svg>
