<svg width="420" height="470" viewBox="0 0 420 470" fill="none" xmlns="http://www.w3.org/2000/svg">
<path d="M93.6608 46.0436C74.6518 63.8845 60.0007 85.8582 50.8403 110.266C41.6799 134.673 38.2557 160.86 40.8324 186.803C43.4091 212.745 51.9178 237.747 65.7004 259.876C79.483 282.004 98.1703 300.667 120.317 314.42L210 170L93.6608 46.0436Z" fill="#E2725B"/>
<path d="M211.442 0.00611522C167.756 -0.364435 125.605 16.0974 93.7326 45.9762L210 170L211.442 0.00611522Z" fill="white"/>
<path d="M120.035 314.244C142.339 328.155 167.565 336.704 193.731 339.22C219.897 341.735 246.29 338.149 270.835 328.742C295.381 319.335 317.411 304.365 335.194 285.006C352.977 265.648 366.029 242.43 373.323 217.175C380.618 191.921 381.957 165.32 377.234 139.461C372.512 113.602 361.858 89.1904 346.108 68.1445C330.359 47.0986 309.943 29.9916 286.466 18.168C262.989 6.34433 237.089 0.126089 210.803 0.00189734L210 170L120.035 314.244Z" fill="#F5C445"/>
<path d="M82 176.916H78.1621V174.729H86.2773L82.5859 179.709C83.4714 179.781 84.207 180.067 84.793 180.568C85.6979 181.343 86.1504 182.398 86.1504 183.732C86.1504 185.113 85.6784 186.245 84.7344 187.131C83.9271 187.886 82.918 188.264 81.707 188.264C80.6328 188.264 79.7181 187.964 78.9629 187.365C78.2923 186.831 77.8496 186.125 77.6348 185.246C77.5892 185.044 77.5436 184.755 77.498 184.377L79.8027 184.299C79.8678 184.709 80.0078 185.044 80.2227 185.305C80.5872 185.734 81.056 185.949 81.6289 185.949C82.2474 185.949 82.765 185.721 83.1816 185.266C83.5137 184.901 83.6797 184.449 83.6797 183.908C83.6797 183.335 83.5072 182.86 83.1621 182.482C82.7715 182.066 82.2604 181.857 81.6289 181.857C81.1732 181.857 80.7663 181.975 80.4082 182.209L78.9629 180.988L82 176.916ZM91.8926 185.744H95.6621V188H87.5566L92.2148 180.891C92.7096 180.135 93.0254 179.621 93.1621 179.348C93.3509 178.957 93.4453 178.592 93.4453 178.254C93.4453 177.831 93.2988 177.479 93.0059 177.199C92.7064 176.926 92.3255 176.789 91.8633 176.789C91.1016 176.789 90.597 177.102 90.3496 177.727C90.2389 178.02 90.1771 178.446 90.1641 179.006H87.8105C87.804 178.068 87.9668 177.271 88.2988 176.613C89.0085 175.181 90.2487 174.465 92.0195 174.465C92.6445 174.465 93.2337 174.576 93.7871 174.797C94.3405 175.018 94.7995 175.327 95.1641 175.725C95.737 176.343 96.0234 177.095 96.0234 177.98C96.0234 178.684 95.89 179.331 95.623 179.924C95.3236 180.594 94.9102 181.317 94.3828 182.092L91.8926 185.744ZM102.732 177.062V179.191C102.732 179.999 102.524 180.614 102.107 181.037C101.678 181.467 101.069 181.682 100.281 181.682C99.4544 181.682 98.8197 181.464 98.377 181.027C98.123 180.773 97.9635 180.467 97.8984 180.109C97.8333 179.764 97.8008 179.357 97.8008 178.889V177.18C97.8008 176.236 97.9863 175.568 98.3574 175.178C98.8001 174.709 99.4251 174.475 100.232 174.475C100.962 174.475 101.557 174.676 102.02 175.08C102.326 175.347 102.524 175.65 102.615 175.988C102.693 176.275 102.732 176.633 102.732 177.062ZM99.373 177.18V178.986C99.373 179.462 99.4154 179.771 99.5 179.914C99.6432 180.161 99.9004 180.285 100.271 180.285C100.649 180.285 100.906 180.152 101.043 179.885C101.134 179.715 101.18 179.403 101.18 178.947V177.131C101.18 176.669 101.111 176.35 100.975 176.174C100.831 175.992 100.604 175.9 100.291 175.9C99.9134 175.9 99.6595 176.011 99.5293 176.232C99.4251 176.395 99.373 176.711 99.373 177.18ZM109.773 183.586V185.715C109.773 186.522 109.565 187.137 109.148 187.561C108.719 187.99 108.113 188.205 107.332 188.205C106.505 188.205 105.87 187.987 105.428 187.551C105.174 187.297 105.014 186.991 104.949 186.633C104.884 186.288 104.852 185.881 104.852 185.412V183.703C104.852 182.759 105.037 182.092 105.408 181.701C105.851 181.232 106.479 180.998 107.293 180.998C108.016 180.998 108.605 181.2 109.061 181.604C109.373 181.877 109.572 182.18 109.656 182.512C109.734 182.792 109.773 183.15 109.773 183.586ZM106.424 183.703V185.51C106.424 185.985 106.466 186.294 106.551 186.438C106.694 186.685 106.951 186.809 107.322 186.809C107.7 186.809 107.957 186.675 108.094 186.408C108.185 186.239 108.23 185.926 108.23 185.471V183.654C108.23 183.192 108.162 182.873 108.025 182.697C107.882 182.515 107.654 182.424 107.342 182.424C106.964 182.424 106.71 182.531 106.58 182.746C106.476 182.915 106.424 183.234 106.424 183.703ZM108.582 174.943L99.7832 188.234L98.9922 187.717L107.781 174.436L108.582 174.943Z" fill="white"/>
<path d="M291.721 177.043V179.904C292.287 179.663 292.84 179.543 293.381 179.543C294.462 179.543 295.373 179.93 296.115 180.705C296.877 181.493 297.258 182.499 297.258 183.723C297.258 184.445 297.121 185.122 296.848 185.754C296.574 186.379 296.19 186.893 295.695 187.297C294.908 187.941 293.964 188.264 292.863 188.264C291.633 188.264 290.611 187.86 289.797 187.053C289.374 186.636 289.006 186.024 288.693 185.217L290.92 184.377C291.291 185.354 291.913 185.842 292.785 185.842C293.358 185.842 293.83 185.633 294.201 185.217C294.559 184.82 294.738 184.341 294.738 183.781C294.738 183.228 294.562 182.753 294.211 182.355C293.833 181.932 293.352 181.721 292.766 181.721C292.095 181.721 291.529 182.023 291.066 182.629H289.387V174.729H296.203V177.043H291.721ZM303.215 177.043H298.908V174.729H306.789L301.545 188H298.879L303.215 177.043ZM313.225 177.062V179.191C313.225 179.999 313.016 180.614 312.6 181.037C312.17 181.467 311.561 181.682 310.773 181.682C309.947 181.682 309.312 181.464 308.869 181.027C308.615 180.773 308.456 180.467 308.391 180.109C308.326 179.764 308.293 179.357 308.293 178.889V177.18C308.293 176.236 308.479 175.568 308.85 175.178C309.292 174.709 309.917 174.475 310.725 174.475C311.454 174.475 312.049 174.676 312.512 175.08C312.818 175.347 313.016 175.65 313.107 175.988C313.186 176.275 313.225 176.633 313.225 177.062ZM309.865 177.18V178.986C309.865 179.462 309.908 179.771 309.992 179.914C310.135 180.161 310.393 180.285 310.764 180.285C311.141 180.285 311.398 180.152 311.535 179.885C311.626 179.715 311.672 179.403 311.672 178.947V177.131C311.672 176.669 311.604 176.35 311.467 176.174C311.324 175.992 311.096 175.9 310.783 175.9C310.406 175.9 310.152 176.011 310.021 176.232C309.917 176.395 309.865 176.711 309.865 177.18ZM320.266 183.586V185.715C320.266 186.522 320.057 187.137 319.641 187.561C319.211 187.99 318.605 188.205 317.824 188.205C316.997 188.205 316.363 187.987 315.92 187.551C315.666 187.297 315.507 186.991 315.441 186.633C315.376 186.288 315.344 185.881 315.344 185.412V183.703C315.344 182.759 315.529 182.092 315.9 181.701C316.343 181.232 316.971 180.998 317.785 180.998C318.508 180.998 319.097 181.2 319.553 181.604C319.865 181.877 320.064 182.18 320.148 182.512C320.227 182.792 320.266 183.15 320.266 183.586ZM316.916 183.703V185.51C316.916 185.985 316.958 186.294 317.043 186.438C317.186 186.685 317.443 186.809 317.814 186.809C318.192 186.809 318.449 186.675 318.586 186.408C318.677 186.239 318.723 185.926 318.723 185.471V183.654C318.723 183.192 318.654 182.873 318.518 182.697C318.374 182.515 318.146 182.424 317.834 182.424C317.456 182.424 317.202 182.531 317.072 182.746C316.968 182.915 316.916 183.234 316.916 183.703ZM319.074 174.943L310.275 188.234L309.484 187.717L318.273 174.436L319.074 174.943Z" fill="#BB3216"/>
<path d="M153.633 57.0781L151.221 58.3574V55.9941L156.211 53.3867V67H153.633V57.0781ZM162.148 57.0781L159.736 58.3574V55.9941L164.727 53.3867V67H162.148V57.0781ZM173.193 56.0625V58.1914C173.193 58.9987 172.985 59.6139 172.568 60.0371C172.139 60.4668 171.53 60.6816 170.742 60.6816C169.915 60.6816 169.281 60.4635 168.838 60.0273C168.584 59.7734 168.424 59.4674 168.359 59.1094C168.294 58.7643 168.262 58.3574 168.262 57.8887V56.1797C168.262 55.2357 168.447 54.5684 168.818 54.1777C169.261 53.709 169.886 53.4746 170.693 53.4746C171.423 53.4746 172.018 53.6764 172.48 54.0801C172.786 54.347 172.985 54.6497 173.076 54.9883C173.154 55.2747 173.193 55.6328 173.193 56.0625ZM169.834 56.1797V57.9863C169.834 58.4616 169.876 58.7708 169.961 58.9141C170.104 59.1615 170.361 59.2852 170.732 59.2852C171.11 59.2852 171.367 59.1517 171.504 58.8848C171.595 58.7155 171.641 58.403 171.641 57.9473V56.1309C171.641 55.6686 171.572 55.3496 171.436 55.1738C171.292 54.9915 171.064 54.9004 170.752 54.9004C170.374 54.9004 170.12 55.0111 169.99 55.2324C169.886 55.3952 169.834 55.7109 169.834 56.1797ZM180.234 62.5859V64.7148C180.234 65.5221 180.026 66.1374 179.609 66.5605C179.18 66.9902 178.574 67.2051 177.793 67.2051C176.966 67.2051 176.331 66.987 175.889 66.5508C175.635 66.2969 175.475 65.9909 175.41 65.6328C175.345 65.2878 175.312 64.8809 175.312 64.4121V62.7031C175.312 61.7591 175.498 61.0918 175.869 60.7012C176.312 60.2324 176.94 59.998 177.754 59.998C178.477 59.998 179.066 60.1999 179.521 60.6035C179.834 60.877 180.033 61.1797 180.117 61.5117C180.195 61.7917 180.234 62.1497 180.234 62.5859ZM176.885 62.7031V64.5098C176.885 64.985 176.927 65.2943 177.012 65.4375C177.155 65.6849 177.412 65.8086 177.783 65.8086C178.161 65.8086 178.418 65.6751 178.555 65.4082C178.646 65.2389 178.691 64.9264 178.691 64.4707V62.6543C178.691 62.1921 178.623 61.873 178.486 61.6973C178.343 61.515 178.115 61.4238 177.803 61.4238C177.425 61.4238 177.171 61.5312 177.041 61.7461C176.937 61.9154 176.885 62.2344 176.885 62.7031ZM179.043 53.9434L170.244 67.2344L169.453 66.7168L178.242 53.4355L179.043 53.9434Z" fill="#BB3216"/>
<circle cx="210" cy="170" r="169.5" stroke="#BB3216"/>
<path d="M210.5 0L210.5 170L120 313.5" stroke="#BB3216"/>
<path d="M210.499 170L93.6344 46.3419" stroke="#BB3216"/>
<circle cx="7" cy="390" r="7" fill="#F5C445"/>
<path d="M44.7969 392.484L45.6953 393.391C45.2318 393.932 44.7682 394.331 44.3047 394.586C43.5599 394.992 42.724 395.195 41.7969 395.195C40.2812 395.195 39.0547 394.672 38.1172 393.625C37.6745 393.125 37.3281 392.529 37.0781 391.836C36.8281 391.143 36.7031 390.424 36.7031 389.68C36.7031 388.867 36.849 388.094 37.1406 387.359C37.4323 386.62 37.8385 385.997 38.3594 385.492C39.2865 384.591 40.4375 384.141 41.8125 384.141C42.7969 384.141 43.6849 384.383 44.4766 384.867C44.862 385.107 45.2786 385.471 45.7266 385.961L44.7969 386.828C44.4062 386.427 44.0703 386.135 43.7891 385.953C43.1953 385.573 42.5443 385.383 41.8359 385.383C40.6849 385.383 39.7474 385.833 39.0234 386.734C38.3932 387.521 38.0781 388.497 38.0781 389.664C38.0781 390.341 38.1901 390.966 38.4141 391.539C38.6432 392.112 38.9635 392.586 39.375 392.961C40.1042 393.622 40.9479 393.953 41.9062 393.953C42.599 393.953 43.2344 393.771 43.8125 393.406C44.1302 393.203 44.4583 392.896 44.7969 392.484ZM51.6172 387.625H52.8438V392.352C52.8438 393.039 52.7344 393.56 52.5156 393.914C52.2708 394.31 51.9141 394.622 51.4453 394.852C50.9974 395.065 50.5104 395.172 49.9844 395.172C49.1094 395.172 48.3984 394.911 47.8516 394.391C47.3568 393.917 47.1094 393.237 47.1094 392.352V387.625H48.3281V392.305C48.3281 392.831 48.4792 393.258 48.7812 393.586C49.0885 393.919 49.4896 394.086 49.9844 394.086C50.5312 394.086 50.9635 393.898 51.2812 393.523C51.5052 393.268 51.6172 392.878 51.6172 392.352V387.625ZM55.0781 387.625H56.3047V388.867C56.4974 388.414 56.7214 388.089 56.9766 387.891C57.3672 387.594 57.8307 387.445 58.3672 387.445C58.4297 387.445 58.526 387.448 58.6562 387.453V388.68C58.5156 388.669 58.3984 388.664 58.3047 388.664C57.638 388.664 57.112 388.945 56.7266 389.508C56.5391 389.789 56.4193 390.081 56.3672 390.383C56.3255 390.628 56.3047 390.917 56.3047 391.25V395H55.0781V387.625ZM60.0312 387.625H61.2578V388.867C61.4505 388.414 61.6745 388.089 61.9297 387.891C62.3203 387.594 62.7839 387.445 63.3203 387.445C63.3828 387.445 63.4792 387.448 63.6094 387.453V388.68C63.4688 388.669 63.3516 388.664 63.2578 388.664C62.5911 388.664 62.0651 388.945 61.6797 389.508C61.4922 389.789 61.3724 390.081 61.3203 390.383C61.2786 390.628 61.2578 390.917 61.2578 391.25V395H60.0312V387.625ZM71.5938 391.703H65.4453C65.5078 392.25 65.6693 392.703 65.9297 393.062C66.4245 393.729 67.0859 394.062 67.9141 394.062C68.4557 394.062 68.9714 393.885 69.4609 393.531C69.737 393.333 69.9583 393.086 70.125 392.789L71.1953 393.188C70.9661 393.656 70.651 394.047 70.25 394.359C69.5521 394.906 68.7734 395.18 67.9141 395.18C66.7214 395.18 65.7604 394.75 65.0312 393.891C64.4479 393.208 64.1562 392.357 64.1562 391.336C64.1562 390.19 64.5078 389.255 65.2109 388.531C65.9089 387.812 66.7969 387.453 67.875 387.453C69.1354 387.453 70.125 387.927 70.8438 388.875C71.3594 389.557 71.6172 390.336 71.6172 391.211C71.6172 391.32 71.6094 391.484 71.5938 391.703ZM70.3203 390.812C70.2734 390.297 70.1302 389.875 69.8906 389.547C69.6667 389.234 69.375 388.99 69.0156 388.812C68.6562 388.63 68.2734 388.539 67.8672 388.539C67.4609 388.539 67.0833 388.63 66.7344 388.812C66.3854 388.995 66.1042 389.247 65.8906 389.57C65.6927 389.872 65.5521 390.286 65.4688 390.812H70.3203ZM73.3906 387.625H74.6094V388.664C74.8854 388.294 75.1589 388.021 75.4297 387.844C75.8359 387.583 76.2917 387.453 76.7969 387.453C77.4896 387.453 78.0573 387.659 78.5 388.07C78.7865 388.336 78.9688 388.651 79.0469 389.016C79.1042 389.292 79.1328 389.63 79.1328 390.031V395H77.9062V390.297C77.9062 389.693 77.8177 389.271 77.6406 389.031C77.401 388.703 77.0182 388.539 76.4922 388.539C75.9401 388.539 75.4714 388.747 75.0859 389.164C74.7682 389.508 74.6094 389.953 74.6094 390.5V395H73.3906V387.625ZM82.8281 388.695V393.492C82.8281 393.664 82.862 393.779 82.9297 393.836C82.9974 393.904 83.1458 393.938 83.375 393.938H83.9375V395H82.8125C82.3802 394.995 82.0729 394.904 81.8906 394.727C81.7031 394.555 81.6068 394.26 81.6016 393.844V388.695H80.5781V387.617H81.6016V385.305H82.8281V387.617H83.9375V388.695H82.8281ZM86.9141 395H85.6875V384.336H86.9141V395ZM91.4688 393.094L93.6719 387.625H95L90.5938 398.562H89.2734L90.8125 394.766L88.1875 387.625H89.4844L91.4688 393.094ZM105.414 387.625H106.641V392.352C106.641 393.039 106.531 393.56 106.312 393.914C106.068 394.31 105.711 394.622 105.242 394.852C104.794 395.065 104.307 395.172 103.781 395.172C102.906 395.172 102.195 394.911 101.648 394.391C101.154 393.917 100.906 393.237 100.906 392.352V387.625H102.125V392.305C102.125 392.831 102.276 393.258 102.578 393.586C102.885 393.919 103.286 394.086 103.781 394.086C104.328 394.086 104.76 393.898 105.078 393.523C105.302 393.268 105.414 392.878 105.414 392.352V387.625ZM113.492 389.633H112.281C112.281 389.378 112.242 389.185 112.164 389.055C111.924 388.648 111.495 388.445 110.875 388.445C110.453 388.445 110.122 388.544 109.883 388.742C109.654 388.93 109.539 389.174 109.539 389.477C109.539 389.888 109.737 390.195 110.133 390.398C110.305 390.482 110.656 390.596 111.188 390.742C112.068 390.982 112.669 391.263 112.992 391.586C113.383 391.977 113.578 392.458 113.578 393.031C113.578 393.734 113.284 394.294 112.695 394.711C112.263 395.018 111.685 395.172 110.961 395.172C109.862 395.172 109.078 394.833 108.609 394.156C108.385 393.828 108.25 393.411 108.203 392.906H109.406C109.438 393.234 109.536 393.495 109.703 393.688C109.995 394.016 110.414 394.18 110.961 394.18C111.378 394.18 111.706 394.083 111.945 393.891C112.206 393.677 112.336 393.414 112.336 393.102C112.336 392.768 112.185 392.49 111.883 392.266C111.69 392.125 111.281 391.971 110.656 391.805C109.875 391.602 109.302 391.336 108.938 391.008C108.531 390.633 108.328 390.159 108.328 389.586C108.328 388.867 108.625 388.307 109.219 387.906C109.672 387.604 110.24 387.453 110.922 387.453C111.875 387.453 112.583 387.745 113.047 388.328C113.318 388.672 113.466 389.107 113.492 389.633ZM116.672 387.625V395H115.453V387.625H116.672ZM116.086 384.766C116.31 384.766 116.497 384.852 116.648 385.023C116.784 385.174 116.852 385.349 116.852 385.547C116.852 385.781 116.763 385.979 116.586 386.141C116.445 386.266 116.273 386.328 116.07 386.328C115.831 386.328 115.638 386.245 115.492 386.078C115.357 385.927 115.289 385.747 115.289 385.539C115.289 385.31 115.378 385.115 115.555 384.953C115.69 384.828 115.867 384.766 116.086 384.766ZM119.125 387.625H120.344V388.664C120.62 388.294 120.893 388.021 121.164 387.844C121.57 387.583 122.026 387.453 122.531 387.453C123.224 387.453 123.792 387.659 124.234 388.07C124.521 388.336 124.703 388.651 124.781 389.016C124.839 389.292 124.867 389.63 124.867 390.031V395H123.641V390.297C123.641 389.693 123.552 389.271 123.375 389.031C123.135 388.703 122.753 388.539 122.227 388.539C121.674 388.539 121.206 388.747 120.82 389.164C120.503 389.508 120.344 389.953 120.344 390.5V395H119.125V387.625ZM132.734 388.891V387.625H133.945V395.047C133.945 395.667 133.867 396.193 133.711 396.625C133.56 397.057 133.315 397.435 132.977 397.758C132.305 398.409 131.398 398.734 130.258 398.734C128.888 398.734 127.802 398.284 127 397.383L127.828 396.555C128.104 396.862 128.339 397.076 128.531 397.195C128.99 397.487 129.562 397.633 130.25 397.633C131.083 397.633 131.727 397.391 132.18 396.906C132.549 396.51 132.734 395.922 132.734 395.141V393.594C132.417 394.073 132.094 394.422 131.766 394.641C131.24 394.995 130.656 395.172 130.016 395.172C129.536 395.172 129.076 395.068 128.633 394.859C128.19 394.651 127.81 394.362 127.492 393.992C126.898 393.294 126.602 392.409 126.602 391.336C126.602 390.742 126.703 390.18 126.906 389.648C127.115 389.112 127.404 388.667 127.773 388.312C128.372 387.734 129.151 387.445 130.109 387.445C130.677 387.445 131.19 387.578 131.648 387.844C132.018 388.057 132.38 388.406 132.734 388.891ZM130.273 388.562C129.549 388.562 128.951 388.852 128.477 389.43C128.086 389.909 127.891 390.526 127.891 391.281C127.891 392.208 128.177 392.93 128.75 393.445C129.203 393.852 129.719 394.055 130.297 394.055C131.036 394.055 131.661 393.758 132.172 393.164C132.521 392.753 132.695 392.094 132.695 391.188C132.695 390.417 132.505 389.815 132.125 389.383C131.646 388.836 131.029 388.562 130.273 388.562ZM147.195 392.531H142.406L141.445 395H140.047L144.07 384.336H145.656L149.578 395H148.086L147.195 392.531ZM146.789 391.375L144.828 386.031L142.82 391.375H146.789ZM152.328 384.336V395H150.984V384.336H152.328Z" fill="#BB3216"/>
<line y1="405.5" x2="420" y2="405.5" stroke="#BB3216"/>
<circle cx="7" cy="422" r="7" fill="#E2725B"/>
<path d="M38.6719 422.922V427H37.3281V416.336H40.1797C41.4453 416.336 42.401 416.607 43.0469 417.148C43.7396 417.727 44.0859 418.552 44.0859 419.625C44.0859 420.182 43.9714 420.698 43.7422 421.172C43.5182 421.641 43.2031 422.018 42.7969 422.305C42.2135 422.716 41.3906 422.922 40.3281 422.922H38.6719ZM38.6719 421.773H40.0625C40.599 421.773 41.0443 421.711 41.3984 421.586C41.8203 421.44 42.1536 421.18 42.3984 420.805C42.6224 420.466 42.7344 420.076 42.7344 419.633C42.7344 418.987 42.5078 418.469 42.0547 418.078C41.5964 417.688 40.875 417.492 39.8906 417.492H38.6719V421.773ZM46.9453 427H45.7188V416.336H46.9453V427ZM54.9453 420.844V419.625H56.1719V427H54.9453V425.586C54.237 426.643 53.3411 427.172 52.2578 427.172C51.2214 427.172 50.3646 426.786 49.6875 426.016C49.0885 425.328 48.7891 424.438 48.7891 423.344C48.7891 422.729 48.8932 422.161 49.1016 421.641C49.3099 421.115 49.6042 420.68 49.9844 420.336C50.6406 419.747 51.4115 419.453 52.2969 419.453C52.9323 419.453 53.5078 419.615 54.0234 419.938C54.3359 420.135 54.6432 420.438 54.9453 420.844ZM52.4141 420.539C51.6797 420.539 51.1016 420.831 50.6797 421.414C50.2786 421.966 50.0781 422.615 50.0781 423.359C50.0781 424.229 50.3411 424.924 50.8672 425.445C51.3099 425.888 51.8359 426.109 52.4453 426.109C53.2109 426.109 53.8411 425.789 54.3359 425.148C54.7578 424.607 54.9688 423.945 54.9688 423.164C54.9688 422.409 54.7448 421.792 54.2969 421.312C53.8177 420.797 53.1901 420.539 52.4141 420.539ZM58.625 419.625H59.8438V420.664C60.1198 420.294 60.3932 420.021 60.6641 419.844C61.0703 419.583 61.526 419.453 62.0312 419.453C62.724 419.453 63.2917 419.659 63.7344 420.07C64.0208 420.336 64.2031 420.651 64.2812 421.016C64.3385 421.292 64.3672 421.63 64.3672 422.031V427H63.1406V422.297C63.1406 421.693 63.0521 421.271 62.875 421.031C62.6354 420.703 62.2526 420.539 61.7266 420.539C61.1745 420.539 60.7057 420.747 60.3203 421.164C60.0026 421.508 59.8438 421.953 59.8438 422.5V427H58.625V419.625ZM66.7656 419.625H67.9844V420.664C68.2604 420.294 68.5339 420.021 68.8047 419.844C69.2109 419.583 69.6667 419.453 70.1719 419.453C70.8646 419.453 71.4323 419.659 71.875 420.07C72.1615 420.336 72.3438 420.651 72.4219 421.016C72.4792 421.292 72.5078 421.63 72.5078 422.031V427H71.2812V422.297C71.2812 421.693 71.1927 421.271 71.0156 421.031C70.776 420.703 70.3932 420.539 69.8672 420.539C69.3151 420.539 68.8464 420.747 68.4609 421.164C68.1432 421.508 67.9844 421.953 67.9844 422.5V427H66.7656V419.625ZM76.125 419.625V427H74.9062V419.625H76.125ZM75.5391 416.766C75.763 416.766 75.9505 416.852 76.1016 417.023C76.237 417.174 76.3047 417.349 76.3047 417.547C76.3047 417.781 76.2161 417.979 76.0391 418.141C75.8984 418.266 75.7266 418.328 75.5234 418.328C75.2839 418.328 75.0911 418.245 74.9453 418.078C74.8099 417.927 74.7422 417.747 74.7422 417.539C74.7422 417.31 74.8307 417.115 75.0078 416.953C75.1432 416.828 75.3203 416.766 75.5391 416.766ZM78.5781 419.625H79.7969V420.664C80.0729 420.294 80.3464 420.021 80.6172 419.844C81.0234 419.583 81.4792 419.453 81.9844 419.453C82.6771 419.453 83.2448 419.659 83.6875 420.07C83.974 420.336 84.1562 420.651 84.2344 421.016C84.2917 421.292 84.3203 421.63 84.3203 422.031V427H83.0938V422.297C83.0938 421.693 83.0052 421.271 82.8281 421.031C82.5885 420.703 82.2057 420.539 81.6797 420.539C81.1276 420.539 80.6589 420.747 80.2734 421.164C79.9557 421.508 79.7969 421.953 79.7969 422.5V427H78.5781V419.625ZM92.1875 420.891V419.625H93.3984V427.047C93.3984 427.667 93.3203 428.193 93.1641 428.625C93.013 429.057 92.7682 429.435 92.4297 429.758C91.7578 430.409 90.8516 430.734 89.7109 430.734C88.3411 430.734 87.2552 430.284 86.4531 429.383L87.2812 428.555C87.5573 428.862 87.7917 429.076 87.9844 429.195C88.4427 429.487 89.0156 429.633 89.7031 429.633C90.5365 429.633 91.1797 429.391 91.6328 428.906C92.0026 428.51 92.1875 427.922 92.1875 427.141V425.594C91.8698 426.073 91.5469 426.422 91.2188 426.641C90.6927 426.995 90.1094 427.172 89.4688 427.172C88.9896 427.172 88.5286 427.068 88.0859 426.859C87.6432 426.651 87.263 426.362 86.9453 425.992C86.3516 425.294 86.0547 424.409 86.0547 423.336C86.0547 422.742 86.1562 422.18 86.3594 421.648C86.5677 421.112 86.8568 420.667 87.2266 420.312C87.8255 419.734 88.6042 419.445 89.5625 419.445C90.1302 419.445 90.6432 419.578 91.1016 419.844C91.4714 420.057 91.8333 420.406 92.1875 420.891ZM89.7266 420.562C89.0026 420.562 88.4036 420.852 87.9297 421.43C87.5391 421.909 87.3438 422.526 87.3438 423.281C87.3438 424.208 87.6302 424.93 88.2031 425.445C88.6562 425.852 89.1719 426.055 89.75 426.055C90.4896 426.055 91.1146 425.758 91.625 425.164C91.974 424.753 92.1484 424.094 92.1484 423.188C92.1484 422.417 91.9583 421.815 91.5781 421.383C91.099 420.836 90.4818 420.562 89.7266 420.562ZM101.938 420.695V425.492C101.938 425.664 101.971 425.779 102.039 425.836C102.107 425.904 102.255 425.938 102.484 425.938H103.047V427H101.922C101.49 426.995 101.182 426.904 101 426.727C100.812 426.555 100.716 426.26 100.711 425.844V420.695H99.6875V419.617H100.711V417.305H101.938V419.617H103.047V420.695H101.938ZM107.852 419.453C109.003 419.453 109.948 419.888 110.688 420.758C111.266 421.44 111.555 422.279 111.555 423.273C111.555 424.451 111.156 425.414 110.359 426.164C109.646 426.836 108.784 427.172 107.773 427.172C107.195 427.172 106.648 427.055 106.133 426.82C105.622 426.581 105.195 426.25 104.852 425.828C104.315 425.172 104.047 424.318 104.047 423.266C104.047 422.062 104.43 421.115 105.195 420.422C105.909 419.776 106.794 419.453 107.852 419.453ZM107.75 420.57C106.995 420.57 106.378 420.857 105.898 421.43C105.492 421.904 105.289 422.544 105.289 423.352C105.289 424.174 105.526 424.831 106 425.32C106.484 425.81 107.086 426.055 107.805 426.055C108.633 426.055 109.284 425.742 109.758 425.117C110.128 424.633 110.312 424.013 110.312 423.258C110.312 422.419 110.065 421.758 109.57 421.273C109.091 420.805 108.484 420.57 107.75 420.57ZM122.508 419.625H123.734V424.352C123.734 425.039 123.625 425.56 123.406 425.914C123.161 426.31 122.805 426.622 122.336 426.852C121.888 427.065 121.401 427.172 120.875 427.172C120 427.172 119.289 426.911 118.742 426.391C118.247 425.917 118 425.237 118 424.352V419.625H119.219V424.305C119.219 424.831 119.37 425.258 119.672 425.586C119.979 425.919 120.38 426.086 120.875 426.086C121.422 426.086 121.854 425.898 122.172 425.523C122.396 425.268 122.508 424.878 122.508 424.352V419.625ZM130.586 421.633H129.375C129.375 421.378 129.336 421.185 129.258 421.055C129.018 420.648 128.589 420.445 127.969 420.445C127.547 420.445 127.216 420.544 126.977 420.742C126.747 420.93 126.633 421.174 126.633 421.477C126.633 421.888 126.831 422.195 127.227 422.398C127.398 422.482 127.75 422.596 128.281 422.742C129.161 422.982 129.763 423.263 130.086 423.586C130.477 423.977 130.672 424.458 130.672 425.031C130.672 425.734 130.378 426.294 129.789 426.711C129.357 427.018 128.779 427.172 128.055 427.172C126.956 427.172 126.172 426.833 125.703 426.156C125.479 425.828 125.344 425.411 125.297 424.906H126.5C126.531 425.234 126.63 425.495 126.797 425.688C127.089 426.016 127.508 426.18 128.055 426.18C128.471 426.18 128.799 426.083 129.039 425.891C129.299 425.677 129.43 425.414 129.43 425.102C129.43 424.768 129.279 424.49 128.977 424.266C128.784 424.125 128.375 423.971 127.75 423.805C126.969 423.602 126.396 423.336 126.031 423.008C125.625 422.633 125.422 422.159 125.422 421.586C125.422 420.867 125.719 420.307 126.312 419.906C126.766 419.604 127.333 419.453 128.016 419.453C128.969 419.453 129.677 419.745 130.141 420.328C130.411 420.672 130.56 421.107 130.586 421.633ZM139.391 423.703H133.242C133.305 424.25 133.466 424.703 133.727 425.062C134.221 425.729 134.883 426.062 135.711 426.062C136.253 426.062 136.768 425.885 137.258 425.531C137.534 425.333 137.755 425.086 137.922 424.789L138.992 425.188C138.763 425.656 138.448 426.047 138.047 426.359C137.349 426.906 136.57 427.18 135.711 427.18C134.518 427.18 133.557 426.75 132.828 425.891C132.245 425.208 131.953 424.357 131.953 423.336C131.953 422.19 132.305 421.255 133.008 420.531C133.706 419.812 134.594 419.453 135.672 419.453C136.932 419.453 137.922 419.927 138.641 420.875C139.156 421.557 139.414 422.336 139.414 423.211C139.414 423.32 139.406 423.484 139.391 423.703ZM138.117 422.812C138.07 422.297 137.927 421.875 137.688 421.547C137.464 421.234 137.172 420.99 136.812 420.812C136.453 420.63 136.07 420.539 135.664 420.539C135.258 420.539 134.88 420.63 134.531 420.812C134.182 420.995 133.901 421.247 133.688 421.57C133.49 421.872 133.349 422.286 133.266 422.812H138.117ZM151.992 424.531H147.203L146.242 427H144.844L148.867 416.336H150.453L154.375 427H152.883L151.992 424.531ZM151.586 423.375L149.625 418.031L147.617 423.375H151.586ZM157.125 416.336V427H155.781V416.336H157.125Z" fill="#BB3216"/>
<line y1="437.5" x2="420" y2="437.5" stroke="#BB3216"/>
<circle cx="7" cy="454" r="6.5" fill="white" stroke="#BB3216"/>
<path d="M38.6719 450.852V459H37.3281V448.336H38.5547L44.25 456.367V448.336H45.5938V459H44.4141L38.6719 450.852ZM51.3672 451.453C52.5182 451.453 53.4635 451.888 54.2031 452.758C54.7812 453.44 55.0703 454.279 55.0703 455.273C55.0703 456.451 54.6719 457.414 53.875 458.164C53.1615 458.836 52.2995 459.172 51.2891 459.172C50.7109 459.172 50.1641 459.055 49.6484 458.82C49.138 458.581 48.7109 458.25 48.3672 457.828C47.8307 457.172 47.5625 456.318 47.5625 455.266C47.5625 454.062 47.9453 453.115 48.7109 452.422C49.4245 451.776 50.3099 451.453 51.3672 451.453ZM51.2656 452.57C50.5104 452.57 49.8932 452.857 49.4141 453.43C49.0078 453.904 48.8047 454.544 48.8047 455.352C48.8047 456.174 49.0417 456.831 49.5156 457.32C50 457.81 50.6016 458.055 51.3203 458.055C52.1484 458.055 52.7995 457.742 53.2734 457.117C53.6432 456.633 53.8281 456.013 53.8281 455.258C53.8281 454.419 53.5807 453.758 53.0859 453.273C52.6068 452.805 52 452.57 51.2656 452.57ZM58.1094 452.695V457.492C58.1094 457.664 58.1432 457.779 58.2109 457.836C58.2786 457.904 58.4271 457.938 58.6562 457.938H59.2188V459H58.0938C57.6615 458.995 57.3542 458.904 57.1719 458.727C56.9844 458.555 56.888 458.26 56.8828 457.844V452.695H55.8594V451.617H56.8828V449.305H58.1094V451.617H59.2188V452.695H58.1094ZM70.0703 451.625H71.2969V456.352C71.2969 457.039 71.1875 457.56 70.9688 457.914C70.724 458.31 70.3672 458.622 69.8984 458.852C69.4505 459.065 68.9635 459.172 68.4375 459.172C67.5625 459.172 66.8516 458.911 66.3047 458.391C65.8099 457.917 65.5625 457.237 65.5625 456.352V451.625H66.7812V456.305C66.7812 456.831 66.9323 457.258 67.2344 457.586C67.5417 457.919 67.9427 458.086 68.4375 458.086C68.9844 458.086 69.4167 457.898 69.7344 457.523C69.9583 457.268 70.0703 456.878 70.0703 456.352V451.625ZM78.1484 453.633H76.9375C76.9375 453.378 76.8984 453.185 76.8203 453.055C76.5807 452.648 76.151 452.445 75.5312 452.445C75.1094 452.445 74.7786 452.544 74.5391 452.742C74.3099 452.93 74.1953 453.174 74.1953 453.477C74.1953 453.888 74.3932 454.195 74.7891 454.398C74.9609 454.482 75.3125 454.596 75.8438 454.742C76.724 454.982 77.3255 455.263 77.6484 455.586C78.0391 455.977 78.2344 456.458 78.2344 457.031C78.2344 457.734 77.9401 458.294 77.3516 458.711C76.9193 459.018 76.3411 459.172 75.6172 459.172C74.5182 459.172 73.7344 458.833 73.2656 458.156C73.0417 457.828 72.9062 457.411 72.8594 456.906H74.0625C74.0938 457.234 74.1927 457.495 74.3594 457.688C74.651 458.016 75.0703 458.18 75.6172 458.18C76.0339 458.18 76.362 458.083 76.6016 457.891C76.862 457.677 76.9922 457.414 76.9922 457.102C76.9922 456.768 76.8411 456.49 76.5391 456.266C76.3464 456.125 75.9375 455.971 75.3125 455.805C74.5312 455.602 73.9583 455.336 73.5938 455.008C73.1875 454.633 72.9844 454.159 72.9844 453.586C72.9844 452.867 73.2812 452.307 73.875 451.906C74.3281 451.604 74.8958 451.453 75.5781 451.453C76.5312 451.453 77.2396 451.745 77.7031 452.328C77.974 452.672 78.1224 453.107 78.1484 453.633ZM81.3281 451.625V459H80.1094V451.625H81.3281ZM80.7422 448.766C80.9661 448.766 81.1536 448.852 81.3047 449.023C81.4401 449.174 81.5078 449.349 81.5078 449.547C81.5078 449.781 81.4193 449.979 81.2422 450.141C81.1016 450.266 80.9297 450.328 80.7266 450.328C80.487 450.328 80.2943 450.245 80.1484 450.078C80.013 449.927 79.9453 449.747 79.9453 449.539C79.9453 449.31 80.0339 449.115 80.2109 448.953C80.3464 448.828 80.5234 448.766 80.7422 448.766ZM83.7812 451.625H85V452.664C85.276 452.294 85.5495 452.021 85.8203 451.844C86.2266 451.583 86.6823 451.453 87.1875 451.453C87.8802 451.453 88.4479 451.659 88.8906 452.07C89.1771 452.336 89.3594 452.651 89.4375 453.016C89.4948 453.292 89.5234 453.63 89.5234 454.031V459H88.2969V454.297C88.2969 453.693 88.2083 453.271 88.0312 453.031C87.7917 452.703 87.4089 452.539 86.8828 452.539C86.3307 452.539 85.862 452.747 85.4766 453.164C85.1589 453.508 85 453.953 85 454.5V459H83.7812V451.625ZM97.3906 452.891V451.625H98.6016V459.047C98.6016 459.667 98.5234 460.193 98.3672 460.625C98.2161 461.057 97.9714 461.435 97.6328 461.758C96.9609 462.409 96.0547 462.734 94.9141 462.734C93.5443 462.734 92.4583 462.284 91.6562 461.383L92.4844 460.555C92.7604 460.862 92.9948 461.076 93.1875 461.195C93.6458 461.487 94.2188 461.633 94.9062 461.633C95.7396 461.633 96.3828 461.391 96.8359 460.906C97.2057 460.51 97.3906 459.922 97.3906 459.141V457.594C97.0729 458.073 96.75 458.422 96.4219 458.641C95.8958 458.995 95.3125 459.172 94.6719 459.172C94.1927 459.172 93.7318 459.068 93.2891 458.859C92.8464 458.651 92.4661 458.362 92.1484 457.992C91.5547 457.294 91.2578 456.409 91.2578 455.336C91.2578 454.742 91.3594 454.18 91.5625 453.648C91.7708 453.112 92.0599 452.667 92.4297 452.312C93.0286 451.734 93.8073 451.445 94.7656 451.445C95.3333 451.445 95.8464 451.578 96.3047 451.844C96.6745 452.057 97.0365 452.406 97.3906 452.891ZM94.9297 452.562C94.2057 452.562 93.6068 452.852 93.1328 453.43C92.7422 453.909 92.5469 454.526 92.5469 455.281C92.5469 456.208 92.8333 456.93 93.4062 457.445C93.8594 457.852 94.375 458.055 94.9531 458.055C95.6927 458.055 96.3177 457.758 96.8281 457.164C97.1771 456.753 97.3516 456.094 97.3516 455.188C97.3516 454.417 97.1615 453.815 96.7812 453.383C96.3021 452.836 95.6849 452.562 94.9297 452.562ZM109.055 451.453C110.206 451.453 111.151 451.888 111.891 452.758C112.469 453.44 112.758 454.279 112.758 455.273C112.758 456.451 112.359 457.414 111.562 458.164C110.849 458.836 109.987 459.172 108.977 459.172C108.398 459.172 107.852 459.055 107.336 458.82C106.826 458.581 106.398 458.25 106.055 457.828C105.518 457.172 105.25 456.318 105.25 455.266C105.25 454.062 105.633 453.115 106.398 452.422C107.112 451.776 107.997 451.453 109.055 451.453ZM108.953 452.57C108.198 452.57 107.581 452.857 107.102 453.43C106.695 453.904 106.492 454.544 106.492 455.352C106.492 456.174 106.729 456.831 107.203 457.32C107.688 457.81 108.289 458.055 109.008 458.055C109.836 458.055 110.487 457.742 110.961 457.117C111.331 456.633 111.516 456.013 111.516 455.258C111.516 454.419 111.268 453.758 110.773 453.273C110.294 452.805 109.688 452.57 108.953 452.57ZM114.609 451.625H115.836V452.867C116.029 452.414 116.253 452.089 116.508 451.891C116.898 451.594 117.362 451.445 117.898 451.445C117.961 451.445 118.057 451.448 118.188 451.453V452.68C118.047 452.669 117.93 452.664 117.836 452.664C117.169 452.664 116.643 452.945 116.258 453.508C116.07 453.789 115.951 454.081 115.898 454.383C115.857 454.628 115.836 454.917 115.836 455.25V459H114.609V451.625ZM124.484 451.625H125.711V452.969C126.008 452.505 126.31 452.169 126.617 451.961C127.102 451.622 127.695 451.453 128.398 451.453C129.273 451.453 130.018 451.727 130.633 452.273C131.456 452.997 131.867 453.992 131.867 455.258C131.867 456.503 131.495 457.495 130.75 458.234C130.115 458.865 129.331 459.18 128.398 459.18C127.826 459.18 127.289 459.052 126.789 458.797C126.404 458.604 126.044 458.289 125.711 457.852V462.453H124.484V451.625ZM128.141 452.539C127.302 452.539 126.648 452.906 126.18 453.641C125.872 454.13 125.719 454.724 125.719 455.422C125.719 456.307 125.969 456.987 126.469 457.461C126.927 457.898 127.484 458.117 128.141 458.117C129.005 458.117 129.659 457.776 130.102 457.094C130.414 456.599 130.57 455.982 130.57 455.242C130.57 454.424 130.357 453.779 129.93 453.305C129.466 452.794 128.87 452.539 128.141 452.539ZM134.93 459H133.703V448.336H134.93V459ZM142.93 452.844V451.625H144.156V459H142.93V457.586C142.221 458.643 141.326 459.172 140.242 459.172C139.206 459.172 138.349 458.786 137.672 458.016C137.073 457.328 136.773 456.438 136.773 455.344C136.773 454.729 136.878 454.161 137.086 453.641C137.294 453.115 137.589 452.68 137.969 452.336C138.625 451.747 139.396 451.453 140.281 451.453C140.917 451.453 141.492 451.615 142.008 451.938C142.32 452.135 142.628 452.438 142.93 452.844ZM140.398 452.539C139.664 452.539 139.086 452.831 138.664 453.414C138.263 453.966 138.062 454.615 138.062 455.359C138.062 456.229 138.326 456.924 138.852 457.445C139.294 457.888 139.82 458.109 140.43 458.109C141.195 458.109 141.826 457.789 142.32 457.148C142.742 456.607 142.953 455.945 142.953 455.164C142.953 454.409 142.729 453.792 142.281 453.312C141.802 452.797 141.174 452.539 140.398 452.539ZM146.609 451.625H147.828V452.664C148.104 452.294 148.378 452.021 148.648 451.844C149.055 451.583 149.51 451.453 150.016 451.453C150.708 451.453 151.276 451.659 151.719 452.07C152.005 452.336 152.188 452.651 152.266 453.016C152.323 453.292 152.352 453.63 152.352 454.031V459H151.125V454.297C151.125 453.693 151.036 453.271 150.859 453.031C150.62 452.703 150.237 452.539 149.711 452.539C149.159 452.539 148.69 452.747 148.305 453.164C147.987 453.508 147.828 453.953 147.828 454.5V459H146.609V451.625ZM154.75 451.625H155.969V452.664C156.245 452.294 156.518 452.021 156.789 451.844C157.195 451.583 157.651 451.453 158.156 451.453C158.849 451.453 159.417 451.659 159.859 452.07C160.146 452.336 160.328 452.651 160.406 453.016C160.464 453.292 160.492 453.63 160.492 454.031V459H159.266V454.297C159.266 453.693 159.177 453.271 159 453.031C158.76 452.703 158.378 452.539 157.852 452.539C157.299 452.539 156.831 452.747 156.445 453.164C156.128 453.508 155.969 453.953 155.969 454.5V459H154.75V451.625ZM164.109 451.625V459H162.891V451.625H164.109ZM163.523 448.766C163.747 448.766 163.935 448.852 164.086 449.023C164.221 449.174 164.289 449.349 164.289 449.547C164.289 449.781 164.201 449.979 164.023 450.141C163.883 450.266 163.711 450.328 163.508 450.328C163.268 450.328 163.076 450.245 162.93 450.078C162.794 449.927 162.727 449.747 162.727 449.539C162.727 449.31 162.815 449.115 162.992 448.953C163.128 448.828 163.305 448.766 163.523 448.766ZM166.562 451.625H167.781V452.664C168.057 452.294 168.331 452.021 168.602 451.844C169.008 451.583 169.464 451.453 169.969 451.453C170.661 451.453 171.229 451.659 171.672 452.07C171.958 452.336 172.141 452.651 172.219 453.016C172.276 453.292 172.305 453.63 172.305 454.031V459H171.078V454.297C171.078 453.693 170.99 453.271 170.812 453.031C170.573 452.703 170.19 452.539 169.664 452.539C169.112 452.539 168.643 452.747 168.258 453.164C167.94 453.508 167.781 453.953 167.781 454.5V459H166.562V451.625ZM180.172 452.891V451.625H181.383V459.047C181.383 459.667 181.305 460.193 181.148 460.625C180.997 461.057 180.753 461.435 180.414 461.758C179.742 462.409 178.836 462.734 177.695 462.734C176.326 462.734 175.24 462.284 174.438 461.383L175.266 460.555C175.542 460.862 175.776 461.076 175.969 461.195C176.427 461.487 177 461.633 177.688 461.633C178.521 461.633 179.164 461.391 179.617 460.906C179.987 460.51 180.172 459.922 180.172 459.141V457.594C179.854 458.073 179.531 458.422 179.203 458.641C178.677 458.995 178.094 459.172 177.453 459.172C176.974 459.172 176.513 459.068 176.07 458.859C175.628 458.651 175.247 458.362 174.93 457.992C174.336 457.294 174.039 456.409 174.039 455.336C174.039 454.742 174.141 454.18 174.344 453.648C174.552 453.112 174.841 452.667 175.211 452.312C175.81 451.734 176.589 451.445 177.547 451.445C178.115 451.445 178.628 451.578 179.086 451.844C179.456 452.057 179.818 452.406 180.172 452.891ZM177.711 452.562C176.987 452.562 176.388 452.852 175.914 453.43C175.523 453.909 175.328 454.526 175.328 455.281C175.328 456.208 175.615 456.93 176.188 457.445C176.641 457.852 177.156 458.055 177.734 458.055C178.474 458.055 179.099 457.758 179.609 457.164C179.958 456.753 180.133 456.094 180.133 455.188C180.133 454.417 179.943 453.815 179.562 453.383C179.083 452.836 178.466 452.562 177.711 452.562ZM189.922 452.695V457.492C189.922 457.664 189.956 457.779 190.023 457.836C190.091 457.904 190.24 457.938 190.469 457.938H191.031V459H189.906C189.474 458.995 189.167 458.904 188.984 458.727C188.797 458.555 188.701 458.26 188.695 457.844V452.695H187.672V451.617H188.695V449.305H189.922V451.617H191.031V452.695H189.922ZM195.836 451.453C196.987 451.453 197.932 451.888 198.672 452.758C199.25 453.44 199.539 454.279 199.539 455.273C199.539 456.451 199.141 457.414 198.344 458.164C197.63 458.836 196.768 459.172 195.758 459.172C195.18 459.172 194.633 459.055 194.117 458.82C193.607 458.581 193.18 458.25 192.836 457.828C192.299 457.172 192.031 456.318 192.031 455.266C192.031 454.062 192.414 453.115 193.18 452.422C193.893 451.776 194.779 451.453 195.836 451.453ZM195.734 452.57C194.979 452.57 194.362 452.857 193.883 453.43C193.477 453.904 193.273 454.544 193.273 455.352C193.273 456.174 193.51 456.831 193.984 457.32C194.469 457.81 195.07 458.055 195.789 458.055C196.617 458.055 197.268 457.742 197.742 457.117C198.112 456.633 198.297 456.013 198.297 455.258C198.297 454.419 198.049 453.758 197.555 453.273C197.076 452.805 196.469 452.57 195.734 452.57ZM210.492 451.625H211.719V456.352C211.719 457.039 211.609 457.56 211.391 457.914C211.146 458.31 210.789 458.622 210.32 458.852C209.872 459.065 209.385 459.172 208.859 459.172C207.984 459.172 207.273 458.911 206.727 458.391C206.232 457.917 205.984 457.237 205.984 456.352V451.625H207.203V456.305C207.203 456.831 207.354 457.258 207.656 457.586C207.964 457.919 208.365 458.086 208.859 458.086C209.406 458.086 209.839 457.898 210.156 457.523C210.38 457.268 210.492 456.878 210.492 456.352V451.625ZM218.57 453.633H217.359C217.359 453.378 217.32 453.185 217.242 453.055C217.003 452.648 216.573 452.445 215.953 452.445C215.531 452.445 215.201 452.544 214.961 452.742C214.732 452.93 214.617 453.174 214.617 453.477C214.617 453.888 214.815 454.195 215.211 454.398C215.383 454.482 215.734 454.596 216.266 454.742C217.146 454.982 217.747 455.263 218.07 455.586C218.461 455.977 218.656 456.458 218.656 457.031C218.656 457.734 218.362 458.294 217.773 458.711C217.341 459.018 216.763 459.172 216.039 459.172C214.94 459.172 214.156 458.833 213.688 458.156C213.464 457.828 213.328 457.411 213.281 456.906H214.484C214.516 457.234 214.615 457.495 214.781 457.688C215.073 458.016 215.492 458.18 216.039 458.18C216.456 458.18 216.784 458.083 217.023 457.891C217.284 457.677 217.414 457.414 217.414 457.102C217.414 456.768 217.263 456.49 216.961 456.266C216.768 456.125 216.359 455.971 215.734 455.805C214.953 455.602 214.38 455.336 214.016 455.008C213.609 454.633 213.406 454.159 213.406 453.586C213.406 452.867 213.703 452.307 214.297 451.906C214.75 451.604 215.318 451.453 216 451.453C216.953 451.453 217.661 451.745 218.125 452.328C218.396 452.672 218.544 453.107 218.57 453.633ZM227.375 455.703H221.227C221.289 456.25 221.451 456.703 221.711 457.062C222.206 457.729 222.867 458.062 223.695 458.062C224.237 458.062 224.753 457.885 225.242 457.531C225.518 457.333 225.74 457.086 225.906 456.789L226.977 457.188C226.747 457.656 226.432 458.047 226.031 458.359C225.333 458.906 224.555 459.18 223.695 459.18C222.503 459.18 221.542 458.75 220.812 457.891C220.229 457.208 219.938 456.357 219.938 455.336C219.938 454.19 220.289 453.255 220.992 452.531C221.69 451.812 222.578 451.453 223.656 451.453C224.917 451.453 225.906 451.927 226.625 452.875C227.141 453.557 227.398 454.336 227.398 455.211C227.398 455.32 227.391 455.484 227.375 455.703ZM226.102 454.812C226.055 454.297 225.911 453.875 225.672 453.547C225.448 453.234 225.156 452.99 224.797 452.812C224.438 452.63 224.055 452.539 223.648 452.539C223.242 452.539 222.865 452.63 222.516 452.812C222.167 452.995 221.885 453.247 221.672 453.57C221.474 453.872 221.333 454.286 221.25 454.812H226.102ZM239.977 456.531H235.188L234.227 459H232.828L236.852 448.336H238.438L242.359 459H240.867L239.977 456.531ZM239.57 455.375L237.609 450.031L235.602 455.375H239.57ZM245.109 448.336V459H243.766V448.336H245.109Z" fill="#BB3216"/>
<line y1="469.5" x2="420" y2="469.5" stroke="#BB3216"/>
</svg>
