<svg width="1401" height="980" viewBox="0 0 1401 980" fill="none" xmlns="http://www.w3.org/2000/svg">
<g filter="url(#filter0_d_1413_25)">
<rect x="30" y="20" width="645" height="360" rx="5" fill="#BB3216"/>
<path d="M61.368 67.556H64.248C64.392 70.292 65.868 71.732 68.496 71.732C71.196 71.732 73.104 70.076 73.104 67.664C73.104 65.576 72.024 64.604 68.244 63.344C65.4 62.372 64.464 61.904 63.384 60.932C62.16 59.816 61.512 58.232 61.512 56.396C61.512 52.328 64.428 49.556 68.676 49.556C72.924 49.556 75.696 52.256 75.804 56.432H72.78C72.744 55.208 72.6 54.632 72.204 53.948C71.52 52.904 70.188 52.256 68.64 52.256C66.264 52.256 64.572 53.876 64.572 56.18C64.572 57.332 65.076 58.34 65.94 58.952C66.696 59.492 67.344 59.78 69.792 60.644C72.348 61.544 73.572 62.192 74.544 63.236C75.588 64.352 76.164 65.864 76.164 67.484C76.164 71.624 73.104 74.432 68.604 74.432C65.544 74.432 63.456 73.352 62.196 71.192C61.62 70.22 61.368 69.212 61.368 68.06V67.556ZM83.3004 59.816V70.616C83.3364 71.444 83.5524 71.624 84.5604 71.624H85.8204V74H83.2644C81.3204 73.964 80.5644 73.244 80.5644 71.408V59.816H78.2604V57.404H80.5644V52.184H83.3004V57.404H85.8204V59.816H83.3004ZM89.5954 57.404H92.3314V60.212C92.8354 59.024 93.1954 58.52 93.8434 58.016C94.6714 57.368 95.8234 57.008 97.0114 57.008H97.6594V59.78C97.3714 59.744 97.0834 59.744 96.9034 59.744C95.4274 59.744 94.1314 60.428 93.3034 61.652C92.5834 62.696 92.3314 63.668 92.3314 65.576V74H89.5954V57.404ZM113.022 60.14V57.404H115.758V74H113.022V70.796C111.366 73.28 109.494 74.396 106.974 74.396C102.402 74.396 99.1618 70.796 99.1618 65.756C99.1618 60.68 102.474 57.008 107.046 57.008C109.566 57.008 111.402 57.98 113.022 60.14ZM107.442 59.456C105.642 59.456 104.382 60.068 103.41 61.436C102.546 62.624 102.042 64.208 102.042 65.828C102.042 69.356 104.346 72.02 107.37 72.02C110.502 72.02 113.058 69.104 113.058 65.54C113.058 61.94 110.754 59.456 107.442 59.456ZM124.082 59.816V70.616C124.118 71.444 124.334 71.624 125.342 71.624H126.602V74H124.046C122.102 73.964 121.346 73.244 121.346 71.408V59.816H119.042V57.404H121.346V52.184H124.082V57.404H126.602V59.816H124.082ZM145.574 66.584H131.75C131.894 67.988 132.146 68.708 132.83 69.608C133.91 71.084 135.494 71.876 137.294 71.876C139.346 71.876 141.29 70.76 142.262 69.032L144.674 69.932C143.306 72.704 140.462 74.396 137.294 74.396C132.362 74.396 128.834 70.796 128.834 65.756C128.834 60.644 132.326 57.008 137.186 57.008C142.01 57.008 145.61 60.644 145.61 65.504C145.61 65.72 145.61 66.188 145.574 66.584ZM131.786 64.568H142.694C142.586 63.272 142.334 62.552 141.758 61.724C140.714 60.32 139.022 59.456 137.186 59.456C135.35 59.456 133.694 60.32 132.722 61.76C132.218 62.552 132.002 63.236 131.786 64.568ZM161.989 60.248V57.404H164.725V74.108C164.725 76.88 164.041 78.752 162.529 80.192C161.053 81.632 158.929 82.388 156.409 82.388C153.313 82.388 150.865 81.38 149.065 79.364L150.937 77.492C151.693 78.284 152.053 78.608 152.521 78.932C153.457 79.508 155.005 79.904 156.409 79.904C158.137 79.904 159.793 79.292 160.729 78.284C161.557 77.384 161.989 76.052 161.989 74.324V70.832C160.369 73.28 158.461 74.396 155.869 74.396C151.477 74.396 148.201 70.688 148.201 65.756C148.201 63.092 149.173 60.536 150.829 58.952C152.161 57.656 153.961 57.008 156.085 57.008C158.605 57.008 160.297 57.944 161.989 60.248ZM156.589 59.528C153.349 59.528 151.081 62.048 151.081 65.648C151.081 69.212 153.385 71.876 156.517 71.876C158.101 71.876 159.649 71.12 160.729 69.86C161.449 69.032 161.917 67.412 161.917 65.756C161.917 63.596 161.593 62.444 160.621 61.364C159.613 60.248 158.065 59.528 156.589 59.528ZM172.98 57.404V74H170.244V57.404H172.98ZM171.648 50.96C172.62 50.96 173.376 51.752 173.376 52.76C173.376 53.732 172.584 54.488 171.612 54.488C170.64 54.488 169.884 53.732 169.884 52.724C169.884 51.716 170.64 50.96 171.648 50.96ZM189.702 70.076L191.394 71.948C189.522 73.64 187.686 74.396 185.274 74.396C180.522 74.396 177.138 70.796 177.138 65.756C177.138 60.608 180.558 57.008 185.418 57.008C187.794 57.008 189.738 57.8 191.466 59.492L189.702 61.256C188.442 60.104 187.038 59.528 185.49 59.528C182.214 59.528 179.946 62.048 179.946 65.648C179.946 69.32 182.214 71.876 185.454 71.876C187.074 71.876 188.37 71.336 189.702 70.076ZM219.252 68.456H208.488L206.292 74H203.16L212.196 49.988H215.796L224.616 74H221.232L219.252 68.456ZM218.316 65.864L213.924 53.804L209.388 65.864H218.316ZM237.197 57.404H239.969V68.024C239.969 70.292 239.537 71.552 238.313 72.668C237.089 73.784 235.396 74.396 233.525 74.396C231.653 74.396 229.925 73.748 228.737 72.632C227.621 71.552 227.081 70.04 227.081 68.024V57.404H229.817V67.952C229.817 70.292 231.329 71.948 233.525 71.948C234.677 71.948 235.793 71.48 236.477 70.688C237.017 70.04 237.197 69.356 237.197 68.024V57.404ZM257.441 59.924V49.988H260.177V74H257.441V71.156C255.785 73.424 254.021 74.396 251.501 74.396C246.929 74.396 243.689 70.832 243.689 65.792C243.689 60.752 247.001 57.008 251.501 57.008C253.949 57.008 255.821 57.908 257.441 59.924ZM252.077 59.456C248.801 59.456 246.569 62.048 246.569 65.828C246.569 69.464 248.765 72.02 251.897 72.02C255.101 72.02 257.441 69.356 257.441 65.756C257.441 62.012 255.245 59.456 252.077 59.456ZM268.429 57.404V74H265.693V57.404H268.429ZM267.097 50.96C268.069 50.96 268.825 51.752 268.825 52.76C268.825 53.732 268.033 54.488 267.061 54.488C266.089 54.488 265.333 53.732 265.333 52.724C265.333 51.716 266.089 50.96 267.097 50.96ZM276.836 59.816V70.616C276.872 71.444 277.088 71.624 278.096 71.624H279.356V74H276.8C274.856 73.964 274.1 73.244 274.1 71.408V59.816H271.796V57.404H274.1V52.184H276.836V57.404H279.356V59.816H276.836ZM66.012 112.82V122H62.988V97.988H69.396C75.084 97.988 78.216 100.58 78.216 105.332C78.216 107.708 77.28 109.832 75.66 111.164C74.256 112.28 72.384 112.82 69.72 112.82H66.012ZM66.012 110.228H69.144C70.44 110.228 71.304 110.12 72.132 109.796C73.968 109.148 75.156 107.456 75.156 105.404C75.156 103.352 74.004 101.696 72.096 101.048C71.16 100.724 70.188 100.58 68.748 100.58H66.012V110.228ZM96.7065 114.584H82.8825C83.0265 115.988 83.2785 116.708 83.9625 117.608C85.0425 119.084 86.6265 119.876 88.4265 119.876C90.4785 119.876 92.4225 118.76 93.3945 117.032L95.8065 117.932C94.4385 120.704 91.5945 122.396 88.4265 122.396C83.4945 122.396 79.9665 118.796 79.9665 113.756C79.9665 108.644 83.4585 105.008 88.3185 105.008C93.1425 105.008 96.7425 108.644 96.7425 113.504C96.7425 113.72 96.7425 114.188 96.7065 114.584ZM82.9185 112.568H93.8265C93.7185 111.272 93.4665 110.552 92.8905 109.724C91.8465 108.32 90.1545 107.456 88.3185 107.456C86.4825 107.456 84.8265 108.32 83.8545 109.76C83.3505 110.552 83.1345 111.236 82.9185 112.568ZM100.705 105.404H103.441V108.212C103.945 107.024 104.305 106.52 104.953 106.016C105.781 105.368 106.933 105.008 108.121 105.008H108.769V107.78C108.481 107.744 108.193 107.744 108.013 107.744C106.537 107.744 105.241 108.428 104.413 109.652C103.693 110.696 103.441 111.668 103.441 113.576V122H100.705V105.404ZM122.64 109.94H119.904V109.76C119.904 108.212 118.644 107.24 116.736 107.24C114.9 107.24 113.748 108.176 113.748 109.616C113.748 111.056 114.468 111.596 117.456 112.424C119.58 113 120.696 113.54 121.488 114.332C122.316 115.16 122.82 116.348 122.82 117.572C122.82 120.452 120.444 122.396 116.916 122.396C113.136 122.396 111.012 120.632 110.724 117.284H113.424C113.604 119.156 114.828 120.164 116.916 120.164C118.788 120.164 120.012 119.192 120.012 117.716C120.012 116.276 119.076 115.556 116.232 114.836C112.632 113.864 111.012 112.352 111.012 109.832C111.012 106.952 113.352 105.008 116.844 105.008C120.372 105.008 122.496 106.808 122.64 109.94ZM134.201 105.008C139.097 105.008 142.589 108.644 142.589 113.756C142.589 118.616 138.845 122.396 134.093 122.396C129.161 122.396 125.705 118.796 125.705 113.684C125.705 108.536 129.161 105.008 134.201 105.008ZM134.201 107.528C130.781 107.528 128.513 110.012 128.513 113.72C128.513 117.392 130.781 119.876 134.165 119.876C137.441 119.876 139.781 117.32 139.781 113.72C139.781 110.012 137.549 107.528 134.201 107.528ZM146.759 105.404H149.495V107.744C150.935 105.8 152.375 105.008 154.427 105.008C155.939 105.008 157.307 105.512 158.279 106.376C159.323 107.384 159.683 108.536 159.683 110.804V122H156.947V111.416C156.947 109.94 156.767 109.148 156.335 108.572C155.831 107.888 154.859 107.456 153.743 107.456C152.519 107.456 151.403 107.924 150.575 108.86C149.783 109.724 149.495 110.516 149.495 111.884V122H146.759V105.404ZM177.604 108.14V105.404H180.34V122H177.604V118.796C175.948 121.28 174.076 122.396 171.556 122.396C166.984 122.396 163.744 118.796 163.744 113.756C163.744 108.68 167.056 105.008 171.628 105.008C174.148 105.008 175.984 105.98 177.604 108.14ZM172.024 107.456C170.224 107.456 168.964 108.068 167.992 109.436C167.128 110.624 166.624 112.208 166.624 113.828C166.624 117.356 168.928 120.02 171.952 120.02C175.084 120.02 177.64 117.104 177.64 113.54C177.64 109.94 175.336 107.456 172.024 107.456ZM207.374 97.556C210.722 97.556 213.926 99.068 216.23 101.696C218.174 103.964 219.038 106.628 219.038 110.228C219.038 113.972 217.598 117.32 214.97 119.552C212.81 121.424 210.074 122.432 207.302 122.432C203.738 122.432 200.246 120.74 198.014 117.932C196.358 115.844 195.494 113.144 195.494 110.12C195.494 102.956 200.57 97.556 207.374 97.556ZM207.302 100.364C202.298 100.364 198.59 104.468 198.59 110.012C198.59 115.592 202.262 119.66 207.23 119.66C209.642 119.66 212.018 118.616 213.638 116.78C215.042 115.232 215.942 112.64 215.942 110.192C215.942 106.988 215.078 104.648 213.206 102.848C211.622 101.3 209.426 100.364 207.302 100.364ZM233.475 105.404H236.319L230.055 122H227.175L221.091 105.404H223.971L228.651 118.076L233.475 105.404ZM254.242 114.584H240.418C240.562 115.988 240.814 116.708 241.498 117.608C242.578 119.084 244.162 119.876 245.962 119.876C248.014 119.876 249.958 118.76 250.93 117.032L253.342 117.932C251.974 120.704 249.13 122.396 245.962 122.396C241.03 122.396 237.502 118.796 237.502 113.756C237.502 108.644 240.994 105.008 245.854 105.008C250.678 105.008 254.278 108.644 254.278 113.504C254.278 113.72 254.278 114.188 254.242 114.584ZM240.454 112.568H251.362C251.254 111.272 251.002 110.552 250.426 109.724C249.382 108.32 247.69 107.456 245.854 107.456C244.018 107.456 242.362 108.32 241.39 109.76C240.886 110.552 240.67 111.236 240.454 112.568ZM258.24 105.404H260.976V108.212C261.48 107.024 261.84 106.52 262.488 106.016C263.316 105.368 264.468 105.008 265.656 105.008H266.304V107.78C266.016 107.744 265.728 107.744 265.548 107.744C264.072 107.744 262.776 108.428 261.948 109.652C261.228 110.696 260.976 111.668 260.976 113.576V122H258.24V105.404ZM280.479 105.404H283.323L277.059 122H274.179L268.095 105.404H270.975L275.655 118.076L280.479 105.404ZM288.925 105.404V122H286.189V105.404H288.925ZM287.593 98.96C288.565 98.96 289.321 99.752 289.321 100.76C289.321 101.732 288.529 102.488 287.557 102.488C286.585 102.488 285.829 101.732 285.829 100.724C285.829 99.716 286.585 98.96 287.593 98.96ZM309.824 114.584H296C296.144 115.988 296.396 116.708 297.08 117.608C298.16 119.084 299.744 119.876 301.544 119.876C303.596 119.876 305.54 118.76 306.512 117.032L308.924 117.932C307.556 120.704 304.712 122.396 301.544 122.396C296.612 122.396 293.084 118.796 293.084 113.756C293.084 108.644 296.576 105.008 301.436 105.008C306.26 105.008 309.86 108.644 309.86 113.504C309.86 113.72 309.86 114.188 309.824 114.584ZM296.036 112.568H306.944C306.836 111.272 306.584 110.552 306.008 109.724C304.964 108.32 303.272 107.456 301.436 107.456C299.6 107.456 297.944 108.32 296.972 109.76C296.468 110.552 296.252 111.236 296.036 112.568ZM332.658 105.404H335.466L329.562 122H327.078L323.262 109.4L319.266 122H316.674L310.986 105.404H313.794L318.042 117.608L321.858 105.404H324.558L328.302 117.608L332.658 105.404Z" fill="white"/>
<path d="M82.5 330.5H82.2781L71.4024 341.377V330.5H71.0956V341.38L60.2168 330.5H60V330.717L70.0392 340.757L60 334.049V334.417L69.8694 341.013L60 336.924V337.256L69.7518 341.296L60 339.356V339.669L69.6915 341.597H60V341.903H69.6925L60 343.831V344.144L69.7518 342.204L60 346.244V346.576L69.8694 342.487L60 349.083V349.451L70.0392 342.743L60 352.783V353H60.2168L71.0956 342.12V353H71.4024V342.123L82.2781 353H82.5V330.5Z" fill="white"/>
</g>
<g filter="url(#filter1_d_1413_25)">
<rect x="204" y="160" width="645" height="360" rx="5" fill="#F5C445"/>
<path d="M235.368 207.556H238.248C238.392 210.292 239.868 211.732 242.496 211.732C245.196 211.732 247.104 210.076 247.104 207.664C247.104 205.576 246.024 204.604 242.244 203.344C239.4 202.372 238.464 201.904 237.384 200.932C236.16 199.816 235.512 198.232 235.512 196.396C235.512 192.328 238.428 189.556 242.676 189.556C246.924 189.556 249.696 192.256 249.804 196.432H246.78C246.744 195.208 246.6 194.632 246.204 193.948C245.52 192.904 244.188 192.256 242.64 192.256C240.264 192.256 238.572 193.876 238.572 196.18C238.572 197.332 239.076 198.34 239.94 198.952C240.696 199.492 241.344 199.78 243.792 200.644C246.348 201.544 247.572 202.192 248.544 203.236C249.588 204.352 250.164 205.864 250.164 207.484C250.164 211.624 247.104 214.432 242.604 214.432C239.544 214.432 237.456 213.352 236.196 211.192C235.62 210.22 235.368 209.212 235.368 208.06V207.556ZM257.3 199.816V210.616C257.336 211.444 257.552 211.624 258.56 211.624H259.82V214H257.264C255.32 213.964 254.564 213.244 254.564 211.408V199.816H252.26V197.404H254.564V192.184H257.3V197.404H259.82V199.816H257.3ZM263.595 197.404H266.331V200.212C266.835 199.024 267.195 198.52 267.843 198.016C268.671 197.368 269.823 197.008 271.011 197.008H271.659V199.78C271.371 199.744 271.083 199.744 270.903 199.744C269.427 199.744 268.131 200.428 267.303 201.652C266.583 202.696 266.331 203.668 266.331 205.576V214H263.595V197.404ZM287.022 200.14V197.404H289.758V214H287.022V210.796C285.366 213.28 283.494 214.396 280.974 214.396C276.402 214.396 273.162 210.796 273.162 205.756C273.162 200.68 276.474 197.008 281.046 197.008C283.566 197.008 285.402 197.98 287.022 200.14ZM281.442 199.456C279.642 199.456 278.382 200.068 277.41 201.436C276.546 202.624 276.042 204.208 276.042 205.828C276.042 209.356 278.346 212.02 281.37 212.02C284.502 212.02 287.058 209.104 287.058 205.54C287.058 201.94 284.754 199.456 281.442 199.456ZM298.082 199.816V210.616C298.118 211.444 298.334 211.624 299.342 211.624H300.602V214H298.046C296.102 213.964 295.346 213.244 295.346 211.408V199.816H293.042V197.404H295.346V192.184H298.082V197.404H300.602V199.816H298.082ZM319.574 206.584H305.75C305.894 207.988 306.146 208.708 306.83 209.608C307.91 211.084 309.494 211.876 311.294 211.876C313.346 211.876 315.29 210.76 316.262 209.032L318.674 209.932C317.306 212.704 314.462 214.396 311.294 214.396C306.362 214.396 302.834 210.796 302.834 205.756C302.834 200.644 306.326 197.008 311.186 197.008C316.01 197.008 319.61 200.644 319.61 205.504C319.61 205.72 319.61 206.188 319.574 206.584ZM305.786 204.568H316.694C316.586 203.272 316.334 202.552 315.758 201.724C314.714 200.32 313.022 199.456 311.186 199.456C309.35 199.456 307.694 200.32 306.722 201.76C306.218 202.552 306.002 203.236 305.786 204.568ZM335.989 200.248V197.404H338.725V214.108C338.725 216.88 338.041 218.752 336.529 220.192C335.053 221.632 332.929 222.388 330.409 222.388C327.313 222.388 324.865 221.38 323.065 219.364L324.937 217.492C325.693 218.284 326.053 218.608 326.521 218.932C327.457 219.508 329.005 219.904 330.409 219.904C332.137 219.904 333.793 219.292 334.729 218.284C335.557 217.384 335.989 216.052 335.989 214.324V210.832C334.369 213.28 332.461 214.396 329.869 214.396C325.477 214.396 322.201 210.688 322.201 205.756C322.201 203.092 323.173 200.536 324.829 198.952C326.161 197.656 327.961 197.008 330.085 197.008C332.605 197.008 334.297 197.944 335.989 200.248ZM330.589 199.528C327.349 199.528 325.081 202.048 325.081 205.648C325.081 209.212 327.385 211.876 330.517 211.876C332.101 211.876 333.649 211.12 334.729 209.86C335.449 209.032 335.917 207.412 335.917 205.756C335.917 203.596 335.593 202.444 334.621 201.364C333.613 200.248 332.065 199.528 330.589 199.528ZM346.98 197.404V214H344.244V197.404H346.98ZM345.648 190.96C346.62 190.96 347.376 191.752 347.376 192.76C347.376 193.732 346.584 194.488 345.612 194.488C344.64 194.488 343.884 193.732 343.884 192.724C343.884 191.716 344.64 190.96 345.648 190.96ZM363.702 210.076L365.394 211.948C363.522 213.64 361.686 214.396 359.274 214.396C354.522 214.396 351.138 210.796 351.138 205.756C351.138 200.608 354.558 197.008 359.418 197.008C361.794 197.008 363.738 197.8 365.466 199.492L363.702 201.256C362.442 200.104 361.038 199.528 359.49 199.528C356.214 199.528 353.946 202.048 353.946 205.648C353.946 209.32 356.214 211.876 359.454 211.876C361.074 211.876 362.37 211.336 363.702 210.076ZM393.252 208.456H382.488L380.292 214H377.16L386.196 189.988H389.796L398.616 214H395.232L393.252 208.456ZM392.316 205.864L387.924 193.804L383.388 205.864H392.316ZM411.197 197.404H413.969V208.024C413.969 210.292 413.537 211.552 412.313 212.668C411.089 213.784 409.396 214.396 407.525 214.396C405.653 214.396 403.925 213.748 402.737 212.632C401.621 211.552 401.081 210.04 401.081 208.024V197.404H403.817V207.952C403.817 210.292 405.329 211.948 407.525 211.948C408.677 211.948 409.793 211.48 410.477 210.688C411.017 210.04 411.197 209.356 411.197 208.024V197.404ZM431.441 199.924V189.988H434.177V214H431.441V211.156C429.785 213.424 428.021 214.396 425.501 214.396C420.929 214.396 417.689 210.832 417.689 205.792C417.689 200.752 421.001 197.008 425.501 197.008C427.949 197.008 429.821 197.908 431.441 199.924ZM426.077 199.456C422.801 199.456 420.569 202.048 420.569 205.828C420.569 209.464 422.765 212.02 425.897 212.02C429.101 212.02 431.441 209.356 431.441 205.756C431.441 202.012 429.245 199.456 426.077 199.456ZM442.429 197.404V214H439.693V197.404H442.429ZM441.097 190.96C442.069 190.96 442.825 191.752 442.825 192.76C442.825 193.732 442.033 194.488 441.061 194.488C440.089 194.488 439.333 193.732 439.333 192.724C439.333 191.716 440.089 190.96 441.097 190.96ZM450.836 199.816V210.616C450.872 211.444 451.088 211.624 452.096 211.624H453.356V214H450.8C448.856 213.964 448.1 213.244 448.1 211.408V199.816H445.796V197.404H448.1V192.184H450.836V197.404H453.356V199.816H450.836ZM240.012 243.64V262H236.988V237.988H239.76L252.576 256.06V237.988H255.6V262H252.936L240.012 243.64ZM276.753 254.584H262.929C263.073 255.988 263.325 256.708 264.009 257.608C265.089 259.084 266.673 259.876 268.473 259.876C270.525 259.876 272.469 258.76 273.441 257.032L275.853 257.932C274.485 260.704 271.641 262.396 268.473 262.396C263.541 262.396 260.013 258.796 260.013 253.756C260.013 248.644 263.505 245.008 268.365 245.008C273.189 245.008 276.789 248.644 276.789 253.504C276.789 253.72 276.789 254.188 276.753 254.584ZM262.965 252.568H273.873C273.765 251.272 273.513 250.552 272.937 249.724C271.893 248.32 270.201 247.456 268.365 247.456C266.529 247.456 264.873 248.32 263.901 249.76C263.397 250.552 263.181 251.236 262.965 252.568ZM285.516 255.988L281.088 262H277.74L283.86 253.756L277.632 245.404H281.088L285.516 251.488L290.052 245.404H293.4L287.136 253.756L293.112 262H289.764L285.516 255.988ZM299.207 247.816V258.616C299.243 259.444 299.459 259.624 300.467 259.624H301.727V262H299.171C297.227 261.964 296.471 261.244 296.471 259.408V247.816H294.167V245.404H296.471V240.184H299.207V245.404H301.727V247.816H299.207ZM310.956 252.028V254.512H303.504V252.028H310.956ZM326.425 249.004H337.873C337.909 249.508 337.909 250.156 337.909 250.372C337.909 253.576 337.189 255.808 335.425 258.04C333.121 260.92 330.025 262.432 326.389 262.432C319.549 262.432 314.545 257.212 314.545 250.048C314.545 242.776 319.513 237.556 326.389 237.556C330.025 237.556 333.157 239.068 335.425 241.912L333.157 243.748C332.221 242.704 331.789 242.272 331.141 241.84C329.809 240.868 328.117 240.328 326.389 240.328C321.421 240.328 317.641 244.504 317.641 250.012C317.641 255.448 321.421 259.66 326.317 259.66C328.981 259.66 331.753 258.256 333.229 256.132C334.165 254.872 334.525 253.684 334.777 251.596H326.425V249.004ZM357.613 254.584H343.789C343.933 255.988 344.185 256.708 344.869 257.608C345.949 259.084 347.533 259.876 349.333 259.876C351.385 259.876 353.329 258.76 354.301 257.032L356.713 257.932C355.345 260.704 352.501 262.396 349.333 262.396C344.401 262.396 340.873 258.796 340.873 253.756C340.873 248.644 344.365 245.008 349.225 245.008C354.049 245.008 357.649 248.644 357.649 253.504C357.649 253.72 357.649 254.188 357.613 254.584ZM343.825 252.568H354.733C354.625 251.272 354.373 250.552 353.797 249.724C352.753 248.32 351.061 247.456 349.225 247.456C347.389 247.456 345.733 248.32 344.761 249.76C344.257 250.552 344.041 251.236 343.825 252.568ZM361.611 245.404H364.347V247.744C365.787 245.8 367.227 245.008 369.279 245.008C370.791 245.008 372.159 245.512 373.131 246.376C374.175 247.384 374.535 248.536 374.535 250.804V262H371.799V251.416C371.799 249.94 371.619 249.148 371.187 248.572C370.683 247.888 369.711 247.456 368.595 247.456C367.371 247.456 366.255 247.924 365.427 248.86C364.635 249.724 364.347 250.516 364.347 251.884V262H361.611V245.404ZM393.996 252.82V262H390.972V237.988H397.38C403.068 237.988 406.2 240.58 406.2 245.332C406.2 247.708 405.264 249.832 403.644 251.164C402.24 252.28 400.368 252.82 397.704 252.82H393.996ZM393.996 250.228H397.128C398.424 250.228 399.288 250.12 400.116 249.796C401.952 249.148 403.14 247.456 403.14 245.404C403.14 243.352 401.988 241.696 400.08 241.048C399.144 240.724 398.172 240.58 396.732 240.58H393.996V250.228ZM409.845 245.404H412.581V248.212C413.085 247.024 413.445 246.52 414.093 246.016C414.921 245.368 416.073 245.008 417.261 245.008H417.909V247.78C417.621 247.744 417.333 247.744 417.153 247.744C415.677 247.744 414.381 248.428 413.553 249.652C412.833 250.696 412.581 251.668 412.581 253.576V262H409.845V245.404ZM427.873 245.008C432.769 245.008 436.261 248.644 436.261 253.756C436.261 258.616 432.517 262.396 427.765 262.396C422.833 262.396 419.377 258.796 419.377 253.684C419.377 248.536 422.833 245.008 427.873 245.008ZM427.873 247.528C424.453 247.528 422.185 250.012 422.185 253.72C422.185 257.392 424.453 259.876 427.837 259.876C431.113 259.876 433.453 257.32 433.453 253.72C433.453 250.012 431.221 247.528 427.873 247.528ZM452.851 247.924V237.988H455.587V262H452.851V259.156C451.195 261.424 449.431 262.396 446.911 262.396C442.339 262.396 439.099 258.832 439.099 253.792C439.099 248.752 442.411 245.008 446.911 245.008C449.359 245.008 451.231 245.908 452.851 247.924ZM447.487 247.456C444.211 247.456 441.979 250.048 441.979 253.828C441.979 257.464 444.175 260.02 447.307 260.02C450.511 260.02 452.851 257.356 452.851 253.756C452.851 250.012 450.655 247.456 447.487 247.456ZM470.751 245.404H473.523V256.024C473.523 258.292 473.091 259.552 471.867 260.668C470.643 261.784 468.951 262.396 467.079 262.396C465.207 262.396 463.479 261.748 462.291 260.632C461.175 259.552 460.635 258.04 460.635 256.024V245.404H463.371V255.952C463.371 258.292 464.883 259.948 467.079 259.948C468.231 259.948 469.347 259.48 470.031 258.688C470.571 258.04 470.751 257.356 470.751 256.024V245.404ZM489.808 258.076L491.5 259.948C489.628 261.64 487.792 262.396 485.38 262.396C480.628 262.396 477.244 258.796 477.244 253.756C477.244 248.608 480.664 245.008 485.524 245.008C487.9 245.008 489.844 245.8 491.572 247.492L489.808 249.256C488.548 248.104 487.144 247.528 485.596 247.528C482.32 247.528 480.052 250.048 480.052 253.648C480.052 257.32 482.32 259.876 485.56 259.876C487.18 259.876 488.476 259.336 489.808 258.076ZM498.543 247.816V258.616C498.579 259.444 498.795 259.624 499.803 259.624H501.063V262H498.507C496.563 261.964 495.807 261.244 495.807 259.408V247.816H493.503V245.404H495.807V240.184H498.543V245.404H501.063V247.816H498.543ZM514.368 255.556H517.248C517.392 258.292 518.868 259.732 521.496 259.732C524.196 259.732 526.104 258.076 526.104 255.664C526.104 253.576 525.024 252.604 521.244 251.344C518.4 250.372 517.464 249.904 516.384 248.932C515.16 247.816 514.512 246.232 514.512 244.396C514.512 240.328 517.428 237.556 521.676 237.556C525.924 237.556 528.696 240.256 528.804 244.432H525.78C525.744 243.208 525.6 242.632 525.204 241.948C524.52 240.904 523.188 240.256 521.64 240.256C519.264 240.256 517.572 241.876 517.572 244.18C517.572 245.332 518.076 246.34 518.94 246.952C519.696 247.492 520.344 247.78 522.792 248.644C525.348 249.544 526.572 250.192 527.544 251.236C528.588 252.352 529.164 253.864 529.164 255.484C529.164 259.624 526.104 262.432 521.604 262.432C518.544 262.432 516.456 261.352 515.196 259.192C514.62 258.22 514.368 257.212 514.368 256.06V255.556ZM536.3 247.816V258.616C536.336 259.444 536.552 259.624 537.56 259.624H538.82V262H536.264C534.32 261.964 533.564 261.244 533.564 259.408V247.816H531.26V245.404H533.564V240.184H536.3V245.404H538.82V247.816H536.3ZM542.595 245.404H545.331V248.212C545.835 247.024 546.195 246.52 546.843 246.016C547.671 245.368 548.823 245.008 550.011 245.008H550.659V247.78C550.371 247.744 550.083 247.744 549.903 247.744C548.427 247.744 547.131 248.428 546.303 249.652C545.583 250.696 545.331 251.668 545.331 253.576V262H542.595V245.404ZM566.022 248.14V245.404H568.758V262H566.022V258.796C564.366 261.28 562.494 262.396 559.974 262.396C555.402 262.396 552.162 258.796 552.162 253.756C552.162 248.68 555.474 245.008 560.046 245.008C562.566 245.008 564.402 245.98 566.022 248.14ZM560.442 247.456C558.642 247.456 557.382 248.068 556.41 249.436C555.546 250.624 555.042 252.208 555.042 253.828C555.042 257.356 557.346 260.02 560.37 260.02C563.502 260.02 566.058 257.104 566.058 253.54C566.058 249.94 563.754 247.456 560.442 247.456ZM577.082 247.816V258.616C577.118 259.444 577.334 259.624 578.342 259.624H579.602V262H577.046C575.102 261.964 574.346 261.244 574.346 259.408V247.816H572.042V245.404H574.346V240.184H577.082V245.404H579.602V247.816H577.082ZM598.574 254.584H584.75C584.894 255.988 585.146 256.708 585.83 257.608C586.91 259.084 588.494 259.876 590.294 259.876C592.346 259.876 594.29 258.76 595.262 257.032L597.674 257.932C596.306 260.704 593.462 262.396 590.294 262.396C585.362 262.396 581.834 258.796 581.834 253.756C581.834 248.644 585.326 245.008 590.186 245.008C595.01 245.008 598.61 248.644 598.61 253.504C598.61 253.72 598.61 254.188 598.574 254.584ZM584.786 252.568H595.694C595.586 251.272 595.334 250.552 594.758 249.724C593.714 248.32 592.022 247.456 590.186 247.456C588.35 247.456 586.694 248.32 585.722 249.76C585.218 250.552 585.002 251.236 584.786 252.568ZM614.989 248.248V245.404H617.725V262.108C617.725 264.88 617.041 266.752 615.529 268.192C614.053 269.632 611.929 270.388 609.409 270.388C606.313 270.388 603.865 269.38 602.065 267.364L603.937 265.492C604.693 266.284 605.053 266.608 605.521 266.932C606.457 267.508 608.005 267.904 609.409 267.904C611.137 267.904 612.793 267.292 613.729 266.284C614.557 265.384 614.989 264.052 614.989 262.324V258.832C613.369 261.28 611.461 262.396 608.869 262.396C604.477 262.396 601.201 258.688 601.201 253.756C601.201 251.092 602.173 248.536 603.829 246.952C605.161 245.656 606.961 245.008 609.085 245.008C611.605 245.008 613.297 245.944 614.989 248.248ZM609.589 247.528C606.349 247.528 604.081 250.048 604.081 253.648C604.081 257.212 606.385 259.876 609.517 259.876C611.101 259.876 612.649 259.12 613.729 257.86C614.449 257.032 614.917 255.412 614.917 253.756C614.917 251.596 614.593 250.444 613.621 249.364C612.613 248.248 611.065 247.528 609.589 247.528ZM627.998 257.716L632.966 245.404H635.954L626.054 269.992H623.066L626.522 261.496L620.618 245.404H623.534L627.998 257.716Z" fill="white"/>
<path d="M256.5 470.5H256.278L245.402 481.377V470.5H245.096V481.38L234.217 470.5H234V470.717L244.039 480.757L234 474.049V474.417L243.869 481.013L234 476.924V477.256L243.752 481.296L234 479.356V479.669L243.692 481.597H234V481.903H243.693L234 483.831V484.144L243.752 482.204L234 486.244V486.576L243.869 482.487L234 489.083V489.451L244.039 482.743L234 492.783V493H234.217L245.096 482.12V493H245.402V482.123L256.278 493H256.5V470.5Z" fill="white"/>
</g>
<g filter="url(#filter2_d_1413_25)">
<rect x="378" y="300" width="645" height="360" rx="5" fill="#401E5B"/>
<path d="M409.368 347.556H412.248C412.392 350.292 413.868 351.732 416.496 351.732C419.196 351.732 421.104 350.076 421.104 347.664C421.104 345.576 420.024 344.604 416.244 343.344C413.4 342.372 412.464 341.904 411.384 340.932C410.16 339.816 409.512 338.232 409.512 336.396C409.512 332.328 412.428 329.556 416.676 329.556C420.924 329.556 423.696 332.256 423.804 336.432H420.78C420.744 335.208 420.6 334.632 420.204 333.948C419.52 332.904 418.188 332.256 416.64 332.256C414.264 332.256 412.572 333.876 412.572 336.18C412.572 337.332 413.076 338.34 413.94 338.952C414.696 339.492 415.344 339.78 417.792 340.644C420.348 341.544 421.572 342.192 422.544 343.236C423.588 344.352 424.164 345.864 424.164 347.484C424.164 351.624 421.104 354.432 416.604 354.432C413.544 354.432 411.456 353.352 410.196 351.192C409.62 350.22 409.368 349.212 409.368 348.06V347.556ZM431.3 339.816V350.616C431.336 351.444 431.552 351.624 432.56 351.624H433.82V354H431.264C429.32 353.964 428.564 353.244 428.564 351.408V339.816H426.26V337.404H428.564V332.184H431.3V337.404H433.82V339.816H431.3ZM437.595 337.404H440.331V340.212C440.835 339.024 441.195 338.52 441.843 338.016C442.671 337.368 443.823 337.008 445.011 337.008H445.659V339.78C445.371 339.744 445.083 339.744 444.903 339.744C443.427 339.744 442.131 340.428 441.303 341.652C440.583 342.696 440.331 343.668 440.331 345.576V354H437.595V337.404ZM461.022 340.14V337.404H463.758V354H461.022V350.796C459.366 353.28 457.494 354.396 454.974 354.396C450.402 354.396 447.162 350.796 447.162 345.756C447.162 340.68 450.474 337.008 455.046 337.008C457.566 337.008 459.402 337.98 461.022 340.14ZM455.442 339.456C453.642 339.456 452.382 340.068 451.41 341.436C450.546 342.624 450.042 344.208 450.042 345.828C450.042 349.356 452.346 352.02 455.37 352.02C458.502 352.02 461.058 349.104 461.058 345.54C461.058 341.94 458.754 339.456 455.442 339.456ZM472.082 339.816V350.616C472.118 351.444 472.334 351.624 473.342 351.624H474.602V354H472.046C470.102 353.964 469.346 353.244 469.346 351.408V339.816H467.042V337.404H469.346V332.184H472.082V337.404H474.602V339.816H472.082ZM493.574 346.584H479.75C479.894 347.988 480.146 348.708 480.83 349.608C481.91 351.084 483.494 351.876 485.294 351.876C487.346 351.876 489.29 350.76 490.262 349.032L492.674 349.932C491.306 352.704 488.462 354.396 485.294 354.396C480.362 354.396 476.834 350.796 476.834 345.756C476.834 340.644 480.326 337.008 485.186 337.008C490.01 337.008 493.61 340.644 493.61 345.504C493.61 345.72 493.61 346.188 493.574 346.584ZM479.786 344.568H490.694C490.586 343.272 490.334 342.552 489.758 341.724C488.714 340.32 487.022 339.456 485.186 339.456C483.35 339.456 481.694 340.32 480.722 341.76C480.218 342.552 480.002 343.236 479.786 344.568ZM509.989 340.248V337.404H512.725V354.108C512.725 356.88 512.041 358.752 510.529 360.192C509.053 361.632 506.929 362.388 504.409 362.388C501.313 362.388 498.865 361.38 497.065 359.364L498.937 357.492C499.693 358.284 500.053 358.608 500.521 358.932C501.457 359.508 503.005 359.904 504.409 359.904C506.137 359.904 507.793 359.292 508.729 358.284C509.557 357.384 509.989 356.052 509.989 354.324V350.832C508.369 353.28 506.461 354.396 503.869 354.396C499.477 354.396 496.201 350.688 496.201 345.756C496.201 343.092 497.173 340.536 498.829 338.952C500.161 337.656 501.961 337.008 504.085 337.008C506.605 337.008 508.297 337.944 509.989 340.248ZM504.589 339.528C501.349 339.528 499.081 342.048 499.081 345.648C499.081 349.212 501.385 351.876 504.517 351.876C506.101 351.876 507.649 351.12 508.729 349.86C509.449 349.032 509.917 347.412 509.917 345.756C509.917 343.596 509.593 342.444 508.621 341.364C507.613 340.248 506.065 339.528 504.589 339.528ZM520.98 337.404V354H518.244V337.404H520.98ZM519.648 330.96C520.62 330.96 521.376 331.752 521.376 332.76C521.376 333.732 520.584 334.488 519.612 334.488C518.64 334.488 517.884 333.732 517.884 332.724C517.884 331.716 518.64 330.96 519.648 330.96ZM537.702 350.076L539.394 351.948C537.522 353.64 535.686 354.396 533.274 354.396C528.522 354.396 525.138 350.796 525.138 345.756C525.138 340.608 528.558 337.008 533.418 337.008C535.794 337.008 537.738 337.8 539.466 339.492L537.702 341.256C536.442 340.104 535.038 339.528 533.49 339.528C530.214 339.528 527.946 342.048 527.946 345.648C527.946 349.32 530.214 351.876 533.454 351.876C535.074 351.876 536.37 351.336 537.702 350.076ZM567.252 348.456H556.488L554.292 354H551.16L560.196 329.988H563.796L572.616 354H569.232L567.252 348.456ZM566.316 345.864L561.924 333.804L557.388 345.864H566.316ZM585.197 337.404H587.969V348.024C587.969 350.292 587.537 351.552 586.313 352.668C585.089 353.784 583.396 354.396 581.525 354.396C579.653 354.396 577.925 353.748 576.737 352.632C575.621 351.552 575.081 350.04 575.081 348.024V337.404H577.817V347.952C577.817 350.292 579.329 351.948 581.525 351.948C582.677 351.948 583.793 351.48 584.477 350.688C585.017 350.04 585.197 349.356 585.197 348.024V337.404ZM605.441 339.924V329.988H608.177V354H605.441V351.156C603.785 353.424 602.021 354.396 599.501 354.396C594.929 354.396 591.689 350.832 591.689 345.792C591.689 340.752 595.001 337.008 599.501 337.008C601.949 337.008 603.821 337.908 605.441 339.924ZM600.077 339.456C596.801 339.456 594.569 342.048 594.569 345.828C594.569 349.464 596.765 352.02 599.897 352.02C603.101 352.02 605.441 349.356 605.441 345.756C605.441 342.012 603.245 339.456 600.077 339.456ZM616.429 337.404V354H613.693V337.404H616.429ZM615.097 330.96C616.069 330.96 616.825 331.752 616.825 332.76C616.825 333.732 616.033 334.488 615.061 334.488C614.089 334.488 613.333 333.732 613.333 332.724C613.333 331.716 614.089 330.96 615.097 330.96ZM624.836 339.816V350.616C624.872 351.444 625.088 351.624 626.096 351.624H627.356V354H624.8C622.856 353.964 622.1 353.244 622.1 351.408V339.816H619.796V337.404H622.1V332.184H624.836V337.404H627.356V339.816H624.836ZM414.012 383.64V402H410.988V377.988H413.76L426.576 396.06V377.988H429.6V402H426.936L414.012 383.64ZM450.753 394.584H436.929C437.073 395.988 437.325 396.708 438.009 397.608C439.089 399.084 440.673 399.876 442.473 399.876C444.525 399.876 446.469 398.76 447.441 397.032L449.853 397.932C448.485 400.704 445.641 402.396 442.473 402.396C437.541 402.396 434.013 398.796 434.013 393.756C434.013 388.644 437.505 385.008 442.365 385.008C447.189 385.008 450.789 388.644 450.789 393.504C450.789 393.72 450.789 394.188 450.753 394.584ZM436.965 392.568H447.873C447.765 391.272 447.513 390.552 446.937 389.724C445.893 388.32 444.201 387.456 442.365 387.456C440.529 387.456 438.873 388.32 437.901 389.76C437.397 390.552 437.181 391.236 436.965 392.568ZM459.516 395.988L455.088 402H451.74L457.86 393.756L451.632 385.404H455.088L459.516 391.488L464.052 385.404H467.4L461.136 393.756L467.112 402H463.764L459.516 395.988ZM473.207 387.816V398.616C473.243 399.444 473.459 399.624 474.467 399.624H475.727V402H473.171C471.227 401.964 470.471 401.244 470.471 399.408V387.816H468.167V385.404H470.471V380.184H473.207V385.404H475.727V387.816H473.207ZM484.956 392.028V394.512H477.504V392.028H484.956ZM500.425 389.004H511.873C511.909 389.508 511.909 390.156 511.909 390.372C511.909 393.576 511.189 395.808 509.425 398.04C507.121 400.92 504.025 402.432 500.389 402.432C493.549 402.432 488.545 397.212 488.545 390.048C488.545 382.776 493.513 377.556 500.389 377.556C504.025 377.556 507.157 379.068 509.425 381.912L507.157 383.748C506.221 382.704 505.789 382.272 505.141 381.84C503.809 380.868 502.117 380.328 500.389 380.328C495.421 380.328 491.641 384.504 491.641 390.012C491.641 395.448 495.421 399.66 500.317 399.66C502.981 399.66 505.753 398.256 507.229 396.132C508.165 394.872 508.525 393.684 508.777 391.596H500.425V389.004ZM531.613 394.584H517.789C517.933 395.988 518.185 396.708 518.869 397.608C519.949 399.084 521.533 399.876 523.333 399.876C525.385 399.876 527.329 398.76 528.301 397.032L530.713 397.932C529.345 400.704 526.501 402.396 523.333 402.396C518.401 402.396 514.873 398.796 514.873 393.756C514.873 388.644 518.365 385.008 523.225 385.008C528.049 385.008 531.649 388.644 531.649 393.504C531.649 393.72 531.649 394.188 531.613 394.584ZM517.825 392.568H528.733C528.625 391.272 528.373 390.552 527.797 389.724C526.753 388.32 525.061 387.456 523.225 387.456C521.389 387.456 519.733 388.32 518.761 389.76C518.257 390.552 518.041 391.236 517.825 392.568ZM535.611 385.404H538.347V387.744C539.787 385.8 541.227 385.008 543.279 385.008C544.791 385.008 546.159 385.512 547.131 386.376C548.175 387.384 548.535 388.536 548.535 390.804V402H545.799V391.416C545.799 389.94 545.619 389.148 545.187 388.572C544.683 387.888 543.711 387.456 542.595 387.456C541.371 387.456 540.255 387.924 539.427 388.86C538.635 389.724 538.347 390.516 538.347 391.884V402H535.611V385.404ZM563.352 395.556H566.232C566.376 398.292 567.852 399.732 570.48 399.732C573.18 399.732 575.088 398.076 575.088 395.664C575.088 393.576 574.008 392.604 570.228 391.344C567.384 390.372 566.448 389.904 565.368 388.932C564.144 387.816 563.496 386.232 563.496 384.396C563.496 380.328 566.412 377.556 570.66 377.556C574.908 377.556 577.68 380.256 577.788 384.432H574.764C574.728 383.208 574.584 382.632 574.188 381.948C573.504 380.904 572.172 380.256 570.624 380.256C568.248 380.256 566.556 381.876 566.556 384.18C566.556 385.332 567.06 386.34 567.924 386.952C568.68 387.492 569.328 387.78 571.776 388.644C574.332 389.544 575.556 390.192 576.528 391.236C577.572 392.352 578.148 393.864 578.148 395.484C578.148 399.624 575.088 402.432 570.588 402.432C567.528 402.432 565.44 401.352 564.18 399.192C563.604 398.22 563.352 397.212 563.352 396.06V395.556ZM597.882 394.584H584.058C584.202 395.988 584.454 396.708 585.138 397.608C586.218 399.084 587.802 399.876 589.602 399.876C591.654 399.876 593.598 398.76 594.57 397.032L596.982 397.932C595.614 400.704 592.77 402.396 589.602 402.396C584.67 402.396 581.142 398.796 581.142 393.756C581.142 388.644 584.634 385.008 589.494 385.008C594.318 385.008 597.918 388.644 597.918 393.504C597.918 393.72 597.918 394.188 597.882 394.584ZM584.094 392.568H595.002C594.894 391.272 594.642 390.552 594.066 389.724C593.022 388.32 591.33 387.456 589.494 387.456C587.658 387.456 586.002 388.32 585.03 389.76C584.526 390.552 584.31 391.236 584.094 392.568ZM601.881 385.404H604.617V388.212C605.121 387.024 605.481 386.52 606.129 386.016C606.957 385.368 608.109 385.008 609.297 385.008H609.945V387.78C609.657 387.744 609.369 387.744 609.189 387.744C607.713 387.744 606.417 388.428 605.589 389.652C604.869 390.696 604.617 391.668 604.617 393.576V402H601.881V385.404ZM624.12 385.404H626.964L620.7 402H617.82L611.736 385.404H614.616L619.296 398.076L624.12 385.404ZM632.566 385.404V402H629.83V385.404H632.566ZM631.234 378.96C632.206 378.96 632.962 379.752 632.962 380.76C632.962 381.732 632.17 382.488 631.198 382.488C630.226 382.488 629.47 381.732 629.47 380.724C629.47 379.716 630.226 378.96 631.234 378.96ZM649.288 398.076L650.98 399.948C649.108 401.64 647.272 402.396 644.86 402.396C640.108 402.396 636.724 398.796 636.724 393.756C636.724 388.608 640.144 385.008 645.004 385.008C647.38 385.008 649.324 385.8 651.052 387.492L649.288 389.256C648.028 388.104 646.624 387.528 645.076 387.528C641.8 387.528 639.532 390.048 639.532 393.648C639.532 397.32 641.8 399.876 645.04 399.876C646.66 399.876 647.956 399.336 649.288 398.076ZM669.32 394.584H655.496C655.64 395.988 655.892 396.708 656.576 397.608C657.656 399.084 659.24 399.876 661.04 399.876C663.092 399.876 665.036 398.76 666.008 397.032L668.42 397.932C667.052 400.704 664.208 402.396 661.04 402.396C656.108 402.396 652.58 398.796 652.58 393.756C652.58 388.644 656.072 385.008 660.932 385.008C665.756 385.008 669.356 388.644 669.356 393.504C669.356 393.72 669.356 394.188 669.32 394.584ZM655.532 392.568H666.44C666.332 391.272 666.08 390.552 665.504 389.724C664.46 388.32 662.768 387.456 660.932 387.456C659.096 387.456 657.44 388.32 656.468 389.76C655.964 390.552 655.748 391.236 655.532 392.568ZM684.363 377.988H691.131C696.027 377.988 698.799 380.292 698.799 384.36C698.799 385.908 698.331 387.276 697.431 388.284C696.855 388.968 696.279 389.328 694.983 389.832C696.315 390.12 696.963 390.372 697.719 390.948C699.015 391.992 699.699 393.612 699.699 395.556C699.699 397.788 698.727 399.732 697.107 400.776C695.703 401.676 694.155 402 691.131 402H684.363V377.988ZM687.387 380.472V388.788L690.447 388.752C692.355 388.752 693.507 388.5 694.371 387.816C695.307 387.06 695.847 385.836 695.847 384.504C695.847 382.956 695.091 381.588 693.939 381.048C693.075 380.616 692.067 380.472 689.871 380.472H687.387ZM687.387 391.236V399.552H690.411C692.931 399.552 693.903 399.372 694.947 398.76C696.099 398.112 696.675 396.96 696.675 395.376C696.675 392.496 694.983 391.236 691.167 391.236H687.387ZM706.675 402H703.939V377.988H706.675V402ZM721.814 385.404H724.586V396.024C724.586 398.292 724.154 399.552 722.93 400.668C721.706 401.784 720.014 402.396 718.142 402.396C716.27 402.396 714.542 401.748 713.354 400.632C712.238 399.552 711.698 398.04 711.698 396.024V385.404H714.434V395.952C714.434 398.292 715.946 399.948 718.142 399.948C719.294 399.948 720.41 399.48 721.094 398.688C721.634 398.04 721.814 397.356 721.814 396.024V385.404ZM745.046 394.584H731.222C731.366 395.988 731.618 396.708 732.302 397.608C733.382 399.084 734.966 399.876 736.766 399.876C738.818 399.876 740.762 398.76 741.734 397.032L744.146 397.932C742.778 400.704 739.934 402.396 736.766 402.396C731.834 402.396 728.306 398.796 728.306 393.756C728.306 388.644 731.798 385.008 736.658 385.008C741.482 385.008 745.082 388.644 745.082 393.504C745.082 393.72 745.082 394.188 745.046 394.584ZM731.258 392.568H742.166C742.058 391.272 741.806 390.552 741.23 389.724C740.186 388.32 738.494 387.456 736.658 387.456C734.822 387.456 733.166 388.32 732.194 389.76C731.69 390.552 731.474 391.236 731.258 392.568ZM749.045 385.404H751.781V388.428C753.365 385.98 755.057 385.008 757.829 385.008C762.437 385.008 765.641 388.536 765.641 393.576C765.641 398.796 762.437 402.396 757.829 402.396C756.533 402.396 755.345 402.108 754.193 401.532C753.185 401.028 752.681 400.596 751.781 399.408V409.776H749.045V385.404ZM757.361 387.456C754.049 387.456 751.781 390.084 751.781 393.972C751.781 397.608 753.977 400.02 757.253 400.02C760.529 400.02 762.725 397.464 762.725 393.684C762.725 391.74 762.257 390.264 761.285 389.184C760.313 388.104 758.837 387.456 757.361 387.456ZM769.787 385.404H772.523V388.212C773.027 387.024 773.387 386.52 774.035 386.016C774.863 385.368 776.015 385.008 777.203 385.008H777.851V387.78C777.563 387.744 777.275 387.744 777.095 387.744C775.619 387.744 774.323 388.428 773.495 389.652C772.775 390.696 772.523 391.668 772.523 393.576V402H769.787V385.404ZM783.702 385.404V402H780.966V385.404H783.702ZM782.37 378.96C783.342 378.96 784.098 379.752 784.098 380.76C784.098 381.732 783.306 382.488 782.334 382.488C781.362 382.488 780.606 381.732 780.606 380.724C780.606 379.716 781.362 378.96 782.37 378.96ZM789.193 385.404H791.929V387.744C793.369 385.8 794.809 385.008 796.861 385.008C798.373 385.008 799.741 385.512 800.713 386.376C801.757 387.384 802.117 388.536 802.117 390.804V402H799.381V391.416C799.381 389.94 799.201 389.148 798.769 388.572C798.265 387.888 797.293 387.456 796.177 387.456C794.953 387.456 793.837 387.924 793.009 388.86C792.217 389.724 791.929 390.516 791.929 391.884V402H789.193V385.404ZM810.425 387.816V398.616C810.461 399.444 810.677 399.624 811.685 399.624H812.945V402H810.389C808.445 401.964 807.689 401.244 807.689 399.408V387.816H805.385V385.404H807.689V380.184H810.425V385.404H812.945V387.816H810.425Z" fill="white"/>
<path d="M430.5 610.5H430.278L419.402 621.377V610.5H419.096V621.38L408.217 610.5H408V610.717L418.039 620.757L408 614.049V614.417L417.869 621.013L408 616.924V617.256L417.752 621.296L408 619.356V619.669L417.692 621.597H408V621.903H417.693L408 623.831V624.144L417.752 622.204L408 626.244V626.576L417.869 622.487L408 629.083V629.451L418.039 622.743L408 632.783V633H408.217L419.096 622.12V633H419.402V622.123L430.278 633H430.5V610.5Z" fill="white"/>
</g>
<g filter="url(#filter3_d_1413_25)">
<rect x="552" y="450" width="645" height="360" rx="5" fill="#435861"/>
<path d="M583.368 497.556H586.248C586.392 500.292 587.868 501.732 590.496 501.732C593.196 501.732 595.104 500.076 595.104 497.664C595.104 495.576 594.024 494.604 590.244 493.344C587.4 492.372 586.464 491.904 585.384 490.932C584.16 489.816 583.512 488.232 583.512 486.396C583.512 482.328 586.428 479.556 590.676 479.556C594.924 479.556 597.696 482.256 597.804 486.432H594.78C594.744 485.208 594.6 484.632 594.204 483.948C593.52 482.904 592.188 482.256 590.64 482.256C588.264 482.256 586.572 483.876 586.572 486.18C586.572 487.332 587.076 488.34 587.94 488.952C588.696 489.492 589.344 489.78 591.792 490.644C594.348 491.544 595.572 492.192 596.544 493.236C597.588 494.352 598.164 495.864 598.164 497.484C598.164 501.624 595.104 504.432 590.604 504.432C587.544 504.432 585.456 503.352 584.196 501.192C583.62 500.22 583.368 499.212 583.368 498.06V497.556ZM605.3 489.816V500.616C605.336 501.444 605.552 501.624 606.56 501.624H607.82V504H605.264C603.32 503.964 602.564 503.244 602.564 501.408V489.816H600.26V487.404H602.564V482.184H605.3V487.404H607.82V489.816H605.3ZM611.595 487.404H614.331V490.212C614.835 489.024 615.195 488.52 615.843 488.016C616.671 487.368 617.823 487.008 619.011 487.008H619.659V489.78C619.371 489.744 619.083 489.744 618.903 489.744C617.427 489.744 616.131 490.428 615.303 491.652C614.583 492.696 614.331 493.668 614.331 495.576V504H611.595V487.404ZM635.022 490.14V487.404H637.758V504H635.022V500.796C633.366 503.28 631.494 504.396 628.974 504.396C624.402 504.396 621.162 500.796 621.162 495.756C621.162 490.68 624.474 487.008 629.046 487.008C631.566 487.008 633.402 487.98 635.022 490.14ZM629.442 489.456C627.642 489.456 626.382 490.068 625.41 491.436C624.546 492.624 624.042 494.208 624.042 495.828C624.042 499.356 626.346 502.02 629.37 502.02C632.502 502.02 635.058 499.104 635.058 495.54C635.058 491.94 632.754 489.456 629.442 489.456ZM646.082 489.816V500.616C646.118 501.444 646.334 501.624 647.342 501.624H648.602V504H646.046C644.102 503.964 643.346 503.244 643.346 501.408V489.816H641.042V487.404H643.346V482.184H646.082V487.404H648.602V489.816H646.082ZM667.574 496.584H653.75C653.894 497.988 654.146 498.708 654.83 499.608C655.91 501.084 657.494 501.876 659.294 501.876C661.346 501.876 663.29 500.76 664.262 499.032L666.674 499.932C665.306 502.704 662.462 504.396 659.294 504.396C654.362 504.396 650.834 500.796 650.834 495.756C650.834 490.644 654.326 487.008 659.186 487.008C664.01 487.008 667.61 490.644 667.61 495.504C667.61 495.72 667.61 496.188 667.574 496.584ZM653.786 494.568H664.694C664.586 493.272 664.334 492.552 663.758 491.724C662.714 490.32 661.022 489.456 659.186 489.456C657.35 489.456 655.694 490.32 654.722 491.76C654.218 492.552 654.002 493.236 653.786 494.568ZM683.989 490.248V487.404H686.725V504.108C686.725 506.88 686.041 508.752 684.529 510.192C683.053 511.632 680.929 512.388 678.409 512.388C675.313 512.388 672.865 511.38 671.065 509.364L672.937 507.492C673.693 508.284 674.053 508.608 674.521 508.932C675.457 509.508 677.005 509.904 678.409 509.904C680.137 509.904 681.793 509.292 682.729 508.284C683.557 507.384 683.989 506.052 683.989 504.324V500.832C682.369 503.28 680.461 504.396 677.869 504.396C673.477 504.396 670.201 500.688 670.201 495.756C670.201 493.092 671.173 490.536 672.829 488.952C674.161 487.656 675.961 487.008 678.085 487.008C680.605 487.008 682.297 487.944 683.989 490.248ZM678.589 489.528C675.349 489.528 673.081 492.048 673.081 495.648C673.081 499.212 675.385 501.876 678.517 501.876C680.101 501.876 681.649 501.12 682.729 499.86C683.449 499.032 683.917 497.412 683.917 495.756C683.917 493.596 683.593 492.444 682.621 491.364C681.613 490.248 680.065 489.528 678.589 489.528ZM694.98 487.404V504H692.244V487.404H694.98ZM693.648 480.96C694.62 480.96 695.376 481.752 695.376 482.76C695.376 483.732 694.584 484.488 693.612 484.488C692.64 484.488 691.884 483.732 691.884 482.724C691.884 481.716 692.64 480.96 693.648 480.96ZM711.702 500.076L713.394 501.948C711.522 503.64 709.686 504.396 707.274 504.396C702.522 504.396 699.138 500.796 699.138 495.756C699.138 490.608 702.558 487.008 707.418 487.008C709.794 487.008 711.738 487.8 713.466 489.492L711.702 491.256C710.442 490.104 709.038 489.528 707.49 489.528C704.214 489.528 701.946 492.048 701.946 495.648C701.946 499.32 704.214 501.876 707.454 501.876C709.074 501.876 710.37 501.336 711.702 500.076ZM741.252 498.456H730.488L728.292 504H725.16L734.196 479.988H737.796L746.616 504H743.232L741.252 498.456ZM740.316 495.864L735.924 483.804L731.388 495.864H740.316ZM759.197 487.404H761.969V498.024C761.969 500.292 761.537 501.552 760.313 502.668C759.089 503.784 757.396 504.396 755.525 504.396C753.653 504.396 751.925 503.748 750.737 502.632C749.621 501.552 749.081 500.04 749.081 498.024V487.404H751.817V497.952C751.817 500.292 753.329 501.948 755.525 501.948C756.677 501.948 757.793 501.48 758.477 500.688C759.017 500.04 759.197 499.356 759.197 498.024V487.404ZM779.441 489.924V479.988H782.177V504H779.441V501.156C777.785 503.424 776.021 504.396 773.501 504.396C768.929 504.396 765.689 500.832 765.689 495.792C765.689 490.752 769.001 487.008 773.501 487.008C775.949 487.008 777.821 487.908 779.441 489.924ZM774.077 489.456C770.801 489.456 768.569 492.048 768.569 495.828C768.569 499.464 770.765 502.02 773.897 502.02C777.101 502.02 779.441 499.356 779.441 495.756C779.441 492.012 777.245 489.456 774.077 489.456ZM790.429 487.404V504H787.693V487.404H790.429ZM789.097 480.96C790.069 480.96 790.825 481.752 790.825 482.76C790.825 483.732 790.033 484.488 789.061 484.488C788.089 484.488 787.333 483.732 787.333 482.724C787.333 481.716 788.089 480.96 789.097 480.96ZM798.836 489.816V500.616C798.872 501.444 799.088 501.624 800.096 501.624H801.356V504H798.8C796.856 503.964 796.1 503.244 796.1 501.408V489.816H793.796V487.404H796.1V482.184H798.836V487.404H801.356V489.816H798.836ZM587.58 527.988V542.28C587.58 545.34 588.012 546.888 589.164 548.04C590.172 549.012 591.9 549.66 593.412 549.66C594.924 549.66 596.616 548.976 597.66 547.896C598.956 546.636 599.28 545.412 599.28 542.208V527.988H602.376V542.208C602.376 545.808 601.8 547.86 600.252 549.588C598.632 551.424 596.22 552.432 593.484 552.432C590.676 552.432 588.12 551.352 586.5 549.408C585.024 547.716 584.556 545.952 584.556 542.208V527.988H587.58ZM614.895 542.424L608.775 552H605.103L613.131 539.76L605.391 527.988H609.027L614.895 537.096L620.799 527.988H624.327L616.623 539.76L624.543 552H621.051L614.895 542.424ZM641.555 542.82V552H638.531V527.988H644.939C650.627 527.988 653.759 530.58 653.759 535.332C653.759 537.708 652.823 539.832 651.203 541.164C649.799 542.28 647.927 542.82 645.263 542.82H641.555ZM641.555 540.228H644.687C645.983 540.228 646.847 540.12 647.675 539.796C649.511 539.148 650.699 537.456 650.699 535.404C650.699 533.352 649.547 531.696 647.639 531.048C646.703 530.724 645.731 530.58 644.291 530.58H641.555V540.228ZM669.405 538.14V535.404H672.141V552H669.405V548.796C667.749 551.28 665.877 552.396 663.357 552.396C658.785 552.396 655.545 548.796 655.545 543.756C655.545 538.68 658.857 535.008 663.429 535.008C665.949 535.008 667.785 535.98 669.405 538.14ZM663.825 537.456C662.025 537.456 660.765 538.068 659.793 539.436C658.929 540.624 658.425 542.208 658.425 543.828C658.425 547.356 660.729 550.02 663.753 550.02C666.885 550.02 669.441 547.104 669.441 543.54C669.441 539.94 667.137 537.456 663.825 537.456ZM680.465 537.816V548.616C680.501 549.444 680.717 549.624 681.725 549.624H682.985V552H680.429C678.485 551.964 677.729 551.244 677.729 549.408V537.816H675.425V535.404H677.729V530.184H680.465V535.404H682.985V537.816H680.465ZM690.273 537.816V548.616C690.309 549.444 690.525 549.624 691.533 549.624H692.793V552H690.237C688.293 551.964 687.537 551.244 687.537 549.408V537.816H685.233V535.404H687.537V530.184H690.273V535.404H692.793V537.816H690.273ZM711.765 544.584H697.941C698.085 545.988 698.337 546.708 699.021 547.608C700.101 549.084 701.685 549.876 703.485 549.876C705.537 549.876 707.481 548.76 708.453 547.032L710.865 547.932C709.497 550.704 706.653 552.396 703.485 552.396C698.553 552.396 695.025 548.796 695.025 543.756C695.025 538.644 698.517 535.008 703.377 535.008C708.201 535.008 711.801 538.644 711.801 543.504C711.801 543.72 711.801 544.188 711.765 544.584ZM697.977 542.568H708.885C708.777 541.272 708.525 540.552 707.949 539.724C706.905 538.32 705.213 537.456 703.377 537.456C701.541 537.456 699.885 538.32 698.913 539.76C698.409 540.552 698.193 541.236 697.977 542.568ZM715.763 535.404H718.499V538.212C719.003 537.024 719.363 536.52 720.011 536.016C720.839 535.368 721.991 535.008 723.179 535.008H723.827V537.78C723.539 537.744 723.251 537.744 723.071 537.744C721.595 537.744 720.299 538.428 719.471 539.652C718.751 540.696 718.499 541.668 718.499 543.576V552H715.763V535.404ZM726.943 535.404H729.679V537.744C731.119 535.8 732.559 535.008 734.611 535.008C736.123 535.008 737.491 535.512 738.463 536.376C739.507 537.384 739.867 538.536 739.867 540.804V552H737.131V541.416C737.131 539.94 736.951 539.148 736.519 538.572C736.015 537.888 735.043 537.456 733.927 537.456C732.703 537.456 731.587 537.924 730.759 538.86C729.967 539.724 729.679 540.516 729.679 541.884V552H726.943V535.404ZM755.663 539.94H752.927V539.76C752.927 538.212 751.667 537.24 749.759 537.24C747.923 537.24 746.771 538.176 746.771 539.616C746.771 541.056 747.491 541.596 750.479 542.424C752.603 543 753.719 543.54 754.511 544.332C755.339 545.16 755.843 546.348 755.843 547.572C755.843 550.452 753.467 552.396 749.939 552.396C746.159 552.396 744.035 550.632 743.747 547.284H746.447C746.627 549.156 747.851 550.164 749.939 550.164C751.811 550.164 753.035 549.192 753.035 547.716C753.035 546.276 752.099 545.556 749.255 544.836C745.655 543.864 744.035 542.352 744.035 539.832C744.035 536.952 746.375 535.008 749.867 535.008C753.395 535.008 755.519 536.808 755.663 539.94ZM784.965 547.032L788.745 552H785.721L783.309 548.724C780.465 551.532 778.737 552.468 776.433 552.468C772.653 552.468 769.665 549.48 769.665 545.628C769.665 542.676 770.997 540.948 775.389 538.248C773.625 535.8 773.229 534.972 773.229 533.568C773.229 531.012 775.389 529.068 778.161 529.068C780.897 529.068 782.949 530.94 782.949 533.46C782.949 534.684 782.373 536.052 781.401 536.988C780.825 537.564 780.393 537.888 778.989 538.824L783.489 545.016C785.073 543.432 785.289 543.216 786.909 541.488L788.745 543.216C786.945 545.052 786.729 545.268 784.965 547.032ZM777.585 536.916C779.745 535.548 780.321 534.828 780.321 533.496C780.321 532.236 779.457 531.408 778.197 531.408C776.865 531.408 775.929 532.272 775.929 533.568C775.929 534.612 776.073 534.936 777.585 536.916ZM781.689 546.708L776.793 540.228C775.137 541.344 774.741 541.632 774.057 542.244C773.013 543.144 772.401 544.404 772.401 545.664C772.401 547.968 774.273 549.912 776.541 549.912C778.269 549.912 779.277 549.264 781.689 546.708ZM809.895 530.58V552H806.871V530.58H800.751V527.988H815.979V530.58H809.895ZM817.33 535.404H820.066V538.212C820.57 537.024 820.93 536.52 821.578 536.016C822.406 535.368 823.558 535.008 824.746 535.008H825.394V537.78C825.106 537.744 824.818 537.744 824.638 537.744C823.162 537.744 821.866 538.428 821.038 539.652C820.318 540.696 820.066 541.668 820.066 543.576V552H817.33V535.404ZM843.601 544.584H829.777C829.921 545.988 830.173 546.708 830.857 547.608C831.937 549.084 833.521 549.876 835.321 549.876C837.373 549.876 839.317 548.76 840.289 547.032L842.701 547.932C841.333 550.704 838.489 552.396 835.321 552.396C830.389 552.396 826.861 548.796 826.861 543.756C826.861 538.644 830.353 535.008 835.213 535.008C840.037 535.008 843.637 538.644 843.637 543.504C843.637 543.72 843.637 544.188 843.601 544.584ZM829.813 542.568H840.721C840.613 541.272 840.361 540.552 839.785 539.724C838.741 538.32 837.049 537.456 835.213 537.456C833.377 537.456 831.721 538.32 830.749 539.76C830.245 540.552 830.029 541.236 829.813 542.568ZM847.599 535.404H850.335V537.744C851.775 535.8 853.215 535.008 855.267 535.008C856.779 535.008 858.147 535.512 859.119 536.376C860.163 537.384 860.523 538.536 860.523 540.804V552H857.787V541.416C857.787 539.94 857.607 539.148 857.175 538.572C856.671 537.888 855.699 537.456 854.583 537.456C853.359 537.456 852.243 537.924 851.415 538.86C850.623 539.724 850.335 540.516 850.335 541.884V552H847.599V535.404ZM878.336 537.924V527.988H881.072V552H878.336V549.156C876.68 551.424 874.916 552.396 872.396 552.396C867.824 552.396 864.584 548.832 864.584 543.792C864.584 538.752 867.896 535.008 872.396 535.008C874.844 535.008 876.716 535.908 878.336 537.924ZM872.972 537.456C869.696 537.456 867.464 540.048 867.464 543.828C867.464 547.464 869.66 550.02 872.792 550.02C875.996 550.02 878.336 547.356 878.336 543.756C878.336 540.012 876.14 537.456 872.972 537.456ZM896.992 539.94H894.256V539.76C894.256 538.212 892.996 537.24 891.088 537.24C889.252 537.24 888.1 538.176 888.1 539.616C888.1 541.056 888.82 541.596 891.808 542.424C893.932 543 895.048 543.54 895.84 544.332C896.668 545.16 897.172 546.348 897.172 547.572C897.172 550.452 894.796 552.396 891.268 552.396C887.488 552.396 885.364 550.632 885.076 547.284H887.776C887.956 549.156 889.18 550.164 891.268 550.164C893.14 550.164 894.364 549.192 894.364 547.716C894.364 546.276 893.428 545.556 890.584 544.836C886.984 543.864 885.364 542.352 885.364 539.832C885.364 536.952 887.704 535.008 891.196 535.008C894.724 535.008 896.848 536.808 896.992 539.94Z" fill="white"/>
<path d="M604.5 760.5H604.278L593.402 771.377V760.5H593.096V771.38L582.217 760.5H582V760.717L592.039 770.757L582 764.049V764.417L591.869 771.013L582 766.924V767.256L591.752 771.296L582 769.356V769.669L591.692 771.597H582V771.903H591.693L582 773.831V774.144L591.752 772.204L582 776.244V776.576L591.869 772.487L582 779.083V779.451L592.039 772.743L582 782.783V783H582.217L593.096 772.12V783H593.402V772.123L604.278 783H604.5V760.5Z" fill="white"/>
</g>
<g filter="url(#filter4_d_1413_25)">
<rect x="726" y="580" width="645" height="360" rx="5" fill="#10AD59"/>
<path d="M757.368 627.556H760.248C760.392 630.292 761.868 631.732 764.496 631.732C767.196 631.732 769.104 630.076 769.104 627.664C769.104 625.576 768.024 624.604 764.244 623.344C761.4 622.372 760.464 621.904 759.384 620.932C758.16 619.816 757.512 618.232 757.512 616.396C757.512 612.328 760.428 609.556 764.676 609.556C768.924 609.556 771.696 612.256 771.804 616.432H768.78C768.744 615.208 768.6 614.632 768.204 613.948C767.52 612.904 766.188 612.256 764.64 612.256C762.264 612.256 760.572 613.876 760.572 616.18C760.572 617.332 761.076 618.34 761.94 618.952C762.696 619.492 763.344 619.78 765.792 620.644C768.348 621.544 769.572 622.192 770.544 623.236C771.588 624.352 772.164 625.864 772.164 627.484C772.164 631.624 769.104 634.432 764.604 634.432C761.544 634.432 759.456 633.352 758.196 631.192C757.62 630.22 757.368 629.212 757.368 628.06V627.556ZM779.3 619.816V630.616C779.336 631.444 779.552 631.624 780.56 631.624H781.82V634H779.264C777.32 633.964 776.564 633.244 776.564 631.408V619.816H774.26V617.404H776.564V612.184H779.3V617.404H781.82V619.816H779.3ZM785.595 617.404H788.331V620.212C788.835 619.024 789.195 618.52 789.843 618.016C790.671 617.368 791.823 617.008 793.011 617.008H793.659V619.78C793.371 619.744 793.083 619.744 792.903 619.744C791.427 619.744 790.131 620.428 789.303 621.652C788.583 622.696 788.331 623.668 788.331 625.576V634H785.595V617.404ZM809.022 620.14V617.404H811.758V634H809.022V630.796C807.366 633.28 805.494 634.396 802.974 634.396C798.402 634.396 795.162 630.796 795.162 625.756C795.162 620.68 798.474 617.008 803.046 617.008C805.566 617.008 807.402 617.98 809.022 620.14ZM803.442 619.456C801.642 619.456 800.382 620.068 799.41 621.436C798.546 622.624 798.042 624.208 798.042 625.828C798.042 629.356 800.346 632.02 803.37 632.02C806.502 632.02 809.058 629.104 809.058 625.54C809.058 621.94 806.754 619.456 803.442 619.456ZM820.082 619.816V630.616C820.118 631.444 820.334 631.624 821.342 631.624H822.602V634H820.046C818.102 633.964 817.346 633.244 817.346 631.408V619.816H815.042V617.404H817.346V612.184H820.082V617.404H822.602V619.816H820.082ZM841.574 626.584H827.75C827.894 627.988 828.146 628.708 828.83 629.608C829.91 631.084 831.494 631.876 833.294 631.876C835.346 631.876 837.29 630.76 838.262 629.032L840.674 629.932C839.306 632.704 836.462 634.396 833.294 634.396C828.362 634.396 824.834 630.796 824.834 625.756C824.834 620.644 828.326 617.008 833.186 617.008C838.01 617.008 841.61 620.644 841.61 625.504C841.61 625.72 841.61 626.188 841.574 626.584ZM827.786 624.568H838.694C838.586 623.272 838.334 622.552 837.758 621.724C836.714 620.32 835.022 619.456 833.186 619.456C831.35 619.456 829.694 620.32 828.722 621.76C828.218 622.552 828.002 623.236 827.786 624.568ZM857.989 620.248V617.404H860.725V634.108C860.725 636.88 860.041 638.752 858.529 640.192C857.053 641.632 854.929 642.388 852.409 642.388C849.313 642.388 846.865 641.38 845.065 639.364L846.937 637.492C847.693 638.284 848.053 638.608 848.521 638.932C849.457 639.508 851.005 639.904 852.409 639.904C854.137 639.904 855.793 639.292 856.729 638.284C857.557 637.384 857.989 636.052 857.989 634.324V630.832C856.369 633.28 854.461 634.396 851.869 634.396C847.477 634.396 844.201 630.688 844.201 625.756C844.201 623.092 845.173 620.536 846.829 618.952C848.161 617.656 849.961 617.008 852.085 617.008C854.605 617.008 856.297 617.944 857.989 620.248ZM852.589 619.528C849.349 619.528 847.081 622.048 847.081 625.648C847.081 629.212 849.385 631.876 852.517 631.876C854.101 631.876 855.649 631.12 856.729 629.86C857.449 629.032 857.917 627.412 857.917 625.756C857.917 623.596 857.593 622.444 856.621 621.364C855.613 620.248 854.065 619.528 852.589 619.528ZM868.98 617.404V634H866.244V617.404H868.98ZM867.648 610.96C868.62 610.96 869.376 611.752 869.376 612.76C869.376 613.732 868.584 614.488 867.612 614.488C866.64 614.488 865.884 613.732 865.884 612.724C865.884 611.716 866.64 610.96 867.648 610.96ZM885.702 630.076L887.394 631.948C885.522 633.64 883.686 634.396 881.274 634.396C876.522 634.396 873.138 630.796 873.138 625.756C873.138 620.608 876.558 617.008 881.418 617.008C883.794 617.008 885.738 617.8 887.466 619.492L885.702 621.256C884.442 620.104 883.038 619.528 881.49 619.528C878.214 619.528 875.946 622.048 875.946 625.648C875.946 629.32 878.214 631.876 881.454 631.876C883.074 631.876 884.37 631.336 885.702 630.076ZM915.252 628.456H904.488L902.292 634H899.16L908.196 609.988H911.796L920.616 634H917.232L915.252 628.456ZM914.316 625.864L909.924 613.804L905.388 625.864H914.316ZM933.197 617.404H935.969V628.024C935.969 630.292 935.537 631.552 934.313 632.668C933.089 633.784 931.396 634.396 929.525 634.396C927.653 634.396 925.925 633.748 924.737 632.632C923.621 631.552 923.081 630.04 923.081 628.024V617.404H925.817V627.952C925.817 630.292 927.329 631.948 929.525 631.948C930.677 631.948 931.793 631.48 932.477 630.688C933.017 630.04 933.197 629.356 933.197 628.024V617.404ZM953.441 619.924V609.988H956.177V634H953.441V631.156C951.785 633.424 950.021 634.396 947.501 634.396C942.929 634.396 939.689 630.832 939.689 625.792C939.689 620.752 943.001 617.008 947.501 617.008C949.949 617.008 951.821 617.908 953.441 619.924ZM948.077 619.456C944.801 619.456 942.569 622.048 942.569 625.828C942.569 629.464 944.765 632.02 947.897 632.02C951.101 632.02 953.441 629.356 953.441 625.756C953.441 622.012 951.245 619.456 948.077 619.456ZM964.429 617.404V634H961.693V617.404H964.429ZM963.097 610.96C964.069 610.96 964.825 611.752 964.825 612.76C964.825 613.732 964.033 614.488 963.061 614.488C962.089 614.488 961.333 613.732 961.333 612.724C961.333 611.716 962.089 610.96 963.097 610.96ZM972.836 619.816V630.616C972.872 631.444 973.088 631.624 974.096 631.624H975.356V634H972.8C970.856 633.964 970.1 633.244 970.1 631.408V619.816H967.796V617.404H970.1V612.184H972.836V617.404H975.356V619.816H972.836ZM769.464 645.556C772.812 645.556 776.016 647.068 778.32 649.696C780.264 651.964 781.128 654.628 781.128 658.228C781.128 661.972 779.688 665.32 777.06 667.552C774.9 669.424 772.164 670.432 769.392 670.432C765.828 670.432 762.336 668.74 760.104 665.932C758.448 663.844 757.584 661.144 757.584 658.12C757.584 650.956 762.66 645.556 769.464 645.556ZM769.392 648.364C764.388 648.364 760.68 652.468 760.68 658.012C760.68 663.592 764.352 667.66 769.32 667.66C771.732 667.66 774.108 666.616 775.728 664.78C777.132 663.232 778.032 660.64 778.032 658.192C778.032 654.988 777.168 652.648 775.296 650.848C773.712 649.3 771.516 648.364 769.392 648.364ZM795.565 653.404H798.409L792.145 670H789.265L783.181 653.404H786.061L790.741 666.076L795.565 653.404ZM816.332 662.584H802.508C802.652 663.988 802.904 664.708 803.588 665.608C804.668 667.084 806.252 667.876 808.052 667.876C810.104 667.876 812.048 666.76 813.02 665.032L815.432 665.932C814.064 668.704 811.22 670.396 808.052 670.396C803.12 670.396 799.592 666.796 799.592 661.756C799.592 656.644 803.084 653.008 807.944 653.008C812.768 653.008 816.367 656.644 816.367 661.504C816.367 661.72 816.367 662.188 816.332 662.584ZM802.544 660.568H813.452C813.344 659.272 813.092 658.552 812.516 657.724C811.472 656.32 809.78 655.456 807.944 655.456C806.108 655.456 804.452 656.32 803.479 657.76C802.976 658.552 802.76 659.236 802.544 660.568ZM820.33 653.404H823.066V656.212C823.57 655.024 823.93 654.52 824.578 654.016C825.406 653.368 826.558 653.008 827.746 653.008H828.394V655.78C828.106 655.744 827.818 655.744 827.638 655.744C826.162 655.744 824.866 656.428 824.038 657.652C823.318 658.696 823.066 659.668 823.066 661.576V670H820.33V653.404ZM842.569 653.404H845.413L839.149 670H836.269L830.185 653.404H833.065L837.745 666.076L842.569 653.404ZM851.015 653.404V670H848.279V653.404H851.015ZM849.683 646.96C850.655 646.96 851.411 647.752 851.411 648.76C851.411 649.732 850.619 650.488 849.647 650.488C848.675 650.488 847.919 649.732 847.919 648.724C847.919 647.716 848.675 646.96 849.683 646.96ZM871.914 662.584H858.09C858.234 663.988 858.486 664.708 859.17 665.608C860.25 667.084 861.834 667.876 863.634 667.876C865.686 667.876 867.63 666.76 868.602 665.032L871.014 665.932C869.646 668.704 866.802 670.396 863.634 670.396C858.702 670.396 855.174 666.796 855.174 661.756C855.174 656.644 858.666 653.008 863.526 653.008C868.35 653.008 871.95 656.644 871.95 661.504C871.95 661.72 871.95 662.188 871.914 662.584ZM858.126 660.568H869.034C868.926 659.272 868.674 658.552 868.098 657.724C867.054 656.32 865.362 655.456 863.526 655.456C861.69 655.456 860.034 656.32 859.062 657.76C858.558 658.552 858.342 659.236 858.126 660.568ZM894.747 653.404H897.555L891.651 670H889.167L885.351 657.4L881.355 670H878.763L873.075 653.404H875.883L880.131 665.608L883.947 653.404H886.647L890.391 665.608L894.747 653.404ZM918.478 653.008C923.374 653.008 926.866 656.644 926.866 661.756C926.866 666.616 923.122 670.396 918.37 670.396C913.438 670.396 909.982 666.796 909.982 661.684C909.982 656.536 913.438 653.008 918.478 653.008ZM918.478 655.528C915.058 655.528 912.79 658.012 912.79 661.72C912.79 665.392 915.058 667.876 918.442 667.876C921.718 667.876 924.058 665.32 924.058 661.72C924.058 658.012 921.826 655.528 918.478 655.528ZM934.061 655.816V670H931.325V655.816H929.057V653.404H931.325V651.172C931.325 647.896 933.017 645.952 935.897 645.952C936.041 645.952 936.365 645.952 936.653 645.988V648.436C934.673 648.652 934.133 649.228 934.061 651.172V653.404H936.653V655.816H934.061ZM954.422 648.58V656.608H963.782V659.2H954.422V670H951.398V645.988H963.782V648.58H954.422ZM970.089 653.404V670H967.353V653.404H970.089ZM968.757 646.96C969.729 646.96 970.485 647.752 970.485 648.76C970.485 649.732 969.693 650.488 968.721 650.488C967.749 650.488 966.993 649.732 966.993 648.724C966.993 647.716 967.749 646.96 968.757 646.96ZM975.58 653.404H978.316V655.744C979.756 653.8 981.196 653.008 983.248 653.008C984.76 653.008 986.128 653.512 987.1 654.376C988.144 655.384 988.504 656.536 988.504 658.804V670H985.768V659.416C985.768 657.94 985.588 657.148 985.156 656.572C984.652 655.888 983.68 655.456 982.564 655.456C981.34 655.456 980.224 655.924 979.396 656.86C978.604 657.724 978.316 658.516 978.316 659.884V670H975.58V653.404ZM1006.32 655.924V645.988H1009.05V670H1006.32V667.156C1004.66 669.424 1002.9 670.396 1000.38 670.396C995.804 670.396 992.564 666.832 992.564 661.792C992.564 656.752 995.876 653.008 1000.38 653.008C1002.82 653.008 1004.7 653.908 1006.32 655.924ZM1000.95 655.456C997.676 655.456 995.444 658.048 995.444 661.828C995.444 665.464 997.64 668.02 1000.77 668.02C1003.98 668.02 1006.32 665.356 1006.32 661.756C1006.32 658.012 1004.12 655.456 1000.95 655.456ZM1017.3 653.404V670H1014.57V653.404H1017.3ZM1015.97 646.96C1016.94 646.96 1017.7 647.752 1017.7 648.76C1017.7 649.732 1016.91 650.488 1015.94 650.488C1014.96 650.488 1014.21 649.732 1014.21 648.724C1014.21 647.716 1014.96 646.96 1015.97 646.96ZM1022.79 653.404H1025.53V655.744C1026.97 653.8 1028.41 653.008 1030.46 653.008C1031.97 653.008 1033.34 653.512 1034.31 654.376C1035.36 655.384 1035.72 656.536 1035.72 658.804V670H1032.98V659.416C1032.98 657.94 1032.8 657.148 1032.37 656.572C1031.87 655.888 1030.89 655.456 1029.78 655.456C1028.55 655.456 1027.44 655.924 1026.61 656.86C1025.82 657.724 1025.53 658.516 1025.53 659.884V670H1022.79V653.404ZM1053.32 656.248V653.404H1056.05V670.108C1056.05 672.88 1055.37 674.752 1053.86 676.192C1052.38 677.632 1050.26 678.388 1047.74 678.388C1044.64 678.388 1042.19 677.38 1040.39 675.364L1042.26 673.492C1043.02 674.284 1043.38 674.608 1043.85 674.932C1044.78 675.508 1046.33 675.904 1047.74 675.904C1049.46 675.904 1051.12 675.292 1052.06 674.284C1052.88 673.384 1053.32 672.052 1053.32 670.324V666.832C1051.7 669.28 1049.79 670.396 1047.2 670.396C1042.8 670.396 1039.53 666.688 1039.53 661.756C1039.53 659.092 1040.5 656.536 1042.16 654.952C1043.49 653.656 1045.29 653.008 1047.41 653.008C1049.93 653.008 1051.62 653.944 1053.32 656.248ZM1047.92 655.528C1044.68 655.528 1042.41 658.048 1042.41 661.648C1042.41 665.212 1044.71 667.876 1047.84 667.876C1049.43 667.876 1050.98 667.12 1052.06 665.86C1052.78 665.032 1053.24 663.412 1053.24 661.756C1053.24 659.596 1052.92 658.444 1051.95 657.364C1050.94 656.248 1049.39 655.528 1047.92 655.528ZM1071.94 657.94H1069.2V657.76C1069.2 656.212 1067.94 655.24 1066.04 655.24C1064.2 655.24 1063.05 656.176 1063.05 657.616C1063.05 659.056 1063.77 659.596 1066.76 660.424C1068.88 661 1070 661.54 1070.79 662.332C1071.62 663.16 1072.12 664.348 1072.12 665.572C1072.12 668.452 1069.74 670.396 1066.22 670.396C1062.44 670.396 1060.31 668.632 1060.02 665.284H1062.72C1062.9 667.156 1064.13 668.164 1066.22 668.164C1068.09 668.164 1069.31 667.192 1069.31 665.716C1069.31 664.276 1068.38 663.556 1065.53 662.836C1061.93 661.864 1060.31 660.352 1060.31 657.832C1060.31 654.952 1062.65 653.008 1066.14 653.008C1069.67 653.008 1071.8 654.808 1071.94 657.94ZM1090.15 655.816V670H1087.42V655.816H1085.15V653.404H1087.42V651.172C1087.42 647.896 1089.11 645.952 1091.99 645.952C1092.13 645.952 1092.46 645.952 1092.75 645.988V648.436C1090.77 648.652 1090.23 649.228 1090.15 651.172V653.404H1092.75V655.816H1090.15ZM1096.45 653.404H1099.18V656.212C1099.69 655.024 1100.05 654.52 1100.69 654.016C1101.52 653.368 1102.67 653.008 1103.86 653.008H1104.51V655.78C1104.22 655.744 1103.93 655.744 1103.75 655.744C1102.28 655.744 1100.98 656.428 1100.15 657.652C1099.43 658.696 1099.18 659.668 1099.18 661.576V670H1096.45V653.404ZM1114.47 653.008C1119.37 653.008 1122.86 656.644 1122.86 661.756C1122.86 666.616 1119.12 670.396 1114.37 670.396C1109.43 670.396 1105.98 666.796 1105.98 661.684C1105.98 656.536 1109.43 653.008 1114.47 653.008ZM1114.47 655.528C1111.05 655.528 1108.79 658.012 1108.79 661.72C1108.79 665.392 1111.05 667.876 1114.44 667.876C1117.71 667.876 1120.05 665.32 1120.05 661.72C1120.05 658.012 1117.82 655.528 1114.47 655.528ZM1127.03 653.404H1129.77V655.708C1131.03 653.8 1132.43 653.008 1134.48 653.008C1136.75 653.008 1138.19 653.98 1138.95 656.032C1140.17 653.908 1141.72 653.008 1144.2 653.008C1146.11 653.008 1147.55 653.62 1148.42 654.772C1149.21 655.816 1149.42 656.752 1149.42 659.38V670H1146.69V660.028C1146.69 658.012 1146.62 657.544 1146.22 656.86C1145.72 655.996 1144.64 655.456 1143.34 655.456C1140.93 655.456 1139.6 657.076 1139.6 660.028V670H1136.86V660.064C1136.86 658.444 1136.72 657.616 1136.32 656.896C1135.85 655.96 1134.84 655.456 1133.62 655.456C1131.21 655.456 1129.77 657.184 1129.77 660.064V670H1127.03V653.404ZM781.308 704.812L779.22 706.72L776.664 703.84C774.324 705.64 772.128 706.432 769.392 706.432C766.116 706.432 762.804 704.92 760.536 702.4C758.628 700.276 757.656 697.468 757.656 694.12C757.656 686.92 762.696 681.556 769.5 681.556C776.196 681.556 781.236 686.848 781.236 693.904C781.236 697.108 780.444 699.52 778.644 701.932L781.308 704.812ZM774.9 697.864L776.628 699.736C777.672 697.828 778.104 696.244 778.104 694.048C778.104 688.468 774.432 684.364 769.464 684.364C766.836 684.364 764.28 685.624 762.66 687.748C761.436 689.332 760.752 691.528 760.752 693.976C760.752 699.592 764.388 703.624 769.356 703.624C771.444 703.624 772.92 703.084 774.612 701.644L772.848 699.664L774.9 697.864ZM795.7 689.404H798.472V700.024C798.472 702.292 798.04 703.552 796.816 704.668C795.592 705.784 793.9 706.396 792.028 706.396C790.156 706.396 788.428 705.748 787.24 704.632C786.124 703.552 785.584 702.04 785.584 700.024V689.404H788.32V699.952C788.32 702.292 789.832 703.948 792.028 703.948C793.18 703.948 794.296 703.48 794.98 702.688C795.52 702.04 795.7 701.356 795.7 700.024V689.404ZM816.053 692.14V689.404H818.789V706H816.053V702.796C814.397 705.28 812.525 706.396 810.005 706.396C805.433 706.396 802.193 702.796 802.193 697.756C802.193 692.68 805.505 689.008 810.077 689.008C812.597 689.008 814.433 689.98 816.053 692.14ZM810.473 691.456C808.673 691.456 807.413 692.068 806.441 693.436C805.577 694.624 805.073 696.208 805.073 697.828C805.073 701.356 807.377 704.02 810.401 704.02C813.533 704.02 816.089 701.104 816.089 697.54C816.089 693.94 813.785 691.456 810.473 691.456ZM827.038 706H824.302V681.988H827.038V706ZM835.265 689.404V706H832.529V689.404H835.265ZM833.933 682.96C834.905 682.96 835.661 683.752 835.661 684.76C835.661 685.732 834.869 686.488 833.897 686.488C832.925 686.488 832.169 685.732 832.169 684.724C832.169 683.716 832.925 682.96 833.933 682.96ZM843.672 691.816V702.616C843.708 703.444 843.924 703.624 844.932 703.624H846.192V706H843.636C841.692 705.964 840.936 705.244 840.936 703.408V691.816H838.632V689.404H840.936V684.184H843.672V689.404H846.192V691.816H843.672ZM862.284 692.14V689.404H865.02V706H862.284V702.796C860.628 705.28 858.756 706.396 856.236 706.396C851.664 706.396 848.424 702.796 848.424 697.756C848.424 692.68 851.736 689.008 856.308 689.008C858.828 689.008 860.664 689.98 862.284 692.14ZM856.704 691.456C854.904 691.456 853.644 692.068 852.672 693.436C851.808 694.624 851.304 696.208 851.304 697.828C851.304 701.356 853.608 704.02 856.632 704.02C859.764 704.02 862.32 701.104 862.32 697.54C862.32 693.94 860.016 691.456 856.704 691.456ZM873.343 691.816V702.616C873.379 703.444 873.595 703.624 874.603 703.624H875.863V706H873.307C871.363 705.964 870.607 705.244 870.607 703.408V691.816H868.303V689.404H870.607V684.184H873.343V689.404H875.863V691.816H873.343ZM882.234 689.404V706H879.498V689.404H882.234ZM880.902 682.96C881.874 682.96 882.63 683.752 882.63 684.76C882.63 685.732 881.838 686.488 880.866 686.488C879.894 686.488 879.138 685.732 879.138 684.724C879.138 683.716 879.894 682.96 880.902 682.96ZM897.483 689.404H900.327L894.063 706H891.183L885.099 689.404H887.979L892.659 702.076L897.483 689.404ZM918.249 698.584H904.425C904.569 699.988 904.821 700.708 905.505 701.608C906.585 703.084 908.169 703.876 909.969 703.876C912.021 703.876 913.965 702.76 914.937 701.032L917.349 701.932C915.981 704.704 913.137 706.396 909.969 706.396C905.037 706.396 901.509 702.796 901.509 697.756C901.509 692.644 905.001 689.008 909.861 689.008C914.685 689.008 918.285 692.644 918.285 697.504C918.285 697.72 918.285 698.188 918.249 698.584ZM904.461 696.568H915.369C915.261 695.272 915.009 694.552 914.433 693.724C913.389 692.32 911.697 691.456 909.861 691.456C908.025 691.456 906.369 692.32 905.397 693.76C904.893 694.552 904.677 695.236 904.461 696.568ZM936.317 695.92V706H933.293V681.988H939.845C944.957 681.988 948.053 684.616 948.053 688.972C948.053 691.672 946.829 693.832 944.597 695.02C943.445 695.632 942.365 695.884 940.169 696.028L949.493 706H945.641L936.317 695.92ZM936.317 693.868H939.341C942.977 693.868 944.957 692.212 944.957 689.188C944.957 686.2 943.157 684.58 939.845 684.58H936.317V693.868ZM967.749 698.584H953.925C954.069 699.988 954.321 700.708 955.005 701.608C956.085 703.084 957.669 703.876 959.469 703.876C961.521 703.876 963.465 702.76 964.437 701.032L966.849 701.932C965.481 704.704 962.637 706.396 959.469 706.396C954.537 706.396 951.009 702.796 951.009 697.756C951.009 692.644 954.501 689.008 959.361 689.008C964.185 689.008 967.785 692.644 967.785 697.504C967.785 697.72 967.785 698.188 967.749 698.584ZM953.961 696.568H964.869C964.761 695.272 964.509 694.552 963.933 693.724C962.889 692.32 961.197 691.456 959.361 691.456C957.525 691.456 955.869 692.32 954.897 693.76C954.393 694.552 954.177 695.236 953.961 696.568ZM982.081 693.94H979.345V693.76C979.345 692.212 978.085 691.24 976.177 691.24C974.341 691.24 973.189 692.176 973.189 693.616C973.189 695.056 973.909 695.596 976.897 696.424C979.021 697 980.137 697.54 980.929 698.332C981.757 699.16 982.261 700.348 982.261 701.572C982.261 704.452 979.885 706.396 976.357 706.396C972.577 706.396 970.453 704.632 970.165 701.284H972.865C973.045 703.156 974.269 704.164 976.357 704.164C978.229 704.164 979.453 703.192 979.453 701.716C979.453 700.276 978.517 699.556 975.673 698.836C972.073 697.864 970.453 696.352 970.453 693.832C970.453 690.952 972.793 689.008 976.285 689.008C979.813 689.008 981.937 690.808 982.081 693.94ZM1001.89 698.584H988.062C988.206 699.988 988.458 700.708 989.142 701.608C990.222 703.084 991.806 703.876 993.606 703.876C995.658 703.876 997.602 702.76 998.574 701.032L1000.99 701.932C999.618 704.704 996.774 706.396 993.606 706.396C988.674 706.396 985.146 702.796 985.146 697.756C985.146 692.644 988.638 689.008 993.498 689.008C998.322 689.008 1001.92 692.644 1001.92 697.504C1001.92 697.72 1001.92 698.188 1001.89 698.584ZM988.098 696.568H999.006C998.898 695.272 998.646 694.552 998.07 693.724C997.026 692.32 995.334 691.456 993.498 691.456C991.662 691.456 990.006 692.32 989.034 693.76C988.53 694.552 988.314 695.236 988.098 696.568ZM1018.48 692.14V689.404H1021.22V706H1018.48V702.796C1016.83 705.28 1014.95 706.396 1012.43 706.396C1007.86 706.396 1004.62 702.796 1004.62 697.756C1004.62 692.68 1007.93 689.008 1012.51 689.008C1015.03 689.008 1016.86 689.98 1018.48 692.14ZM1012.9 691.456C1011.1 691.456 1009.84 692.068 1008.87 693.436C1008.01 694.624 1007.5 696.208 1007.5 697.828C1007.5 701.356 1009.81 704.02 1012.83 704.02C1015.96 704.02 1018.52 701.104 1018.52 697.54C1018.52 693.94 1016.21 691.456 1012.9 691.456ZM1026.73 689.404H1029.47V692.212C1029.97 691.024 1030.33 690.52 1030.98 690.016C1031.81 689.368 1032.96 689.008 1034.15 689.008H1034.8V691.78C1034.51 691.744 1034.22 691.744 1034.04 691.744C1032.56 691.744 1031.27 692.428 1030.44 693.652C1029.72 694.696 1029.47 695.668 1029.47 697.576V706H1026.73V689.404ZM1048.79 702.076L1050.48 703.948C1048.61 705.64 1046.78 706.396 1044.36 706.396C1039.61 706.396 1036.23 702.796 1036.23 697.756C1036.23 692.608 1039.65 689.008 1044.51 689.008C1046.88 689.008 1048.83 689.8 1050.56 691.492L1048.79 693.256C1047.53 692.104 1046.13 691.528 1044.58 691.528C1041.3 691.528 1039.04 694.048 1039.04 697.648C1039.04 701.32 1041.3 703.876 1044.54 703.876C1046.16 703.876 1047.46 703.336 1048.79 702.076ZM1056.36 681.988V691.708C1057.87 689.836 1059.39 689.008 1061.37 689.008C1062.81 689.008 1064.32 689.584 1065.22 690.52C1066.12 691.42 1066.51 692.716 1066.51 694.84V706H1063.78V694.984C1063.78 692.716 1062.66 691.456 1060.68 691.456C1059.42 691.456 1058.31 691.96 1057.44 692.932C1056.61 693.868 1056.36 694.696 1056.36 696.28V706H1053.63V681.988H1056.36Z" fill="white"/>
<path d="M778.5 890.5H778.278L767.402 901.377V890.5H767.096V901.38L756.217 890.5H756V890.717L766.039 900.757L756 894.049V894.417L765.869 901.013L756 896.924V897.256L765.752 901.296L756 899.356V899.669L765.692 901.597H756V901.903H765.693L756 903.831V904.144L765.752 902.204L756 906.244V906.576L765.869 902.487L756 909.083V909.451L766.039 902.743L756 912.783V913H756.217L767.096 902.12V913H767.402V902.123L778.278 913H778.5V890.5Z" fill="white"/>
</g>
<defs>
<filter id="filter0_d_1413_25" x="0" y="0" width="705" height="420" filterUnits="userSpaceOnUse" color-interpolation-filters="sRGB">
<feFlood flood-opacity="0" result="BackgroundImageFix"/>
<feColorMatrix in="SourceAlpha" type="matrix" values="0 0 0 0 0 0 0 0 0 0 0 0 0 0 0 0 0 0 127 0" result="hardAlpha"/>
<feOffset dy="10"/>
<feGaussianBlur stdDeviation="15"/>
<feComposite in2="hardAlpha" operator="out"/>
<feColorMatrix type="matrix" values="0 0 0 0 0 0 0 0 0 0 0 0 0 0 0 0 0 0 0.1 0"/>
<feBlend mode="normal" in2="BackgroundImageFix" result="effect1_dropShadow_1413_25"/>
<feBlend mode="normal" in="SourceGraphic" in2="effect1_dropShadow_1413_25" result="shape"/>
</filter>
<filter id="filter1_d_1413_25" x="174" y="140" width="705" height="420" filterUnits="userSpaceOnUse" color-interpolation-filters="sRGB">
<feFlood flood-opacity="0" result="BackgroundImageFix"/>
<feColorMatrix in="SourceAlpha" type="matrix" values="0 0 0 0 0 0 0 0 0 0 0 0 0 0 0 0 0 0 127 0" result="hardAlpha"/>
<feOffset dy="10"/>
<feGaussianBlur stdDeviation="15"/>
<feComposite in2="hardAlpha" operator="out"/>
<feColorMatrix type="matrix" values="0 0 0 0 0 0 0 0 0 0 0 0 0 0 0 0 0 0 0.1 0"/>
<feBlend mode="normal" in2="BackgroundImageFix" result="effect1_dropShadow_1413_25"/>
<feBlend mode="normal" in="SourceGraphic" in2="effect1_dropShadow_1413_25" result="shape"/>
</filter>
<filter id="filter2_d_1413_25" x="348" y="280" width="705" height="420" filterUnits="userSpaceOnUse" color-interpolation-filters="sRGB">
<feFlood flood-opacity="0" result="BackgroundImageFix"/>
<feColorMatrix in="SourceAlpha" type="matrix" values="0 0 0 0 0 0 0 0 0 0 0 0 0 0 0 0 0 0 127 0" result="hardAlpha"/>
<feOffset dy="10"/>
<feGaussianBlur stdDeviation="15"/>
<feComposite in2="hardAlpha" operator="out"/>
<feColorMatrix type="matrix" values="0 0 0 0 0 0 0 0 0 0 0 0 0 0 0 0 0 0 0.1 0"/>
<feBlend mode="normal" in2="BackgroundImageFix" result="effect1_dropShadow_1413_25"/>
<feBlend mode="normal" in="SourceGraphic" in2="effect1_dropShadow_1413_25" result="shape"/>
</filter>
<filter id="filter3_d_1413_25" x="522" y="430" width="705" height="420" filterUnits="userSpaceOnUse" color-interpolation-filters="sRGB">
<feFlood flood-opacity="0" result="BackgroundImageFix"/>
<feColorMatrix in="SourceAlpha" type="matrix" values="0 0 0 0 0 0 0 0 0 0 0 0 0 0 0 0 0 0 127 0" result="hardAlpha"/>
<feOffset dy="10"/>
<feGaussianBlur stdDeviation="15"/>
<feComposite in2="hardAlpha" operator="out"/>
<feColorMatrix type="matrix" values="0 0 0 0 0 0 0 0 0 0 0 0 0 0 0 0 0 0 0.1 0"/>
<feBlend mode="normal" in2="BackgroundImageFix" result="effect1_dropShadow_1413_25"/>
<feBlend mode="normal" in="SourceGraphic" in2="effect1_dropShadow_1413_25" result="shape"/>
</filter>
<filter id="filter4_d_1413_25" x="696" y="560" width="705" height="420" filterUnits="userSpaceOnUse" color-interpolation-filters="sRGB">
<feFlood flood-opacity="0" result="BackgroundImageFix"/>
<feColorMatrix in="SourceAlpha" type="matrix" values="0 0 0 0 0 0 0 0 0 0 0 0 0 0 0 0 0 0 127 0" result="hardAlpha"/>
<feOffset dy="10"/>
<feGaussianBlur stdDeviation="15"/>
<feComposite in2="hardAlpha" operator="out"/>
<feColorMatrix type="matrix" values="0 0 0 0 0 0 0 0 0 0 0 0 0 0 0 0 0 0 0.1 0"/>
<feBlend mode="normal" in2="BackgroundImageFix" result="effect1_dropShadow_1413_25"/>
<feBlend mode="normal" in="SourceGraphic" in2="effect1_dropShadow_1413_25" result="shape"/>
</filter>
</defs>
</svg>
