<svg width="1339" height="300" viewBox="0 0 1339 300" fill="none" xmlns="http://www.w3.org/2000/svg">
<path d="M512.651 150C512.651 157.926 506.226 164.351 498.301 164.351C490.375 164.351 483.95 157.926 483.95 150C483.95 142.074 490.375 135.649 498.301 135.649C506.226 135.649 512.651 142.074 512.651 150Z" fill="#E2725B" stroke="#EFEDE4" stroke-width="1.2987"/>
<path d="M512.651 105C512.651 112.926 506.226 119.351 498.301 119.351C490.375 119.351 483.95 112.926 483.95 105C483.95 97.0744 490.375 90.6494 498.301 90.6494C506.226 90.6494 512.651 97.0744 512.651 105Z" fill="#E2725B" stroke="#EFEDE4" stroke-width="1.2987"/>
<path d="M512.651 60C512.651 67.9256 506.226 74.3506 498.301 74.3506C490.375 74.3506 483.95 67.9256 483.95 60C483.95 52.0744 490.375 45.6494 498.301 45.6494C506.226 45.6494 512.651 52.0744 512.651 60Z" fill="#E2725B" stroke="#EFEDE4" stroke-width="1.2987"/>
<path d="M512.635 15C512.635 22.9256 506.21 29.3506 498.285 29.3506C490.359 29.3506 483.934 22.9256 483.934 15C483.934 7.07436 490.359 0.649351 498.285 0.649351C506.21 0.649351 512.635 7.07436 512.635 15Z" fill="#E2725B" stroke="#EFEDE4" stroke-width="1.2987"/>
<path d="M512.635 285C512.635 292.926 506.21 299.351 498.285 299.351C490.359 299.351 483.934 292.926 483.934 285C483.934 277.074 490.359 270.649 498.285 270.649C506.21 270.649 512.635 277.074 512.635 285Z" fill="#E2725B" stroke="#EFEDE4" stroke-width="1.2987"/>
<path d="M466.466 23.1445C466.466 31.0702 460.041 37.4952 452.115 37.4952C444.189 37.4952 437.764 31.0702 437.764 23.1445C437.764 15.2189 444.189 8.79388 452.115 8.79388C460.041 8.79388 466.466 15.2189 466.466 23.1445Z" fill="#E2725B" stroke="#EFEDE4" stroke-width="1.2987"/>
<path d="M558.821 276.855C558.821 284.781 552.396 291.206 544.47 291.206C536.545 291.206 530.12 284.781 530.12 276.855C530.12 268.93 536.545 262.505 544.47 262.505C552.396 262.505 558.821 268.93 558.821 276.855Z" fill="#E2725B" stroke="#EFEDE4" stroke-width="1.2987"/>
<path d="M425.861 46.5898C425.861 54.5155 419.436 60.9405 411.51 60.9405C403.585 60.9405 397.16 54.5155 397.16 46.5898C397.16 38.6642 403.585 32.2392 411.51 32.2392C419.436 32.2392 425.861 38.6642 425.861 46.5898Z" fill="#E2725B" stroke="#EFEDE4" stroke-width="1.2987"/>
<path d="M599.426 253.41C599.426 261.336 593.001 267.761 585.076 267.761C577.15 267.761 570.725 261.336 570.725 253.41C570.725 245.485 577.15 239.06 585.076 239.06C593.001 239.06 599.426 245.485 599.426 253.41Z" fill="#E2725B" stroke="#EFEDE4" stroke-width="1.2987"/>
<path d="M395.726 82.5C395.726 90.4256 389.301 96.8506 381.376 96.8506C373.45 96.8506 367.025 90.4256 367.025 82.5C367.025 74.5744 373.45 68.1494 381.376 68.1494C389.301 68.1494 395.726 74.5744 395.726 82.5Z" fill="#E2725B" stroke="#EFEDE4" stroke-width="1.2987"/>
<path d="M629.56 217.5C629.56 225.426 623.135 231.851 615.21 231.851C607.284 231.851 600.859 225.426 600.859 217.5C600.859 209.574 607.284 203.149 615.21 203.149C623.135 203.149 629.56 209.574 629.56 217.5Z" fill="#E2725B" stroke="#EFEDE4" stroke-width="1.2987"/>
<path d="M379.691 126.555C379.691 134.48 373.266 140.905 365.341 140.905C357.415 140.905 350.99 134.48 350.99 126.555C350.99 118.629 357.415 112.204 365.341 112.204C373.266 112.204 379.691 118.629 379.691 126.555Z" fill="#E2725B" stroke="#EFEDE4" stroke-width="1.2987"/>
<path d="M645.595 173.445C645.595 181.371 639.17 187.796 631.244 187.796C623.319 187.796 616.894 181.371 616.894 173.445C616.894 165.52 623.319 159.095 631.244 159.095C639.17 159.095 645.595 165.52 645.595 173.445Z" fill="#E2725B" stroke="#EFEDE4" stroke-width="1.2987"/>
<path d="M379.691 173.445C379.691 181.371 373.266 187.796 365.341 187.796C357.415 187.796 350.99 181.371 350.99 173.445C350.99 165.52 357.415 159.095 365.341 159.095C373.266 159.095 379.691 165.52 379.691 173.445Z" fill="#E2725B" stroke="#EFEDE4" stroke-width="1.2987"/>
<path d="M645.595 126.555C645.595 134.48 639.17 140.905 631.244 140.905C623.319 140.905 616.894 134.48 616.894 126.555C616.894 118.629 623.319 112.204 631.244 112.204C639.17 112.204 645.595 118.629 645.595 126.555Z" fill="#E2725B" stroke="#EFEDE4" stroke-width="1.2987"/>
<path d="M395.726 217.5C395.726 225.426 389.301 231.851 381.376 231.851C373.45 231.851 367.025 225.426 367.025 217.5C367.025 209.574 373.45 203.149 381.376 203.149C389.301 203.149 395.726 209.574 395.726 217.5Z" fill="#E2725B" stroke="#EFEDE4" stroke-width="1.2987"/>
<path d="M629.56 82.5C629.56 90.4256 623.135 96.8506 615.21 96.8506C607.284 96.8506 600.859 90.4256 600.859 82.5C600.859 74.5744 607.284 68.1494 615.21 68.1494C623.135 68.1494 629.56 74.5744 629.56 82.5Z" fill="#E2725B" stroke="#EFEDE4" stroke-width="1.2987"/>
<path d="M425.861 253.41C425.861 261.336 419.436 267.761 411.51 267.761C403.585 267.761 397.16 261.336 397.16 253.41C397.16 245.485 403.585 239.06 411.51 239.06C419.436 239.06 425.861 245.485 425.861 253.41Z" fill="#E2725B" stroke="#EFEDE4" stroke-width="1.2987"/>
<path d="M599.426 46.5898C599.426 54.5155 593.001 60.9405 585.076 60.9405C577.15 60.9405 570.725 54.5155 570.725 46.5898C570.725 38.6642 577.15 32.2392 585.076 32.2392C593.001 32.2392 599.426 38.6642 599.426 46.5898Z" fill="#E2725B" stroke="#EFEDE4" stroke-width="1.2987"/>
<path d="M466.466 276.855C466.466 284.781 460.041 291.206 452.115 291.206C444.189 291.206 437.764 284.781 437.764 276.855C437.764 268.93 444.189 262.505 452.115 262.505C460.041 262.505 466.466 268.93 466.466 276.855Z" fill="#E2725B" stroke="#EFEDE4" stroke-width="1.2987"/>
<path d="M558.821 23.1445C558.821 31.0702 552.396 37.4952 544.47 37.4952C536.545 37.4952 530.12 31.0702 530.12 23.1445C530.12 15.2189 536.545 8.79388 544.47 8.79388C552.396 8.79388 558.821 15.2189 558.821 23.1445Z" fill="#E2725B" stroke="#EFEDE4" stroke-width="1.2987"/>
<path d="M512.651 240C512.651 247.926 506.226 254.351 498.301 254.351C490.375 254.351 483.95 247.926 483.95 240C483.95 232.074 490.375 225.649 498.301 225.649C506.226 225.649 512.651 232.074 512.651 240Z" fill="#E2725B" stroke="#EFEDE4" stroke-width="1.2987"/>
<path d="M467.65 72.0596C467.65 79.9852 461.225 86.4102 453.299 86.4102C445.374 86.4102 438.949 79.9852 438.949 72.0596C438.949 64.1339 445.374 57.7089 453.299 57.7089C461.225 57.7089 467.65 64.1339 467.65 72.0596Z" fill="#E2725B" stroke="#EFEDE4" stroke-width="1.2987"/>
<path d="M557.65 227.94C557.65 235.866 551.225 242.291 543.3 242.291C535.374 242.291 528.949 235.866 528.949 227.94C528.949 220.015 535.374 213.59 543.3 213.59C551.225 213.59 557.65 220.015 557.65 227.94Z" fill="#E2725B" stroke="#EFEDE4" stroke-width="1.2987"/>
<path d="M434.696 105C434.696 112.926 428.271 119.351 420.345 119.351C412.419 119.351 405.994 112.926 405.994 105C405.994 97.0744 412.419 90.6494 420.345 90.6494C428.271 90.6494 434.696 97.0744 434.696 105Z" fill="#E2725B" stroke="#EFEDE4" stroke-width="1.2987"/>
<path d="M590.591 195C590.591 202.926 584.166 209.351 576.24 209.351C568.315 209.351 561.89 202.926 561.89 195C561.89 187.074 568.315 180.649 576.24 180.649C584.166 180.649 590.591 187.074 590.591 195Z" fill="#E2725B" stroke="#EFEDE4" stroke-width="1.2987"/>
<path d="M422.65 150C422.65 157.926 416.225 164.351 408.299 164.351C400.374 164.351 393.949 157.926 393.949 150C393.949 142.074 400.374 135.649 408.299 135.649C416.225 135.649 422.65 142.074 422.65 150Z" fill="#E2725B" stroke="#EFEDE4" stroke-width="1.2987"/>
<path d="M602.65 150C602.65 157.926 596.225 164.351 588.3 164.351C580.374 164.351 573.949 157.926 573.949 150C573.949 142.074 580.374 135.649 588.3 135.649C596.225 135.649 602.65 142.074 602.65 150Z" fill="#E2725B" stroke="#EFEDE4" stroke-width="1.2987"/>
<path d="M434.696 195C434.696 202.926 428.271 209.351 420.345 209.351C412.419 209.351 405.994 202.926 405.994 195C405.994 187.074 412.419 180.649 420.345 180.649C428.271 180.649 434.696 187.074 434.696 195Z" fill="#E2725B" stroke="#EFEDE4" stroke-width="1.2987"/>
<path d="M590.591 105C590.591 112.926 584.166 119.351 576.24 119.351C568.315 119.351 561.89 112.926 561.89 105C561.89 97.0744 568.315 90.6494 576.24 90.6494C584.166 90.6494 590.591 97.0744 590.591 105Z" fill="#E2725B" stroke="#EFEDE4" stroke-width="1.2987"/>
<path d="M467.65 227.94C467.65 235.866 461.225 242.291 453.299 242.291C445.374 242.291 438.949 235.866 438.949 227.94C438.949 220.015 445.374 213.59 453.299 213.59C461.225 213.59 467.65 220.015 467.65 227.94Z" fill="#E2725B" stroke="#EFEDE4" stroke-width="1.2987"/>
<path d="M557.65 72.0596C557.65 79.9852 551.225 86.4102 543.3 86.4102C535.374 86.4102 528.949 79.9852 528.949 72.0596C528.949 64.1339 535.374 57.7089 543.3 57.7089C551.225 57.7089 557.65 64.1339 557.65 72.0596Z" fill="#E2725B" stroke="#EFEDE4" stroke-width="1.2987"/>
<path d="M512.651 195C512.651 202.926 506.226 209.351 498.301 209.351C490.375 209.351 483.95 202.926 483.95 195C483.95 187.074 490.375 180.649 498.301 180.649C506.226 180.649 512.651 187.074 512.651 195Z" fill="#E2725B" stroke="#EFEDE4" stroke-width="1.2987"/>
<path d="M473.667 127.5C473.667 135.426 467.242 141.851 459.316 141.851C451.391 141.851 444.966 135.426 444.966 127.5C444.966 119.574 451.391 113.149 459.316 113.149C467.242 113.149 473.667 119.574 473.667 127.5Z" fill="#E2725B" stroke="#EFEDE4" stroke-width="1.2987"/>
<path d="M551.621 172.5C551.621 180.426 545.196 186.851 537.27 186.851C529.344 186.851 522.919 180.426 522.919 172.5C522.919 164.574 529.344 158.149 537.27 158.149C545.196 158.149 551.621 164.574 551.621 172.5Z" fill="#E2725B" stroke="#EFEDE4" stroke-width="1.2987"/>
<path d="M473.667 172.5C473.667 180.426 467.242 186.851 459.316 186.851C451.391 186.851 444.966 180.426 444.966 172.5C444.966 164.574 451.391 158.149 459.316 158.149C467.242 158.149 473.667 164.574 473.667 172.5Z" fill="#E2725B" stroke="#EFEDE4" stroke-width="1.2987"/>
<path d="M551.621 127.5C551.621 135.426 545.196 141.851 537.27 141.851C529.344 141.851 522.919 135.426 522.919 127.5C522.919 119.574 529.344 113.149 537.27 113.149C545.196 113.149 551.621 119.574 551.621 127.5Z" fill="#E2725B" stroke="#EFEDE4" stroke-width="1.2987"/>
<g clip-path="url(#clip0_1275_27)">
<path d="M843.322 300C760.477 300 693.322 232.845 693.322 150C693.322 67.155 760.477 0 843.322 0V300Z" fill="#F5C445"/>
<path d="M843.322 300V0" stroke="#F5C445" stroke-width="3" stroke-miterlimit="10"/>
<path d="M830.258 299.43L856.403 0.570312" stroke="#F5C445" stroke-width="3" stroke-miterlimit="10"/>
<path d="M817.281 297.72L869.376 2.28027" stroke="#F5C445" stroke-width="3" stroke-miterlimit="10"/>
<path d="M804.502 294.885L882.142 5.11523" stroke="#F5C445" stroke-width="3" stroke-miterlimit="10"/>
<path d="M792.022 290.955L894.622 9.04492" stroke="#F5C445" stroke-width="3" stroke-miterlimit="10"/>
<path d="M779.934 285.945L906.714 14.0547" stroke="#F5C445" stroke-width="3" stroke-miterlimit="10"/>
<path d="M768.322 279.9L918.322 20.0996" stroke="#F5C445" stroke-width="3" stroke-miterlimit="10"/>
<path d="M757.283 272.88L929.363 27.1201" stroke="#F5C445" stroke-width="3" stroke-miterlimit="10"/>
<path d="M746.903 264.915L939.743 35.0996" stroke="#F5C445" stroke-width="3" stroke-miterlimit="10"/>
<path d="M737.258 256.066L949.388 43.9355" stroke="#F5C445" stroke-width="3" stroke-miterlimit="10"/>
<path d="M728.423 246.42L958.238 53.5801" stroke="#F5C445" stroke-width="3" stroke-miterlimit="10"/>
<path d="M720.456 236.04L966.201 63.96" stroke="#F5C445" stroke-width="3" stroke-miterlimit="10"/>
<path d="M713.423 225L973.223 75" stroke="#F5C445" stroke-width="3" stroke-miterlimit="10"/>
<path d="M707.378 213.39L979.268 86.6104" stroke="#F5C445" stroke-width="3" stroke-miterlimit="10"/>
<path d="M702.369 201.3L984.279 98.7002" stroke="#F5C445" stroke-width="3" stroke-miterlimit="10"/>
<path d="M698.438 188.82L988.223 111.18" stroke="#F5C445" stroke-width="3" stroke-miterlimit="10"/>
<path d="M695.601 176.055L991.041 123.96" stroke="#F5C445" stroke-width="3" stroke-miterlimit="10"/>
<path d="M693.892 163.08L992.752 136.935" stroke="#F5C445" stroke-width="3" stroke-miterlimit="10"/>
<path d="M693.322 150H993.322" stroke="#F5C445" stroke-width="3" stroke-miterlimit="10"/>
<path d="M693.892 136.935L992.752 163.08" stroke="#F5C445" stroke-width="3" stroke-miterlimit="10"/>
<path d="M695.601 123.96L991.041 176.055" stroke="#F5C445" stroke-width="3" stroke-miterlimit="10"/>
<path d="M698.438 111.18L988.223 188.82" stroke="#F5C445" stroke-width="3" stroke-miterlimit="10"/>
<path d="M702.369 98.7002L984.279 201.3" stroke="#F5C445" stroke-width="3" stroke-miterlimit="10"/>
<path d="M707.378 86.6104L979.268 213.39" stroke="#F5C445" stroke-width="3" stroke-miterlimit="10"/>
<path d="M713.423 75L973.223 225" stroke="#F5C445" stroke-width="3" stroke-miterlimit="10"/>
<path d="M720.456 63.96L966.201 236.04" stroke="#F5C445" stroke-width="3" stroke-miterlimit="10"/>
<path d="M728.423 53.5801L958.238 246.42" stroke="#F5C445" stroke-width="3" stroke-miterlimit="10"/>
<path d="M737.258 43.9355L949.388 256.066" stroke="#F5C445" stroke-width="3" stroke-miterlimit="10"/>
<path d="M746.903 35.0996L939.743 264.915" stroke="#F5C445" stroke-width="3" stroke-miterlimit="10"/>
<path d="M757.283 27.1201L929.363 272.88" stroke="#F5C445" stroke-width="3" stroke-miterlimit="10"/>
<path d="M768.322 20.0996L918.322 279.9" stroke="#F5C445" stroke-width="3" stroke-miterlimit="10"/>
<path d="M779.934 14.0547L906.714 285.945" stroke="#F5C445" stroke-width="3" stroke-miterlimit="10"/>
<path d="M792.022 9.04492L894.622 290.955" stroke="#F5C445" stroke-width="3" stroke-miterlimit="10"/>
<path d="M804.502 5.11523L882.142 294.885" stroke="#F5C445" stroke-width="3" stroke-miterlimit="10"/>
<path d="M817.281 2.28027L869.376 297.72" stroke="#F5C445" stroke-width="3" stroke-miterlimit="10"/>
<path d="M830.258 0.570312L856.403 299.43" stroke="#F5C445" stroke-width="3" stroke-miterlimit="10"/>
</g>
<g clip-path="url(#clip1_1275_27)">
<path d="M149.175 7.71582V290.633" stroke="#5D245D" stroke-width="2.57198" stroke-miterlimit="10" stroke-linecap="round"/>
<path d="M135.441 218.245L162.922 80.1045" stroke="#5D245D" stroke-width="2.57198" stroke-miterlimit="10" stroke-linecap="round"/>
<path d="M203.315 18.4795L95.0476 279.87" stroke="#5D245D" stroke-width="2.57198" stroke-miterlimit="10" stroke-linecap="round"/>
<path d="M110.055 207.738L188.307 90.6104" stroke="#5D245D" stroke-width="2.57198" stroke-miterlimit="10" stroke-linecap="round"/>
<path d="M249.199 49.1504L49.1501 249.199" stroke="#5D245D" stroke-width="2.57198" stroke-miterlimit="10" stroke-linecap="round"/>
<path d="M90.6233 188.307L207.738 110.042" stroke="#5D245D" stroke-width="2.57198" stroke-miterlimit="10" stroke-linecap="round"/>
<path d="M279.869 95.0342L18.4923 203.314" stroke="#5D245D" stroke-width="2.57198" stroke-miterlimit="10" stroke-linecap="round"/>
<path d="M80.1042 162.909L218.258 135.44" stroke="#5D245D" stroke-width="2.57198" stroke-miterlimit="10" stroke-linecap="round"/>
<path d="M290.633 149.175H7.71594" stroke="#5D245D" stroke-width="2.57198" stroke-miterlimit="10" stroke-linecap="round"/>
<path d="M80.1042 135.44L218.258 162.909" stroke="#5D245D" stroke-width="2.57198" stroke-miterlimit="10" stroke-linecap="round"/>
<path d="M279.869 203.314L18.4923 95.0342" stroke="#5D245D" stroke-width="2.57198" stroke-miterlimit="10" stroke-linecap="round"/>
<path d="M90.6233 110.042L207.738 188.307" stroke="#5D245D" stroke-width="2.57198" stroke-miterlimit="10" stroke-linecap="round"/>
<path d="M249.199 249.199L49.1501 49.1504" stroke="#5D245D" stroke-width="2.57198" stroke-miterlimit="10" stroke-linecap="round"/>
<path d="M110.055 90.6104L188.307 207.738" stroke="#5D245D" stroke-width="2.57198" stroke-miterlimit="10" stroke-linecap="round"/>
<path d="M203.315 279.87L95.0476 18.4795" stroke="#5D245D" stroke-width="2.57198" stroke-miterlimit="10" stroke-linecap="round"/>
<path d="M135.441 80.1045L162.922 218.245" stroke="#5D245D" stroke-width="2.57198" stroke-miterlimit="10" stroke-linecap="round"/>
<path d="M149.175 15.4319C153.436 15.4319 156.891 11.9773 156.891 7.71593C156.891 3.45454 153.436 0 149.175 0C144.913 0 141.459 3.45454 141.459 7.71593C141.459 11.9773 144.913 15.4319 149.175 15.4319Z" fill="#5D245D"/>
<path d="M149.175 298.35C153.436 298.35 156.891 294.895 156.891 290.634C156.891 286.373 153.436 282.918 149.175 282.918C144.913 282.918 141.459 286.373 141.459 290.634C141.459 294.895 144.913 298.35 149.175 298.35Z" fill="#5D245D"/>
<path d="M162.909 85.2742C165.75 85.2742 168.053 82.9712 168.053 80.1303C168.053 77.2894 165.75 74.9863 162.909 74.9863C160.068 74.9863 157.765 77.2894 157.765 80.1303C157.765 82.9712 160.068 85.2742 162.909 85.2742Z" fill="#5D245D"/>
<path d="M135.441 223.389C138.282 223.389 140.585 221.086 140.585 218.246C140.585 215.405 138.282 213.102 135.441 213.102C132.6 213.102 130.297 215.405 130.297 218.246C130.297 221.086 132.6 223.389 135.441 223.389Z" fill="#5D245D"/>
<path d="M203.314 26.1955C207.576 26.1955 211.03 22.741 211.03 18.4796C211.03 14.2182 207.576 10.7637 203.314 10.7637C199.053 10.7637 195.598 14.2182 195.598 18.4796C195.598 22.741 199.053 26.1955 203.314 26.1955Z" fill="#5D245D"/>
<path d="M95.0476 287.585C99.309 287.585 102.764 284.131 102.764 279.869C102.764 275.608 99.309 272.153 95.0476 272.153C90.7862 272.153 87.3317 275.608 87.3317 279.869C87.3317 284.131 90.7862 287.585 95.0476 287.585Z" fill="#5D245D"/>
<path d="M188.282 95.7938C191.123 95.7938 193.426 93.4907 193.426 90.6498C193.426 87.8089 191.123 85.5059 188.282 85.5059C185.441 85.5059 183.138 87.8089 183.138 90.6498C183.138 93.4907 185.441 95.7938 188.282 95.7938Z" fill="#5D245D"/>
<path d="M110.055 212.883C112.896 212.883 115.199 210.58 115.199 207.739C115.199 204.898 112.896 202.595 110.055 202.595C107.214 202.595 104.911 204.898 104.911 207.739C104.911 210.58 107.214 212.883 110.055 212.883Z" fill="#5D245D"/>
<path d="M249.199 56.8664C253.461 56.8664 256.915 53.4119 256.915 49.1505C256.915 44.8891 253.461 41.4346 249.199 41.4346C244.938 41.4346 241.483 44.8891 241.483 49.1505C241.483 53.4119 244.938 56.8664 249.199 56.8664Z" fill="#5D245D"/>
<path d="M49.1501 256.915C53.4115 256.915 56.8661 253.461 56.8661 249.199C56.8661 244.938 53.4115 241.483 49.1501 241.483C44.8887 241.483 41.4342 244.938 41.4342 249.199C41.4342 253.461 44.8887 256.915 49.1501 256.915Z" fill="#5D245D"/>
<path d="M207.712 115.212C210.553 115.212 212.856 112.909 212.856 110.068C212.856 107.227 210.553 104.924 207.712 104.924C204.871 104.924 202.568 107.227 202.568 110.068C202.568 112.909 204.871 115.212 207.712 115.212Z" fill="#5D245D"/>
<path d="M90.6108 193.451C93.4517 193.451 95.7547 191.148 95.7547 188.307C95.7547 185.466 93.4517 183.163 90.6108 183.163C87.7698 183.163 85.4668 185.466 85.4668 188.307C85.4668 191.148 87.7698 193.451 90.6108 193.451Z" fill="#5D245D"/>
<path d="M279.869 102.763C284.131 102.763 287.585 99.3084 287.585 95.047C287.585 90.7856 284.131 87.3311 279.869 87.3311C275.608 87.3311 272.154 90.7856 272.154 95.047C272.154 99.3084 275.608 102.763 279.869 102.763Z" fill="#5D245D"/>
<path d="M18.4798 211.03C22.7412 211.03 26.1958 207.576 26.1958 203.315C26.1958 199.053 22.7412 195.599 18.4798 195.599C14.2185 195.599 10.7639 199.053 10.7639 203.315C10.7639 207.576 14.2185 211.03 18.4798 211.03Z" fill="#5D245D"/>
<path d="M218.22 140.585C221.061 140.585 223.364 138.282 223.364 135.441C223.364 132.6 221.061 130.297 218.22 130.297C215.379 130.297 213.076 132.6 213.076 135.441C213.076 138.282 215.379 140.585 218.22 140.585Z" fill="#5D245D"/>
<path d="M80.1043 168.066C82.9452 168.066 85.2482 165.763 85.2482 162.922C85.2482 160.081 82.9452 157.778 80.1043 157.778C77.2634 157.778 74.9603 160.081 74.9603 162.922C74.9603 165.763 77.2634 168.066 80.1043 168.066Z" fill="#5D245D"/>
<path d="M290.633 156.891C294.895 156.891 298.349 153.436 298.349 149.175C298.349 144.914 294.895 141.459 290.633 141.459C286.372 141.459 282.917 144.914 282.917 149.175C282.917 153.436 286.372 156.891 290.633 156.891Z" fill="#5D245D"/>
<path d="M7.71593 156.891C11.9773 156.891 15.4319 153.436 15.4319 149.175C15.4319 144.914 11.9773 141.459 7.71593 141.459C3.45454 141.459 0 144.914 0 149.175C0 153.436 3.45454 156.891 7.71593 156.891Z" fill="#5D245D"/>
<path d="M218.22 168.053C221.061 168.053 223.364 165.75 223.364 162.909C223.364 160.068 221.061 157.765 218.22 157.765C215.379 157.765 213.076 160.068 213.076 162.909C213.076 165.75 215.379 168.053 218.22 168.053Z" fill="#5D245D"/>
<path d="M80.1043 140.585C82.9452 140.585 85.2482 138.282 85.2482 135.441C85.2482 132.6 82.9452 130.297 80.1043 130.297C77.2634 130.297 74.9603 132.6 74.9603 135.441C74.9603 138.282 77.2634 140.585 80.1043 140.585Z" fill="#5D245D"/>
<path d="M279.869 211.03C284.131 211.03 287.585 207.576 287.585 203.315C287.585 199.053 284.131 195.599 279.869 195.599C275.608 195.599 272.154 199.053 272.154 203.315C272.154 207.576 275.608 211.03 279.869 211.03Z" fill="#5D245D"/>
<path d="M18.4798 102.763C22.7412 102.763 26.1958 99.3084 26.1958 95.047C26.1958 90.7856 22.7412 87.3311 18.4798 87.3311C14.2185 87.3311 10.7639 90.7856 10.7639 95.047C10.7639 99.3084 14.2185 102.763 18.4798 102.763Z" fill="#5D245D"/>
<path d="M207.7 193.426C210.541 193.426 212.844 191.123 212.844 188.282C212.844 185.441 210.541 183.138 207.7 183.138C204.859 183.138 202.556 185.441 202.556 188.282C202.556 191.123 204.859 193.426 207.7 193.426Z" fill="#5D245D"/>
<path d="M90.6108 115.199C93.4517 115.199 95.7547 112.896 95.7547 110.055C95.7547 107.214 93.4517 104.911 90.6108 104.911C87.7698 104.911 85.4668 107.214 85.4668 110.055C85.4668 112.896 87.7698 115.199 90.6108 115.199Z" fill="#5D245D"/>
<path d="M249.199 256.915C253.461 256.915 256.915 253.461 256.915 249.199C256.915 244.938 253.461 241.483 249.199 241.483C244.938 241.483 241.483 244.938 241.483 249.199C241.483 253.461 244.938 256.915 249.199 256.915Z" fill="#5D245D"/>
<path d="M49.1501 56.8664C53.4115 56.8664 56.8661 53.4119 56.8661 49.1505C56.8661 44.8891 53.4115 41.4346 49.1501 41.4346C44.8887 41.4346 41.4342 44.8891 41.4342 49.1505C41.4342 53.4119 44.8887 56.8664 49.1501 56.8664Z" fill="#5D245D"/>
<path d="M188.282 212.857C191.123 212.857 193.426 210.554 193.426 207.713C193.426 204.872 191.123 202.569 188.282 202.569C185.441 202.569 183.138 204.872 183.138 207.713C183.138 210.554 185.441 212.857 188.282 212.857Z" fill="#5D245D"/>
<path d="M110.042 95.7547C112.883 95.7547 115.186 93.4517 115.186 90.6108C115.186 87.7698 112.883 85.4668 110.042 85.4668C107.201 85.4668 104.898 87.7698 104.898 90.6108C104.898 93.4517 107.201 95.7547 110.042 95.7547Z" fill="#5D245D"/>
<path d="M203.302 287.585C207.563 287.585 211.018 284.131 211.018 279.869C211.018 275.608 207.563 272.153 203.302 272.153C199.04 272.153 195.586 275.608 195.586 279.869C195.586 284.131 199.04 287.585 203.302 287.585Z" fill="#5D245D"/>
<path d="M95.035 26.1955C99.2964 26.1955 102.751 22.741 102.751 18.4796C102.751 14.2182 99.2964 10.7637 95.035 10.7637C90.7736 10.7637 87.3191 14.2182 87.3191 18.4796C87.3191 22.741 90.7736 26.1955 95.035 26.1955Z" fill="#5D245D"/>
<path d="M162.909 223.363C165.75 223.363 168.053 221.06 168.053 218.219C168.053 215.378 165.75 213.075 162.909 213.075C160.068 213.075 157.765 215.378 157.765 218.219C157.765 221.06 160.068 223.363 162.909 223.363Z" fill="#5D245D"/>
<path d="M135.427 85.2479C138.268 85.2479 140.571 82.9448 140.571 80.1039C140.571 77.263 138.268 74.96 135.427 74.96C132.586 74.96 130.283 77.263 130.283 80.1039C130.283 82.9448 132.586 85.2479 135.427 85.2479Z" fill="#5D245D"/>
</g>
<g clip-path="url(#clip2_1275_27)">
<path d="M1188.83 1.35156V68.9191" stroke="#435861" stroke-width="2.7027" stroke-miterlimit="10" stroke-linecap="round"/>
<path d="M1209.92 43.9727L1196.73 110.243" stroke="#435861" stroke-width="2.7027" stroke-miterlimit="10" stroke-linecap="round"/>
<path d="M1188.83 231.081V298.649" stroke="#435861" stroke-width="2.7027" stroke-miterlimit="10" stroke-linecap="round"/>
<path d="M1180.92 189.757L1167.73 256.027" stroke="#435861" stroke-width="2.7027" stroke-miterlimit="10" stroke-linecap="round"/>
<path d="M1248.89 60.1084L1211.35 116.298" stroke="#435861" stroke-width="2.7027" stroke-miterlimit="10" stroke-linecap="round"/>
<path d="M1166.3 183.703L1128.76 239.892" stroke="#435861" stroke-width="2.7027" stroke-miterlimit="10" stroke-linecap="round"/>
<path d="M1278.72 89.9326L1222.53 127.473" stroke="#435861" stroke-width="2.7027" stroke-miterlimit="10" stroke-linecap="round"/>
<path d="M1155.12 172.527L1098.93 210.068" stroke="#435861" stroke-width="2.7027" stroke-miterlimit="10" stroke-linecap="round"/>
<path d="M1294.85 128.905L1228.58 142.094" stroke="#435861" stroke-width="2.7027" stroke-miterlimit="10" stroke-linecap="round"/>
<path d="M1149.07 157.905L1082.8 171.094" stroke="#435861" stroke-width="2.7027" stroke-miterlimit="10" stroke-linecap="round"/>
<path d="M1294.85 171.094L1228.58 157.905" stroke="#435861" stroke-width="2.7027" stroke-miterlimit="10" stroke-linecap="round"/>
<path d="M1149.07 142.094L1082.8 128.905" stroke="#435861" stroke-width="2.7027" stroke-miterlimit="10" stroke-linecap="round"/>
<path d="M1278.72 210.068L1222.53 172.527" stroke="#435861" stroke-width="2.7027" stroke-miterlimit="10" stroke-linecap="round"/>
<path d="M1155.12 127.473L1098.93 89.9326" stroke="#435861" stroke-width="2.7027" stroke-miterlimit="10" stroke-linecap="round"/>
<path d="M1248.89 239.892L1211.35 183.703" stroke="#435861" stroke-width="2.7027" stroke-miterlimit="10" stroke-linecap="round"/>
<path d="M1166.3 116.298L1128.76 60.1084" stroke="#435861" stroke-width="2.7027" stroke-miterlimit="10" stroke-linecap="round"/>
<path d="M1209.92 256.027L1196.73 189.757" stroke="#435861" stroke-width="2.7027" stroke-miterlimit="10" stroke-linecap="round"/>
<path d="M1180.92 110.243L1167.73 43.9727" stroke="#435861" stroke-width="2.7027" stroke-miterlimit="10" stroke-linecap="round"/>
<path d="M1245.72 12.6621L1219.85 75.0945" stroke="#435861" stroke-width="2.7027" stroke-miterlimit="10" stroke-linecap="round"/>
<path d="M1157.8 224.905L1131.93 287.338" stroke="#435861" stroke-width="2.7027" stroke-miterlimit="10" stroke-linecap="round"/>
<path d="M1293.93 44.8916L1246.16 92.6619" stroke="#435861" stroke-width="2.7027" stroke-miterlimit="10" stroke-linecap="round"/>
<path d="M1131.49 207.338L1083.72 255.108" stroke="#435861" stroke-width="2.7027" stroke-miterlimit="10" stroke-linecap="round"/>
<path d="M1326.16 93.1084L1263.73 118.973" stroke="#435861" stroke-width="2.7027" stroke-miterlimit="10" stroke-linecap="round"/>
<path d="M1113.92 181.027L1051.49 206.892" stroke="#435861" stroke-width="2.7027" stroke-miterlimit="10" stroke-linecap="round"/>
<path d="M1337.47 150H1269.91" stroke="#435861" stroke-width="2.7027" stroke-miterlimit="10" stroke-linecap="round"/>
<path d="M1107.74 150H1040.18" stroke="#435861" stroke-width="2.7027" stroke-miterlimit="10" stroke-linecap="round"/>
<path d="M1326.16 206.892L1263.73 181.027" stroke="#435861" stroke-width="2.7027" stroke-miterlimit="10" stroke-linecap="round"/>
<path d="M1113.92 118.973L1051.49 93.1084" stroke="#435861" stroke-width="2.7027" stroke-miterlimit="10" stroke-linecap="round"/>
<path d="M1293.93 255.108L1246.16 207.338" stroke="#435861" stroke-width="2.7027" stroke-miterlimit="10" stroke-linecap="round"/>
<path d="M1131.49 92.6619L1083.72 44.8916" stroke="#435861" stroke-width="2.7027" stroke-miterlimit="10" stroke-linecap="round"/>
<path d="M1245.72 287.338L1219.85 224.905" stroke="#435861" stroke-width="2.7027" stroke-miterlimit="10" stroke-linecap="round"/>
<path d="M1157.8 75.0945L1131.93 12.6621" stroke="#435861" stroke-width="2.7027" stroke-miterlimit="10" stroke-linecap="round"/>
<path d="M1188.83 75.676C1191.81 75.676 1194.23 73.256 1194.23 70.2706C1194.23 67.2853 1191.81 64.8652 1188.83 64.8652C1185.84 64.8652 1183.42 67.2853 1183.42 70.2706C1183.42 73.256 1185.84 75.676 1188.83 75.676Z" fill="#435861"/>
<path d="M1167.73 49.3782C1170.71 49.3782 1173.13 46.9581 1173.13 43.9728C1173.13 40.9875 1170.71 38.5674 1167.73 38.5674C1164.74 38.5674 1162.32 40.9875 1162.32 43.9728C1162.32 46.9581 1164.74 49.3782 1167.73 49.3782Z" fill="#435861"/>
<path d="M1209.92 261.433C1212.91 261.433 1215.33 259.013 1215.33 256.027C1215.33 253.042 1212.91 250.622 1209.92 250.622C1206.94 250.622 1204.52 253.042 1204.52 256.027C1204.52 259.013 1206.94 261.433 1209.92 261.433Z" fill="#435861"/>
<path d="M1209.92 49.3782C1212.91 49.3782 1215.33 46.9581 1215.33 43.9728C1215.33 40.9875 1212.91 38.5674 1209.92 38.5674C1206.94 38.5674 1204.52 40.9875 1204.52 43.9728C1204.52 46.9581 1206.94 49.3782 1209.92 49.3782Z" fill="#435861"/>
<path d="M1167.73 261.433C1170.71 261.433 1173.13 259.013 1173.13 256.027C1173.13 253.042 1170.71 250.622 1167.73 250.622C1164.74 250.622 1162.32 253.042 1162.32 256.027C1162.32 259.013 1164.74 261.433 1167.73 261.433Z" fill="#435861"/>
<path d="M1248.89 65.5139C1251.88 65.5139 1254.3 63.0939 1254.3 60.1085C1254.3 57.1232 1251.88 54.7031 1248.89 54.7031C1245.91 54.7031 1243.49 57.1232 1243.49 60.1085C1243.49 63.0939 1245.91 65.5139 1248.89 65.5139Z" fill="#435861"/>
<path d="M1128.76 245.297C1131.74 245.297 1134.16 242.877 1134.16 239.892C1134.16 236.906 1131.74 234.486 1128.76 234.486C1125.77 234.486 1123.35 236.906 1123.35 239.892C1123.35 242.877 1125.77 245.297 1128.76 245.297Z" fill="#435861"/>
<path d="M1278.72 95.3382C1281.7 95.3382 1284.12 92.9181 1284.12 89.9328C1284.12 86.9474 1281.7 84.5273 1278.72 84.5273C1275.73 84.5273 1273.31 86.9474 1273.31 89.9328C1273.31 92.9181 1275.73 95.3382 1278.72 95.3382Z" fill="#435861"/>
<path d="M1098.93 215.473C1101.92 215.473 1104.34 213.053 1104.34 210.068C1104.34 207.082 1101.92 204.662 1098.93 204.662C1095.95 204.662 1093.53 207.082 1093.53 210.068C1093.53 213.053 1095.95 215.473 1098.93 215.473Z" fill="#435861"/>
<path d="M1294.85 134.311C1297.84 134.311 1300.26 131.891 1300.26 128.905C1300.26 125.92 1297.84 123.5 1294.85 123.5C1291.87 123.5 1289.45 125.92 1289.45 128.905C1289.45 131.891 1291.87 134.311 1294.85 134.311Z" fill="#435861"/>
<path d="M1082.8 176.5C1085.78 176.5 1088.2 174.08 1088.2 171.095C1088.2 168.11 1085.78 165.689 1082.8 165.689C1079.81 165.689 1077.39 168.11 1077.39 171.095C1077.39 174.08 1079.81 176.5 1082.8 176.5Z" fill="#435861"/>
<path d="M1294.85 176.5C1297.84 176.5 1300.26 174.08 1300.26 171.095C1300.26 168.11 1297.84 165.689 1294.85 165.689C1291.87 165.689 1289.45 168.11 1289.45 171.095C1289.45 174.08 1291.87 176.5 1294.85 176.5Z" fill="#435861"/>
<path d="M1082.8 134.311C1085.78 134.311 1088.2 131.891 1088.2 128.905C1088.2 125.92 1085.78 123.5 1082.8 123.5C1079.81 123.5 1077.39 125.92 1077.39 128.905C1077.39 131.891 1079.81 134.311 1082.8 134.311Z" fill="#435861"/>
<path d="M1278.72 215.473C1281.7 215.473 1284.12 213.053 1284.12 210.068C1284.12 207.082 1281.7 204.662 1278.72 204.662C1275.73 204.662 1273.31 207.082 1273.31 210.068C1273.31 213.053 1275.73 215.473 1278.72 215.473Z" fill="#435861"/>
<path d="M1098.93 95.3382C1101.92 95.3382 1104.34 92.9181 1104.34 89.9328C1104.34 86.9474 1101.92 84.5273 1098.93 84.5273C1095.95 84.5273 1093.53 86.9474 1093.53 89.9328C1093.53 92.9181 1095.95 95.3382 1098.93 95.3382Z" fill="#435861"/>
<path d="M1248.89 245.297C1251.88 245.297 1254.3 242.877 1254.3 239.892C1254.3 236.906 1251.88 234.486 1248.89 234.486C1245.91 234.486 1243.49 236.906 1243.49 239.892C1243.49 242.877 1245.91 245.297 1248.89 245.297Z" fill="#435861"/>
<path d="M1128.76 65.5139C1131.74 65.5139 1134.16 63.0939 1134.16 60.1085C1134.16 57.1232 1131.74 54.7031 1128.76 54.7031C1125.77 54.7031 1123.35 57.1232 1123.35 60.1085C1123.35 63.0939 1125.77 65.5139 1128.76 65.5139Z" fill="#435861"/>
<path d="M1188.83 235.135C1191.81 235.135 1194.23 232.715 1194.23 229.73C1194.23 226.744 1191.81 224.324 1188.83 224.324C1185.84 224.324 1183.42 226.744 1183.42 229.73C1183.42 232.715 1185.84 235.135 1188.83 235.135Z" fill="#435861"/>
<path d="M1219.34 81.7434C1222.32 81.7434 1224.74 79.3233 1224.74 76.338C1224.74 73.3527 1222.32 70.9326 1219.34 70.9326C1216.35 70.9326 1213.93 73.3527 1213.93 76.338C1213.93 79.3233 1216.35 81.7434 1219.34 81.7434Z" fill="#435861"/>
<path d="M1158.31 229.068C1161.3 229.068 1163.72 226.648 1163.72 223.662C1163.72 220.677 1161.3 218.257 1158.31 218.257C1155.33 218.257 1152.91 220.677 1152.91 223.662C1152.91 226.648 1155.33 229.068 1158.31 229.068Z" fill="#435861"/>
<path d="M1245.2 99.0266C1248.19 99.0266 1250.61 96.6065 1250.61 93.6212C1250.61 90.6359 1248.19 88.2158 1245.2 88.2158C1242.22 88.2158 1239.8 90.6359 1239.8 93.6212C1239.8 96.6065 1242.22 99.0266 1245.2 99.0266Z" fill="#435861"/>
<path d="M1132.45 211.783C1135.43 211.783 1137.85 209.363 1137.85 206.378C1137.85 203.393 1135.43 200.973 1132.45 200.973C1129.46 200.973 1127.04 203.393 1127.04 206.378C1127.04 209.363 1129.46 211.783 1132.45 211.783Z" fill="#435861"/>
<path d="M1262.49 124.892C1265.47 124.892 1267.89 122.472 1267.89 119.486C1267.89 116.501 1265.47 114.081 1262.49 114.081C1259.5 114.081 1257.08 116.501 1257.08 119.486C1257.08 122.472 1259.5 124.892 1262.49 124.892Z" fill="#435861"/>
<path d="M1115.16 185.919C1118.15 185.919 1120.57 183.499 1120.57 180.514C1120.57 177.528 1118.15 175.108 1115.16 175.108C1112.18 175.108 1109.76 177.528 1109.76 180.514C1109.76 183.499 1112.18 185.919 1115.16 185.919Z" fill="#435861"/>
<path d="M1268.56 155.406C1271.54 155.406 1273.96 152.985 1273.96 150C1273.96 147.015 1271.54 144.595 1268.56 144.595C1265.57 144.595 1263.15 147.015 1263.15 150C1263.15 152.985 1265.57 155.406 1268.56 155.406Z" fill="#435861"/>
<path d="M1109.1 155.406C1112.08 155.406 1114.5 152.985 1114.5 150C1114.5 147.015 1112.08 144.595 1109.1 144.595C1106.11 144.595 1103.69 147.015 1103.69 150C1103.69 152.985 1106.11 155.406 1109.1 155.406Z" fill="#435861"/>
<path d="M1262.49 185.919C1265.47 185.919 1267.89 183.499 1267.89 180.514C1267.89 177.528 1265.47 175.108 1262.49 175.108C1259.5 175.108 1257.08 177.528 1257.08 180.514C1257.08 183.499 1259.5 185.919 1262.49 185.919Z" fill="#435861"/>
<path d="M1115.16 124.892C1118.15 124.892 1120.57 122.472 1120.57 119.486C1120.57 116.501 1118.15 114.081 1115.16 114.081C1112.18 114.081 1109.76 116.501 1109.76 119.486C1109.76 122.472 1112.18 124.892 1115.16 124.892Z" fill="#435861"/>
<path d="M1245.2 211.783C1248.19 211.783 1250.61 209.363 1250.61 206.378C1250.61 203.393 1248.19 200.973 1245.2 200.973C1242.22 200.973 1239.8 203.393 1239.8 206.378C1239.8 209.363 1242.22 211.783 1245.2 211.783Z" fill="#435861"/>
<path d="M1132.45 99.0266C1135.43 99.0266 1137.85 96.6065 1137.85 93.6212C1137.85 90.6359 1135.43 88.2158 1132.45 88.2158C1129.46 88.2158 1127.04 90.6359 1127.04 93.6212C1127.04 96.6065 1129.46 99.0266 1132.45 99.0266Z" fill="#435861"/>
<path d="M1219.34 229.068C1222.32 229.068 1224.74 226.648 1224.74 223.662C1224.74 220.677 1222.32 218.257 1219.34 218.257C1216.35 218.257 1213.93 220.677 1213.93 223.662C1213.93 226.648 1216.35 229.068 1219.34 229.068Z" fill="#435861"/>
<path d="M1158.31 81.7434C1161.3 81.7434 1163.72 79.3233 1163.72 76.338C1163.72 73.3527 1161.3 70.9326 1158.31 70.9326C1155.33 70.9326 1152.91 73.3527 1152.91 76.338C1152.91 79.3233 1155.33 81.7434 1158.31 81.7434Z" fill="#435861"/>
</g>
<defs>
<clipPath id="clip0_1275_27">
<rect width="300" height="300" fill="white" transform="translate(693.322)"/>
</clipPath>
<clipPath id="clip1_1275_27">
<rect width="298.349" height="298.349" fill="white"/>
</clipPath>
<clipPath id="clip2_1275_27">
<rect width="300" height="300" fill="white" transform="translate(1038.83)"/>
</clipPath>
</defs>
</svg>
