<svg width="89" height="57" viewBox="0 0 89 57" fill="none" xmlns="http://www.w3.org/2000/svg">
<g clip-path="url(#clip0_871_6718)">
<path d="M58.125 15.625L73.125 0.625L88.125 15.625L58.125 45.625L68.125 55.625H88.125" stroke="#BB3216" stroke-width="1.25" stroke-linejoin="round"/>
<path d="M28.125 0.625V55.3025" stroke="#BB3216" stroke-width="1.25" stroke-linejoin="round"/>
<path d="M28.1244 0.625618L0.625 28.125L28.1244 55.6244L55.6238 28.125L28.1244 0.625618Z" stroke="#BB3216" stroke-width="1.25" stroke-linejoin="round"/>
<path d="M28.125 8.125H35.625" stroke="#BB3216" stroke-width="1.25" stroke-linejoin="round"/>
<path d="M28.125 48.125H35.625" stroke="#BB3216" stroke-width="1.25" stroke-linejoin="round"/>
<path d="M28.125 13.125H40.625" stroke="#BB3216" stroke-width="1.25" stroke-linejoin="round"/>
<path d="M28.125 43.125H40.625" stroke="#BB3216" stroke-width="1.25" stroke-linejoin="round"/>
<path d="M28.125 18.125H45.625" stroke="#BB3216" stroke-width="1.25" stroke-linejoin="round"/>
<path d="M28.125 38.125H45.625" stroke="#BB3216" stroke-width="1.25" stroke-linejoin="round"/>
<path d="M28.125 23.125H50.625" stroke="#BB3216" stroke-width="1.25" stroke-linejoin="round"/>
<path d="M28.125 33.125H50.625" stroke="#BB3216" stroke-width="1.25" stroke-linejoin="round"/>
<path d="M27.9648 28.125H55.4623" stroke="#BB3216" stroke-width="1.25" stroke-linejoin="round"/>
<path d="M28.1249 27.9624L14.2949 41.7949" stroke="#BB3216" stroke-width="1.25" stroke-linejoin="round"/>
<path d="M28.125 38.125L19.375 46.875" stroke="#BB3216" stroke-width="1.25" stroke-linejoin="round"/>
<path d="M28.125 48.125L24.375 51.875" stroke="#BB3216" stroke-width="1.25" stroke-linejoin="round"/>
<path d="M14.2949 14.4551L27.9649 28.1251" stroke="#BB3216" stroke-width="1.25" stroke-linejoin="round"/>
<path d="M8.125 20.625L21.6725 34.1725" stroke="#BB3216" stroke-width="1.25" stroke-linejoin="round"/>
</g>
<defs>
<clipPath id="clip0_871_6718">
<rect width="88.75" height="56.25" fill="white"/>
</clipPath>
</defs>
</svg>
