<svg width="87" height="52" viewBox="0 0 87 52" fill="none" xmlns="http://www.w3.org/2000/svg">
<path d="M66 41L46 21L66 1L86 21L55.995 51H46" stroke="#BB3216" stroke-miterlimit="10" stroke-linecap="square"/>
<path d="M21 41L1 21L21 1L41 21L11 51H1" stroke="#BB3216" stroke-miterlimit="10" stroke-linecap="square"/>
<path d="M86 21L66 41" stroke="#BB3216" stroke-miterlimit="10"/>
<path d="M83.5781 18.585L63.5781 38.585" stroke="#BB3216" stroke-miterlimit="10"/>
<path d="M81.1641 16.165L61.1641 36.165" stroke="#BB3216" stroke-miterlimit="10"/>
<path d="M78.75 13.75L58.75 33.75" stroke="#BB3216" stroke-miterlimit="10"/>
<path d="M76.3281 11.335L56.3331 31.335" stroke="#BB3216" stroke-miterlimit="10"/>
<path d="M73.9141 8.91992L53.9141 28.9199" stroke="#BB3216" stroke-miterlimit="10"/>
<path d="M65.9991 0.999924L73.9141 8.91992" stroke="#BB3216" stroke-miterlimit="10"/>
<path d="M61.9991 4.99992L69.9141 12.9199" stroke="#BB3216" stroke-miterlimit="10"/>
<path d="M57.9991 8.99992L65.9141 16.9199" stroke="#BB3216" stroke-miterlimit="10"/>
<path d="M53.9991 12.9999L61.9141 20.9199" stroke="#BB3216" stroke-miterlimit="10"/>
<path d="M49.9991 16.9999L57.9141 24.9199" stroke="#BB3216" stroke-miterlimit="10"/>
<path d="M45.9991 20.9999L53.9141 28.9199" stroke="#BB3216" stroke-miterlimit="10"/>
<path d="M21 41L1 21" stroke="#BB3216" stroke-miterlimit="10"/>
<path d="M23.4141 38.585L3.41406 18.585" stroke="#BB3216" stroke-miterlimit="10"/>
<path d="M25.8281 36.165L5.83312 16.165" stroke="#BB3216" stroke-miterlimit="10"/>
<path d="M28.25 33.75L8.25 13.75" stroke="#BB3216" stroke-miterlimit="10"/>
<path d="M30.6641 31.335L10.6641 11.335" stroke="#BB3216" stroke-miterlimit="10"/>
<path d="M33.0781 28.9199L13.0781 8.91992" stroke="#BB3216" stroke-miterlimit="10"/>
</svg>
