<svg width="82" height="72" viewBox="0 0 82 72" fill="none" xmlns="http://www.w3.org/2000/svg">
<g id="Group 1000004449">
<path id="Vector 88" d="M21 51V41L41 61L61 41V51L41 71L21 51Z" fill="#E2725B"/>
<path id="Vector 89" d="M21 31V21L41 41L61 21V31L41 51L21 31Z" fill="#F5C445"/>
<rect id="Rectangle 148866" x="71" y="11.1719" width="7.31345" height="7.31345" transform="rotate(-45 71 11.1719)" fill="#F5C445"/>
<rect id="Rectangle 148867" x="1" y="41.1719" width="7.31345" height="7.31345" transform="rotate(-45 1 41.1719)" fill="#E2725B"/>
<rect id="Rectangle 148872" x="21" y="21.1719" width="28.5197" height="7.31345" transform="rotate(-45 21 21.1719)" fill="#E2725B"/>
<rect id="Rectangle 148869" x="11" y="61.1719" width="7.31345" height="7.31345" transform="rotate(-45 11 61.1719)" fill="white"/>
<rect id="Rectangle 148870" x="56" y="66.1719" width="7.31345" height="7.31345" transform="rotate(-45 56 66.1719)" fill="black"/>
<rect id="Rectangle 148868" x="6" y="16.1719" width="7.31345" height="7.31345" transform="rotate(-45 6 16.1719)" fill="#5D245D"/>
<rect id="Rectangle 148871" x="31" y="31.1719" width="7.31345" height="14.0973" transform="rotate(-45 31 31.1719)" fill="#5D245D"/>
<g id="Group 1000004448">
<path id="Vector" d="M41.0054 1.00046L21.0049 21.001L41.0054 41.0015L61.0059 21.001L41.0054 1.00046Z" stroke="black" stroke-width="1.5" stroke-linecap="round" stroke-linejoin="round"/>
<path id="Vector_2" d="M75.9993 6.00173L71 11.001L75.9992 16.0002L80.9985 11.001L75.9993 6.00173Z" stroke="black" stroke-width="1.5" stroke-linecap="round" stroke-linejoin="round"/>
<path id="Vector_3" d="M71.0364 31.0056L66.0371 36.0049L71.0364 41.0041L76.0356 36.0049L71.0364 31.0056Z" stroke="black" stroke-width="1.5" stroke-linecap="round" stroke-linejoin="round"/>
<path id="Vector_4" d="M61 30.9678L41 50.9678L21 30.9678" stroke="black" stroke-width="1.5" stroke-linecap="round" stroke-linejoin="round"/>
<path id="Vector_5" d="M61 40.9326L41 60.9326L21 40.9326" stroke="black" stroke-width="1.5" stroke-linecap="round" stroke-linejoin="round"/>
<path id="Vector_6" d="M21 21.0029V50.9029L41 70.9029L61 50.9029V21.0029" stroke="black" stroke-width="1.5" stroke-linecap="round" stroke-linejoin="round"/>
<path id="Vector_7" d="M26 26.0029L46 6.00293" stroke="black" stroke-width="1.5" stroke-linecap="round" stroke-linejoin="round"/>
<path id="Vector_8" d="M31 30.9678L51 10.9678" stroke="black" stroke-width="1.5" stroke-linecap="round" stroke-linejoin="round"/>
<path id="Vector_9" d="M55.9994 26.0023L45.9844 15.9873" stroke="black" stroke-width="1.5" stroke-linecap="round" stroke-linejoin="round"/>
<path id="Vector_10" d="M51 30.9678L41 20.9678" stroke="black" stroke-width="1.5" stroke-linecap="round" stroke-linejoin="round"/>
<path id="Vector_11" d="M45.9994 36.0023L35.9844 25.9873" stroke="black" stroke-width="1.5" stroke-linecap="round" stroke-linejoin="round"/>
<path id="Vector_12" d="M61 21.0029L71 11.0029" stroke="black" stroke-width="1.5" stroke-linecap="round" stroke-linejoin="round"/>
<path id="Vector_13" d="M5.9988 45.968L10.998 40.9688L5.9988 35.9695L0.999558 40.9688L5.9988 45.968Z" stroke="black" stroke-width="1.5" stroke-linecap="round" stroke-linejoin="round"/>
<path id="Vector_14" d="M21 30.9678L11 40.9678" stroke="black" stroke-width="1.5" stroke-linecap="round" stroke-linejoin="round"/>
<path id="Vector_15" d="M61 30.9678L66.035 36.0028" stroke="black" stroke-width="1.5" stroke-linecap="round" stroke-linejoin="round"/>
<path id="Vector_16" d="M20.9992 60.8655L16 55.8662L11.0008 60.8655L16 65.8647L20.9992 60.8655Z" stroke="black" stroke-width="1.5" stroke-linecap="round" stroke-linejoin="round"/>
<path id="Vector_17" d="M20.9998 50.9033L15.9648 55.9333" stroke="black" stroke-width="1.5" stroke-linecap="round" stroke-linejoin="round"/>
<path id="Vector_18" d="M11.032 21.0012L16.0312 16.002L11.032 11.0027L6.03276 16.002L11.032 21.0012Z" stroke="black" stroke-width="1.5" stroke-linecap="round" stroke-linejoin="round"/>
<path id="Vector_19" d="M20.9998 21.0028L15.9648 15.9678" stroke="black" stroke-width="1.5" stroke-linecap="round" stroke-linejoin="round"/>
<path id="Vector_20" d="M60.9992 61.0037L56 66.0029L60.9992 71.0022L65.9985 66.0029L60.9992 61.0037Z" stroke="black" stroke-width="1.5" stroke-linecap="round" stroke-linejoin="round"/>
<path id="Vector_21" d="M41 50.9678L56.02 65.9878" stroke="black" stroke-width="1.5" stroke-linecap="round" stroke-linejoin="round"/>
</g>
</g>
</svg>
