<svg width="126" height="41" viewBox="0 0 126 41" fill="none" xmlns="http://www.w3.org/2000/svg">
<g clip-path="url(#clip0_165_872)">
<path d="M124.491 12.1367H119.994V39.3488H124.491V12.1367Z" fill="#5D245D"/>
<path d="M68.9535 0H64.4277V39.3489H68.9535V0Z" fill="#5D245D"/>
<path d="M87.4974 12.1367L73.8914 25.7428L87.4974 39.3488H81.5221L67.916 25.7428L81.5221 12.1367H87.4974Z" fill="#5D245D"/>
<path d="M115.12 27.1837C115.177 26.3766 115.205 25.7718 115.205 25.3673C115.205 22.1389 114.253 19.2667 112.351 16.747C109.699 13.2502 106.048 11.5 101.397 11.5C97.419 11.5 94.1423 12.8261 91.5671 15.4782C88.9722 18.15 87.6748 21.6003 87.6748 25.8272C87.6748 29.5943 88.7503 32.7367 90.9032 35.2529C93.5929 38.424 97.1398 40.0095 101.54 40.0095C104.711 40.0095 107.584 39.0002 110.161 36.9834C111.641 35.8309 112.802 34.3885 113.649 32.6598L109.699 31.1888C109.083 32.284 108.267 33.1966 107.249 33.9268C105.442 35.2332 103.539 35.8864 101.54 35.8864C98.4856 35.8864 96.0446 34.6569 94.2192 32.1963C93.2582 30.8702 92.6623 29.1988 92.4315 27.1801H115.118L115.12 27.1837ZM97.1881 16.5179C98.4748 15.8451 99.8689 15.5086 101.369 15.5086C102.868 15.5086 104.28 15.8397 105.606 16.5036C106.932 17.1658 108.008 18.0749 108.835 19.2273C109.604 20.2814 110.103 21.5985 110.334 23.1751H92.6462C92.9612 21.5734 93.4372 20.285 94.0743 19.3132C94.8617 18.1214 95.8996 17.1908 97.1881 16.5179Z" fill="#5D245D"/>
<path d="M122.27 7.21694C123.984 7.21694 125.373 5.82764 125.373 4.11384C125.373 2.40005 123.984 1.01074 122.27 1.01074C120.556 1.01074 119.167 2.40005 119.167 4.11384C119.167 5.82764 120.556 7.21694 122.27 7.21694Z" fill="#5D245D"/>
<path d="M39.3739 0H38.9856L19.9536 19.032V0H19.4167V19.0374L0.379387 0H0V0.379387L17.5681 17.9475L0 6.20978V6.85402L17.2711 18.3949L0 11.2402V11.8218L17.0653 18.8906L0 15.4958V16.0434L16.9597 19.4167H0V19.9536H16.9615L0 23.3269V23.8745L17.0653 20.4797L0 27.5485V28.1301L17.2711 20.9755L0 32.5163V33.1606L17.5681 21.4228L0 38.991V39.3704H0.379387L19.4167 20.333V39.3704H19.9536V20.3384L38.9856 39.3704H39.3739V0Z" fill="#5D245D"/>
</g>
<defs>
<clipPath id="clip0_165_872">
<rect width="125.373" height="40.0128" fill="white"/>
</clipPath>
</defs>
</svg>
