<svg width="97" height="42" viewBox="0 0 97 42" fill="none" xmlns="http://www.w3.org/2000/svg">
<path d="M1 1L1 41H41V1H1Z" stroke="white" stroke-width="1.5" stroke-linecap="round" stroke-linejoin="round"/>
<path d="M6.85786 21L21 35.1421L35.1421 21L21 6.85782L6.85786 21Z" fill="white"/>
<path d="M46 1V26H71V1H46Z" stroke="white" stroke-width="1.5" stroke-linecap="round" stroke-linejoin="round"/>
<path d="M49.6612 13.502L58.5 22.3408L67.3388 13.502L58.5 4.66315L49.6612 13.502Z" fill="white"/>
<path d="M76 21V41H96V21H76Z" stroke="white" stroke-width="1.5" stroke-linecap="round" stroke-linejoin="round"/>
<path d="M79.9896 31.0023L86 37.0127L92.0104 31.0023L86 24.9919L79.9896 31.0023Z" fill="white"/>
<path d="M76 1V16H91V1L76 1Z" stroke="white" stroke-width="1.5" stroke-linecap="round" stroke-linejoin="round"/>
<path d="M80.076 8.49594L83.502 11.9219L86.9279 8.49594L83.502 5.07001L80.076 8.49594Z" fill="white"/>
<path d="M56 31H46V41H56V31Z" stroke="white" stroke-width="1.5" stroke-linecap="round" stroke-linejoin="round"/>
<path d="M71 31H61V41H71V31Z" stroke="white" stroke-width="1.5" stroke-linecap="round" stroke-linejoin="round"/>
</svg>
