<svg width="122" height="42" viewBox="0 0 122 42" fill="none" xmlns="http://www.w3.org/2000/svg">
<path d="M60.9969 1.00504L53.498 8.50391L60.9969 16.0028L68.4958 8.5039L60.9969 1.00504Z" stroke="white" stroke-width="1.5" stroke-linecap="round" stroke-linejoin="round"/>
<path d="M101.011 1.00015L93.5117 8.49902L101.011 15.9979L108.509 8.49902L101.011 1.00015Z" stroke="white" stroke-width="1.5" stroke-linecap="round" stroke-linejoin="round"/>
<path d="M1 41.0019L21.06 20.9419L41.125 41.0019" stroke="white" stroke-width="1.5" stroke-linecap="round" stroke-linejoin="round"/>
<path d="M40.9004 41.0019L60.9604 20.9419L81.0204 41.0019" stroke="white" stroke-width="1.5" stroke-linecap="round" stroke-linejoin="round"/>
<path d="M81.0195 41.0017L101.01 21.0117L121 41.0017" stroke="white" stroke-width="1.5" stroke-linecap="round" stroke-linejoin="round"/>
<path d="M21.202 1.00406L13.7031 8.50293L21.202 16.0018L28.7009 8.50293L21.202 1.00406Z" stroke="white" stroke-width="1.5" stroke-linecap="round" stroke-linejoin="round"/>
<path d="M60.9969 1.00504L53.498 8.50391L60.9969 16.0028L68.4958 8.5039L60.9969 1.00504Z" stroke="white" stroke-width="1.5" stroke-linecap="round" stroke-linejoin="round"/>
<path d="M101.011 1.00015L93.5117 8.49902L101.011 15.9979L108.509 8.49902L101.011 1.00015Z" stroke="white" stroke-width="1.5" stroke-linecap="round" stroke-linejoin="round"/>
<path d="M21.202 1.00406L13.7031 8.50293L21.202 16.0018L28.7009 8.50293L21.202 1.00406Z" stroke="white" stroke-width="1.5" stroke-linecap="round" stroke-linejoin="round"/>
<path d="M60.9969 1.00504L53.498 8.50391L60.9969 16.0028L68.4958 8.5039L60.9969 1.00504Z" fill="white" stroke="white" stroke-width="1.5" stroke-linecap="round" stroke-linejoin="round"/>
<path d="M101.011 1.00015L93.5117 8.49902L101.011 15.9979L108.509 8.49902L101.011 1.00015Z" fill="white" stroke="white" stroke-width="1.5" stroke-linecap="round" stroke-linejoin="round"/>
<path d="M21.202 1.00406L13.7031 8.50293L21.202 16.0018L28.7009 8.50293L21.202 1.00406Z" fill="white" stroke="white" stroke-width="1.5" stroke-linecap="round" stroke-linejoin="round"/>
<path d="M11 41.0022V30.9722" stroke="white" stroke-width="1.5" stroke-linecap="round" stroke-linejoin="round"/>
<path d="M21 41.0019V20.9419" stroke="white" stroke-width="1.5" stroke-linecap="round" stroke-linejoin="round"/>
<path d="M31 41.0022V30.9722" stroke="white" stroke-width="1.5" stroke-linecap="round" stroke-linejoin="round"/>
<path d="M55.9004 26.002H65.5554" stroke="white" stroke-width="1.5" stroke-linecap="round" stroke-linejoin="round"/>
<path d="M50.8945 31.0068H70.9995" stroke="white" stroke-width="1.5" stroke-linecap="round" stroke-linejoin="round"/>
<path d="M46 36.002H76" stroke="white" stroke-width="1.5" stroke-linecap="round" stroke-linejoin="round"/>
<path d="M41.125 41.002H81" stroke="white" stroke-width="1.5" stroke-linecap="round" stroke-linejoin="round"/>
<path d="M86 41.0019L103.06 23.9419" stroke="white" stroke-width="1.5" stroke-linecap="round" stroke-linejoin="round"/>
<path d="M91 41.0018L105.495 26.5068" stroke="white" stroke-width="1.5" stroke-linecap="round" stroke-linejoin="round"/>
<path d="M96 41.002L108.5 28.502" stroke="white" stroke-width="1.5" stroke-linecap="round" stroke-linejoin="round"/>
<path d="M116 41.002L106 31.002" stroke="white" stroke-width="1.5" stroke-linecap="round" stroke-linejoin="round"/>
<path d="M111 41.0021L103.785 33.7871" stroke="white" stroke-width="1.5" stroke-linecap="round" stroke-linejoin="round"/>
<path d="M106 41.002L101 36.002" stroke="white" stroke-width="1.5" stroke-linecap="round" stroke-linejoin="round"/>
</svg>
