<svg width="182" height="182" viewBox="0 0 182 182" fill="none" xmlns="http://www.w3.org/2000/svg">
<g id="Group 1000004415">
<path id="Vector" d="M91.0005 0.99994L1 91.0005L91.0005 181.001L181.001 91.0005L91.0005 0.99994Z" stroke="black" stroke-width="1.5" stroke-linejoin="round"/>
<path id="Vector_2" d="M40.995 70.9986L20.998 90.9956L40.995 110.993L60.992 90.9956L40.995 70.9986Z" stroke="black" stroke-width="1.5" stroke-linejoin="round"/>
<path id="Vector_3" d="M91.0009 71.0035L71.0039 91.0005L91.0009 110.997L110.998 91.0005L91.0009 71.0035Z" stroke="black" stroke-width="1.5" stroke-linejoin="round"/>
<path id="Vector_4" d="M140.996 71.0084L120.999 91.0054L140.996 111.002L160.993 91.0054L140.996 71.0084Z" stroke="black" stroke-width="1.5" stroke-linejoin="round"/>
<path id="Vector_5" d="M90.997 121.009L71 141.006L90.997 161.003L110.994 141.006L90.997 121.009Z" stroke="black" stroke-width="1.5" stroke-linejoin="round"/>
<path id="Vector_6" d="M90.995 21.7584L70.998 41.7554L90.995 61.7523L110.992 41.7554L90.995 21.7584Z" stroke="black" stroke-width="1.5" stroke-linejoin="round"/>
<path id="Vector_7" d="M91 21.7505V61.7505" stroke="black" stroke-width="1.5" stroke-linejoin="round"/>
<path id="Vector_8" d="M71 41.7505H91" stroke="black" stroke-width="1.5" stroke-linejoin="round"/>
<path id="Vector_9" d="M31 101L51 81.0005" stroke="black" stroke-width="1.5" stroke-linejoin="round"/>
<path id="Vector_10" d="M51 101L31 81.0005" stroke="black" stroke-width="1.5" stroke-linejoin="round"/>
<path id="Vector_11" d="M41 91.0005V72.0405" stroke="black" stroke-width="1.5" stroke-linejoin="round"/>
<path id="Vector_12" d="M71 91.0005H161" stroke="black" stroke-width="1.5" stroke-linejoin="round"/>
<path id="Vector_13" d="M91 41.7504L111.38 21.3804" stroke="black" stroke-width="1.5" stroke-linejoin="round"/>
<path id="Vector_14" d="M91 71.0005L56 36.0005" stroke="black" stroke-width="1.5" stroke-linejoin="round"/>
<path id="Vector_15" d="M51 101L101 151" stroke="black" stroke-width="1.5" stroke-linejoin="round"/>
<path id="Vector_16" d="M91 121L121 91.0005" stroke="black" stroke-width="1.5" stroke-linejoin="round"/>
<path id="Vector_17" d="M21 91.0005H1" stroke="black" stroke-width="1.5" stroke-linejoin="round"/>
<path id="Vector_18" d="M51 81.0005L76 56.0005" stroke="black" stroke-width="1.5" stroke-linejoin="round"/>
<path id="Vector_19" d="M121 91.0005V31.0005" stroke="black" stroke-width="1.5" stroke-linejoin="round"/>
<path id="Vector_20" d="M111 41.7505H121" stroke="black" stroke-width="1.5" stroke-linejoin="round"/>
<path id="Vector_21" d="M91 61.7505L120.62 91.3805" stroke="black" stroke-width="1.5" stroke-linejoin="round"/>
<path id="Vector_22" d="M141 71.0005V91.0005" stroke="black" stroke-width="1.5" stroke-linejoin="round"/>
<path id="Vector_23" d="M91 141L131 101" stroke="black" stroke-width="1.5" stroke-linejoin="round"/>
<path id="Vector_24" d="M91 141H51" stroke="black" stroke-width="1.5" stroke-linejoin="round"/>
<path id="Vector_25" d="M91 161L101 171" stroke="black" stroke-width="1.5" stroke-linejoin="round"/>
<path id="Vector_26" d="M91 71.0005V121" stroke="black" stroke-width="1.5" stroke-linejoin="round"/>
<path id="Vector_27" d="M161 91.0005H181" stroke="black" stroke-width="1.5" stroke-linejoin="round"/>
<path id="Vector_28" d="M91 21.7505V1.00049" stroke="black" stroke-width="1.5" stroke-linejoin="round"/>
</g>
</svg>
