<svg width="182" height="182" viewBox="0 0 182 182" fill="none" xmlns="http://www.w3.org/2000/svg">
<g id="Group 1000004414">
<path id="Vector" d="M21 71.0005H161" stroke="black" stroke-width="1.5" stroke-miterlimit="10"/>
<path id="Vector_2" d="M91 71.001V1.00098" stroke="black" stroke-width="1.5" stroke-miterlimit="10"/>
<path id="Vector_3" d="M111 161V121" stroke="black" stroke-width="1.5" stroke-miterlimit="10"/>
<path id="Vector_4" d="M71 161V121" stroke="black" stroke-width="1.5" stroke-miterlimit="10"/>
<path id="Vector_5" d="M91 71.0005L56 36.0005" stroke="black" stroke-width="1.5" stroke-miterlimit="10"/>
<path id="Vector_6" d="M91 71.0005L126 36.0005" stroke="black" stroke-width="1.5" stroke-miterlimit="10"/>
<path id="Vector_7" d="M71 120.93H111" stroke="black" stroke-width="1.5" stroke-miterlimit="10"/>
<path id="Vector_8" d="M91.0005 0.99994L1 91.0005L91.0005 181.001L181.001 91.0005L91.0005 0.99994Z" stroke="black" stroke-width="1.5" stroke-linejoin="round"/>
<path id="Vector_9" d="M21 71.0005L71 121" stroke="black" stroke-width="1.5" stroke-linejoin="round"/>
<path id="Vector_10" d="M111 121L161 71.0005" stroke="black" stroke-width="1.5" stroke-linejoin="round"/>
<path id="Vector_11" d="M71 131H141" stroke="black" stroke-width="1.5" stroke-miterlimit="10"/>
<path id="Vector_12" d="M51 141H111" stroke="black" stroke-width="1.5" stroke-miterlimit="10"/>
<path id="Vector_13" d="M71 151H111" stroke="black" stroke-width="1.5" stroke-miterlimit="10"/>
<path id="Vector_14" d="M91 71.0005V121.93" stroke="black" stroke-width="1.5" stroke-miterlimit="10"/>
<path id="Vector_15" d="M41 51.0005L91 71.0005" stroke="black" stroke-width="1.5" stroke-linejoin="round"/>
<path id="Vector_16" d="M91 71.001L71 21.001" stroke="black" stroke-width="1.5" stroke-linejoin="round"/>
<path id="Vector_17" d="M91 71.001L111 21.001" stroke="black" stroke-width="1.5" stroke-linejoin="round"/>
<path id="Vector_18" d="M91 71.0005L141 51.0005" stroke="black" stroke-width="1.5" stroke-linejoin="round"/>
<path id="Vector_19" d="M11.0996 100.99L30.9496 81.1401" stroke="black" stroke-width="1.5" stroke-linejoin="round"/>
<path id="Vector_20" d="M21.0996 110.99L40.9496 91.1401" stroke="black" stroke-width="1.5" stroke-linejoin="round"/>
<path id="Vector_21" d="M31.0996 120.99L50.9496 101.14" stroke="black" stroke-width="1.5" stroke-linejoin="round"/>
<path id="Vector_22" d="M41.0996 130.99L60.9496 111.14" stroke="black" stroke-width="1.5" stroke-linejoin="round"/>
<path id="Vector_23" d="M121.08 111.14L140.94 130.99" stroke="black" stroke-width="1.5" stroke-linejoin="round"/>
<path id="Vector_24" d="M131.08 101.14L150.94 120.99" stroke="black" stroke-width="1.5" stroke-linejoin="round"/>
<path id="Vector_25" d="M141.08 91.1401L160.94 110.99" stroke="black" stroke-width="1.5" stroke-linejoin="round"/>
<path id="Vector_26" d="M151.08 81.1401L170.94 100.99" stroke="black" stroke-width="1.5" stroke-linejoin="round"/>
</g>
</svg>
