<svg width="182" height="182" viewBox="0 0 182 182" fill="none" xmlns="http://www.w3.org/2000/svg">
<path d="M91.0005 0.99994L1 91.0005L91.0005 181.001L181.001 91.0005L91.0005 0.99994Z" stroke="black" stroke-width="1.5" stroke-linejoin="round"/>
<path d="M90.9937 41.001L40.9941 91.0005L90.9937 141L140.993 91.0005L90.9937 41.001Z" stroke="black" stroke-width="1.5" stroke-linejoin="round"/>
<path d="M41 91.0005H1" stroke="black" stroke-width="1.5" stroke-linejoin="round"/>
<path d="M131 141H51" stroke="black" stroke-width="1.5" stroke-linejoin="round"/>
<path d="M41.0002 91.0005L21.4902 71.4905" stroke="black" stroke-width="1.5" stroke-linejoin="round"/>
<path d="M41 91.0005L21 111" stroke="black" stroke-width="1.5" stroke-linejoin="round"/>
<path d="M91 141V181" stroke="black" stroke-width="1.5" stroke-linejoin="round"/>
<path d="M91 141L71 161" stroke="black" stroke-width="1.5" stroke-linejoin="round"/>
<path d="M41 131V51.0005" stroke="black" stroke-width="1.5" stroke-linejoin="round"/>
<path d="M91 41.0005V1.00049" stroke="black" stroke-width="1.5" stroke-linejoin="round"/>
<path d="M91 41.0005L110.51 21.4905" stroke="black" stroke-width="1.5" stroke-linejoin="round"/>
<path d="M91 41.0005L71 21.0005" stroke="black" stroke-width="1.5" stroke-linejoin="round"/>
<path d="M51 41.0005H131" stroke="black" stroke-width="1.5" stroke-linejoin="round"/>
<path d="M141 91.0005H181" stroke="black" stroke-width="1.5" stroke-linejoin="round"/>
<path d="M141 91.0005L160.51 110.51" stroke="black" stroke-width="1.5" stroke-linejoin="round"/>
<path d="M141 91.0005L161 71.0005" stroke="black" stroke-width="1.5" stroke-linejoin="round"/>
<path d="M141 51.0005V131" stroke="black" stroke-width="1.5" stroke-linejoin="round"/>
<path d="M91 141L111 161" stroke="black" stroke-width="1.5" stroke-linejoin="round"/>
<path d="M91 140.12V41.8804" stroke="black" stroke-width="1.5" stroke-linejoin="round"/>
<path d="M140.119 91.0005H41.8789" stroke="black" stroke-width="1.5" stroke-linejoin="round"/>
<path d="M115.631 115.631L66.3711 66.3706" stroke="black" stroke-width="1.5" stroke-linejoin="round"/>
<path d="M66 116L116 66.0005" stroke="black" stroke-width="1.5" stroke-linejoin="round"/>
</svg>
