<svg width="182" height="182" viewBox="0 0 182 182" fill="none" xmlns="http://www.w3.org/2000/svg">
<g id="Group 1000004413">
<path id="Vector" d="M36.0018 56.0021L1 91.0039L36.0018 126.006L71.0036 91.0039L36.0018 56.0021Z" stroke="white" stroke-width="1.5" stroke-linejoin="round"/>
<path id="Vector_2" d="M91.0018 1.00017L56 36.002L91.0018 71.0037L126.004 36.002L91.0018 1.00017Z" stroke="white" stroke-width="1.5" stroke-linejoin="round"/>
<path id="Vector_3" d="M91.0037 111.002L56.002 146.004L91.0037 181.006L126.006 146.004L91.0037 111.002Z" stroke="white" stroke-width="1.5" stroke-linejoin="round"/>
<path id="Vector_4" d="M146.004 56.0002L111.002 91.002L146.004 126.004L181.006 91.002L146.004 56.0002Z" stroke="white" stroke-width="1.5" stroke-linejoin="round"/>
<path id="Vector_5" d="M91.002 51.0029V131.003" stroke="white" stroke-width="1.5" stroke-linejoin="round"/>
<path id="Vector_6" d="M51.002 91.0029H131.002" stroke="white" stroke-width="1.5" stroke-linejoin="round"/>
<path id="Vector_7" d="M131.002 71.0029V111.003" stroke="white" stroke-width="1.5" stroke-linejoin="round"/>
<path id="Vector_8" d="M51.002 71.0029V111.003" stroke="white" stroke-width="1.5" stroke-linejoin="round"/>
<path id="Vector_9" d="M71.002 51.0029H111.002" stroke="white" stroke-width="1.5" stroke-linejoin="round"/>
<path id="Vector_10" d="M71.002 131.003H111.002" stroke="white" stroke-width="1.5" stroke-linejoin="round"/>
<path id="Vector_11" d="M56.002 36.0029H126.002" stroke="white" stroke-width="1.5" stroke-linejoin="round"/>
<path id="Vector_12" d="M146.002 126.003V56.0029" stroke="white" stroke-width="1.5" stroke-linejoin="round"/>
<path id="Vector_13" d="M146.002 91.0029L163.502 73.5029" stroke="white" stroke-width="1.5" stroke-linejoin="round"/>
<path id="Vector_14" d="M146.002 91.0127L163.502 108.503" stroke="white" stroke-width="1.5" stroke-linejoin="round"/>
<path id="Vector_15" d="M91.002 36.0022V2.28223" stroke="white" stroke-width="1.5" stroke-linejoin="round"/>
<path id="Vector_16" d="M81.002 36.0029V11.0029" stroke="white" stroke-width="1.5" stroke-linejoin="round"/>
<path id="Vector_17" d="M71.002 36.0029V21.0029" stroke="white" stroke-width="1.5" stroke-linejoin="round"/>
<path id="Vector_18" d="M101.002 36.0029V11.0029" stroke="white" stroke-width="1.5" stroke-linejoin="round"/>
<path id="Vector_19" d="M111.002 36.0029V21.7529" stroke="white" stroke-width="1.5" stroke-linejoin="round"/>
<path id="Vector_20" d="M51.002 111.003L16.002 76.0029" stroke="white" stroke-width="1.5" stroke-linejoin="round"/>
<path id="Vector_21" d="M51.002 71.0029L16.002 106.003" stroke="white" stroke-width="1.5" stroke-linejoin="round"/>
<path id="Vector_22" d="M31.002 91.0029H1.00195" stroke="white" stroke-width="1.5" stroke-linejoin="round"/>
<path id="Vector_23" d="M101.002 131.003V171.003" stroke="white" stroke-width="1.5" stroke-linejoin="round"/>
<path id="Vector_24" d="M81.002 131.003V171.003" stroke="white" stroke-width="1.5" stroke-linejoin="round"/>
<path id="Vector_25" d="M71.002 161.003H111.002" stroke="white" stroke-width="1.5" stroke-linejoin="round"/>
<path id="Vector_26" d="M81.002 151.003H101.002" stroke="white" stroke-width="1.5" stroke-linejoin="round"/>
<path id="Vector_27" d="M81.002 141.003H101.002" stroke="white" stroke-width="1.5" stroke-linejoin="round"/>
</g>
</svg>
