<svg width="183" height="183" viewBox="0 0 183 183" fill="none" xmlns="http://www.w3.org/2000/svg">
<g id="Group 1000004411">
<path id="Vector" d="M91.5005 1.49945L1.5 91.5L91.5005 181.501L181.501 91.5L91.5005 1.49945Z" stroke="white" stroke-width="1.5" stroke-linejoin="round"/>
<path id="Vector_2" d="M21.5605 111.559V71.4395" stroke="white" stroke-width="1.5" stroke-linejoin="round"/>
<path id="Vector_3" d="M31.5 61.5V121.56" stroke="white" stroke-width="1.5" stroke-linejoin="round"/>
<path id="Vector_4" d="M41.5 131.5V51.5" stroke="white" stroke-width="1.5" stroke-linejoin="round"/>
<path id="Vector_5" d="M51.5605 41.5V141.5" stroke="white" stroke-width="1.5" stroke-linejoin="round"/>
<path id="Vector_6" d="M61.5605 31.5V151.5" stroke="white" stroke-width="1.5" stroke-linejoin="round"/>
<path id="Vector_7" d="M71.5605 21.5V161.56" stroke="white" stroke-width="1.5" stroke-linejoin="round"/>
<path id="Vector_8" d="M81.5 11.5V171.5" stroke="white" stroke-width="1.5" stroke-linejoin="round"/>
<path id="Vector_9" d="M91.5 1.5V181.5" stroke="white" stroke-width="1.5" stroke-linejoin="round"/>
<path id="Vector_10" d="M91.5605 21.5H111.561" stroke="white" stroke-width="1.5" stroke-linejoin="round"/>
<path id="Vector_11" d="M91.5605 31.5H121.561" stroke="white" stroke-width="1.5" stroke-linejoin="round"/>
<path id="Vector_12" d="M91.5605 41.5H131.561" stroke="white" stroke-width="1.5" stroke-linejoin="round"/>
<path id="Vector_13" d="M91.5605 51.5H141.561" stroke="white" stroke-width="1.5" stroke-linejoin="round"/>
<path id="Vector_14" d="M91.5 61.5H151.56" stroke="white" stroke-width="1.5" stroke-linejoin="round"/>
<path id="Vector_15" d="M91.5605 71.5H161.561" stroke="white" stroke-width="1.5" stroke-linejoin="round"/>
<path id="Vector_16" d="M91.5605 81.5H171.561" stroke="white" stroke-width="1.5" stroke-linejoin="round"/>
<path id="Vector_17" d="M91.5605 91.5293H180.421" stroke="white" stroke-width="1.5" stroke-linejoin="round"/>
<path id="Vector_18" d="M91.5 161.56L100.8 170.86" stroke="white" stroke-width="1.5" stroke-linejoin="round"/>
<path id="Vector_19" d="M91.5605 141.5L111.531 161.47" stroke="white" stroke-width="1.5" stroke-linejoin="round"/>
<path id="Vector_20" d="M91.5605 121.5L121.531 151.47" stroke="white" stroke-width="1.5" stroke-linejoin="round"/>
<path id="Vector_21" d="M91.5605 101.5L131.531 141.47" stroke="white" stroke-width="1.5" stroke-linejoin="round"/>
<path id="Vector_22" d="M101.561 91.5293L141.521 131.479" stroke="white" stroke-width="1.5" stroke-linejoin="round"/>
<path id="Vector_23" d="M121.529 91.5293L151.499 121.499" stroke="white" stroke-width="1.5" stroke-linejoin="round"/>
<path id="Vector_24" d="M141.561 91.5293L161.521 111.479" stroke="white" stroke-width="1.5" stroke-linejoin="round"/>
<path id="Vector_25" d="M160.71 91.5L171.14 101.93" stroke="white" stroke-width="1.5" stroke-linejoin="round"/>
</g>
</svg>
