<svg width="182" height="182" viewBox="0 0 182 182" fill="none" xmlns="http://www.w3.org/2000/svg">
<g id="Group 1000004417">
<path id="Vector" d="M91.0005 0.99994L1 91.0005L91.0005 181.001L181.001 91.0005L91.0005 0.99994Z" stroke="white" stroke-width="1.5" stroke-linejoin="round"/>
<path id="Vector_2" d="M90.9997 20.9969L20.9961 91.0005L90.9997 161.004L161.003 91.0005L90.9997 20.9969Z" stroke="white" stroke-width="1.5" stroke-linejoin="round"/>
<path id="Vector_3" d="M90.9997 20.9969L20.9961 91.0005L90.9997 161.004L161.003 91.0005L90.9997 20.9969Z" stroke="white" stroke-width="1.5" stroke-linejoin="round"/>
<path id="Vector_4" d="M90.9946 42.1465L42.1406 91.0005L90.9946 139.854L139.849 91.0005L90.9946 42.1465Z" stroke="white" stroke-width="1.5" stroke-linejoin="round"/>
<path id="Vector_5" d="M90.9946 42.1465L42.1406 91.0005L90.9946 139.854L139.849 91.0005L90.9946 42.1465Z" stroke="white" stroke-width="1.5" stroke-linejoin="round"/>
<path id="Vector_6" d="M91.0064 60.9979L61.0039 91.0005L91.0064 121.003L121.009 91.0005L91.0064 60.9979Z" stroke="white" stroke-width="1.5" stroke-linejoin="round"/>
<path id="Vector_7" d="M91.0064 60.9979L61.0039 91.0005L91.0064 121.003L121.009 91.0005L91.0064 60.9979Z" stroke="white" stroke-width="1.5" stroke-linejoin="round"/>
<path id="Vector_8" d="M91.0004 81.002L81.002 91.0005L91.0004 100.999L100.999 91.0005L91.0004 81.002Z" stroke="white" stroke-width="1.5" stroke-linejoin="round"/>
<path id="Vector_9" d="M1 91.0005H61" stroke="white" stroke-width="1.5" stroke-linejoin="round"/>
<path id="Vector_10" d="M91 42.1405V1.00049" stroke="white" stroke-width="1.5" stroke-linejoin="round"/>
<path id="Vector_11" d="M91 91.0005V181" stroke="white" stroke-width="1.5" stroke-linecap="round" stroke-linejoin="round"/>
<path id="Vector_12" d="M121 91.0005L151 61.0005" stroke="white" stroke-width="1.5" stroke-linecap="round" stroke-linejoin="round"/>
<path id="Vector_13" d="M121 91.0005L151 61.0005" stroke="white" stroke-width="1.5" stroke-linecap="round" stroke-linejoin="round"/>
<path id="Vector_14" d="M139.86 91.0005L160.43 111.57" stroke="white" stroke-width="1.5" stroke-linecap="round" stroke-linejoin="round"/>
<path id="Vector_15" d="M91 61.0005L61 31.0005" stroke="white" stroke-width="1.5" stroke-linecap="round" stroke-linejoin="round"/>
<path id="Vector_16" d="M91 121L61 151" stroke="white" stroke-width="1.5" stroke-linecap="round" stroke-linejoin="round"/>
<path id="Vector_17" d="M91 81.0005L121 51.0005" stroke="white" stroke-width="1.5" stroke-linecap="round" stroke-linejoin="round"/>
<path id="Vector_18" d="M91 81.0005L121 51.0005" stroke="white" stroke-width="1.5" stroke-linecap="round" stroke-linejoin="round"/>
<path id="Vector_19" d="M121 91.0005L151 121" stroke="white" stroke-width="1.5" stroke-linecap="round" stroke-linejoin="round"/>
<path id="Vector_20" d="M121 151.001V31.5605" stroke="white" stroke-width="1.5" stroke-linecap="round" stroke-linejoin="round"/>
<path id="Vector_21" d="M121 151.001V31.5605" stroke="white" stroke-width="1.5" stroke-linecap="round" stroke-linejoin="round"/>
<path id="Vector_22" d="M61 151.001V31.5605" stroke="white" stroke-width="1.5" stroke-linecap="round" stroke-linejoin="round"/>
</g>
</svg>
