<svg width="182" height="182" viewBox="0 0 182 182" fill="none" xmlns="http://www.w3.org/2000/svg">
<path d="M91.0005 0.99994L1 91.0005L91.0005 181.001L181.001 91.0005L91.0005 0.99994Z" stroke="black" stroke-width="1.5" stroke-linejoin="round"/>
<path d="M61 31.0005L106 76.0005" stroke="black" stroke-width="1.5" stroke-linejoin="round"/>
<path d="M91 91.0005L136 46.0005" stroke="black" stroke-width="1.5" stroke-linejoin="round"/>
<path d="M135.41 135.41L46.5898 46.5903" stroke="black" stroke-width="1.5" stroke-linejoin="round"/>
<path d="M71 161L161 71.0005" stroke="black" stroke-width="1.5" stroke-linejoin="round"/>
<path d="M101 101.291L146.14 56.1406" stroke="black" stroke-width="1.5" stroke-linejoin="round"/>
<path d="M21 71.0005L91 141" stroke="black" stroke-width="1.5" stroke-linejoin="round"/>
<path d="M101 131L121 151" stroke="black" stroke-width="1.5" stroke-linejoin="round"/>
<path d="M131 71.2906L120.86 61.1406" stroke="black" stroke-width="1.5" stroke-linejoin="round"/>
<path d="M151 121.001L116.14 86.1406" stroke="black" stroke-width="1.5" stroke-linejoin="round"/>
<path d="M21 111L111.6 20.4004" stroke="black" stroke-width="1.5" stroke-linejoin="round"/>
<path d="M66.3008 66.3003H97.1708" stroke="black" stroke-width="1.5" stroke-linejoin="round"/>
<path d="M101 131H41" stroke="black" stroke-width="1.5" stroke-linejoin="round"/>
<path d="M101 101.291H131.28" stroke="black" stroke-width="1.5" stroke-linejoin="round"/>
<path d="M71 21.0005H111" stroke="black" stroke-width="1.5" stroke-linejoin="round"/>
<path d="M41 91.0005H1" stroke="black" stroke-width="1.5" stroke-linejoin="round"/>
<path d="M146.14 56.1406V86.3306" stroke="black" stroke-width="1.5" stroke-linejoin="round"/>
<path d="M21 91.0005V111" stroke="black" stroke-width="1.5" stroke-linejoin="round"/>
<path d="M91 181V141" stroke="black" stroke-width="1.5" stroke-linejoin="round"/>
<path d="M66.3008 66.3003V116" stroke="black" stroke-width="1.5" stroke-linejoin="round"/>
</svg>
