<svg width="182" height="182" viewBox="0 0 182 182" fill="none" xmlns="http://www.w3.org/2000/svg">
<g id="Group 1000004412">
<path id="Vector" d="M91.0005 1.00043L1 91.001L91.0005 181.002L181.001 91.001L91.0005 1.00043Z" stroke="white" stroke-width="1.5" stroke-linejoin="round"/>
<path id="Vector_2" d="M91 41.001L21 111.001" stroke="white" stroke-width="1.5" stroke-linejoin="round"/>
<path id="Vector_3" d="M161 71.001L90.5703 141.431" stroke="white" stroke-width="1.5" stroke-linejoin="round"/>
<path id="Vector_4" d="M21 71.001L111 161.001" stroke="white" stroke-width="1.5" stroke-linejoin="round"/>
<path id="Vector_5" d="M71 21.001L161 111.001" stroke="white" stroke-width="1.5" stroke-linejoin="round"/>
<path id="Vector_6" d="M121 151L101.37 131.37" stroke="white" stroke-width="1.5" stroke-linejoin="round"/>
<path id="Vector_7" d="M130.809 141.191L111.189 121.561" stroke="white" stroke-width="1.5" stroke-linejoin="round"/>
<path id="Vector_8" d="M141 131L121.37 111.37" stroke="white" stroke-width="1.5" stroke-linejoin="round"/>
<path id="Vector_9" d="M151 121L131.37 101.37" stroke="white" stroke-width="1.5" stroke-linejoin="round"/>
<path id="Vector_10" d="M101 11.001L11 101.001" stroke="white" stroke-width="1.5" stroke-linejoin="round"/>
<path id="Vector_11" d="M1 91.001H91" stroke="white" stroke-width="1.5" stroke-linejoin="round"/>
<path id="Vector_12" d="M121 91.001H141" stroke="white" stroke-width="1.5" stroke-linejoin="round"/>
<path id="Vector_13" d="M91 180.161V121.001" stroke="white" stroke-width="1.5" stroke-linejoin="round"/>
<path id="Vector_14" d="M91 61.001V41.001" stroke="white" stroke-width="1.5" stroke-linejoin="round"/>
</g>
</svg>
