<svg width="126" height="41" viewBox="0 0 126 41" fill="none" xmlns="http://www.w3.org/2000/svg">
<g clip-path="url(#clip0_412_24275)">
<path d="M124.489 12.1368H119.992V39.3489H124.489V12.1368Z" fill="white"/>
<path d="M68.9555 0H64.4297V39.3489H68.9555V0Z" fill="white"/>
<path d="M87.4954 12.1368L73.8894 25.7429L87.4954 39.3489H81.5201L67.9141 25.7429L81.5201 12.1368H87.4954Z" fill="white"/>
<path d="M115.121 27.1835C115.178 26.3764 115.206 25.7715 115.206 25.3671C115.206 22.1387 114.254 19.2665 112.352 16.7468C109.7 13.2499 106.049 11.4998 101.398 11.4998C97.4199 11.4998 94.1433 12.8258 91.5681 15.478C88.9732 18.1498 87.6758 21.6 87.6758 25.827C87.6758 29.594 88.7513 32.7365 90.9041 35.2526C93.5939 38.4237 97.1408 40.0093 101.541 40.0093C104.712 40.0093 107.585 39 110.162 36.9831C111.642 35.8306 112.803 34.3883 113.649 32.6595L109.7 31.1885C109.084 32.2837 108.268 33.1964 107.25 33.9265C105.443 35.2329 103.54 35.8861 101.541 35.8861C98.4865 35.8861 96.0456 34.6567 94.2202 32.196C93.2592 30.87 92.6633 29.1985 92.4324 27.1799H115.119L115.121 27.1835ZM97.1891 16.5177C98.4758 15.8448 99.8699 15.5084 101.37 15.5084C102.869 15.5084 104.281 15.8394 105.607 16.5034C106.933 17.1655 108.009 18.0746 108.836 19.2271C109.605 20.2811 110.104 21.5983 110.335 23.1749H92.6472C92.9621 21.5732 93.4382 20.2847 94.0753 19.313C94.8627 18.1211 95.9006 17.1906 97.1891 16.5177Z" fill="white"/>
<path d="M122.271 7.21731C123.985 7.21731 125.374 5.828 125.374 4.11421C125.374 2.40041 123.985 1.01111 122.271 1.01111C120.557 1.01111 119.168 2.40041 119.168 4.11421C119.168 5.828 120.557 7.21731 122.271 7.21731Z" fill="white"/>
<path d="M39.3739 0H38.9856L19.9536 19.032V0H19.4167V19.0374L0.379387 0H0V0.379387L17.5681 17.9475L0 6.20978V6.85402L17.2711 18.3949L0 11.2402V11.8218L17.0653 18.8906L0 15.4958V16.0434L16.9597 19.4167H0V19.9536H16.9615L0 23.3269V23.8745L17.0653 20.4797L0 27.5485V28.1301L17.2711 20.9755L0 32.5163V33.1606L17.5681 21.4228L0 38.991V39.3704H0.379387L19.4167 20.333V39.3704H19.9536V20.3384L38.9856 39.3704H39.3739V0Z" fill="white"/>
</g>
<defs>
<clipPath id="clip0_412_24275">
<rect width="125.373" height="40.0128" fill="white"/>
</clipPath>
</defs>
</svg>
