<svg width="40" height="40" viewBox="0 0 40 40" fill="none" xmlns="http://www.w3.org/2000/svg">
<path d="M39.3739 0H38.9856L19.9536 19.032V0H19.4167V19.0374L0.379387 0H0V0.379387L17.5681 17.9475L0 6.20978V6.85402L17.2711 18.3949L0 11.2402V11.8218L17.0653 18.8906L0 15.4958V16.0434L16.9597 19.4167H0V19.9536H16.9615L0 23.3269V23.8745L17.0653 20.4797L0 27.5485V28.1301L17.2711 20.9755L0 32.5163V33.1606L17.5681 21.4228L0 38.991V39.3704H0.379387L19.4167 20.333V39.3704H19.9536V20.3384L38.9856 39.3704H39.3739V0Z" fill="black"/>
</svg>
