<svg width="87" height="52" viewBox="0 0 87 52" fill="none" xmlns="http://www.w3.org/2000/svg">
<path d="M21 11L41 31L21 51L1 31L31.005 1H41" stroke="#BB3216" stroke-miterlimit="10" stroke-linecap="square"/>
<path d="M66 11L86 31L66 51L46 31L76 1H86" stroke="#BB3216" stroke-miterlimit="10" stroke-linecap="square"/>
<path d="M1 31L21 11" stroke="#BB3216" stroke-miterlimit="10"/>
<path d="M3.42188 33.415L23.4219 13.415" stroke="#BB3216" stroke-miterlimit="10"/>
<path d="M5.83594 35.835L25.8359 15.835" stroke="#BB3216" stroke-miterlimit="10"/>
<path d="M8.25 38.25L28.25 18.25" stroke="#BB3216" stroke-miterlimit="10"/>
<path d="M10.6719 40.665L30.6669 20.665" stroke="#BB3216" stroke-miterlimit="10"/>
<path d="M13.0859 43.0801L33.0859 23.0801" stroke="#BB3216" stroke-miterlimit="10"/>
<path d="M21.0009 51.0001L13.0859 43.0801" stroke="#BB3216" stroke-miterlimit="10"/>
<path d="M25.0009 47.0001L17.0859 39.0801" stroke="#BB3216" stroke-miterlimit="10"/>
<path d="M29.0009 43.0001L21.0859 35.0801" stroke="#BB3216" stroke-miterlimit="10"/>
<path d="M33.0009 39.0001L25.0859 31.0801" stroke="#BB3216" stroke-miterlimit="10"/>
<path d="M37.0009 35.0001L29.0859 27.0801" stroke="#BB3216" stroke-miterlimit="10"/>
<path d="M41.0009 31.0001L33.0859 23.0801" stroke="#BB3216" stroke-miterlimit="10"/>
<path d="M66 11L86 31" stroke="#BB3216" stroke-miterlimit="10"/>
<path d="M63.5859 13.415L83.5859 33.415" stroke="#BB3216" stroke-miterlimit="10"/>
<path d="M61.1719 15.835L81.1669 35.835" stroke="#BB3216" stroke-miterlimit="10"/>
<path d="M58.75 18.25L78.75 38.25" stroke="#BB3216" stroke-miterlimit="10"/>
<path d="M56.3359 20.665L76.3359 40.665" stroke="#BB3216" stroke-miterlimit="10"/>
<path d="M53.9219 23.0801L73.9219 43.0801" stroke="#BB3216" stroke-miterlimit="10"/>
</svg>
