<svg width="87" height="87" viewBox="0 0 87 87" fill="none" xmlns="http://www.w3.org/2000/svg">
<path id="Vector" d="M86.25 0H85.3993L43.7091 41.6807V0H42.5331V41.6924L0.831061 0H0V0.83087L38.4836 39.3056L0 13.5996V15.0105L37.8329 40.2854L0 24.6165V25.8902L37.3821 41.3711L0 33.9363V35.1356L37.1508 42.5233H0V43.6991H37.1547L0 51.0868V52.286L37.3821 44.8513L0 60.3321V61.6059L37.8329 45.9369L0 71.2118V72.6228L38.4836 46.9167L0 85.3915V86.2224H0.831061L42.5331 44.5299V86.2224H43.7091V44.5417L85.3993 86.2224H86.25V0Z" fill="#E2725B"/>
</svg>
