<svg width="390" height="501" viewBox="0 0 390 501" fill="none" xmlns="http://www.w3.org/2000/svg">
<g filter="url(#filter0_d_1956_14587)">
<path fill-rule="evenodd" clip-rule="evenodd" d="M112 60L26 146L109.939 229.939L26 313.878L112 399.878L198 313.878L114.061 229.939L198 146L112 60Z" fill="url(#paint0_linear_1956_14587)"/>
<path d="M26 146L25.8678 145.868L25.7356 146L25.8678 146.132L26 146ZM112 60L112.132 59.8678L112 59.7356L111.868 59.8678L112 60ZM109.939 229.939L110.071 230.071L110.203 229.939L110.071 229.807L109.939 229.939ZM26 313.878L25.8678 313.746L25.7356 313.878L25.8678 314.01L26 313.878ZM112 399.878L111.868 400.01L112 400.142L112.132 400.01L112 399.878ZM198 313.878L198.132 314.01L198.264 313.878L198.132 313.746L198 313.878ZM114.061 229.939L113.929 229.807L113.797 229.939L113.929 230.071L114.061 229.939ZM198 146L198.132 146.132L198.264 146L198.132 145.868L198 146ZM26.1322 146.132L112.132 60.1322L111.868 59.8678L25.8678 145.868L26.1322 146.132ZM110.071 229.807L26.1322 145.868L25.8678 146.132L109.807 230.071L110.071 229.807ZM26.1322 314.01L110.071 230.071L109.807 229.807L25.8678 313.746L26.1322 314.01ZM112.132 399.746L26.1322 313.746L25.8678 314.01L111.868 400.01L112.132 399.746ZM197.868 313.746L111.868 399.746L112.132 400.01L198.132 314.01L197.868 313.746ZM113.929 230.071L197.868 314.01L198.132 313.746L114.193 229.807L113.929 230.071ZM197.868 145.868L113.929 229.807L114.193 230.071L198.132 146.132L197.868 145.868ZM111.868 60.1322L197.868 146.132L198.132 145.868L112.132 59.8678L111.868 60.1322Z" fill="white"/>
</g>
<path d="M72.9192 141.834C73.8992 141.834 74.7992 142.234 75.4592 142.954C76.0292 143.594 76.3092 144.364 76.3092 145.334C76.3092 147.234 74.7892 148.764 72.8992 148.764C70.9492 148.764 69.4192 147.254 69.4192 145.334C69.4192 143.354 70.9392 141.834 72.9192 141.834ZM72.8792 143.104C71.6992 143.104 70.8192 144.044 70.8192 145.314C70.8192 146.554 71.7092 147.504 72.8692 147.504C74.0192 147.504 74.9192 146.554 74.9192 145.344C74.9192 144.054 74.0592 143.104 72.8792 143.104ZM79.6559 145.984V148.634H78.2859V141.964H80.3459C81.9959 141.964 82.8859 142.694 82.8859 144.064C82.8859 145.114 82.3359 145.814 81.3059 146.074L83.1459 148.634H81.4859L79.6559 145.984ZM79.6559 145.184H80.2759C81.0559 145.184 81.4959 144.804 81.4959 144.134C81.4959 143.494 81.0759 143.094 80.3959 143.094H79.6559V145.184ZM89.5479 146.814L90.3779 147.754C89.6079 148.474 88.8879 148.764 87.8979 148.764C86.9079 148.764 86.0979 148.424 85.5079 147.764C84.9379 147.134 84.6079 146.234 84.6079 145.314C84.6079 143.284 85.9879 141.834 87.9179 141.834C88.9479 141.834 89.6479 142.124 90.4379 142.894L89.5479 143.794C89.0079 143.304 88.5479 143.104 87.9879 143.104C86.8179 143.104 85.9979 144.004 85.9979 145.284C85.9979 146.564 86.8579 147.494 88.0579 147.494C88.6679 147.494 89.1379 147.284 89.5479 146.814ZM93.536 145.904V148.634H92.166V141.964H93.536V144.784H96.066V141.964H97.436V148.634H96.066V145.904H93.536ZM100.876 143.084V144.724H103.216V145.844H100.876V147.514H103.216V148.634H99.5059V141.964H103.216V143.084H100.876ZM104.972 146.684H106.302V146.774C106.302 147.224 106.692 147.554 107.212 147.554C107.712 147.554 108.092 147.244 108.092 146.844C108.092 146.634 107.992 146.444 107.822 146.314C107.652 146.184 107.532 146.134 107.012 145.944C105.552 145.424 105.032 144.874 105.032 143.854C105.032 142.644 105.922 141.834 107.232 141.834C108.532 141.834 109.372 142.594 109.482 143.874H108.102C108.052 143.314 107.772 143.044 107.232 143.044C106.742 143.044 106.412 143.324 106.412 143.744C106.412 144.014 106.552 144.224 106.822 144.374C107.002 144.474 107.112 144.524 107.602 144.704C108.332 144.974 108.702 145.164 108.992 145.444C109.342 145.774 109.522 146.224 109.522 146.734C109.522 147.954 108.602 148.764 107.222 148.764C105.822 148.764 104.962 147.964 104.972 146.684ZM113.826 143.084V148.634H112.456V143.084H110.866V141.964H115.406V143.084H113.826ZM118.415 145.984V148.634H117.045V141.964H119.105C120.755 141.964 121.645 142.694 121.645 144.064C121.645 145.114 121.095 145.814 120.065 146.074L121.905 148.634H120.245L118.415 145.984ZM118.415 145.184H119.035C119.815 145.184 120.255 144.804 120.255 144.134C120.255 143.494 119.835 143.094 119.155 143.094H118.415V145.184ZM127.701 147.484H125.141L124.741 148.634H123.291L125.591 141.964H127.301L129.581 148.634H128.081L127.701 147.484ZM127.341 146.364L126.421 143.604L125.491 146.364H127.341ZM133.049 143.084V148.634H131.679V143.084H130.089V141.964H134.629V143.084H133.049ZM139.224 141.834C140.204 141.834 141.104 142.234 141.764 142.954C142.334 143.594 142.614 144.364 142.614 145.334C142.614 147.234 141.094 148.764 139.204 148.764C137.254 148.764 135.724 147.254 135.724 145.334C135.724 143.354 137.244 141.834 139.224 141.834ZM139.184 143.104C138.004 143.104 137.124 144.044 137.124 145.314C137.124 146.554 138.014 147.504 139.174 147.504C140.324 147.504 141.224 146.554 141.224 145.344C141.224 144.054 140.364 143.104 139.184 143.104ZM145.961 145.984V148.634H144.591V141.964H146.651C148.301 141.964 149.191 142.694 149.191 144.064C149.191 145.114 148.641 145.814 147.611 146.074L149.451 148.634H147.791L145.961 145.984ZM145.961 145.184H146.581C147.361 145.184 147.801 144.804 147.801 144.134C147.801 143.494 147.381 143.094 146.701 143.094H145.961V145.184ZM150.94 146.684H152.27V146.774C152.27 147.224 152.66 147.554 153.18 147.554C153.68 147.554 154.06 147.244 154.06 146.844C154.06 146.634 153.96 146.444 153.79 146.314C153.62 146.184 153.5 146.134 152.98 145.944C151.52 145.424 151 144.874 151 143.854C151 142.644 151.89 141.834 153.2 141.834C154.5 141.834 155.34 142.594 155.45 143.874H154.07C154.02 143.314 153.74 143.044 153.2 143.044C152.71 143.044 152.38 143.324 152.38 143.744C152.38 144.014 152.52 144.224 152.79 144.374C152.97 144.474 153.08 144.524 153.57 144.704C154.3 144.974 154.67 145.164 154.96 145.444C155.31 145.774 155.49 146.224 155.49 146.734C155.49 147.954 154.57 148.764 153.19 148.764C151.79 148.764 150.93 147.964 150.94 146.684Z" fill="black"/>
<path d="M73.9796 314.849V317.139H72.6096V310.469H74.7396C76.3196 310.469 77.2096 311.239 77.2096 312.599C77.2096 313.989 76.2996 314.849 74.8296 314.849H73.9796ZM73.9796 313.719H74.5696C75.3596 313.719 75.8196 313.339 75.8196 312.669C75.8196 312.009 75.3496 311.599 74.5996 311.599H73.9796V313.719ZM80.3874 314.489V317.139H79.0174V310.469H81.0774C82.7274 310.469 83.6174 311.199 83.6174 312.569C83.6174 313.619 83.0674 314.319 82.0374 314.579L83.8774 317.139H82.2174L80.3874 314.489ZM80.3874 313.689H81.0074C81.7874 313.689 82.2274 313.309 82.2274 312.639C82.2274 311.999 81.8074 311.599 81.1274 311.599H80.3874V313.689ZM89.6728 315.989H87.1128L86.7128 317.139H85.2628L87.5628 310.469H89.2728L91.5528 317.139H90.0528L89.6728 315.989ZM89.3128 314.869L88.3928 312.109L87.4628 314.869H89.3128ZM97.6149 315.319L98.4449 316.259C97.6749 316.979 96.9549 317.269 95.9649 317.269C94.9749 317.269 94.1649 316.929 93.5749 316.269C93.0049 315.639 92.6749 314.739 92.6749 313.819C92.6749 311.789 94.0549 310.339 95.9849 310.339C97.0149 310.339 97.7149 310.629 98.5049 311.399L97.6149 312.299C97.0749 311.809 96.6149 311.609 96.0549 311.609C94.8849 311.609 94.0649 312.509 94.0649 313.789C94.0649 315.069 94.9249 315.999 96.1249 315.999C96.7349 315.999 97.2049 315.789 97.6149 315.319ZM102.796 311.589V317.139H101.426V311.589H99.8364V310.469H104.376V311.589H102.796ZM107.386 310.469V317.139H106.016V310.469H107.386ZM111.969 311.589V317.139H110.599V311.589H109.009V310.469H113.549V311.589H111.969ZM116.559 310.469V317.139H115.189V310.469H116.559ZM122.023 310.339C123.003 310.339 123.903 310.739 124.563 311.459C125.133 312.099 125.413 312.869 125.413 313.839C125.413 315.739 123.893 317.269 122.003 317.269C120.053 317.269 118.523 315.759 118.523 313.839C118.523 311.859 120.043 310.339 122.023 310.339ZM121.983 311.609C120.803 311.609 119.923 312.549 119.923 313.819C119.923 315.059 120.813 316.009 121.973 316.009C123.123 316.009 124.023 315.059 124.023 313.849C124.023 312.559 123.163 311.609 121.983 311.609ZM128.759 312.919V317.139H127.389V310.469H128.739L131.529 314.629V310.469H132.899V317.139H131.559L128.759 312.919ZM136.334 311.589V313.229H138.674V314.349H136.334V316.019H138.674V317.139H134.964V310.469H138.674V311.589H136.334ZM142.092 314.489V317.139H140.722V310.469H142.782C144.432 310.469 145.322 311.199 145.322 312.569C145.322 313.619 144.772 314.319 143.742 314.579L145.582 317.139H143.922L142.092 314.489ZM142.092 313.689H142.712C143.492 313.689 143.932 313.309 143.932 312.639C143.932 311.999 143.512 311.599 142.832 311.599H142.092V313.689ZM147.072 315.189H148.402V315.279C148.402 315.729 148.792 316.059 149.312 316.059C149.812 316.059 150.192 315.749 150.192 315.349C150.192 315.139 150.092 314.949 149.922 314.819C149.752 314.689 149.632 314.639 149.112 314.449C147.652 313.929 147.132 313.379 147.132 312.359C147.132 311.149 148.022 310.339 149.332 310.339C150.632 310.339 151.472 311.099 151.582 312.379H150.202C150.152 311.819 149.872 311.549 149.332 311.549C148.842 311.549 148.512 311.829 148.512 312.249C148.512 312.519 148.652 312.729 148.922 312.879C149.102 312.979 149.212 313.029 149.702 313.209C150.432 313.479 150.802 313.669 151.092 313.949C151.442 314.279 151.622 314.729 151.622 315.239C151.622 316.459 150.702 317.269 149.322 317.269C147.922 317.269 147.062 316.469 147.072 315.189Z" fill="black"/>
<path d="M208.443 145.688L207 144.245L205.557 145.688L207 147.132L208.443 145.688ZM160 145.938L207 145.938L207 145.438L160 145.438L160 145.938Z" fill="white"/>
<path d="M208.443 313.688L207 312.245L205.557 313.688L207 315.132L208.443 313.688ZM160 313.938L207 313.938L207 313.438L160 313.438L160 313.938Z" fill="white"/>
<path d="M223.456 146.852H224.416C224.464 147.764 224.956 148.244 225.832 148.244C226.732 148.244 227.368 147.692 227.368 146.888C227.368 146.192 227.008 145.868 225.748 145.448C224.8 145.124 224.488 144.968 224.128 144.644C223.72 144.272 223.504 143.744 223.504 143.132C223.504 141.776 224.476 140.852 225.892 140.852C227.308 140.852 228.232 141.752 228.268 143.144H227.26C227.248 142.736 227.2 142.544 227.068 142.316C226.84 141.968 226.396 141.752 225.88 141.752C225.088 141.752 224.524 142.292 224.524 143.06C224.524 143.444 224.692 143.78 224.98 143.984C225.232 144.164 225.448 144.26 226.264 144.548C227.116 144.848 227.524 145.064 227.848 145.412C228.196 145.784 228.388 146.288 228.388 146.828C228.388 148.208 227.368 149.144 225.868 149.144C224.848 149.144 224.152 148.784 223.732 148.064C223.54 147.74 223.456 147.404 223.456 147.02V146.852ZM231.403 147.572L233.059 143.468H234.055L230.755 151.664H229.759L230.911 148.832L228.943 143.468H229.915L231.403 147.572ZM238.466 144.98H237.554V144.92C237.554 144.404 237.134 144.08 236.498 144.08C235.886 144.08 235.502 144.392 235.502 144.872C235.502 145.352 235.742 145.532 236.738 145.808C237.446 146 237.818 146.18 238.082 146.444C238.358 146.72 238.526 147.116 238.526 147.524C238.526 148.484 237.734 149.132 236.558 149.132C235.298 149.132 234.59 148.544 234.494 147.428H235.394C235.454 148.052 235.862 148.388 236.558 148.388C237.182 148.388 237.59 148.064 237.59 147.572C237.59 147.092 237.278 146.852 236.33 146.612C235.13 146.288 234.59 145.784 234.59 144.944C234.59 143.984 235.37 143.336 236.534 143.336C237.71 143.336 238.418 143.936 238.466 144.98ZM240.904 144.272V147.872C240.916 148.148 240.988 148.208 241.324 148.208H241.744V149H240.892C240.244 148.988 239.992 148.748 239.992 148.136V144.272H239.224V143.468H239.992V141.728H240.904V143.468H241.744V144.272H240.904ZM248.068 146.528H243.46C243.508 146.996 243.592 147.236 243.82 147.536C244.18 148.028 244.708 148.292 245.308 148.292C245.992 148.292 246.64 147.92 246.964 147.344L247.768 147.644C247.312 148.568 246.364 149.132 245.308 149.132C243.664 149.132 242.488 147.932 242.488 146.252C242.488 144.548 243.652 143.336 245.272 143.336C246.88 143.336 248.08 144.548 248.08 146.168C248.08 146.24 248.08 146.396 248.068 146.528ZM243.472 145.856H247.108C247.072 145.424 246.988 145.184 246.796 144.908C246.448 144.44 245.884 144.152 245.272 144.152C244.66 144.152 244.108 144.44 243.784 144.92C243.616 145.184 243.544 145.412 243.472 145.856ZM249.4 143.468H250.312V144.236C250.732 143.6 251.2 143.336 251.884 143.336C252.64 143.336 253.12 143.66 253.372 144.344C253.78 143.636 254.296 143.336 255.124 143.336C255.76 143.336 256.24 143.54 256.528 143.924C256.792 144.272 256.864 144.584 256.864 145.46V149H255.952V145.676C255.952 145.004 255.928 144.848 255.796 144.62C255.628 144.332 255.268 144.152 254.836 144.152C254.032 144.152 253.588 144.692 253.588 145.676V149H252.676V145.688C252.676 145.148 252.628 144.872 252.496 144.632C252.34 144.32 252.004 144.152 251.596 144.152C250.792 144.152 250.312 144.728 250.312 145.688V149H249.4V143.468ZM262.138 144.98H261.226V144.92C261.226 144.404 260.806 144.08 260.17 144.08C259.558 144.08 259.174 144.392 259.174 144.872C259.174 145.352 259.414 145.532 260.41 145.808C261.118 146 261.49 146.18 261.754 146.444C262.03 146.72 262.198 147.116 262.198 147.524C262.198 148.484 261.406 149.132 260.23 149.132C258.97 149.132 258.262 148.544 258.166 147.428H259.066C259.126 148.052 259.534 148.388 260.23 148.388C260.854 148.388 261.262 148.064 261.262 147.572C261.262 147.092 260.95 146.852 260.002 146.612C258.802 146.288 258.262 145.784 258.262 144.944C258.262 143.984 259.042 143.336 260.206 143.336C261.382 143.336 262.09 143.936 262.138 144.98ZM268.173 144.272V147.872C268.185 148.148 268.257 148.208 268.593 148.208H269.013V149H268.161C267.513 148.988 267.261 148.748 267.261 148.136V144.272H266.493V143.468H267.261V141.728H268.173V143.468H269.013V144.272H268.173ZM271.183 140.996V144.236C271.687 143.612 272.191 143.336 272.851 143.336C273.331 143.336 273.835 143.528 274.135 143.84C274.435 144.14 274.567 144.572 274.567 145.28V149H273.655V145.328C273.655 144.572 273.283 144.152 272.623 144.152C272.203 144.152 271.831 144.32 271.543 144.644C271.267 144.956 271.183 145.232 271.183 145.76V149H270.271V140.996H271.183ZM277.277 143.468V149H276.365V143.468H277.277ZM276.833 141.32C277.157 141.32 277.409 141.584 277.409 141.92C277.409 142.244 277.145 142.496 276.821 142.496C276.497 142.496 276.245 142.244 276.245 141.908C276.245 141.572 276.497 141.32 276.833 141.32ZM279.107 143.468H280.019V144.248C280.499 143.6 280.979 143.336 281.663 143.336C282.167 143.336 282.623 143.504 282.947 143.792C283.295 144.128 283.415 144.512 283.415 145.268V149H282.503V145.472C282.503 144.98 282.443 144.716 282.299 144.524C282.131 144.296 281.807 144.152 281.435 144.152C281.027 144.152 280.655 144.308 280.379 144.62C280.115 144.908 280.019 145.172 280.019 145.628V149H279.107V143.468ZM286.125 146.528V149H285.213V140.996H286.125V145.892L288.333 143.468H289.485L287.013 146.168L289.473 149H288.333L286.125 146.528ZM295.376 146.528H290.768C290.816 146.996 290.9 147.236 291.128 147.536C291.488 148.028 292.016 148.292 292.616 148.292C293.3 148.292 293.948 147.92 294.272 147.344L295.076 147.644C294.62 148.568 293.672 149.132 292.616 149.132C290.972 149.132 289.796 147.932 289.796 146.252C289.796 144.548 290.96 143.336 292.58 143.336C294.188 143.336 295.388 144.548 295.388 146.168C295.388 146.24 295.388 146.396 295.376 146.528ZM290.78 145.856H294.416C294.38 145.424 294.296 145.184 294.104 144.908C293.756 144.44 293.192 144.152 292.58 144.152C291.968 144.152 291.416 144.44 291.092 144.92C290.924 145.184 290.852 145.412 290.78 145.856ZM296.709 143.468H297.621V144.404C297.789 144.008 297.909 143.84 298.125 143.672C298.401 143.456 298.785 143.336 299.181 143.336H299.397V144.26C299.301 144.248 299.205 144.248 299.145 144.248C298.653 144.248 298.221 144.476 297.945 144.884C297.705 145.232 297.621 145.556 297.621 146.192V149H296.709V143.468ZM304.021 144.98H303.109V144.92C303.109 144.404 302.689 144.08 302.053 144.08C301.441 144.08 301.057 144.392 301.057 144.872C301.057 145.352 301.297 145.532 302.293 145.808C303.001 146 303.373 146.18 303.637 146.444C303.913 146.72 304.081 147.116 304.081 147.524C304.081 148.484 303.289 149.132 302.113 149.132C300.853 149.132 300.145 148.544 300.049 147.428H300.949C301.009 148.052 301.417 148.388 302.113 148.388C302.737 148.388 303.145 148.064 303.145 147.572C303.145 147.092 302.833 146.852 301.885 146.612C300.685 146.288 300.145 145.784 300.145 144.944C300.145 143.984 300.925 143.336 302.089 143.336C303.265 143.336 303.973 143.936 304.021 144.98ZM313.26 144.38V143.468H314.172V149H313.26V147.932C312.708 148.76 312.084 149.132 311.244 149.132C309.72 149.132 308.64 147.932 308.64 146.252C308.64 144.56 309.744 143.336 311.268 143.336C312.108 143.336 312.72 143.66 313.26 144.38ZM311.4 144.152C310.8 144.152 310.38 144.356 310.056 144.812C309.768 145.208 309.6 145.736 309.6 146.276C309.6 147.452 310.368 148.34 311.376 148.34C312.42 148.34 313.272 147.368 313.272 146.18C313.272 144.98 312.504 144.152 311.4 144.152ZM316.01 143.468H316.922V144.248C317.402 143.6 317.882 143.336 318.566 143.336C319.07 143.336 319.526 143.504 319.85 143.792C320.198 144.128 320.318 144.512 320.318 145.268V149H319.406V145.472C319.406 144.98 319.346 144.716 319.202 144.524C319.034 144.296 318.71 144.152 318.338 144.152C317.93 144.152 317.558 144.308 317.282 144.62C317.018 144.908 316.922 145.172 316.922 145.628V149H316.01V143.468ZM326.255 144.308V140.996H327.167V149H326.255V148.052C325.703 148.808 325.115 149.132 324.275 149.132C322.751 149.132 321.671 147.944 321.671 146.264C321.671 144.584 322.775 143.336 324.275 143.336C325.091 143.336 325.715 143.636 326.255 144.308ZM324.467 144.152C323.375 144.152 322.631 145.016 322.631 146.276C322.631 147.488 323.363 148.34 324.407 148.34C325.475 148.34 326.255 147.452 326.255 146.252C326.255 145.004 325.523 144.152 324.467 144.152ZM227.38 160.98H226.468V160.92C226.468 160.404 226.048 160.08 225.412 160.08C224.8 160.08 224.416 160.392 224.416 160.872C224.416 161.352 224.656 161.532 225.652 161.808C226.36 162 226.732 162.18 226.996 162.444C227.272 162.72 227.44 163.116 227.44 163.524C227.44 164.484 226.648 165.132 225.472 165.132C224.212 165.132 223.504 164.544 223.408 163.428H224.308C224.368 164.052 224.776 164.388 225.472 164.388C226.096 164.388 226.504 164.064 226.504 163.572C226.504 163.092 226.192 162.852 225.244 162.612C224.044 162.288 223.504 161.784 223.504 160.944C223.504 159.984 224.284 159.336 225.448 159.336C226.624 159.336 227.332 159.936 227.38 160.98ZM229.818 160.272V163.872C229.83 164.148 229.902 164.208 230.238 164.208H230.658V165H229.806C229.158 164.988 228.906 164.748 228.906 164.136V160.272H228.138V159.468H228.906V157.728H229.818V159.468H230.658V160.272H229.818ZM231.916 159.468H232.828V160.404C232.996 160.008 233.116 159.84 233.332 159.672C233.608 159.456 233.992 159.336 234.388 159.336H234.604V160.26C234.508 160.248 234.412 160.248 234.352 160.248C233.86 160.248 233.428 160.476 233.152 160.884C232.912 161.232 232.828 161.556 232.828 162.192V165H231.916V159.468ZM239.725 160.38V159.468H240.637V165H239.725V163.932C239.173 164.76 238.549 165.132 237.709 165.132C236.185 165.132 235.105 163.932 235.105 162.252C235.105 160.56 236.209 159.336 237.733 159.336C238.573 159.336 239.185 159.66 239.725 160.38ZM237.865 160.152C237.265 160.152 236.845 160.356 236.521 160.812C236.233 161.208 236.065 161.736 236.065 162.276C236.065 163.452 236.833 164.34 237.841 164.34C238.885 164.34 239.737 163.368 239.737 162.18C239.737 160.98 238.969 160.152 237.865 160.152ZM243.411 160.272V163.872C243.423 164.148 243.495 164.208 243.831 164.208H244.251V165H243.399C242.751 164.988 242.499 164.748 242.499 164.136V160.272H241.731V159.468H242.499V157.728H243.411V159.468H244.251V160.272H243.411ZM250.575 162.528H245.967C246.015 162.996 246.099 163.236 246.327 163.536C246.687 164.028 247.215 164.292 247.815 164.292C248.499 164.292 249.147 163.92 249.471 163.344L250.275 163.644C249.819 164.568 248.871 165.132 247.815 165.132C246.171 165.132 244.995 163.932 244.995 162.252C244.995 160.548 246.159 159.336 247.779 159.336C249.387 159.336 250.587 160.548 250.587 162.168C250.587 162.24 250.587 162.396 250.575 162.528ZM245.979 161.856H249.615C249.579 161.424 249.495 161.184 249.303 160.908C248.955 160.44 248.391 160.152 247.779 160.152C247.167 160.152 246.615 160.44 246.291 160.92C246.123 161.184 246.051 161.412 245.979 161.856ZM256.047 160.416V159.468H256.959V165.036C256.959 165.96 256.731 166.584 256.227 167.064C255.735 167.544 255.027 167.796 254.187 167.796C253.155 167.796 252.339 167.46 251.739 166.788L252.363 166.164C252.615 166.428 252.735 166.536 252.891 166.644C253.203 166.836 253.719 166.968 254.187 166.968C254.763 166.968 255.315 166.764 255.627 166.428C255.903 166.128 256.047 165.684 256.047 165.108V163.944C255.507 164.76 254.871 165.132 254.007 165.132C252.543 165.132 251.451 163.896 251.451 162.252C251.451 161.364 251.775 160.512 252.327 159.984C252.771 159.552 253.371 159.336 254.079 159.336C254.919 159.336 255.483 159.648 256.047 160.416ZM254.247 160.176C253.167 160.176 252.411 161.016 252.411 162.216C252.411 163.404 253.179 164.292 254.223 164.292C254.751 164.292 255.267 164.04 255.627 163.62C255.867 163.344 256.023 162.804 256.023 162.252C256.023 161.532 255.915 161.148 255.591 160.788C255.255 160.416 254.739 160.176 254.247 160.176ZM259.711 159.468V165H258.799V159.468H259.711ZM259.267 157.32C259.591 157.32 259.843 157.584 259.843 157.92C259.843 158.244 259.579 158.496 259.255 158.496C258.931 158.496 258.679 158.244 258.679 157.908C258.679 157.572 258.931 157.32 259.267 157.32ZM265.285 163.692L265.849 164.316C265.225 164.88 264.613 165.132 263.809 165.132C262.225 165.132 261.097 163.932 261.097 162.252C261.097 160.536 262.237 159.336 263.857 159.336C264.649 159.336 265.297 159.6 265.873 160.164L265.285 160.752C264.865 160.368 264.397 160.176 263.881 160.176C262.789 160.176 262.033 161.016 262.033 162.216C262.033 163.44 262.789 164.292 263.869 164.292C264.409 164.292 264.841 164.112 265.285 163.692ZM271.535 165H270.623V156.996H271.535V165ZM278.501 162.528H273.893C273.941 162.996 274.025 163.236 274.253 163.536C274.613 164.028 275.141 164.292 275.741 164.292C276.425 164.292 277.073 163.92 277.397 163.344L278.201 163.644C277.745 164.568 276.797 165.132 275.741 165.132C274.097 165.132 272.921 163.932 272.921 162.252C272.921 160.548 274.085 159.336 275.705 159.336C277.313 159.336 278.513 160.548 278.513 162.168C278.513 162.24 278.513 162.396 278.501 162.528ZM273.905 161.856H277.541C277.505 161.424 277.421 161.184 277.229 160.908C276.881 160.44 276.317 160.152 275.705 160.152C275.093 160.152 274.541 160.44 274.217 160.92C274.049 161.184 273.977 161.412 273.905 161.856ZM284.033 160.38V159.468H284.945V165H284.033V163.932C283.481 164.76 282.857 165.132 282.017 165.132C280.493 165.132 279.413 163.932 279.413 162.252C279.413 160.56 280.517 159.336 282.041 159.336C282.881 159.336 283.493 159.66 284.033 160.38ZM282.173 160.152C281.573 160.152 281.153 160.356 280.829 160.812C280.541 161.208 280.373 161.736 280.373 162.276C280.373 163.452 281.141 164.34 282.149 164.34C283.193 164.34 284.045 163.368 284.045 162.18C284.045 160.98 283.277 160.152 282.173 160.152ZM290.923 160.308V156.996H291.835V165H290.923V164.052C290.371 164.808 289.783 165.132 288.943 165.132C287.419 165.132 286.339 163.944 286.339 162.264C286.339 160.584 287.443 159.336 288.943 159.336C289.759 159.336 290.383 159.636 290.923 160.308ZM289.135 160.152C288.043 160.152 287.299 161.016 287.299 162.276C287.299 163.488 288.031 164.34 289.075 164.34C290.143 164.34 290.923 163.452 290.923 162.252C290.923 161.004 290.191 160.152 289.135 160.152ZM297.142 160.98H296.23V160.92C296.23 160.404 295.81 160.08 295.174 160.08C294.562 160.08 294.178 160.392 294.178 160.872C294.178 161.352 294.418 161.532 295.414 161.808C296.122 162 296.494 162.18 296.758 162.444C297.034 162.72 297.202 163.116 297.202 163.524C297.202 164.484 296.41 165.132 295.234 165.132C293.974 165.132 293.266 164.544 293.17 163.428H294.07C294.13 164.052 294.538 164.388 295.234 164.388C295.858 164.388 296.266 164.064 296.266 163.572C296.266 163.092 295.954 162.852 295.006 162.612C293.806 162.288 293.266 161.784 293.266 160.944C293.266 159.984 294.046 159.336 295.21 159.336C296.386 159.336 297.094 159.936 297.142 160.98ZM308.589 159.468H309.525L307.557 165H306.729L305.457 160.8L304.125 165H303.261L301.365 159.468H302.301L303.717 163.536L304.989 159.468H305.889L307.137 163.536L308.589 159.468ZM311.426 156.996V160.236C311.93 159.612 312.434 159.336 313.094 159.336C313.574 159.336 314.078 159.528 314.378 159.84C314.678 160.14 314.81 160.572 314.81 161.28V165H313.898V161.328C313.898 160.572 313.526 160.152 312.866 160.152C312.446 160.152 312.074 160.32 311.786 160.644C311.51 160.956 311.426 161.232 311.426 161.76V165H310.514V156.996H311.426ZM318.995 159.336C320.627 159.336 321.791 160.548 321.791 162.252C321.791 163.872 320.543 165.132 318.959 165.132C317.315 165.132 316.163 163.932 316.163 162.228C316.163 160.512 317.315 159.336 318.995 159.336ZM318.995 160.176C317.855 160.176 317.099 161.004 317.099 162.24C317.099 163.464 317.855 164.292 318.983 164.292C320.075 164.292 320.855 163.44 320.855 162.24C320.855 161.004 320.111 160.176 318.995 160.176ZM330.523 163.692L331.087 164.316C330.463 164.88 329.851 165.132 329.047 165.132C327.463 165.132 326.335 163.932 326.335 162.252C326.335 160.536 327.475 159.336 329.095 159.336C329.887 159.336 330.535 159.6 331.111 160.164L330.523 160.752C330.103 160.368 329.635 160.176 329.119 160.176C328.027 160.176 327.271 161.016 327.271 162.216C327.271 163.44 328.027 164.292 329.107 164.292C329.647 164.292 330.079 164.112 330.523 163.692ZM334.452 159.336C336.084 159.336 337.248 160.548 337.248 162.252C337.248 163.872 336 165.132 334.416 165.132C332.772 165.132 331.62 163.932 331.62 162.228C331.62 160.512 332.772 159.336 334.452 159.336ZM334.452 160.176C333.312 160.176 332.556 161.004 332.556 162.24C332.556 163.464 333.312 164.292 334.44 164.292C335.532 164.292 336.312 163.44 336.312 162.24C336.312 161.004 335.568 160.176 334.452 160.176ZM338.639 159.468H339.551V160.248C340.031 159.6 340.511 159.336 341.195 159.336C341.699 159.336 342.155 159.504 342.479 159.792C342.827 160.128 342.947 160.512 342.947 161.268V165H342.035V161.472C342.035 160.98 341.975 160.716 341.831 160.524C341.663 160.296 341.339 160.152 340.967 160.152C340.559 160.152 340.187 160.308 339.911 160.62C339.647 160.908 339.551 161.172 339.551 161.628V165H338.639V159.468ZM344.744 159.468H345.656V160.248C346.136 159.6 346.616 159.336 347.3 159.336C347.804 159.336 348.26 159.504 348.584 159.792C348.932 160.128 349.052 160.512 349.052 161.268V165H348.14V161.472C348.14 160.98 348.08 160.716 347.936 160.524C347.768 160.296 347.444 160.152 347.072 160.152C346.664 160.152 346.292 160.308 346.016 160.62C345.752 160.908 345.656 161.172 345.656 161.628V165H344.744V159.468ZM355.986 162.528H351.378C351.426 162.996 351.51 163.236 351.738 163.536C352.098 164.028 352.626 164.292 353.226 164.292C353.91 164.292 354.558 163.92 354.882 163.344L355.686 163.644C355.23 164.568 354.282 165.132 353.226 165.132C351.582 165.132 350.406 163.932 350.406 162.252C350.406 160.548 351.57 159.336 353.19 159.336C354.798 159.336 355.997 160.548 355.997 162.168C355.997 162.24 355.997 162.396 355.986 162.528ZM351.39 161.856H355.026C354.99 161.424 354.906 161.184 354.714 160.908C354.366 160.44 353.802 160.152 353.19 160.152C352.578 160.152 352.026 160.44 351.701 160.92C351.534 161.184 351.462 161.412 351.39 161.856ZM361.062 163.692L361.626 164.316C361.002 164.88 360.39 165.132 359.586 165.132C358.002 165.132 356.874 163.932 356.874 162.252C356.874 160.536 358.014 159.336 359.634 159.336C360.426 159.336 361.074 159.6 361.65 160.164L361.062 160.752C360.642 160.368 360.174 160.176 359.658 160.176C358.566 160.176 357.81 161.016 357.81 162.216C357.81 163.44 358.566 164.292 359.646 164.292C360.186 164.292 360.618 164.112 361.062 163.692ZM363.974 160.272V163.872C363.986 164.148 364.058 164.208 364.394 164.208H364.814V165H363.962C363.314 164.988 363.062 164.748 363.062 164.136V160.272H362.294V159.468H363.062V157.728H363.974V159.468H364.814V160.272H363.974ZM228.052 176.308V172.996H228.964V181H228.052V180.052C227.5 180.808 226.912 181.132 226.072 181.132C224.548 181.132 223.468 179.944 223.468 178.264C223.468 176.584 224.572 175.336 226.072 175.336C226.888 175.336 227.512 175.636 228.052 176.308ZM226.264 176.152C225.172 176.152 224.428 177.016 224.428 178.276C224.428 179.488 225.16 180.34 226.204 180.34C227.272 180.34 228.052 179.452 228.052 178.252C228.052 177.004 227.32 176.152 226.264 176.152ZM231.715 175.468V181H230.803V175.468H231.715ZM231.271 173.32C231.595 173.32 231.847 173.584 231.847 173.92C231.847 174.244 231.583 174.496 231.259 174.496C230.935 174.496 230.683 174.244 230.683 173.908C230.683 173.572 230.935 173.32 231.271 173.32ZM236.798 175.468H237.746L235.658 181H234.698L232.67 175.468H233.63L235.19 179.692L236.798 175.468ZM243.72 178.528H239.112C239.16 178.996 239.244 179.236 239.472 179.536C239.832 180.028 240.36 180.292 240.96 180.292C241.644 180.292 242.292 179.92 242.616 179.344L243.42 179.644C242.964 180.568 242.016 181.132 240.96 181.132C239.316 181.132 238.14 179.932 238.14 178.252C238.14 176.548 239.304 175.336 240.924 175.336C242.532 175.336 243.732 176.548 243.732 178.168C243.732 178.24 243.732 178.396 243.72 178.528ZM239.124 177.856H242.76C242.724 177.424 242.64 177.184 242.448 176.908C242.1 176.44 241.536 176.152 240.924 176.152C240.312 176.152 239.76 176.44 239.436 176.92C239.268 177.184 239.196 177.412 239.124 177.856ZM245.053 175.468H245.965V176.404C246.133 176.008 246.253 175.84 246.469 175.672C246.745 175.456 247.129 175.336 247.525 175.336H247.741V176.26C247.645 176.248 247.549 176.248 247.489 176.248C246.997 176.248 246.565 176.476 246.289 176.884C246.049 177.232 245.965 177.556 245.965 178.192V181H245.053V175.468ZM252.364 176.98H251.452V176.92C251.452 176.404 251.032 176.08 250.396 176.08C249.784 176.08 249.4 176.392 249.4 176.872C249.4 177.352 249.64 177.532 250.636 177.808C251.344 178 251.716 178.18 251.98 178.444C252.256 178.72 252.424 179.116 252.424 179.524C252.424 180.484 251.632 181.132 250.456 181.132C249.196 181.132 248.488 180.544 248.392 179.428H249.292C249.352 180.052 249.76 180.388 250.456 180.388C251.08 180.388 251.488 180.064 251.488 179.572C251.488 179.092 251.176 178.852 250.228 178.612C249.028 178.288 248.488 177.784 248.488 176.944C248.488 175.984 249.268 175.336 250.432 175.336C251.608 175.336 252.316 175.936 252.364 176.98ZM258.966 178.528H254.358C254.406 178.996 254.49 179.236 254.718 179.536C255.078 180.028 255.606 180.292 256.206 180.292C256.89 180.292 257.538 179.92 257.862 179.344L258.666 179.644C258.21 180.568 257.262 181.132 256.206 181.132C254.562 181.132 253.386 179.932 253.386 178.252C253.386 176.548 254.55 175.336 256.17 175.336C257.778 175.336 258.978 176.548 258.978 178.168C258.978 178.24 258.978 178.396 258.966 178.528ZM254.37 177.856H258.006C257.97 177.424 257.886 177.184 257.694 176.908C257.346 176.44 256.782 176.152 256.17 176.152C255.558 176.152 255.006 176.44 254.682 176.92C254.514 177.184 254.442 177.412 254.37 177.856ZM269.032 178.528H264.424C264.472 178.996 264.556 179.236 264.784 179.536C265.144 180.028 265.672 180.292 266.272 180.292C266.956 180.292 267.604 179.92 267.928 179.344L268.732 179.644C268.276 180.568 267.328 181.132 266.272 181.132C264.628 181.132 263.452 179.932 263.452 178.252C263.452 176.548 264.616 175.336 266.236 175.336C267.844 175.336 269.044 176.548 269.044 178.168C269.044 178.24 269.044 178.396 269.032 178.528ZM264.436 177.856H268.072C268.036 177.424 267.952 177.184 267.76 176.908C267.412 176.44 266.848 176.152 266.236 176.152C265.624 176.152 265.072 176.44 264.748 176.92C264.58 177.184 264.508 177.412 264.436 177.856ZM271.953 178.996L270.477 181H269.361L271.401 178.252L269.325 175.468H270.477L271.953 177.496L273.465 175.468H274.581L272.493 178.252L274.485 181H273.369L271.953 178.996ZM275.545 175.468H276.457V176.476C276.985 175.66 277.549 175.336 278.473 175.336C280.009 175.336 281.077 176.512 281.077 178.192C281.077 179.932 280.009 181.132 278.473 181.132C278.041 181.132 277.645 181.036 277.261 180.844C276.925 180.676 276.757 180.532 276.457 180.136V183.592H275.545V175.468ZM278.317 176.152C277.213 176.152 276.457 177.028 276.457 178.324C276.457 179.536 277.189 180.34 278.281 180.34C279.373 180.34 280.105 179.488 280.105 178.228C280.105 177.58 279.949 177.088 279.625 176.728C279.301 176.368 278.809 176.152 278.317 176.152ZM287.595 178.528H282.987C283.035 178.996 283.119 179.236 283.347 179.536C283.707 180.028 284.235 180.292 284.835 180.292C285.519 180.292 286.167 179.92 286.491 179.344L287.295 179.644C286.839 180.568 285.891 181.132 284.835 181.132C283.191 181.132 282.015 179.932 282.015 178.252C282.015 176.548 283.179 175.336 284.799 175.336C286.407 175.336 287.607 176.548 287.607 178.168C287.607 178.24 287.607 178.396 287.595 178.528ZM282.999 177.856H286.635C286.599 177.424 286.515 177.184 286.323 176.908C285.975 176.44 285.411 176.152 284.799 176.152C284.187 176.152 283.635 176.44 283.311 176.92C283.143 177.184 283.071 177.412 282.999 177.856ZM288.928 175.468H289.84V176.404C290.008 176.008 290.128 175.84 290.344 175.672C290.62 175.456 291.004 175.336 291.4 175.336H291.616V176.26C291.52 176.248 291.424 176.248 291.364 176.248C290.872 176.248 290.44 176.476 290.164 176.884C289.924 177.232 289.84 177.556 289.84 178.192V181H288.928V175.468ZM293.978 176.272V179.872C293.99 180.148 294.062 180.208 294.398 180.208H294.818V181H293.966C293.318 180.988 293.066 180.748 293.066 180.136V176.272H292.298V175.468H293.066V173.728H293.978V175.468H294.818V176.272H293.978ZM296.941 175.468V181H296.029V175.468H296.941ZM296.497 173.32C296.821 173.32 297.073 173.584 297.073 173.92C297.073 174.244 296.809 174.496 296.485 174.496C296.161 174.496 295.909 174.244 295.909 173.908C295.909 173.572 296.161 173.32 296.497 173.32ZM302.239 176.98H301.327V176.92C301.327 176.404 300.907 176.08 300.271 176.08C299.659 176.08 299.275 176.392 299.275 176.872C299.275 177.352 299.515 177.532 300.511 177.808C301.219 178 301.591 178.18 301.855 178.444C302.131 178.72 302.299 179.116 302.299 179.524C302.299 180.484 301.507 181.132 300.331 181.132C299.071 181.132 298.363 180.544 298.267 179.428H299.167C299.227 180.052 299.635 180.388 300.331 180.388C300.955 180.388 301.363 180.064 301.363 179.572C301.363 179.092 301.051 178.852 300.103 178.612C298.903 178.288 298.363 177.784 298.363 176.944C298.363 175.984 299.143 175.336 300.307 175.336C301.483 175.336 302.191 175.936 302.239 176.98ZM308.841 178.528H304.233C304.281 178.996 304.365 179.236 304.593 179.536C304.953 180.028 305.481 180.292 306.081 180.292C306.765 180.292 307.413 179.92 307.737 179.344L308.541 179.644C308.085 180.568 307.137 181.132 306.081 181.132C304.437 181.132 303.261 179.932 303.261 178.252C303.261 176.548 304.425 175.336 306.045 175.336C307.653 175.336 308.853 176.548 308.853 178.168C308.853 178.24 308.853 178.396 308.841 178.528ZM304.245 177.856H307.881C307.845 177.424 307.761 177.184 307.569 176.908C307.221 176.44 306.657 176.152 306.045 176.152C305.433 176.152 304.881 176.44 304.557 176.92C304.389 177.184 304.317 177.412 304.245 177.856ZM310.478 179.848C310.838 179.848 311.102 180.112 311.102 180.484C311.102 180.832 310.826 181.096 310.478 181.096C310.118 181.096 309.854 180.832 309.854 180.472C309.854 180.112 310.118 179.848 310.478 179.848ZM318.641 173.86V181H317.633V173.86H315.593V172.996H320.669V173.86H318.641ZM322.605 172.996V176.236C323.109 175.612 323.613 175.336 324.273 175.336C324.753 175.336 325.257 175.528 325.557 175.84C325.857 176.14 325.989 176.572 325.989 177.28V181H325.077V177.328C325.077 176.572 324.705 176.152 324.045 176.152C323.625 176.152 323.253 176.32 322.965 176.644C322.689 176.956 322.605 177.232 322.605 177.76V181H321.693V172.996H322.605ZM332.923 178.528H328.315C328.363 178.996 328.447 179.236 328.675 179.536C329.035 180.028 329.563 180.292 330.163 180.292C330.847 180.292 331.495 179.92 331.819 179.344L332.623 179.644C332.167 180.568 331.219 181.132 330.163 181.132C328.519 181.132 327.343 179.932 327.343 178.252C327.343 176.548 328.507 175.336 330.127 175.336C331.735 175.336 332.935 176.548 332.935 178.168C332.935 178.24 332.935 178.396 332.923 178.528ZM328.327 177.856H331.963C331.927 177.424 331.843 177.184 331.651 176.908C331.303 176.44 330.739 176.152 330.127 176.152C329.515 176.152 328.963 176.44 328.639 176.92C328.471 177.184 328.399 177.412 328.327 177.856ZM335.723 179.572L337.379 175.468H338.375L335.075 183.664H334.079L335.231 180.832L333.263 175.468H334.235L335.723 179.572ZM347.055 176.416V175.468H347.967V181.036C347.967 181.96 347.739 182.584 347.235 183.064C346.743 183.544 346.035 183.796 345.195 183.796C344.163 183.796 343.347 183.46 342.747 182.788L343.371 182.164C343.623 182.428 343.743 182.536 343.899 182.644C344.211 182.836 344.727 182.968 345.195 182.968C345.771 182.968 346.323 182.764 346.635 182.428C346.911 182.128 347.055 181.684 347.055 181.108V179.944C346.515 180.76 345.879 181.132 345.015 181.132C343.551 181.132 342.459 179.896 342.459 178.252C342.459 177.364 342.783 176.512 343.335 175.984C343.779 175.552 344.379 175.336 345.087 175.336C345.927 175.336 346.491 175.648 347.055 176.416ZM345.255 176.176C344.175 176.176 343.419 177.016 343.419 178.216C343.419 179.404 344.187 180.292 345.231 180.292C345.759 180.292 346.275 180.04 346.635 179.62C346.875 179.344 347.031 178.804 347.031 178.252C347.031 177.532 346.923 177.148 346.599 176.788C346.263 176.416 345.747 176.176 345.255 176.176ZM353.023 175.468H353.947V179.008C353.947 179.764 353.803 180.184 353.395 180.556C352.987 180.928 352.423 181.132 351.799 181.132C351.175 181.132 350.599 180.916 350.203 180.544C349.831 180.184 349.651 179.68 349.651 179.008V175.468H350.563V178.984C350.563 179.764 351.067 180.316 351.799 180.316C352.183 180.316 352.555 180.16 352.783 179.896C352.963 179.68 353.023 179.452 353.023 179.008V175.468ZM356.543 175.468V181H355.631V175.468H356.543ZM356.099 173.32C356.423 173.32 356.675 173.584 356.675 173.92C356.675 174.244 356.411 174.496 356.087 174.496C355.763 174.496 355.511 174.244 355.511 173.908C355.511 173.572 355.763 173.32 356.099 173.32ZM362.513 176.308V172.996H363.425V181H362.513V180.052C361.961 180.808 361.373 181.132 360.533 181.132C359.009 181.132 357.929 179.944 357.929 178.264C357.929 176.584 359.033 175.336 360.533 175.336C361.349 175.336 361.973 175.636 362.513 176.308ZM360.725 176.152C359.633 176.152 358.889 177.016 358.889 178.276C358.889 179.488 359.621 180.34 360.665 180.34C361.733 180.34 362.513 179.452 362.513 178.252C362.513 177.004 361.781 176.152 360.725 176.152ZM370.4 178.528H365.792C365.84 178.996 365.924 179.236 366.152 179.536C366.512 180.028 367.04 180.292 367.64 180.292C368.324 180.292 368.972 179.92 369.296 179.344L370.1 179.644C369.644 180.568 368.696 181.132 367.64 181.132C365.996 181.132 364.82 179.932 364.82 178.252C364.82 176.548 365.984 175.336 367.604 175.336C369.212 175.336 370.412 176.548 370.412 178.168C370.412 178.24 370.412 178.396 370.4 178.528ZM365.804 177.856H369.44C369.404 177.424 369.32 177.184 369.128 176.908C368.78 176.44 368.216 176.152 367.604 176.152C366.992 176.152 366.44 176.44 366.116 176.92C365.948 177.184 365.876 177.412 365.804 177.856ZM227.656 195.692L228.22 196.316C227.596 196.88 226.984 197.132 226.18 197.132C224.596 197.132 223.468 195.932 223.468 194.252C223.468 192.536 224.608 191.336 226.228 191.336C227.02 191.336 227.668 191.6 228.244 192.164L227.656 192.752C227.236 192.368 226.768 192.176 226.252 192.176C225.16 192.176 224.404 193.016 224.404 194.216C224.404 195.44 225.16 196.292 226.24 196.292C226.78 196.292 227.212 196.112 227.656 195.692ZM230.179 197H229.267V188.996H230.179V197ZM232.922 191.468V197H232.01V191.468H232.922ZM232.478 189.32C232.802 189.32 233.054 189.584 233.054 189.92C233.054 190.244 232.79 190.496 232.466 190.496C232.142 190.496 231.89 190.244 231.89 189.908C231.89 189.572 232.142 189.32 232.478 189.32ZM239.888 194.528H235.28C235.328 194.996 235.412 195.236 235.64 195.536C236 196.028 236.528 196.292 237.128 196.292C237.812 196.292 238.46 195.92 238.784 195.344L239.588 195.644C239.132 196.568 238.184 197.132 237.128 197.132C235.484 197.132 234.308 195.932 234.308 194.252C234.308 192.548 235.472 191.336 237.092 191.336C238.7 191.336 239.9 192.548 239.9 194.168C239.9 194.24 239.9 194.396 239.888 194.528ZM235.292 193.856H238.928C238.892 193.424 238.808 193.184 238.616 192.908C238.268 192.44 237.704 192.152 237.092 192.152C236.48 192.152 235.928 192.44 235.604 192.92C235.436 193.184 235.364 193.412 235.292 193.856ZM241.221 191.468H242.133V192.248C242.613 191.6 243.093 191.336 243.777 191.336C244.281 191.336 244.737 191.504 245.061 191.792C245.409 192.128 245.529 192.512 245.529 193.268V197H244.617V193.472C244.617 192.98 244.557 192.716 244.413 192.524C244.245 192.296 243.921 192.152 243.549 192.152C243.141 192.152 242.769 192.308 242.493 192.62C242.229 192.908 242.133 193.172 242.133 193.628V197H241.221V191.468ZM248.298 192.272V195.872C248.31 196.148 248.382 196.208 248.718 196.208H249.138V197H248.286C247.638 196.988 247.386 196.748 247.386 196.136V192.272H246.618V191.468H247.386V189.728H248.298V191.468H249.138V192.272H248.298ZM253.9 192.98H252.988V192.92C252.988 192.404 252.568 192.08 251.932 192.08C251.32 192.08 250.936 192.392 250.936 192.872C250.936 193.352 251.176 193.532 252.172 193.808C252.88 194 253.252 194.18 253.516 194.444C253.792 194.72 253.96 195.116 253.96 195.524C253.96 196.484 253.168 197.132 251.992 197.132C250.732 197.132 250.024 196.544 249.928 195.428H250.828C250.888 196.052 251.296 196.388 251.992 196.388C252.616 196.388 253.024 196.064 253.024 195.572C253.024 195.092 252.712 194.852 251.764 194.612C250.564 194.288 250.024 193.784 250.024 192.944C250.024 191.984 250.804 191.336 251.968 191.336C253.144 191.336 253.852 191.936 253.9 192.98ZM259.935 192.272V195.872C259.947 196.148 260.019 196.208 260.355 196.208H260.775V197H259.923C259.275 196.988 259.023 196.748 259.023 196.136V192.272H258.255V191.468H259.023V189.728H259.935V191.468H260.775V192.272H259.935ZM262.945 188.996V192.236C263.449 191.612 263.953 191.336 264.613 191.336C265.093 191.336 265.597 191.528 265.897 191.84C266.197 192.14 266.329 192.572 266.329 193.28V197H265.417V193.328C265.417 192.572 265.045 192.152 264.385 192.152C263.965 192.152 263.593 192.32 263.305 192.644C263.029 192.956 262.945 193.232 262.945 193.76V197H262.033V188.996H262.945ZM268.127 191.468H269.039V192.404C269.207 192.008 269.327 191.84 269.543 191.672C269.819 191.456 270.203 191.336 270.599 191.336H270.815V192.26C270.719 192.248 270.623 192.248 270.563 192.248C270.071 192.248 269.639 192.476 269.363 192.884C269.123 193.232 269.039 193.556 269.039 194.192V197H268.127V191.468ZM274.136 191.336C275.768 191.336 276.932 192.548 276.932 194.252C276.932 195.872 275.684 197.132 274.1 197.132C272.456 197.132 271.304 195.932 271.304 194.228C271.304 192.512 272.456 191.336 274.136 191.336ZM274.136 192.176C272.996 192.176 272.24 193.004 272.24 194.24C272.24 195.464 272.996 196.292 274.124 196.292C275.216 196.292 275.996 195.44 275.996 194.24C275.996 193.004 275.252 192.176 274.136 192.176ZM281.538 191.468H282.462V195.008C282.462 195.764 282.318 196.184 281.91 196.556C281.502 196.928 280.938 197.132 280.314 197.132C279.69 197.132 279.114 196.916 278.718 196.544C278.346 196.184 278.166 195.68 278.166 195.008V191.468H279.078V194.984C279.078 195.764 279.582 196.316 280.314 196.316C280.698 196.316 281.07 196.16 281.298 195.896C281.478 195.68 281.538 195.452 281.538 195.008V191.468ZM288.274 192.416V191.468H289.186V197.036C289.186 197.96 288.958 198.584 288.454 199.064C287.962 199.544 287.254 199.796 286.414 199.796C285.382 199.796 284.566 199.46 283.966 198.788L284.59 198.164C284.842 198.428 284.962 198.536 285.118 198.644C285.43 198.836 285.946 198.968 286.414 198.968C286.99 198.968 287.542 198.764 287.854 198.428C288.13 198.128 288.274 197.684 288.274 197.108V195.944C287.734 196.76 287.098 197.132 286.234 197.132C284.77 197.132 283.678 195.896 283.678 194.252C283.678 193.364 284.002 192.512 284.554 191.984C284.998 191.552 285.598 191.336 286.306 191.336C287.146 191.336 287.71 191.648 288.274 192.416ZM286.474 192.176C285.394 192.176 284.638 193.016 284.638 194.216C284.638 195.404 285.406 196.292 286.45 196.292C286.978 196.292 287.494 196.04 287.854 195.62C288.094 195.344 288.25 194.804 288.25 194.252C288.25 193.532 288.142 193.148 287.818 192.788C287.482 192.416 286.966 192.176 286.474 192.176ZM291.844 188.996V192.236C292.348 191.612 292.852 191.336 293.512 191.336C293.992 191.336 294.496 191.528 294.796 191.84C295.096 192.14 295.228 192.572 295.228 193.28V197H294.316V193.328C294.316 192.572 293.944 192.152 293.284 192.152C292.864 192.152 292.492 192.32 292.204 192.644C291.928 192.956 291.844 193.232 291.844 193.76V197H290.932V188.996H291.844ZM304.367 195.692L304.931 196.316C304.307 196.88 303.695 197.132 302.891 197.132C301.307 197.132 300.179 195.932 300.179 194.252C300.179 192.536 301.319 191.336 302.939 191.336C303.731 191.336 304.379 191.6 304.955 192.164L304.367 192.752C303.947 192.368 303.479 192.176 302.963 192.176C301.871 192.176 301.115 193.016 301.115 194.216C301.115 195.44 301.871 196.292 302.951 196.292C303.491 196.292 303.923 196.112 304.367 195.692ZM308.296 191.336C309.928 191.336 311.092 192.548 311.092 194.252C311.092 195.872 309.844 197.132 308.26 197.132C306.616 197.132 305.464 195.932 305.464 194.228C305.464 192.512 306.616 191.336 308.296 191.336ZM308.296 192.176C307.156 192.176 306.4 193.004 306.4 194.24C306.4 195.464 307.156 196.292 308.284 196.292C309.376 196.292 310.156 195.44 310.156 194.24C310.156 193.004 309.412 192.176 308.296 192.176ZM312.482 191.468H313.394V192.236C313.814 191.6 314.282 191.336 314.966 191.336C315.722 191.336 316.202 191.66 316.454 192.344C316.862 191.636 317.378 191.336 318.206 191.336C318.842 191.336 319.322 191.54 319.61 191.924C319.874 192.272 319.946 192.584 319.946 193.46V197H319.034V193.676C319.034 193.004 319.01 192.848 318.878 192.62C318.71 192.332 318.35 192.152 317.918 192.152C317.114 192.152 316.67 192.692 316.67 193.676V197H315.758V193.688C315.758 193.148 315.71 192.872 315.578 192.632C315.422 192.32 315.086 192.152 314.678 192.152C313.874 192.152 313.394 192.728 313.394 193.688V197H312.482V191.468ZM321.658 191.468H322.57V192.476C323.098 191.66 323.662 191.336 324.586 191.336C326.122 191.336 327.19 192.512 327.19 194.192C327.19 195.932 326.122 197.132 324.586 197.132C324.154 197.132 323.758 197.036 323.374 196.844C323.038 196.676 322.87 196.532 322.57 196.136V199.592H321.658V191.468ZM324.43 192.152C323.326 192.152 322.57 193.028 322.57 194.324C322.57 195.536 323.302 196.34 324.394 196.34C325.486 196.34 326.218 195.488 326.218 194.228C326.218 193.58 326.062 193.088 325.738 192.728C325.414 192.368 324.922 192.152 324.43 192.152ZM329.484 197H328.572V188.996H329.484V197ZM336.45 194.528H331.842C331.89 194.996 331.974 195.236 332.202 195.536C332.562 196.028 333.09 196.292 333.69 196.292C334.374 196.292 335.022 195.92 335.346 195.344L336.15 195.644C335.694 196.568 334.746 197.132 333.69 197.132C332.046 197.132 330.87 195.932 330.87 194.252C330.87 192.548 332.034 191.336 333.654 191.336C335.262 191.336 336.462 192.548 336.462 194.168C336.462 194.24 336.462 194.396 336.45 194.528ZM331.854 193.856H335.49C335.454 193.424 335.37 193.184 335.178 192.908C334.83 192.44 334.266 192.152 333.654 192.152C333.042 192.152 332.49 192.44 332.166 192.92C331.998 193.184 331.926 193.412 331.854 193.856ZM339.371 194.996L337.895 197H336.779L338.819 194.252L336.743 191.468H337.895L339.371 193.496L340.883 191.468H341.999L339.911 194.252L341.903 197H340.787L339.371 194.996ZM343.875 191.468V197H342.963V191.468H343.875ZM343.431 189.32C343.755 189.32 344.007 189.584 344.007 189.92C344.007 190.244 343.743 190.496 343.419 190.496C343.095 190.496 342.843 190.244 342.843 189.908C342.843 189.572 343.095 189.32 343.431 189.32ZM346.677 192.272V195.872C346.689 196.148 346.761 196.208 347.097 196.208H347.517V197H346.665C346.017 196.988 345.765 196.748 345.765 196.136V192.272H344.997V191.468H345.765V189.728H346.677V191.468H347.517V192.272H346.677ZM350.618 195.572L352.274 191.468H353.27L349.97 199.664H348.974L350.126 196.832L348.158 191.468H349.13L350.618 195.572ZM354.79 196.064L353.578 198.908L352.918 198.704L353.926 195.788L354.79 196.064ZM224.884 208.272V211.872C224.896 212.148 224.968 212.208 225.304 212.208H225.724V213H224.872C224.224 212.988 223.972 212.748 223.972 212.136V208.272H223.204V207.468H223.972V205.728H224.884V207.468H225.724V208.272H224.884ZM226.982 207.468H227.894V208.404C228.062 208.008 228.182 207.84 228.398 207.672C228.674 207.456 229.058 207.336 229.454 207.336H229.67V208.26C229.574 208.248 229.478 208.248 229.418 208.248C228.926 208.248 228.494 208.476 228.218 208.884C227.978 209.232 227.894 209.556 227.894 210.192V213H226.982V207.468ZM234.791 208.38V207.468H235.703V213H234.791V211.932C234.239 212.76 233.615 213.132 232.775 213.132C231.251 213.132 230.171 211.932 230.171 210.252C230.171 208.56 231.275 207.336 232.799 207.336C233.639 207.336 234.251 207.66 234.791 208.38ZM232.931 208.152C232.331 208.152 231.911 208.356 231.587 208.812C231.299 209.208 231.131 209.736 231.131 210.276C231.131 211.452 231.899 212.34 232.907 212.34C233.951 212.34 234.803 211.368 234.803 210.18C234.803 208.98 234.035 208.152 232.931 208.152ZM237.541 207.468H238.453V208.248C238.933 207.6 239.413 207.336 240.097 207.336C240.601 207.336 241.057 207.504 241.381 207.792C241.729 208.128 241.849 208.512 241.849 209.268V213H240.937V209.472C240.937 208.98 240.877 208.716 240.733 208.524C240.565 208.296 240.241 208.152 239.869 208.152C239.461 208.152 239.089 208.308 238.813 208.62C238.549 208.908 238.453 209.172 238.453 209.628V213H237.541V207.468ZM247.114 208.98H246.202V208.92C246.202 208.404 245.782 208.08 245.146 208.08C244.534 208.08 244.15 208.392 244.15 208.872C244.15 209.352 244.39 209.532 245.386 209.808C246.094 210 246.466 210.18 246.73 210.444C247.006 210.72 247.174 211.116 247.174 211.524C247.174 212.484 246.382 213.132 245.206 213.132C243.946 213.132 243.238 212.544 243.142 211.428H244.042C244.102 212.052 244.51 212.388 245.206 212.388C245.83 212.388 246.238 212.064 246.238 211.572C246.238 211.092 245.926 210.852 244.978 210.612C243.778 210.288 243.238 209.784 243.238 208.944C243.238 207.984 244.018 207.336 245.182 207.336C246.358 207.336 247.066 207.936 247.114 208.98ZM249.492 213H248.58V204.996H249.492V213ZM255.498 208.38V207.468H256.41V213H255.498V211.932C254.946 212.76 254.322 213.132 253.482 213.132C251.958 213.132 250.878 211.932 250.878 210.252C250.878 208.56 251.982 207.336 253.506 207.336C254.346 207.336 254.958 207.66 255.498 208.38ZM253.638 208.152C253.038 208.152 252.618 208.356 252.294 208.812C252.006 209.208 251.838 209.736 251.838 210.276C251.838 211.452 252.606 212.34 253.614 212.34C254.658 212.34 255.51 211.368 255.51 210.18C255.51 208.98 254.742 208.152 253.638 208.152ZM259.185 208.272V211.872C259.197 212.148 259.269 212.208 259.605 212.208H260.025V213H259.173C258.525 212.988 258.273 212.748 258.273 212.136V208.272H257.505V207.468H258.273V205.728H259.185V207.468H260.025V208.272H259.185ZM262.148 207.468V213H261.236V207.468H262.148ZM261.704 205.32C262.028 205.32 262.28 205.584 262.28 205.92C262.28 206.244 262.016 206.496 261.692 206.496C261.368 206.496 261.116 206.244 261.116 205.908C261.116 205.572 261.368 205.32 261.704 205.32ZM263.978 207.468H264.89V208.248C265.37 207.6 265.85 207.336 266.534 207.336C267.038 207.336 267.494 207.504 267.818 207.792C268.166 208.128 268.286 208.512 268.286 209.268V213H267.374V209.472C267.374 208.98 267.314 208.716 267.17 208.524C267.002 208.296 266.678 208.152 266.306 208.152C265.898 208.152 265.526 208.308 265.25 208.62C264.986 208.908 264.89 209.172 264.89 209.628V213H263.978V207.468ZM274.152 208.416V207.468H275.064V213.036C275.064 213.96 274.836 214.584 274.332 215.064C273.84 215.544 273.132 215.796 272.292 215.796C271.26 215.796 270.444 215.46 269.844 214.788L270.468 214.164C270.72 214.428 270.84 214.536 270.996 214.644C271.308 214.836 271.824 214.968 272.292 214.968C272.868 214.968 273.42 214.764 273.732 214.428C274.008 214.128 274.152 213.684 274.152 213.108V211.944C273.612 212.76 272.976 213.132 272.112 213.132C270.648 213.132 269.556 211.896 269.556 210.252C269.556 209.364 269.88 208.512 270.432 207.984C270.876 207.552 271.476 207.336 272.184 207.336C273.024 207.336 273.588 207.648 274.152 208.416ZM272.352 208.176C271.272 208.176 270.516 209.016 270.516 210.216C270.516 211.404 271.284 212.292 272.328 212.292C272.856 212.292 273.372 212.04 273.732 211.62C273.972 211.344 274.128 210.804 274.128 210.252C274.128 209.532 274.02 209.148 273.696 208.788C273.36 208.416 272.844 208.176 272.352 208.176ZM281.414 207.468V213H280.502V207.468H281.414ZM280.97 205.32C281.294 205.32 281.546 205.584 281.546 205.92C281.546 206.244 281.282 206.496 280.958 206.496C280.634 206.496 280.382 206.244 280.382 205.908C280.382 205.572 280.634 205.32 280.97 205.32ZM283.244 207.468H284.156V208.248C284.636 207.6 285.116 207.336 285.8 207.336C286.304 207.336 286.76 207.504 287.084 207.792C287.432 208.128 287.552 208.512 287.552 209.268V213H286.64V209.472C286.64 208.98 286.58 208.716 286.436 208.524C286.268 208.296 285.944 208.152 285.572 208.152C285.164 208.152 284.792 208.308 284.516 208.62C284.252 208.908 284.156 209.172 284.156 209.628V213H283.244V207.468ZM292.818 208.98H291.906V208.92C291.906 208.404 291.486 208.08 290.85 208.08C290.238 208.08 289.854 208.392 289.854 208.872C289.854 209.352 290.094 209.532 291.09 209.808C291.798 210 292.17 210.18 292.434 210.444C292.71 210.72 292.878 211.116 292.878 211.524C292.878 212.484 292.086 213.132 290.91 213.132C289.65 213.132 288.942 212.544 288.846 211.428H289.746C289.806 212.052 290.214 212.388 290.91 212.388C291.534 212.388 291.942 212.064 291.942 211.572C291.942 211.092 291.63 210.852 290.682 210.612C289.482 210.288 288.942 209.784 288.942 208.944C288.942 207.984 289.722 207.336 290.886 207.336C292.062 207.336 292.77 207.936 292.818 208.98ZM295.195 207.468V213H294.283V207.468H295.195ZM294.751 205.32C295.075 205.32 295.327 205.584 295.327 205.92C295.327 206.244 295.063 206.496 294.739 206.496C294.415 206.496 294.163 206.244 294.163 205.908C294.163 205.572 294.415 205.32 294.751 205.32ZM301.106 208.416V207.468H302.018V213.036C302.018 213.96 301.79 214.584 301.286 215.064C300.794 215.544 300.086 215.796 299.246 215.796C298.214 215.796 297.398 215.46 296.798 214.788L297.422 214.164C297.674 214.428 297.794 214.536 297.95 214.644C298.262 214.836 298.778 214.968 299.246 214.968C299.822 214.968 300.374 214.764 300.686 214.428C300.962 214.128 301.106 213.684 301.106 213.108V211.944C300.566 212.76 299.93 213.132 299.066 213.132C297.602 213.132 296.51 211.896 296.51 210.252C296.51 209.364 296.834 208.512 297.386 207.984C297.83 207.552 298.43 207.336 299.138 207.336C299.978 207.336 300.542 207.648 301.106 208.416ZM299.306 208.176C298.226 208.176 297.47 209.016 297.47 210.216C297.47 211.404 298.238 212.292 299.282 212.292C299.81 212.292 300.326 212.04 300.686 211.62C300.926 211.344 301.082 210.804 301.082 210.252C301.082 209.532 300.974 209.148 300.65 208.788C300.314 208.416 299.798 208.176 299.306 208.176ZM304.676 204.996V208.236C305.18 207.612 305.684 207.336 306.344 207.336C306.824 207.336 307.328 207.528 307.628 207.84C307.928 208.14 308.06 208.572 308.06 209.28V213H307.148V209.328C307.148 208.572 306.776 208.152 306.116 208.152C305.696 208.152 305.324 208.32 305.036 208.644C304.76 208.956 304.676 209.232 304.676 209.76V213H303.764V204.996H304.676ZM310.829 208.272V211.872C310.841 212.148 310.913 212.208 311.249 212.208H311.669V213H310.817C310.169 212.988 309.917 212.748 309.917 212.136V208.272H309.149V207.468H309.917V205.728H310.829V207.468H311.669V208.272H310.829ZM316.431 208.98H315.519V208.92C315.519 208.404 315.099 208.08 314.463 208.08C313.851 208.08 313.467 208.392 313.467 208.872C313.467 209.352 313.707 209.532 314.703 209.808C315.411 210 315.783 210.18 316.047 210.444C316.323 210.72 316.491 211.116 316.491 211.524C316.491 212.484 315.699 213.132 314.523 213.132C313.263 213.132 312.555 212.544 312.459 211.428H313.359C313.419 212.052 313.827 212.388 314.523 212.388C315.147 212.388 315.555 212.064 315.555 211.572C315.555 211.092 315.243 210.852 314.295 210.612C313.095 210.288 312.555 209.784 312.555 208.944C312.555 207.984 313.335 207.336 314.499 207.336C315.675 207.336 316.383 207.936 316.431 208.98ZM322.406 207.468V213H321.494V207.468H322.406ZM321.962 205.32C322.286 205.32 322.538 205.584 322.538 205.92C322.538 206.244 322.274 206.496 321.95 206.496C321.626 206.496 321.374 206.244 321.374 205.908C321.374 205.572 321.626 205.32 321.962 205.32ZM324.236 207.468H325.148V208.248C325.628 207.6 326.108 207.336 326.792 207.336C327.296 207.336 327.752 207.504 328.076 207.792C328.424 208.128 328.544 208.512 328.544 209.268V213H327.632V209.472C327.632 208.98 327.572 208.716 327.428 208.524C327.26 208.296 326.936 208.152 326.564 208.152C326.156 208.152 325.784 208.308 325.508 208.62C325.244 208.908 325.148 209.172 325.148 209.628V213H324.236V207.468ZM331.314 208.272V211.872C331.326 212.148 331.398 212.208 331.734 212.208H332.154V213H331.302C330.654 212.988 330.402 212.748 330.402 212.136V208.272H329.634V207.468H330.402V205.728H331.314V207.468H332.154V208.272H331.314ZM335.73 207.336C337.362 207.336 338.526 208.548 338.526 210.252C338.526 211.872 337.278 213.132 335.694 213.132C334.05 213.132 332.898 211.932 332.898 210.228C332.898 208.512 334.05 207.336 335.73 207.336ZM335.73 208.176C334.59 208.176 333.834 209.004 333.834 210.24C333.834 211.464 334.59 212.292 335.718 212.292C336.81 212.292 337.59 211.44 337.59 210.24C337.59 209.004 336.846 208.176 335.73 208.176ZM228.088 224.38V223.468H229V229H228.088V227.932C227.536 228.76 226.912 229.132 226.072 229.132C224.548 229.132 223.468 227.932 223.468 226.252C223.468 224.56 224.572 223.336 226.096 223.336C226.936 223.336 227.548 223.66 228.088 224.38ZM226.228 224.152C225.628 224.152 225.208 224.356 224.884 224.812C224.596 225.208 224.428 225.736 224.428 226.276C224.428 227.452 225.196 228.34 226.204 228.34C227.248 228.34 228.1 227.368 228.1 226.18C228.1 224.98 227.332 224.152 226.228 224.152ZM234.582 227.692L235.146 228.316C234.522 228.88 233.91 229.132 233.106 229.132C231.522 229.132 230.394 227.932 230.394 226.252C230.394 224.536 231.534 223.336 233.154 223.336C233.946 223.336 234.594 223.6 235.17 224.164L234.582 224.752C234.162 224.368 233.694 224.176 233.178 224.176C232.086 224.176 231.33 225.016 231.33 226.216C231.33 227.44 232.086 228.292 233.166 228.292C233.706 228.292 234.138 228.112 234.582 227.692ZM237.493 224.272V227.872C237.505 228.148 237.577 228.208 237.913 228.208H238.333V229H237.481C236.833 228.988 236.581 228.748 236.581 228.136V224.272H235.813V223.468H236.581V221.728H237.493V223.468H238.333V224.272H237.493ZM240.457 223.468V229H239.545V223.468H240.457ZM240.013 221.32C240.337 221.32 240.589 221.584 240.589 221.92C240.589 222.244 240.325 222.496 240.001 222.496C239.677 222.496 239.425 222.244 239.425 221.908C239.425 221.572 239.677 221.32 240.013 221.32ZM244.675 223.336C246.307 223.336 247.471 224.548 247.471 226.252C247.471 227.872 246.223 229.132 244.639 229.132C242.995 229.132 241.843 227.932 241.843 226.228C241.843 224.512 242.995 223.336 244.675 223.336ZM244.675 224.176C243.535 224.176 242.779 225.004 242.779 226.24C242.779 227.464 243.535 228.292 244.663 228.292C245.755 228.292 246.535 227.44 246.535 226.24C246.535 225.004 245.791 224.176 244.675 224.176ZM248.861 223.468H249.773V224.248C250.253 223.6 250.733 223.336 251.417 223.336C251.921 223.336 252.377 223.504 252.701 223.792C253.049 224.128 253.169 224.512 253.169 225.268V229H252.257V225.472C252.257 224.98 252.197 224.716 252.053 224.524C251.885 224.296 251.561 224.152 251.189 224.152C250.781 224.152 250.409 224.308 250.133 224.62C249.869 224.908 249.773 225.172 249.773 225.628V229H248.861V223.468ZM259.143 224.38V223.468H260.055V229H259.143V227.932C258.591 228.76 257.967 229.132 257.127 229.132C255.603 229.132 254.523 227.932 254.523 226.252C254.523 224.56 255.627 223.336 257.151 223.336C257.991 223.336 258.603 223.66 259.143 224.38ZM257.283 224.152C256.683 224.152 256.263 224.356 255.939 224.812C255.651 225.208 255.483 225.736 255.483 226.276C255.483 227.452 256.251 228.34 257.259 228.34C258.303 228.34 259.155 227.368 259.155 226.18C259.155 224.98 258.387 224.152 257.283 224.152ZM262.804 228.052V229H261.892V220.996H262.804V224.416C263.356 223.66 263.944 223.336 264.748 223.336C266.296 223.336 267.376 224.536 267.376 226.252C267.376 227.944 266.308 229.132 264.796 229.132C263.944 229.132 263.344 228.808 262.804 228.052ZM264.628 224.152C263.572 224.152 262.792 225.028 262.792 226.24C262.792 227.5 263.512 228.34 264.592 228.34C265.684 228.34 266.416 227.512 266.416 226.276C266.416 225.04 265.672 224.152 264.628 224.152ZM269.683 229H268.771V220.996H269.683V229ZM276.65 226.528H272.042C272.09 226.996 272.174 227.236 272.402 227.536C272.762 228.028 273.29 228.292 273.89 228.292C274.574 228.292 275.222 227.92 275.546 227.344L276.35 227.644C275.894 228.568 274.946 229.132 273.89 229.132C272.246 229.132 271.07 227.932 271.07 226.252C271.07 224.548 272.234 223.336 273.854 223.336C275.462 223.336 276.662 224.548 276.662 226.168C276.662 226.24 276.662 226.396 276.65 226.528ZM272.054 225.856H275.69C275.654 225.424 275.57 225.184 275.378 224.908C275.03 224.44 274.466 224.152 273.854 224.152C273.242 224.152 272.69 224.44 272.366 224.92C272.198 225.184 272.126 225.412 272.054 225.856ZM285.048 224.98H284.136V224.92C284.136 224.404 283.716 224.08 283.08 224.08C282.468 224.08 282.084 224.392 282.084 224.872C282.084 225.352 282.324 225.532 283.32 225.808C284.028 226 284.4 226.18 284.664 226.444C284.94 226.72 285.108 227.116 285.108 227.524C285.108 228.484 284.316 229.132 283.14 229.132C281.88 229.132 281.172 228.544 281.076 227.428H281.976C282.036 228.052 282.444 228.388 283.14 228.388C283.764 228.388 284.172 228.064 284.172 227.572C284.172 227.092 283.86 226.852 282.912 226.612C281.712 226.288 281.172 225.784 281.172 224.944C281.172 223.984 281.952 223.336 283.116 223.336C284.292 223.336 285 223.936 285.048 224.98ZM288.902 223.336C290.534 223.336 291.698 224.548 291.698 226.252C291.698 227.872 290.45 229.132 288.866 229.132C287.222 229.132 286.07 227.932 286.07 226.228C286.07 224.512 287.222 223.336 288.902 223.336ZM288.902 224.176C287.762 224.176 287.006 225.004 287.006 226.24C287.006 227.464 287.762 228.292 288.89 228.292C289.982 228.292 290.762 227.44 290.762 226.24C290.762 225.004 290.018 224.176 288.902 224.176ZM294 229H293.088V220.996H294V229ZM299.046 223.468H299.97V227.008C299.97 227.764 299.826 228.184 299.418 228.556C299.01 228.928 298.446 229.132 297.822 229.132C297.198 229.132 296.622 228.916 296.226 228.544C295.854 228.184 295.674 227.68 295.674 227.008V223.468H296.586V226.984C296.586 227.764 297.09 228.316 297.822 228.316C298.206 228.316 298.578 228.16 298.806 227.896C298.986 227.68 299.046 227.452 299.046 227.008V223.468ZM302.626 224.272V227.872C302.638 228.148 302.71 228.208 303.046 228.208H303.466V229H302.614C301.966 228.988 301.714 228.748 301.714 228.136V224.272H300.946V223.468H301.714V221.728H302.626V223.468H303.466V224.272H302.626ZM305.59 223.468V229H304.678V223.468H305.59ZM305.146 221.32C305.47 221.32 305.722 221.584 305.722 221.92C305.722 222.244 305.458 222.496 305.134 222.496C304.81 222.496 304.558 222.244 304.558 221.908C304.558 221.572 304.81 221.32 305.146 221.32ZM309.808 223.336C311.44 223.336 312.604 224.548 312.604 226.252C312.604 227.872 311.356 229.132 309.772 229.132C308.128 229.132 306.976 227.932 306.976 226.228C306.976 224.512 308.128 223.336 309.808 223.336ZM309.808 224.176C308.668 224.176 307.912 225.004 307.912 226.24C307.912 227.464 308.668 228.292 309.796 228.292C310.888 228.292 311.668 227.44 311.668 226.24C311.668 225.004 310.924 224.176 309.808 224.176ZM313.994 223.468H314.906V224.248C315.386 223.6 315.866 223.336 316.55 223.336C317.054 223.336 317.51 223.504 317.834 223.792C318.182 224.128 318.302 224.512 318.302 225.268V229H317.39V225.472C317.39 224.98 317.33 224.716 317.186 224.524C317.018 224.296 316.694 224.152 316.322 224.152C315.914 224.152 315.542 224.308 315.266 224.62C315.002 224.908 314.906 225.172 314.906 225.628V229H313.994V223.468ZM323.568 224.98H322.656V224.92C322.656 224.404 322.236 224.08 321.6 224.08C320.988 224.08 320.604 224.392 320.604 224.872C320.604 225.352 320.844 225.532 321.84 225.808C322.548 226 322.92 226.18 323.184 226.444C323.46 226.72 323.628 227.116 323.628 227.524C323.628 228.484 322.836 229.132 321.66 229.132C320.4 229.132 319.692 228.544 319.596 227.428H320.496C320.556 228.052 320.964 228.388 321.66 228.388C322.284 228.388 322.692 228.064 322.692 227.572C322.692 227.092 322.38 226.852 321.432 226.612C320.232 226.288 319.692 225.784 319.692 224.944C319.692 223.984 320.472 223.336 321.636 223.336C322.812 223.336 323.52 223.936 323.568 224.98ZM325.56 227.848C325.92 227.848 326.184 228.112 326.184 228.484C326.184 228.832 325.908 229.096 325.56 229.096C325.2 229.096 324.936 228.832 324.936 228.472C324.936 228.112 325.2 227.848 325.56 227.848Z" fill="white"/>
<path d="M223.456 315.852H224.416C224.464 316.764 224.956 317.244 225.832 317.244C226.732 317.244 227.368 316.692 227.368 315.888C227.368 315.192 227.008 314.868 225.748 314.448C224.8 314.124 224.488 313.968 224.128 313.644C223.72 313.272 223.504 312.744 223.504 312.132C223.504 310.776 224.476 309.852 225.892 309.852C227.308 309.852 228.232 310.752 228.268 312.144H227.26C227.248 311.736 227.2 311.544 227.068 311.316C226.84 310.968 226.396 310.752 225.88 310.752C225.088 310.752 224.524 311.292 224.524 312.06C224.524 312.444 224.692 312.78 224.98 312.984C225.232 313.164 225.448 313.26 226.264 313.548C227.116 313.848 227.524 314.064 227.848 314.412C228.196 314.784 228.388 315.288 228.388 315.828C228.388 317.208 227.368 318.144 225.868 318.144C224.848 318.144 224.152 317.784 223.732 317.064C223.54 316.74 223.456 316.404 223.456 316.02V315.852ZM230.707 315.528V318H229.795V309.996H230.707V314.892L232.915 312.468H234.067L231.595 315.168L234.055 318H232.915L230.707 315.528ZM235.98 312.468V318H235.068V312.468H235.98ZM235.536 310.32C235.86 310.32 236.112 310.584 236.112 310.92C236.112 311.244 235.848 311.496 235.524 311.496C235.2 311.496 234.948 311.244 234.948 310.908C234.948 310.572 235.2 310.32 235.536 310.32ZM238.722 318H237.81V309.996H238.722V318ZM241.465 318H240.553V309.996H241.465V318ZM248.431 315.528H243.823C243.871 315.996 243.955 316.236 244.183 316.536C244.543 317.028 245.071 317.292 245.671 317.292C246.355 317.292 247.003 316.92 247.327 316.344L248.131 316.644C247.675 317.568 246.727 318.132 245.671 318.132C244.027 318.132 242.851 316.932 242.851 315.252C242.851 313.548 244.015 312.336 245.635 312.336C247.243 312.336 248.443 313.548 248.443 315.168C248.443 315.24 248.443 315.396 248.431 315.528ZM243.835 314.856H247.471C247.435 314.424 247.351 314.184 247.159 313.908C246.811 313.44 246.247 313.152 245.635 313.152C245.023 313.152 244.471 313.44 244.147 313.92C243.979 314.184 243.907 314.412 243.835 314.856ZM253.904 313.308V309.996H254.816V318H253.904V317.052C253.352 317.808 252.764 318.132 251.924 318.132C250.4 318.132 249.32 316.944 249.32 315.264C249.32 313.584 250.424 312.336 251.924 312.336C252.74 312.336 253.364 312.636 253.904 313.308ZM252.116 313.152C251.024 313.152 250.28 314.016 250.28 315.276C250.28 316.488 251.012 317.34 252.056 317.34C253.124 317.34 253.904 316.452 253.904 315.252C253.904 314.004 253.172 313.152 252.116 313.152ZM263.996 316.692L264.56 317.316C263.936 317.88 263.324 318.132 262.52 318.132C260.936 318.132 259.808 316.932 259.808 315.252C259.808 313.536 260.948 312.336 262.568 312.336C263.36 312.336 264.008 312.6 264.584 313.164L263.996 313.752C263.576 313.368 263.108 313.176 262.592 313.176C261.5 313.176 260.744 314.016 260.744 315.216C260.744 316.44 261.5 317.292 262.58 317.292C263.12 317.292 263.552 317.112 263.996 316.692ZM265.736 312.468H266.648V313.404C266.816 313.008 266.936 312.84 267.152 312.672C267.428 312.456 267.812 312.336 268.208 312.336H268.424V313.26C268.328 313.248 268.232 313.248 268.172 313.248C267.68 313.248 267.248 313.476 266.972 313.884C266.732 314.232 266.648 314.556 266.648 315.192V318H265.736V312.468ZM273.545 313.38V312.468H274.457V318H273.545V316.932C272.993 317.76 272.369 318.132 271.529 318.132C270.005 318.132 268.925 316.932 268.925 315.252C268.925 313.56 270.029 312.336 271.553 312.336C272.393 312.336 273.005 312.66 273.545 313.38ZM271.685 313.152C271.085 313.152 270.665 313.356 270.341 313.812C270.053 314.208 269.885 314.736 269.885 315.276C269.885 316.452 270.653 317.34 271.661 317.34C272.705 317.34 273.557 316.368 273.557 315.18C273.557 313.98 272.789 313.152 271.685 313.152ZM277.303 313.272V318H276.391V313.272H275.635V312.468H276.391V311.724C276.391 310.632 276.955 309.984 277.915 309.984C277.963 309.984 278.071 309.984 278.167 309.996V310.812C277.507 310.884 277.327 311.076 277.303 311.724V312.468H278.167V313.272H277.303ZM280.56 313.272V316.872C280.572 317.148 280.644 317.208 280.98 317.208H281.4V318H280.548C279.9 317.988 279.648 317.748 279.648 317.136V313.272H278.88V312.468H279.648V310.728H280.56V312.468H281.4V313.272H280.56ZM286.161 313.98H285.249V313.92C285.249 313.404 284.829 313.08 284.193 313.08C283.581 313.08 283.197 313.392 283.197 313.872C283.197 314.352 283.437 314.532 284.433 314.808C285.141 315 285.513 315.18 285.777 315.444C286.053 315.72 286.221 316.116 286.221 316.524C286.221 317.484 285.429 318.132 284.253 318.132C282.993 318.132 282.285 317.544 282.189 316.428H283.089C283.149 317.052 283.557 317.388 284.253 317.388C284.877 317.388 285.285 317.064 285.285 316.572C285.285 316.092 284.973 315.852 284.025 315.612C282.825 315.288 282.285 314.784 282.285 313.944C282.285 312.984 283.065 312.336 284.229 312.336C285.405 312.336 286.113 312.936 286.161 313.98ZM287.58 312.468H288.492V313.476C289.02 312.66 289.584 312.336 290.508 312.336C292.044 312.336 293.112 313.512 293.112 315.192C293.112 316.932 292.044 318.132 290.508 318.132C290.076 318.132 289.68 318.036 289.296 317.844C288.96 317.676 288.792 317.532 288.492 317.136V320.592H287.58V312.468ZM290.352 313.152C289.248 313.152 288.492 314.028 288.492 315.324C288.492 316.536 289.224 317.34 290.316 317.34C291.408 317.34 292.14 316.488 292.14 315.228C292.14 314.58 291.984 314.088 291.66 313.728C291.336 313.368 290.844 313.152 290.352 313.152ZM299.63 315.528H295.022C295.07 315.996 295.154 316.236 295.382 316.536C295.742 317.028 296.27 317.292 296.87 317.292C297.554 317.292 298.202 316.92 298.526 316.344L299.33 316.644C298.874 317.568 297.926 318.132 296.87 318.132C295.226 318.132 294.05 316.932 294.05 315.252C294.05 313.548 295.214 312.336 296.834 312.336C298.442 312.336 299.642 313.548 299.642 315.168C299.642 315.24 299.642 315.396 299.63 315.528ZM295.034 314.856H298.67C298.634 314.424 298.55 314.184 298.358 313.908C298.01 313.44 297.446 313.152 296.834 313.152C296.222 313.152 295.67 313.44 295.346 313.92C295.178 314.184 295.106 314.412 295.034 314.856ZM303.351 312.336C304.983 312.336 306.147 313.548 306.147 315.252C306.147 316.872 304.899 318.132 303.315 318.132C301.671 318.132 300.519 316.932 300.519 315.228C300.519 313.512 301.671 312.336 303.351 312.336ZM303.351 313.176C302.211 313.176 301.455 314.004 301.455 315.24C301.455 316.464 302.211 317.292 303.339 317.292C304.431 317.292 305.211 316.44 305.211 315.24C305.211 314.004 304.467 313.176 303.351 313.176ZM307.537 312.468H308.449V313.476C308.977 312.66 309.541 312.336 310.465 312.336C312.001 312.336 313.069 313.512 313.069 315.192C313.069 316.932 312.001 318.132 310.465 318.132C310.033 318.132 309.637 318.036 309.253 317.844C308.917 317.676 308.749 317.532 308.449 317.136V320.592H307.537V312.468ZM310.309 313.152C309.205 313.152 308.449 314.028 308.449 315.324C308.449 316.536 309.181 317.34 310.273 317.34C311.365 317.34 312.097 316.488 312.097 315.228C312.097 314.58 311.941 314.088 311.617 313.728C311.293 313.368 310.801 313.152 310.309 313.152ZM315.363 318H314.451V309.996H315.363V318ZM322.329 315.528H317.721C317.769 315.996 317.853 316.236 318.081 316.536C318.441 317.028 318.969 317.292 319.569 317.292C320.253 317.292 320.901 316.92 321.225 316.344L322.029 316.644C321.573 317.568 320.625 318.132 319.569 318.132C317.925 318.132 316.749 316.932 316.749 315.252C316.749 313.548 317.913 312.336 319.533 312.336C321.141 312.336 322.341 313.548 322.341 315.168C322.341 315.24 322.341 315.396 322.329 315.528ZM317.733 314.856H321.369C321.333 314.424 321.249 314.184 321.057 313.908C320.709 313.44 320.145 313.152 319.533 313.152C318.921 313.152 318.369 313.44 318.045 313.92C317.877 314.184 317.805 314.412 317.733 314.856ZM333.644 312.468H334.58L332.612 318H331.784L330.512 313.8L329.18 318H328.316L326.42 312.468H327.356L328.772 316.536L330.044 312.468H330.944L332.192 316.536L333.644 312.468ZM336.48 309.996V313.236C336.984 312.612 337.488 312.336 338.148 312.336C338.628 312.336 339.132 312.528 339.432 312.84C339.732 313.14 339.864 313.572 339.864 314.28V318H338.952V314.328C338.952 313.572 338.58 313.152 337.92 313.152C337.5 313.152 337.128 313.32 336.84 313.644C336.564 313.956 336.48 314.232 336.48 314.76V318H335.568V309.996H336.48ZM344.05 312.336C345.682 312.336 346.846 313.548 346.846 315.252C346.846 316.872 345.598 318.132 344.014 318.132C342.37 318.132 341.218 316.932 341.218 315.228C341.218 313.512 342.37 312.336 344.05 312.336ZM344.05 313.176C342.91 313.176 342.154 314.004 342.154 315.24C342.154 316.464 342.91 317.292 344.038 317.292C345.13 317.292 345.91 316.44 345.91 315.24C345.91 314.004 345.166 313.176 344.05 313.176ZM224.824 328.468V334H223.912V328.468H224.824ZM224.38 326.32C224.704 326.32 224.956 326.584 224.956 326.92C224.956 327.244 224.692 327.496 224.368 327.496C224.044 327.496 223.792 327.244 223.792 326.908C223.792 326.572 224.044 326.32 224.38 326.32ZM226.654 328.468H227.566V329.236C227.986 328.6 228.454 328.336 229.138 328.336C229.894 328.336 230.374 328.66 230.626 329.344C231.034 328.636 231.55 328.336 232.378 328.336C233.014 328.336 233.494 328.54 233.782 328.924C234.046 329.272 234.118 329.584 234.118 330.46V334H233.206V330.676C233.206 330.004 233.182 329.848 233.05 329.62C232.882 329.332 232.522 329.152 232.09 329.152C231.286 329.152 230.842 329.692 230.842 330.676V334H229.93V330.688C229.93 330.148 229.882 329.872 229.75 329.632C229.594 329.32 229.258 329.152 228.85 329.152C228.046 329.152 227.566 329.728 227.566 330.688V334H226.654V328.468ZM235.83 328.468H236.742V329.476C237.27 328.66 237.834 328.336 238.758 328.336C240.294 328.336 241.362 329.512 241.362 331.192C241.362 332.932 240.294 334.132 238.758 334.132C238.326 334.132 237.93 334.036 237.546 333.844C237.21 333.676 237.042 333.532 236.742 333.136V336.592H235.83V328.468ZM238.602 329.152C237.498 329.152 236.742 330.028 236.742 331.324C236.742 332.536 237.474 333.34 238.566 333.34C239.658 333.34 240.39 332.488 240.39 331.228C240.39 330.58 240.234 330.088 239.91 329.728C239.586 329.368 239.094 329.152 238.602 329.152ZM243.656 334H242.744V325.996H243.656V334ZM250.622 331.528H246.014C246.062 331.996 246.146 332.236 246.374 332.536C246.734 333.028 247.262 333.292 247.862 333.292C248.546 333.292 249.194 332.92 249.518 332.344L250.322 332.644C249.866 333.568 248.918 334.132 247.862 334.132C246.218 334.132 245.042 332.932 245.042 331.252C245.042 329.548 246.206 328.336 247.826 328.336C249.434 328.336 250.634 329.548 250.634 331.168C250.634 331.24 250.634 331.396 250.622 331.528ZM246.026 330.856H249.662C249.626 330.424 249.542 330.184 249.35 329.908C249.002 329.44 248.438 329.152 247.826 329.152C247.214 329.152 246.662 329.44 246.338 329.92C246.17 330.184 246.098 330.412 246.026 330.856ZM251.955 328.468H252.867V329.236C253.287 328.6 253.755 328.336 254.439 328.336C255.195 328.336 255.675 328.66 255.927 329.344C256.335 328.636 256.851 328.336 257.679 328.336C258.315 328.336 258.795 328.54 259.083 328.924C259.347 329.272 259.419 329.584 259.419 330.46V334H258.507V330.676C258.507 330.004 258.483 329.848 258.351 329.62C258.183 329.332 257.823 329.152 257.391 329.152C256.587 329.152 256.143 329.692 256.143 330.676V334H255.231V330.688C255.231 330.148 255.183 329.872 255.051 329.632C254.895 329.32 254.559 329.152 254.151 329.152C253.347 329.152 252.867 329.728 252.867 330.688V334H251.955V328.468ZM266.361 331.528H261.753C261.801 331.996 261.885 332.236 262.113 332.536C262.473 333.028 263.001 333.292 263.601 333.292C264.285 333.292 264.933 332.92 265.257 332.344L266.061 332.644C265.605 333.568 264.657 334.132 263.601 334.132C261.957 334.132 260.781 332.932 260.781 331.252C260.781 329.548 261.945 328.336 263.565 328.336C265.173 328.336 266.372 329.548 266.372 331.168C266.372 331.24 266.372 331.396 266.361 331.528ZM261.765 330.856H265.401C265.365 330.424 265.281 330.184 265.089 329.908C264.741 329.44 264.177 329.152 263.565 329.152C262.953 329.152 262.401 329.44 262.076 329.92C261.909 330.184 261.837 330.412 261.765 330.856ZM267.693 328.468H268.605V329.248C269.085 328.6 269.565 328.336 270.249 328.336C270.753 328.336 271.209 328.504 271.533 328.792C271.881 329.128 272.001 329.512 272.001 330.268V334H271.089V330.472C271.089 329.98 271.029 329.716 270.885 329.524C270.717 329.296 270.393 329.152 270.021 329.152C269.613 329.152 269.241 329.308 268.965 329.62C268.701 329.908 268.605 330.172 268.605 330.628V334H267.693V328.468ZM274.771 329.272V332.872C274.783 333.148 274.855 333.208 275.191 333.208H275.611V334H274.759C274.111 333.988 273.859 333.748 273.859 333.136V329.272H273.091V328.468H273.859V326.728H274.771V328.468H275.611V329.272H274.771ZM283.97 329.98H283.058V329.92C283.058 329.404 282.638 329.08 282.002 329.08C281.39 329.08 281.006 329.392 281.006 329.872C281.006 330.352 281.246 330.532 282.242 330.808C282.95 331 283.322 331.18 283.586 331.444C283.862 331.72 284.03 332.116 284.03 332.524C284.03 333.484 283.238 334.132 282.062 334.132C280.802 334.132 280.094 333.544 279.998 332.428H280.898C280.958 333.052 281.366 333.388 282.062 333.388C282.686 333.388 283.094 333.064 283.094 332.572C283.094 332.092 282.782 331.852 281.834 331.612C280.634 331.288 280.094 330.784 280.094 329.944C280.094 328.984 280.874 328.336 282.038 328.336C283.214 328.336 283.922 328.936 283.97 329.98ZM286.407 329.272V332.872C286.419 333.148 286.491 333.208 286.827 333.208H287.247V334H286.395C285.747 333.988 285.495 333.748 285.495 333.136V329.272H284.727V328.468H285.495V326.728H286.407V328.468H287.247V329.272H286.407ZM288.506 328.468H289.418V329.404C289.586 329.008 289.706 328.84 289.922 328.672C290.198 328.456 290.582 328.336 290.978 328.336H291.194V329.26C291.098 329.248 291.002 329.248 290.942 329.248C290.45 329.248 290.018 329.476 289.742 329.884C289.502 330.232 289.418 330.556 289.418 331.192V334H288.506V328.468ZM296.315 329.38V328.468H297.227V334H296.315V332.932C295.763 333.76 295.139 334.132 294.299 334.132C292.775 334.132 291.695 332.932 291.695 331.252C291.695 329.56 292.799 328.336 294.323 328.336C295.163 328.336 295.775 328.66 296.315 329.38ZM294.455 329.152C293.855 329.152 293.435 329.356 293.111 329.812C292.823 330.208 292.655 330.736 292.655 331.276C292.655 332.452 293.423 333.34 294.431 333.34C295.475 333.34 296.327 332.368 296.327 331.18C296.327 329.98 295.559 329.152 294.455 329.152ZM300.001 329.272V332.872C300.013 333.148 300.085 333.208 300.421 333.208H300.841V334H299.989C299.341 333.988 299.089 333.748 299.089 333.136V329.272H298.321V328.468H299.089V326.728H300.001V328.468H300.841V329.272H300.001ZM307.165 331.528H302.557C302.605 331.996 302.689 332.236 302.917 332.536C303.277 333.028 303.805 333.292 304.405 333.292C305.089 333.292 305.737 332.92 306.061 332.344L306.865 332.644C306.409 333.568 305.461 334.132 304.405 334.132C302.761 334.132 301.585 332.932 301.585 331.252C301.585 329.548 302.749 328.336 304.369 328.336C305.977 328.336 307.177 329.548 307.177 331.168C307.177 331.24 307.177 331.396 307.165 331.528ZM302.569 330.856H306.205C306.169 330.424 306.085 330.184 305.893 329.908C305.545 329.44 304.981 329.152 304.369 329.152C303.757 329.152 303.205 329.44 302.881 329.92C302.713 330.184 302.641 330.412 302.569 330.856ZM312.637 329.416V328.468H313.549V334.036C313.549 334.96 313.321 335.584 312.817 336.064C312.325 336.544 311.617 336.796 310.777 336.796C309.745 336.796 308.929 336.46 308.329 335.788L308.953 335.164C309.205 335.428 309.325 335.536 309.481 335.644C309.793 335.836 310.309 335.968 310.777 335.968C311.353 335.968 311.905 335.764 312.217 335.428C312.493 335.128 312.637 334.684 312.637 334.108V332.944C312.097 333.76 311.461 334.132 310.597 334.132C309.133 334.132 308.041 332.896 308.041 331.252C308.041 330.364 308.365 329.512 308.917 328.984C309.361 328.552 309.961 328.336 310.669 328.336C311.509 328.336 312.073 328.648 312.637 329.416ZM310.837 329.176C309.757 329.176 309.001 330.016 309.001 331.216C309.001 332.404 309.769 333.292 310.813 333.292C311.341 333.292 311.857 333.04 312.217 332.62C312.457 332.344 312.613 331.804 312.613 331.252C312.613 330.532 312.505 330.148 312.181 329.788C311.845 329.416 311.329 329.176 310.837 329.176ZM316.301 328.468V334H315.389V328.468H316.301ZM315.857 326.32C316.181 326.32 316.433 326.584 316.433 326.92C316.433 327.244 316.169 327.496 315.845 327.496C315.521 327.496 315.269 327.244 315.269 326.908C315.269 326.572 315.521 326.32 315.857 326.32ZM323.267 331.528H318.659C318.707 331.996 318.791 332.236 319.019 332.536C319.379 333.028 319.907 333.292 320.507 333.292C321.191 333.292 321.839 332.92 322.163 332.344L322.967 332.644C322.511 333.568 321.563 334.132 320.507 334.132C318.863 334.132 317.687 332.932 317.687 331.252C317.687 329.548 318.851 328.336 320.471 328.336C322.079 328.336 323.279 329.548 323.279 331.168C323.279 331.24 323.279 331.396 323.267 331.528ZM318.671 330.856H322.307C322.271 330.424 322.187 330.184 321.995 329.908C321.647 329.44 321.083 329.152 320.471 329.152C319.859 329.152 319.307 329.44 318.983 329.92C318.815 330.184 318.743 330.412 318.671 330.856ZM328.044 329.98H327.132V329.92C327.132 329.404 326.712 329.08 326.076 329.08C325.464 329.08 325.08 329.392 325.08 329.872C325.08 330.352 325.32 330.532 326.316 330.808C327.024 331 327.396 331.18 327.66 331.444C327.936 331.72 328.104 332.116 328.104 332.524C328.104 333.484 327.312 334.132 326.136 334.132C324.876 334.132 324.168 333.544 324.072 332.428H324.972C325.032 333.052 325.44 333.388 326.136 333.388C326.76 333.388 327.168 333.064 327.168 332.572C327.168 332.092 326.856 331.852 325.908 331.612C324.708 331.288 324.168 330.784 324.168 329.944C324.168 328.984 324.948 328.336 326.112 328.336C327.288 328.336 327.996 328.936 328.044 329.98ZM339.491 328.468H340.427L338.459 334H337.631L336.359 329.8L335.027 334H334.163L332.267 328.468H333.203L334.619 332.536L335.891 328.468H336.791L338.039 332.536L339.491 328.468ZM342.304 328.468V334H341.392V328.468H342.304ZM341.86 326.32C342.184 326.32 342.436 326.584 342.436 326.92C342.436 327.244 342.172 327.496 341.848 327.496C341.524 327.496 341.272 327.244 341.272 326.908C341.272 326.572 341.524 326.32 341.86 326.32ZM345.107 329.272V332.872C345.119 333.148 345.191 333.208 345.527 333.208H345.947V334H345.095C344.447 333.988 344.195 333.748 344.195 333.136V329.272H343.427V328.468H344.195V326.728H345.107V328.468H345.947V329.272H345.107ZM348.117 325.996V329.236C348.621 328.612 349.125 328.336 349.785 328.336C350.265 328.336 350.769 328.528 351.069 328.84C351.369 329.14 351.501 329.572 351.501 330.28V334H350.589V330.328C350.589 329.572 350.217 329.152 349.557 329.152C349.137 329.152 348.765 329.32 348.477 329.644C348.201 329.956 348.117 330.232 348.117 330.76V334H347.205V325.996H348.117ZM223.912 344.468H224.824V345.476C225.352 344.66 225.916 344.336 226.84 344.336C228.376 344.336 229.444 345.512 229.444 347.192C229.444 348.932 228.376 350.132 226.84 350.132C226.408 350.132 226.012 350.036 225.628 349.844C225.292 349.676 225.124 349.532 224.824 349.136V352.592H223.912V344.468ZM226.684 345.152C225.58 345.152 224.824 346.028 224.824 347.324C224.824 348.536 225.556 349.34 226.648 349.34C227.74 349.34 228.472 348.488 228.472 347.228C228.472 346.58 228.316 346.088 227.992 345.728C227.668 345.368 227.176 345.152 226.684 345.152ZM230.826 344.468H231.738V345.404C231.906 345.008 232.026 344.84 232.242 344.672C232.518 344.456 232.902 344.336 233.298 344.336H233.514V345.26C233.418 345.248 233.322 345.248 233.262 345.248C232.77 345.248 232.338 345.476 232.062 345.884C231.822 346.232 231.738 346.556 231.738 347.192V350H230.826V344.468ZM239.583 347.528H234.975C235.023 347.996 235.107 348.236 235.335 348.536C235.695 349.028 236.223 349.292 236.823 349.292C237.507 349.292 238.155 348.92 238.479 348.344L239.283 348.644C238.827 349.568 237.879 350.132 236.823 350.132C235.179 350.132 234.003 348.932 234.003 347.252C234.003 345.548 235.167 344.336 236.787 344.336C238.395 344.336 239.595 345.548 239.595 347.168C239.595 347.24 239.595 347.396 239.583 347.528ZM234.987 346.856H238.623C238.587 346.424 238.503 346.184 238.311 345.908C237.963 345.44 237.399 345.152 236.787 345.152C236.175 345.152 235.623 345.44 235.299 345.92C235.131 346.184 235.059 346.412 234.987 346.856ZM244.66 348.692L245.224 349.316C244.6 349.88 243.988 350.132 243.184 350.132C241.6 350.132 240.472 348.932 240.472 347.252C240.472 345.536 241.612 344.336 243.232 344.336C244.024 344.336 244.672 344.6 245.248 345.164L244.66 345.752C244.24 345.368 243.772 345.176 243.256 345.176C242.164 345.176 241.408 346.016 241.408 347.216C241.408 348.44 242.164 349.292 243.244 349.292C243.784 349.292 244.216 349.112 244.66 348.692ZM247.312 344.468V350H246.4V344.468H247.312ZM246.868 342.32C247.192 342.32 247.444 342.584 247.444 342.92C247.444 343.244 247.18 343.496 246.856 343.496C246.532 343.496 246.28 343.244 246.28 342.908C246.28 342.572 246.532 342.32 246.868 342.32ZM252.61 345.98H251.698V345.92C251.698 345.404 251.278 345.08 250.642 345.08C250.03 345.08 249.646 345.392 249.646 345.872C249.646 346.352 249.886 346.532 250.882 346.808C251.59 347 251.962 347.18 252.226 347.444C252.502 347.72 252.67 348.116 252.67 348.524C252.67 349.484 251.878 350.132 250.702 350.132C249.442 350.132 248.734 349.544 248.638 348.428H249.538C249.598 349.052 250.006 349.388 250.702 349.388C251.326 349.388 251.734 349.064 251.734 348.572C251.734 348.092 251.422 347.852 250.474 347.612C249.274 347.288 248.734 346.784 248.734 345.944C248.734 344.984 249.514 344.336 250.678 344.336C251.854 344.336 252.562 344.936 252.61 345.98ZM254.988 344.468V350H254.076V344.468H254.988ZM254.544 342.32C254.868 342.32 255.12 342.584 255.12 342.92C255.12 343.244 254.856 343.496 254.532 343.496C254.208 343.496 253.956 343.244 253.956 342.908C253.956 342.572 254.208 342.32 254.544 342.32ZM259.206 344.336C260.838 344.336 262.002 345.548 262.002 347.252C262.002 348.872 260.754 350.132 259.17 350.132C257.526 350.132 256.374 348.932 256.374 347.228C256.374 345.512 257.526 344.336 259.206 344.336ZM259.206 345.176C258.066 345.176 257.31 346.004 257.31 347.24C257.31 348.464 258.066 349.292 259.194 349.292C260.286 349.292 261.066 348.44 261.066 347.24C261.066 346.004 260.322 345.176 259.206 345.176ZM263.392 344.468H264.304V345.248C264.784 344.6 265.264 344.336 265.948 344.336C266.452 344.336 266.908 344.504 267.232 344.792C267.58 345.128 267.7 345.512 267.7 346.268V350H266.788V346.472C266.788 345.98 266.728 345.716 266.584 345.524C266.416 345.296 266.092 345.152 265.72 345.152C265.312 345.152 264.94 345.308 264.664 345.62C264.4 345.908 264.304 346.172 264.304 346.628V350H263.392V344.468ZM277.272 345.38V344.468H278.184V350H277.272V348.932C276.72 349.76 276.096 350.132 275.256 350.132C273.732 350.132 272.652 348.932 272.652 347.252C272.652 345.56 273.756 344.336 275.28 344.336C276.12 344.336 276.732 344.66 277.272 345.38ZM275.412 345.152C274.812 345.152 274.392 345.356 274.068 345.812C273.78 346.208 273.612 346.736 273.612 347.276C273.612 348.452 274.38 349.34 275.388 349.34C276.432 349.34 277.284 348.368 277.284 347.18C277.284 345.98 276.516 345.152 275.412 345.152ZM280.021 344.468H280.933V345.248C281.413 344.6 281.893 344.336 282.577 344.336C283.081 344.336 283.537 344.504 283.861 344.792C284.209 345.128 284.329 345.512 284.329 346.268V350H283.417V346.472C283.417 345.98 283.357 345.716 283.213 345.524C283.045 345.296 282.721 345.152 282.349 345.152C281.941 345.152 281.569 345.308 281.293 345.62C281.029 345.908 280.933 346.172 280.933 346.628V350H280.021V344.468ZM290.267 345.308V341.996H291.179V350H290.267V349.052C289.715 349.808 289.127 350.132 288.287 350.132C286.763 350.132 285.683 348.944 285.683 347.264C285.683 345.584 286.787 344.336 288.287 344.336C289.103 344.336 289.727 344.636 290.267 345.308ZM288.479 345.152C287.387 345.152 286.643 346.016 286.643 347.276C286.643 348.488 287.375 349.34 288.419 349.34C289.487 349.34 290.267 348.452 290.267 347.252C290.267 346.004 289.535 345.152 288.479 345.152ZM300.755 345.308V341.996H301.667V350H300.755V349.052C300.203 349.808 299.615 350.132 298.775 350.132C297.251 350.132 296.171 348.944 296.171 347.264C296.171 345.584 297.275 344.336 298.775 344.336C299.591 344.336 300.215 344.636 300.755 345.308ZM298.967 345.152C297.875 345.152 297.131 346.016 297.131 347.276C297.131 348.488 297.863 349.34 298.907 349.34C299.975 349.34 300.755 348.452 300.755 347.252C300.755 346.004 300.023 345.152 298.967 345.152ZM308.642 347.528H304.034C304.082 347.996 304.166 348.236 304.394 348.536C304.754 349.028 305.282 349.292 305.882 349.292C306.566 349.292 307.214 348.92 307.538 348.344L308.342 348.644C307.886 349.568 306.938 350.132 305.882 350.132C304.238 350.132 303.062 348.932 303.062 347.252C303.062 345.548 304.226 344.336 305.846 344.336C307.454 344.336 308.654 345.548 308.654 347.168C308.654 347.24 308.654 347.396 308.642 347.528ZM304.046 346.856H307.682C307.646 346.424 307.562 346.184 307.37 345.908C307.022 345.44 306.458 345.152 305.846 345.152C305.234 345.152 304.682 345.44 304.358 345.92C304.19 346.184 304.118 346.412 304.046 346.856ZM315.111 347.528H310.503C310.551 347.996 310.635 348.236 310.863 348.536C311.223 349.028 311.751 349.292 312.351 349.292C313.035 349.292 313.683 348.92 314.007 348.344L314.811 348.644C314.355 349.568 313.407 350.132 312.351 350.132C310.707 350.132 309.531 348.932 309.531 347.252C309.531 345.548 310.695 344.336 312.315 344.336C313.923 344.336 315.122 345.548 315.122 347.168C315.122 347.24 315.122 347.396 315.111 347.528ZM310.515 346.856H314.151C314.115 346.424 314.031 346.184 313.839 345.908C313.491 345.44 312.927 345.152 312.315 345.152C311.703 345.152 311.151 345.44 310.826 345.92C310.659 346.184 310.587 346.412 310.515 346.856ZM316.443 344.468H317.355V345.476C317.883 344.66 318.447 344.336 319.371 344.336C320.907 344.336 321.975 345.512 321.975 347.192C321.975 348.932 320.907 350.132 319.371 350.132C318.939 350.132 318.543 350.036 318.159 349.844C317.823 349.676 317.655 349.532 317.355 349.136V352.592H316.443V344.468ZM319.215 345.152C318.111 345.152 317.355 346.028 317.355 347.324C317.355 348.536 318.087 349.34 319.179 349.34C320.271 349.34 321.003 348.488 321.003 347.228C321.003 346.58 320.847 346.088 320.523 345.728C320.199 345.368 319.707 345.152 319.215 345.152ZM331.095 345.308V341.996H332.007V350H331.095V349.052C330.543 349.808 329.955 350.132 329.115 350.132C327.591 350.132 326.511 348.944 326.511 347.264C326.511 345.584 327.615 344.336 329.115 344.336C329.931 344.336 330.555 344.636 331.095 345.308ZM329.307 345.152C328.215 345.152 327.471 346.016 327.471 347.276C327.471 348.488 328.203 349.34 329.247 349.34C330.315 349.34 331.095 348.452 331.095 347.252C331.095 346.004 330.363 345.152 329.307 345.152ZM336.234 344.336C337.866 344.336 339.03 345.548 339.03 347.252C339.03 348.872 337.782 350.132 336.198 350.132C334.554 350.132 333.402 348.932 333.402 347.228C333.402 345.512 334.554 344.336 336.234 344.336ZM336.234 345.176C335.094 345.176 334.338 346.004 334.338 347.24C334.338 348.464 335.094 349.292 336.222 349.292C337.314 349.292 338.094 348.44 338.094 347.24C338.094 346.004 337.35 345.176 336.234 345.176ZM340.42 344.468H341.332V345.236C341.752 344.6 342.22 344.336 342.904 344.336C343.66 344.336 344.14 344.66 344.392 345.344C344.8 344.636 345.316 344.336 346.144 344.336C346.78 344.336 347.26 344.54 347.548 344.924C347.812 345.272 347.884 345.584 347.884 346.46V350H346.972V346.676C346.972 346.004 346.948 345.848 346.816 345.62C346.648 345.332 346.288 345.152 345.856 345.152C345.052 345.152 344.608 345.692 344.608 346.676V350H343.696V346.688C343.696 346.148 343.648 345.872 343.516 345.632C343.36 345.32 343.024 345.152 342.616 345.152C341.812 345.152 341.332 345.728 341.332 346.688V350H340.42V344.468ZM353.865 345.38V344.468H354.777V350H353.865V348.932C353.313 349.76 352.689 350.132 351.849 350.132C350.325 350.132 349.245 348.932 349.245 347.252C349.245 345.56 350.349 344.336 351.873 344.336C352.713 344.336 353.325 344.66 353.865 345.38ZM352.005 345.152C351.405 345.152 350.985 345.356 350.661 345.812C350.373 346.208 350.205 346.736 350.205 347.276C350.205 348.452 350.973 349.34 351.981 349.34C353.025 349.34 353.877 348.368 353.877 347.18C353.877 345.98 353.109 345.152 352.005 345.152ZM357.527 344.468V350H356.615V344.468H357.527ZM357.083 342.32C357.407 342.32 357.659 342.584 357.659 342.92C357.659 343.244 357.395 343.496 357.071 343.496C356.747 343.496 356.495 343.244 356.495 342.908C356.495 342.572 356.747 342.32 357.083 342.32ZM359.357 344.468H360.269V345.248C360.749 344.6 361.229 344.336 361.913 344.336C362.417 344.336 362.873 344.504 363.197 344.792C363.545 345.128 363.665 345.512 363.665 346.268V350H362.753V346.472C362.753 345.98 362.693 345.716 362.549 345.524C362.381 345.296 362.057 345.152 361.685 345.152C361.277 345.152 360.905 345.308 360.629 345.62C360.365 345.908 360.269 346.172 360.269 346.628V350H359.357V344.468ZM224.824 363.528V366H223.912V357.996H224.824V362.892L227.032 360.468H228.184L225.712 363.168L228.172 366H227.032L224.824 363.528ZM229.185 360.468H230.097V361.248C230.577 360.6 231.057 360.336 231.741 360.336C232.245 360.336 232.701 360.504 233.025 360.792C233.373 361.128 233.493 361.512 233.493 362.268V366H232.581V362.472C232.581 361.98 232.521 361.716 232.377 361.524C232.209 361.296 231.885 361.152 231.513 361.152C231.105 361.152 230.733 361.308 230.457 361.62C230.193 361.908 230.097 362.172 230.097 362.628V366H229.185V360.468ZM237.679 360.336C239.311 360.336 240.475 361.548 240.475 363.252C240.475 364.872 239.227 366.132 237.643 366.132C235.999 366.132 234.847 364.932 234.847 363.228C234.847 361.512 235.999 360.336 237.679 360.336ZM237.679 361.176C236.539 361.176 235.783 362.004 235.783 363.24C235.783 364.464 236.539 365.292 237.667 365.292C238.759 365.292 239.539 364.44 239.539 363.24C239.539 362.004 238.795 361.176 237.679 361.176ZM248.144 360.468H249.08L247.112 366H246.284L245.012 361.8L243.68 366H242.816L240.92 360.468H241.856L243.272 364.536L244.544 360.468H245.444L246.692 364.536L248.144 360.468ZM250.957 366H250.045V357.996H250.957V366ZM257.923 363.528H253.315C253.363 363.996 253.447 364.236 253.675 364.536C254.035 365.028 254.563 365.292 255.163 365.292C255.847 365.292 256.495 364.92 256.819 364.344L257.623 364.644C257.167 365.568 256.219 366.132 255.163 366.132C253.519 366.132 252.343 364.932 252.343 363.252C252.343 361.548 253.507 360.336 255.127 360.336C256.735 360.336 257.935 361.548 257.935 363.168C257.935 363.24 257.935 363.396 257.923 363.528ZM253.327 362.856H256.963C256.927 362.424 256.843 362.184 256.651 361.908C256.303 361.44 255.739 361.152 255.127 361.152C254.515 361.152 253.963 361.44 253.639 361.92C253.471 362.184 253.399 362.412 253.327 362.856ZM263.396 361.308V357.996H264.308V366H263.396V365.052C262.844 365.808 262.256 366.132 261.416 366.132C259.892 366.132 258.812 364.944 258.812 363.264C258.812 361.584 259.916 360.336 261.416 360.336C262.232 360.336 262.856 360.636 263.396 361.308ZM261.608 361.152C260.516 361.152 259.772 362.016 259.772 363.276C259.772 364.488 260.504 365.34 261.548 365.34C262.616 365.34 263.396 364.452 263.396 363.252C263.396 362.004 262.664 361.152 261.608 361.152ZM270.227 361.416V360.468H271.139V366.036C271.139 366.96 270.911 367.584 270.407 368.064C269.915 368.544 269.207 368.796 268.367 368.796C267.335 368.796 266.519 368.46 265.919 367.788L266.543 367.164C266.795 367.428 266.915 367.536 267.071 367.644C267.383 367.836 267.899 367.968 268.367 367.968C268.943 367.968 269.495 367.764 269.807 367.428C270.083 367.128 270.227 366.684 270.227 366.108V364.944C269.687 365.76 269.051 366.132 268.187 366.132C266.723 366.132 265.631 364.896 265.631 363.252C265.631 362.364 265.955 361.512 266.507 360.984C266.951 360.552 267.551 360.336 268.259 360.336C269.099 360.336 269.663 360.648 270.227 361.416ZM268.427 361.176C267.347 361.176 266.591 362.016 266.591 363.216C266.591 364.404 267.359 365.292 268.403 365.292C268.931 365.292 269.447 365.04 269.807 364.62C270.047 364.344 270.203 363.804 270.203 363.252C270.203 362.532 270.095 362.148 269.771 361.788C269.435 361.416 268.919 361.176 268.427 361.176ZM278.068 363.528H273.46C273.508 363.996 273.592 364.236 273.82 364.536C274.18 365.028 274.708 365.292 275.308 365.292C275.992 365.292 276.64 364.92 276.964 364.344L277.768 364.644C277.312 365.568 276.364 366.132 275.308 366.132C273.664 366.132 272.488 364.932 272.488 363.252C272.488 361.548 273.652 360.336 275.272 360.336C276.88 360.336 278.08 361.548 278.08 363.168C278.08 363.24 278.08 363.396 278.068 363.528ZM273.472 362.856H277.108C277.072 362.424 276.988 362.184 276.796 361.908C276.448 361.44 275.884 361.152 275.272 361.152C274.66 361.152 274.108 361.44 273.784 361.92C273.616 362.184 273.544 362.412 273.472 362.856ZM279.704 364.848C280.064 364.848 280.328 365.112 280.328 365.484C280.328 365.832 280.052 366.096 279.704 366.096C279.344 366.096 279.08 365.832 279.08 365.472C279.08 365.112 279.344 364.848 279.704 364.848Z" fill="white"/>
<defs>
<filter id="filter0_d_1956_14587" x="10.7798" y="48.518" width="202.44" height="370.32" filterUnits="userSpaceOnUse" color-interpolation-filters="sRGB">
<feFlood flood-opacity="0" result="BackgroundImageFix"/>
<feColorMatrix in="SourceAlpha" type="matrix" values="0 0 0 0 0 0 0 0 0 0 0 0 0 0 0 0 0 0 127 0" result="hardAlpha"/>
<feOffset dy="3.73913"/>
<feGaussianBlur stdDeviation="7.47826"/>
<feComposite in2="hardAlpha" operator="out"/>
<feColorMatrix type="matrix" values="0 0 0 0 0 0 0 0 0 0 0 0 0 0 0 0 0 0 0.1 0"/>
<feBlend mode="normal" in2="BackgroundImageFix" result="effect1_dropShadow_1956_14587"/>
<feBlend mode="normal" in="SourceGraphic" in2="effect1_dropShadow_1956_14587" result="shape"/>
</filter>
<linearGradient id="paint0_linear_1956_14587" x1="112" y1="442.5" x2="112" y2="24" gradientUnits="userSpaceOnUse">
<stop stop-color="#7A43FB"/>
<stop offset="0.475" stop-color="#F73DA9"/>
<stop offset="0.928412" stop-color="#FFB91F"/>
</linearGradient>
</defs>
</svg>
