<svg width="77" height="39" viewBox="0 0 77 39" fill="none" xmlns="http://www.w3.org/2000/svg">
<path d="M14.1484 7.97461H13.2402C13.2402 7.7832 13.2109 7.63867 13.1523 7.54102C12.9727 7.23633 12.6504 7.08398 12.1855 7.08398C11.8691 7.08398 11.6211 7.1582 11.4414 7.30664C11.2695 7.44727 11.1836 7.63086 11.1836 7.85742C11.1836 8.16602 11.332 8.39648 11.6289 8.54883C11.7578 8.61133 12.0215 8.69727 12.4199 8.80664C13.0801 8.98633 13.5312 9.19727 13.7734 9.43945C14.0664 9.73242 14.2129 10.0938 14.2129 10.5234C14.2129 11.0508 13.9922 11.4707 13.5508 11.7832C13.2266 12.0137 12.793 12.1289 12.25 12.1289C11.4258 12.1289 10.8379 11.875 10.4863 11.3672C10.3184 11.1211 10.2168 10.8086 10.1816 10.4297H11.084C11.1074 10.6758 11.1816 10.8711 11.3066 11.0156C11.5254 11.2617 11.8398 11.3848 12.25 11.3848C12.5625 11.3848 12.8086 11.3125 12.9883 11.168C13.1836 11.0078 13.2812 10.8105 13.2812 10.5762C13.2812 10.3262 13.168 10.1172 12.9414 9.94922C12.7969 9.84375 12.4902 9.72852 12.0215 9.60352C11.4355 9.45117 11.0059 9.25195 10.7324 9.00586C10.4277 8.72461 10.2754 8.36914 10.2754 7.93945C10.2754 7.40039 10.498 6.98047 10.9434 6.67969C11.2832 6.45312 11.709 6.33984 12.2207 6.33984C12.9355 6.33984 13.4668 6.55859 13.8145 6.99609C14.0176 7.25391 14.1289 7.58008 14.1484 7.97461ZM19.3574 10.6875L19.9199 11.3145C19.6465 11.5684 19.3867 11.752 19.1406 11.8652C18.7539 12.041 18.3379 12.1289 17.8926 12.1289C17.0957 12.1289 16.4375 11.8516 15.918 11.2969C15.4219 10.7734 15.1738 10.0898 15.1738 9.24609C15.1738 8.76953 15.2617 8.32812 15.4375 7.92188C15.6172 7.51562 15.8672 7.18359 16.1875 6.92578C16.6758 6.53125 17.2578 6.33398 17.9336 6.33398C18.7109 6.33398 19.3848 6.61133 19.9551 7.16602L19.3574 7.75195C18.9434 7.36523 18.4746 7.17188 17.9512 7.17188C17.373 7.17188 16.9082 7.38672 16.5566 7.81641C16.2598 8.17969 16.1113 8.64453 16.1113 9.21094C16.1113 9.90625 16.3164 10.4434 16.7266 10.8223C17.0664 11.1348 17.4727 11.291 17.9453 11.291C18.4688 11.291 18.9395 11.0898 19.3574 10.6875ZM21.1035 6.46875H22.0234V7.40039C22.168 7.06055 22.3359 6.81641 22.5273 6.66797C22.8203 6.44531 23.168 6.33398 23.5703 6.33398C23.6172 6.33398 23.6895 6.33594 23.7871 6.33984V7.25977C23.6816 7.25195 23.5938 7.24805 23.5234 7.24805C23.0234 7.24805 22.6289 7.45898 22.3398 7.88086C22.1992 8.0918 22.1094 8.31055 22.0703 8.53711C22.0391 8.7207 22.0234 8.9375 22.0234 9.1875V12H21.1035V6.46875ZM27.1094 6.33984C27.9727 6.33984 28.6816 6.66602 29.2363 7.31836C29.6699 7.83008 29.8867 8.45898 29.8867 9.20508C29.8867 10.0879 29.5879 10.8105 28.9902 11.373C28.4551 11.877 27.8086 12.1289 27.0508 12.1289C26.6172 12.1289 26.207 12.041 25.8203 11.8652C25.4375 11.6855 25.1172 11.4375 24.8594 11.1211C24.457 10.6289 24.2559 9.98828 24.2559 9.19922C24.2559 8.29688 24.543 7.58594 25.1172 7.06641C25.6523 6.58203 26.3164 6.33984 27.1094 6.33984ZM27.0332 7.17773C26.4668 7.17773 26.0039 7.39258 25.6445 7.82227C25.3398 8.17773 25.1875 8.6582 25.1875 9.26367C25.1875 9.88086 25.3652 10.373 25.7207 10.7402C26.084 11.1074 26.5352 11.291 27.0742 11.291C27.6953 11.291 28.1836 11.0566 28.5391 10.5879C28.8164 10.2246 28.9551 9.75977 28.9551 9.19336C28.9551 8.56445 28.7695 8.06836 28.3984 7.70508C28.0391 7.35352 27.584 7.17773 27.0332 7.17773ZM32.1953 12H31.2754V4.00195H32.1953V12ZM34.9492 12H34.0293V4.00195H34.9492V12ZM44.5176 7.30664V4.00195H45.4375V12H44.5176V11.0508C44.2871 11.3672 44.0566 11.6016 43.8262 11.7539C43.4434 12.0039 43.0156 12.1289 42.543 12.1289C41.7617 12.1289 41.123 11.8496 40.627 11.291C40.166 10.7715 39.9355 10.0957 39.9355 9.26367C39.9355 8.82617 40.0078 8.41602 40.1523 8.0332C40.2969 7.64648 40.502 7.32422 40.7676 7.06641C41.2598 6.57812 41.8496 6.33398 42.5371 6.33398C42.9238 6.33398 43.2949 6.41797 43.6504 6.58594C43.9512 6.72266 44.2402 6.96289 44.5176 7.30664ZM42.6836 7.14844C42.0938 7.14844 41.6289 7.40039 41.2891 7.9043C41.0312 8.29102 40.9023 8.74805 40.9023 9.27539C40.9023 9.91602 41.0859 10.4297 41.4531 10.8164C41.7773 11.1602 42.1855 11.332 42.6777 11.332C43.2207 11.332 43.668 11.1289 44.0195 10.7227C44.3555 10.3398 44.5234 9.82422 44.5234 9.17578C44.5234 8.57812 44.3496 8.08789 44.002 7.70508C43.666 7.33398 43.2266 7.14844 42.6836 7.14844ZM49.6797 6.33984C50.543 6.33984 51.252 6.66602 51.8066 7.31836C52.2402 7.83008 52.457 8.45898 52.457 9.20508C52.457 10.0879 52.1582 10.8105 51.5605 11.373C51.0254 11.877 50.3789 12.1289 49.6211 12.1289C49.1875 12.1289 48.7773 12.041 48.3906 11.8652C48.0078 11.6855 47.6875 11.4375 47.4297 11.1211C47.0273 10.6289 46.8262 9.98828 46.8262 9.19922C46.8262 8.29688 47.1133 7.58594 47.6875 7.06641C48.2227 6.58203 48.8867 6.33984 49.6797 6.33984ZM49.6035 7.17773C49.0371 7.17773 48.5742 7.39258 48.2148 7.82227C47.9102 8.17773 47.7578 8.6582 47.7578 9.26367C47.7578 9.88086 47.9355 10.373 48.291 10.7402C48.6543 11.1074 49.1055 11.291 49.6445 11.291C50.2656 11.291 50.7539 11.0566 51.1094 10.5879C51.3867 10.2246 51.5254 9.75977 51.5254 9.19336C51.5254 8.56445 51.3398 8.06836 50.9688 7.70508C50.6094 7.35352 50.1543 7.17773 49.6035 7.17773ZM60.1094 6.46875H61.0469L59.084 12H58.2461L56.9746 7.80469L55.6445 12H54.7773L52.8848 6.46875H53.8164L55.2344 10.5352L56.5117 6.46875H57.4141L58.6562 10.5352L60.1094 6.46875ZM62.0371 6.46875H62.9512V7.24805C63.1582 6.9707 63.3633 6.76562 63.5664 6.63281C63.8711 6.4375 64.2129 6.33984 64.5918 6.33984C65.1113 6.33984 65.5371 6.49414 65.8691 6.80273C66.084 7.00195 66.2207 7.23828 66.2793 7.51172C66.3223 7.71875 66.3438 7.97266 66.3438 8.27344V12H65.4238V8.47266C65.4238 8.01953 65.3574 7.70312 65.2246 7.52344C65.0449 7.27734 64.7578 7.1543 64.3633 7.1543C63.9492 7.1543 63.5977 7.31055 63.3086 7.62305C63.0703 7.88086 62.9512 8.21484 62.9512 8.625V12H62.0371V6.46875Z" fill="white"/>
<path d="M32.8008 31.6992L38.5 37.3984L44.1992 31.6992" stroke="white" stroke-width="2" stroke-linecap="round" stroke-linejoin="round"/>
</svg>
