<svg width="137" height="137" viewBox="0 0 137 137" fill="none" xmlns="http://www.w3.org/2000/svg">
<path opacity="0.7" d="M68.332 106L31.292 68.6362L68.332 31.2725L105.696 68.6362L68.332 106Z" fill="#F5C445"/>
<path d="M68.5004 0.999588L1 68.5L68.5004 136L136.001 68.5L68.5004 0.999588Z" stroke="#BB3216" stroke-width="1.5" stroke-linejoin="round"/>
<path d="M68.5 31L16 83.5" stroke="#BB3216" stroke-width="1.5" stroke-linejoin="round"/>
<path d="M121.002 53.5L68.1797 106.322" stroke="#BB3216" stroke-width="1.5" stroke-linejoin="round"/>
<path d="M16 53.5L83.5 121" stroke="#BB3216" stroke-width="1.5" stroke-linejoin="round"/>
<path d="M53.5 16L121 83.5" stroke="#BB3216" stroke-width="1.5" stroke-linejoin="round"/>
<path d="M90.9998 113.501L76.2773 98.7783" stroke="#BB3216" stroke-width="1.5" stroke-linejoin="round"/>
<path d="M98.3595 106.142L83.6445 91.4199" stroke="#BB3216" stroke-width="1.5" stroke-linejoin="round"/>
<path d="M106 98.5008L91.2773 83.7783" stroke="#BB3216" stroke-width="1.5" stroke-linejoin="round"/>
<path d="M113.5 91.0008L98.7773 76.2783" stroke="#BB3216" stroke-width="1.5" stroke-linejoin="round"/>
<path d="M76 8.5L8.5 76" stroke="#BB3216" stroke-width="1.5" stroke-linejoin="round"/>
<path d="M1 68.5H68.5" stroke="#BB3216" stroke-width="1.5" stroke-linejoin="round"/>
<path d="M91 68.5H106" stroke="#BB3216" stroke-width="1.5" stroke-linejoin="round"/>
<path d="M68.5 135.37V91" stroke="#BB3216" stroke-width="1.5" stroke-linejoin="round"/>
<path d="M68.5 46V31" stroke="#BB3216" stroke-width="1.5" stroke-linejoin="round"/>
</svg>
