<svg width="137" height="137" viewBox="0 0 137 137" fill="none" xmlns="http://www.w3.org/2000/svg">
<path opacity="0.7" d="M60.9346 38.2012L49.8115 50.0967H72.5209L60.9346 38.2012Z" fill="#F5C445"/>
<path opacity="0.7" d="M68.3603 1L54.7549 15.5503H82.5324L68.3603 1Z" fill="#F5C445"/>
<path opacity="0.7" d="M31.4497 68.8612L49.9751 86.1836V50.8173L31.4497 68.8612Z" fill="#F5C445"/>
<path opacity="0.7" d="M53.6123 121.29L68.5005 135.211V106.788L53.6123 121.29Z" fill="#F5C445"/>
<path opacity="0.7" d="M15.9795 83.3113L1 68.3259L15.9795 53.959L30.9644 68.3259L15.9795 83.3113Z" fill="#F5C445"/>
<path opacity="0.7" d="M87.2045 87.3873L75.9131 76.0914L87.2045 65.2617L98.5 76.0914L87.2045 87.3873Z" fill="#F5C445"/>
<path opacity="0.7" d="M113.729 90.6329L98.71 75.608L120.729 54.2031L135.753 68.608L113.729 90.6329Z" fill="#F5C445"/>
<path opacity="0.7" d="M98.3807 53.7183L90.9229 46.0628L102.15 34.8906L109.91 42.3758L98.3807 53.7183Z" fill="#F5C445"/>
<path d="M68.5004 0.999588L1 68.5L68.5004 136L136.001 68.5L68.5004 0.999588Z" stroke="#BB3216" stroke-width="1.5" stroke-linejoin="round"/>
<path d="M46 23.5L79.75 57.25" stroke="#BB3216" stroke-width="1.5" stroke-linejoin="round"/>
<path d="M68.5 68.5L102.25 34.75" stroke="#BB3216" stroke-width="1.5" stroke-linejoin="round"/>
<path d="M101.807 101.807L35.1924 35.1924" stroke="#BB3216" stroke-width="1.5" stroke-linejoin="round"/>
<path d="M53.5 121L121 53.5" stroke="#BB3216" stroke-width="1.5" stroke-linejoin="round"/>
<path d="M76 76.218L109.855 42.3555" stroke="#BB3216" stroke-width="1.5" stroke-linejoin="round"/>
<path d="M16 53.5L68.5 106" stroke="#BB3216" stroke-width="1.5" stroke-linejoin="round"/>
<path d="M76 98.5L91 113.5" stroke="#BB3216" stroke-width="1.5" stroke-linejoin="round"/>
<path d="M98.5 53.718L90.895 46.1055" stroke="#BB3216" stroke-width="1.5" stroke-linejoin="round"/>
<path d="M113.5 91.0005L87.355 64.8555" stroke="#BB3216" stroke-width="1.5" stroke-linejoin="round"/>
<path d="M16 83.4998L83.95 15.5498" stroke="#BB3216" stroke-width="1.5" stroke-linejoin="round"/>
<path d="M49.9751 49.9756H73.1276" stroke="#BB3216" stroke-width="1.5" stroke-linejoin="round"/>
<path d="M76 98.5H31" stroke="#BB3216" stroke-width="1.5" stroke-linejoin="round"/>
<path d="M76 76.2178H98.71" stroke="#BB3216" stroke-width="1.5" stroke-linejoin="round"/>
<path d="M53.5 16H83.5" stroke="#BB3216" stroke-width="1.5" stroke-linejoin="round"/>
<path d="M31 68.5H1" stroke="#BB3216" stroke-width="1.5" stroke-linejoin="round"/>
<path d="M109.855 42.3555V64.998" stroke="#BB3216" stroke-width="1.5" stroke-linejoin="round"/>
<path d="M16 68.5V83.5" stroke="#BB3216" stroke-width="1.5" stroke-linejoin="round"/>
<path d="M68.5 136V106" stroke="#BB3216" stroke-width="1.5" stroke-linejoin="round"/>
<path d="M49.9751 49.9756V87.2506" stroke="#BB3216" stroke-width="1.5" stroke-linejoin="round"/>
</svg>
