<svg width="137" height="137" viewBox="0 0 137 137" fill="none" xmlns="http://www.w3.org/2000/svg">
<path opacity="0.7" d="M60.7777 98.4023H75.9999V120.876H84.0519L68.9276 136L53.8032 120.876H60.7777V98.4023Z" fill="#F5C445"/>
<path opacity="0.7" d="M109.969 68.8057L122.775 56L135.839 68.8057L122.775 81.8693L109.969 68.8057Z" fill="#F5C445"/>
<path opacity="0.7" d="M94.3594 27.3634H42.9541L68.3983 1.40234L94.3594 27.3634Z" fill="#F5C445"/>
<path opacity="0.7" d="M27.3257 42.7344L38.5625 53.9712V83.2677L27.3257 94.5045L1 68.1788L27.3257 42.7344Z" fill="#F5C445"/>
<path d="M27.2513 42.2516L1 68.5029L27.2513 94.7543L53.5027 68.5029L27.2513 42.2516Z" stroke="#BB3216" stroke-width="1.5" stroke-linejoin="round"/>
<path d="M68.5013 0.999638L42.25 27.251L68.5013 53.5023L94.7527 27.251L68.5013 0.999638Z" stroke="#BB3216" stroke-width="1.5" stroke-linejoin="round"/>
<path d="M68.5028 83.5016L42.2515 109.753L68.5028 136.004L94.7541 109.753L68.5028 83.5016Z" stroke="#BB3216" stroke-width="1.5" stroke-linejoin="round"/>
<path d="M109.753 42.2496L83.5015 68.501L109.753 94.7523L136.004 68.501L109.753 42.2496Z" stroke="#BB3216" stroke-width="1.5" stroke-linejoin="round"/>
<path d="M68.5015 38.502V98.502" stroke="#BB3216" stroke-width="1.5" stroke-linejoin="round"/>
<path d="M38.5015 68.502H98.5015" stroke="#BB3216" stroke-width="1.5" stroke-linejoin="round"/>
<path d="M98.5015 53.502V83.502" stroke="#BB3216" stroke-width="1.5" stroke-linejoin="round"/>
<path d="M38.5015 53.502V83.502" stroke="#BB3216" stroke-width="1.5" stroke-linejoin="round"/>
<path d="M53.5015 38.502H83.5015" stroke="#BB3216" stroke-width="1.5" stroke-linejoin="round"/>
<path d="M53.5015 98.502H83.5015" stroke="#BB3216" stroke-width="1.5" stroke-linejoin="round"/>
<path d="M42.2515 27.252H94.7515" stroke="#BB3216" stroke-width="1.5" stroke-linejoin="round"/>
<path d="M109.751 94.752V42.252" stroke="#BB3216" stroke-width="1.5" stroke-linejoin="round"/>
<path d="M109.751 68.502L122.876 55.377" stroke="#BB3216" stroke-width="1.5" stroke-linejoin="round"/>
<path d="M109.751 68.5098L122.876 81.6273" stroke="#BB3216" stroke-width="1.5" stroke-linejoin="round"/>
<path d="M68.5015 27.2519V1.96191" stroke="#BB3216" stroke-width="1.5" stroke-linejoin="round"/>
<path d="M61.0015 27.252V8.50195" stroke="#BB3216" stroke-width="1.5" stroke-linejoin="round"/>
<path d="M53.5015 27.252V16.002" stroke="#BB3216" stroke-width="1.5" stroke-linejoin="round"/>
<path d="M76.0015 27.252V8.50195" stroke="#BB3216" stroke-width="1.5" stroke-linejoin="round"/>
<path d="M83.5015 27.252V16.5645" stroke="#BB3216" stroke-width="1.5" stroke-linejoin="round"/>
<path d="M38.5015 83.502L12.2515 57.252" stroke="#BB3216" stroke-width="1.5" stroke-linejoin="round"/>
<path d="M38.5015 53.502L12.2515 79.752" stroke="#BB3216" stroke-width="1.5" stroke-linejoin="round"/>
<path d="M23.5015 68.502H1.00146" stroke="#BB3216" stroke-width="1.5" stroke-linejoin="round"/>
<path d="M76.0015 98.502V128.502" stroke="#BB3216" stroke-width="1.5" stroke-linejoin="round"/>
<path d="M61.0015 98.502V128.502" stroke="#BB3216" stroke-width="1.5" stroke-linejoin="round"/>
<path d="M53.5015 121.002H83.5015" stroke="#BB3216" stroke-width="1.5" stroke-linejoin="round"/>
<path d="M61.0015 113.502H76.0015" stroke="#BB3216" stroke-width="1.5" stroke-linejoin="round"/>
<path d="M61.0015 106.002H76.0015" stroke="#BB3216" stroke-width="1.5" stroke-linejoin="round"/>
</svg>
