<svg width="137" height="137" viewBox="0 0 137 137" fill="none" xmlns="http://www.w3.org/2000/svg">
<path opacity="0.7" d="M53.8618 90.8739L16.5938 53.6054L68.6637 1.53516L120.469 53.6054L83.9939 90.8739H53.8618Z" fill="#F5C445"/>
<path d="M16 53.4961H121" stroke="#BB3216" stroke-width="1.5" stroke-miterlimit="10"/>
<path d="M68.5 53.4961V0.996094" stroke="#BB3216" stroke-width="1.5" stroke-miterlimit="10"/>
<path d="M83.5 120.996V90.9961" stroke="#BB3216" stroke-width="1.5" stroke-miterlimit="10"/>
<path d="M53.5 120.996V90.9961" stroke="#BB3216" stroke-width="1.5" stroke-miterlimit="10"/>
<path d="M68.5 53.4961L42.25 27.2461" stroke="#BB3216" stroke-width="1.5" stroke-miterlimit="10"/>
<path d="M68.5 53.4961L94.75 27.2461" stroke="#BB3216" stroke-width="1.5" stroke-miterlimit="10"/>
<path d="M53.5 90.9443H83.5" stroke="#BB3216" stroke-width="1.5" stroke-miterlimit="10"/>
<path d="M68.5004 0.995682L1 68.4961L68.5004 135.997L136.001 68.4961L68.5004 0.995682Z" stroke="#BB3216" stroke-width="1.5" stroke-linejoin="round"/>
<path d="M16 53.4961L53.5 90.9961" stroke="#BB3216" stroke-width="1.5" stroke-linejoin="round"/>
<path d="M83.5 90.9961L121 53.4961" stroke="#BB3216" stroke-width="1.5" stroke-linejoin="round"/>
<path d="M53.5 98.4961H106" stroke="#BB3216" stroke-width="1.5" stroke-miterlimit="10"/>
<path d="M38.5 105.996H83.5" stroke="#BB3216" stroke-width="1.5" stroke-miterlimit="10"/>
<path d="M53.5 113.496H83.5" stroke="#BB3216" stroke-width="1.5" stroke-miterlimit="10"/>
<path d="M68.5 53.4961V91.6936" stroke="#BB3216" stroke-width="1.5" stroke-miterlimit="10"/>
<path d="M31 38.4961L68.5 53.4961" stroke="#BB3216" stroke-width="1.5" stroke-linejoin="round"/>
<path d="M68.5 53.4961L53.5 15.9961" stroke="#BB3216" stroke-width="1.5" stroke-linejoin="round"/>
<path d="M68.5 53.4961L83.5 15.9961" stroke="#BB3216" stroke-width="1.5" stroke-linejoin="round"/>
<path d="M68.5 53.4961L106 38.4961" stroke="#BB3216" stroke-width="1.5" stroke-linejoin="round"/>
<path d="M8.5752 75.9891L23.4627 61.1016" stroke="#BB3216" stroke-width="1.5" stroke-linejoin="round"/>
<path d="M16.0752 83.4891L30.9627 68.6016" stroke="#BB3216" stroke-width="1.5" stroke-linejoin="round"/>
<path d="M23.5752 90.9891L38.4627 76.1016" stroke="#BB3216" stroke-width="1.5" stroke-linejoin="round"/>
<path d="M31.0752 98.4891L45.9627 83.6016" stroke="#BB3216" stroke-width="1.5" stroke-linejoin="round"/>
<path d="M91.0601 83.6016L105.955 98.4891" stroke="#BB3216" stroke-width="1.5" stroke-linejoin="round"/>
<path d="M98.5601 76.1016L113.455 90.9891" stroke="#BB3216" stroke-width="1.5" stroke-linejoin="round"/>
<path d="M106.06 68.6016L120.955 83.4891" stroke="#BB3216" stroke-width="1.5" stroke-linejoin="round"/>
<path d="M113.56 61.1016L128.455 75.9891" stroke="#BB3216" stroke-width="1.5" stroke-linejoin="round"/>
</svg>
