<svg width="137" height="137" viewBox="0 0 137 137" fill="none" xmlns="http://www.w3.org/2000/svg">
<path opacity="0.7" d="M31.1934 83.4966L16.1206 68.5894L31.1934 53.8477L45.7697 68.5894L31.1934 83.4966Z" fill="#F5C445"/>
<path opacity="0.7" d="M106.072 83.4966L90.999 68.5894L106.072 53.8477L120.648 68.5894L106.072 83.4966Z" fill="#F5C445"/>
<path opacity="0.7" d="M68.749 83.4966L53.6763 68.5894L68.749 53.8477L83.3254 68.5894L68.749 83.4966Z" fill="#F5C445"/>
<path opacity="0.7" d="M68.749 46.565L53.6763 31.6577L68.749 16.916L83.3254 31.6577L68.749 46.565Z" fill="#F5C445"/>
<path opacity="0.7" d="M68.749 121.002L53.6763 106.095L68.749 91.3535L83.3254 106.095L68.749 121.002Z" fill="#F5C445"/>
<path d="M68.5004 0.999588L1 68.5L68.5004 136L136.001 68.5L68.5004 0.999588Z" stroke="#BB3216" stroke-width="1.5" stroke-linejoin="round"/>
<path d="M30.9963 53.4993L15.9985 68.4971L30.9963 83.4948L45.994 68.4971L30.9963 53.4993Z" stroke="#BB3216" stroke-width="1.5" stroke-linejoin="round"/>
<path d="M68.5007 53.5023L53.5029 68.5L68.5007 83.4977L83.4984 68.5L68.5007 53.5023Z" stroke="#BB3216" stroke-width="1.5" stroke-linejoin="round"/>
<path d="M105.997 53.5062L90.999 68.5039L105.997 83.5016L120.994 68.5039L105.997 53.5062Z" stroke="#BB3216" stroke-width="1.5" stroke-linejoin="round"/>
<path d="M68.4968 91.0062L53.499 106.004L68.4968 121.002L83.4945 106.004L68.4968 91.0062Z" stroke="#BB3216" stroke-width="1.5" stroke-linejoin="round"/>
<path d="M68.4968 16.5687L53.499 31.5664L68.4968 46.5641L83.4945 31.5664L68.4968 16.5687Z" stroke="#BB3216" stroke-width="1.5" stroke-linejoin="round"/>
<path d="M68.5 16.5625V54.2803" stroke="#BB3216" stroke-width="1.5" stroke-linejoin="round"/>
<path d="M53.5 31.5625H68.5" stroke="#BB3216" stroke-width="1.5" stroke-linejoin="round"/>
<path d="M15.999 83.501L38.5 61" stroke="#BB3216" stroke-width="1.5" stroke-linejoin="round"/>
<path d="M38.5 76L23.5 61" stroke="#BB3216" stroke-width="1.5" stroke-linejoin="round"/>
<path d="M31 68.5003V54.2803" stroke="#BB3216" stroke-width="1.5" stroke-linejoin="round"/>
<path d="M45.3257 68.501L121 68.501" stroke="#BB3216" stroke-width="1.5" stroke-linejoin="round"/>
<path d="M68.5 31.5627L83.785 16.2852" stroke="#BB3216" stroke-width="1.5" stroke-linejoin="round"/>
<path d="M38.5 76L76 113.5" stroke="#BB3216" stroke-width="1.5" stroke-linejoin="round"/>
<path d="M16 68.5H1" stroke="#BB3216" stroke-width="1.5" stroke-linejoin="round"/>
<path d="M38.5 61L61 38.5" stroke="#BB3216" stroke-width="1.5" stroke-linejoin="round"/>
<path d="M34.6465 102.351L68.5005 68.4971" stroke="#BB3216" stroke-width="1.5" stroke-linejoin="round"/>
<path d="M91 68.5V23.5" stroke="#BB3216" stroke-width="1.5" stroke-linejoin="round"/>
<path d="M83.5 31.5625H91" stroke="#BB3216" stroke-width="1.5" stroke-linejoin="round"/>
<path d="M106 53.5V68.5" stroke="#BB3216" stroke-width="1.5" stroke-linejoin="round"/>
<path d="M68.5 106L98.5 76" stroke="#BB3216" stroke-width="1.5" stroke-linejoin="round"/>
<path d="M68.5 106H38.5" stroke="#BB3216" stroke-width="1.5" stroke-linejoin="round"/>
<path d="M68.5 121L76 128.5" stroke="#BB3216" stroke-width="1.5" stroke-linejoin="round"/>
<path d="M68.5 53.5V91" stroke="#BB3216" stroke-width="1.5" stroke-linejoin="round"/>
<path d="M121 68.5H136" stroke="#BB3216" stroke-width="1.5" stroke-linejoin="round"/>
<path d="M68.5 16.5625V1" stroke="#BB3216" stroke-width="1.5" stroke-linejoin="round"/>
</svg>
