<svg width="137" height="137" viewBox="0 0 137 137" fill="none" xmlns="http://www.w3.org/2000/svg">
<path opacity="0.7" d="M8.99463 68.3456H1L68.4864 1L136.047 68.3456H127.87L106.247 46.0439H90.863H68.4839V83.5137H90.863V68.3456L106.247 83.5137H121.201L113.347 91.4746H24.2711L16.2026 83.5137H46.1098V31.3379L8.99463 68.3456Z" fill="#F5C445"/>
<path d="M68.497 1.04305L0.996582 68.5435L68.497 136.044L135.997 68.5435L68.497 1.04305Z" stroke="#BB3216" stroke-width="1.5" stroke-linejoin="round"/>
<path d="M68.4966 91.0437V1.68115" stroke="#BB3216" stroke-width="1.5" stroke-linejoin="round"/>
<path d="M90.9966 68.5356H135.997" stroke="#BB3216" stroke-width="1.5" stroke-linejoin="round"/>
<path d="M102.247 102.293L90.9966 91.0435" stroke="#BB3216" stroke-width="1.5" stroke-linejoin="round"/>
<path d="M90.9966 23.5435V113.543" stroke="#BB3216" stroke-width="1.5" stroke-linejoin="round"/>
<path d="M113.497 46.0435L68.4966 46.0435" stroke="#BB3216" stroke-width="1.5" stroke-linejoin="round"/>
<path d="M30.9966 83.5435V91.0435" stroke="#BB3216" stroke-width="1.5" stroke-linejoin="round"/>
<path d="M120.997 83.5435H68.4966" stroke="#BB3216" stroke-width="1.5" stroke-linejoin="round"/>
<path d="M45.9966 83.5435H15.9966" stroke="#BB3216" stroke-width="1.5" stroke-linejoin="round"/>
<path d="M23.4966 91.0435H113.497" stroke="#BB3216" stroke-width="1.5" stroke-linejoin="round"/>
<path d="M90.9966 98.5435H30.9966" stroke="#BB3216" stroke-width="1.5" stroke-linejoin="round"/>
<path d="M45.9966 113.543V31.0435" stroke="#BB3216" stroke-width="1.5" stroke-linejoin="round"/>
<path d="M0.996582 68.5435H60.9966" stroke="#BB3216" stroke-width="1.5" stroke-linejoin="round"/>
<path d="M8.27148 68.7684L68.639 8.40088" stroke="#BB3216" stroke-width="1.5" stroke-linejoin="round"/>
<path d="M68.4966 8.54346L128.497 68.5435" stroke="#BB3216" stroke-width="1.5" stroke-linejoin="round"/>
<path d="M60.9967 53.7163H23.3242" stroke="#BB3216" stroke-width="1.5" stroke-linejoin="round"/>
<path d="M45.9966 46.0435H30.9966" stroke="#BB3216" stroke-width="1.5" stroke-linejoin="round"/>
<path d="M45.9966 53.5435L15.9966 83.5435" stroke="#BB3216" stroke-width="1.5" stroke-linejoin="round"/>
<path d="M90.9966 68.5356L106.004 83.5431" stroke="#BB3216" stroke-width="1.5" stroke-linejoin="round"/>
</svg>
