<svg width="81" height="141" viewBox="0 0 81 141" fill="none" xmlns="http://www.w3.org/2000/svg">
<path d="M40.2262 35.0568C42.6551 26.7473 50.3092 20.659 59.3855 20.659H74.6937C67.7586 8.85001 54.9272 0.908081 40.2262 0.908081C25.5412 0.908081 12.7098 8.85001 5.75874 20.659H21.051C30.1273 20.659 37.7973 26.7473 40.2102 35.0568H40.2262Z" fill="#C24930"/>
<path d="M54.6551 83.699V100.813C54.6551 108.659 57.7072 116.026 63.2521 121.587L80.6378 138.973L80.3182 71.2987H67.0392C60.2 71.2987 54.6391 76.8597 54.6391 83.699H54.6551Z" fill="#C24930"/>
<path d="M53.0555 100.814V83.6993C53.0555 75.9811 59.3354 69.7011 67.0534 69.7011H80.3323L80.1884 40.8576C80.1884 34.1461 78.5266 27.8182 75.5864 22.2572H59.3833C49.3163 22.2572 41.1189 30.3909 41.023 40.4262C41.023 40.4901 41.023 40.554 41.023 40.6339V60.9921H39.4251V40.6339H39.4091C39.4091 40.6339 39.4091 40.5061 39.4091 40.4262C39.2973 30.3909 31.0999 22.2572 21.0489 22.2572H4.87775C1.95352 27.8182 0.275696 34.1461 0.275696 40.8576V67.1123C0.275696 80.5833 5.62878 93.5109 15.1525 103.035L42.9406 130.824C48.8689 136.752 56.9225 140.092 65.2957 140.092H79.4854L62.0998 122.706C56.2514 116.857 53.0235 109.075 53.0235 100.814H53.0555ZM21.0648 51.8357C14.8808 51.8357 9.87928 46.8341 9.87928 40.6499C9.87928 34.4657 14.8808 29.4641 21.0648 29.4641C27.2488 29.4641 32.2504 34.4657 32.2504 40.6499C32.2504 46.8341 27.2488 51.8357 21.0648 51.8357ZM48.2297 40.6499C48.2297 34.4657 53.2313 29.4641 59.4153 29.4641C65.5993 29.4641 70.6008 34.4657 70.6008 40.6499C70.6008 46.8341 65.5993 51.8357 59.4153 51.8357C53.2313 51.8357 48.2297 46.8341 48.2297 40.6499Z" fill="#C24930"/>
</svg>
